<svg width="1512" height="764" viewBox="0 0 1512 764" fill="none" xmlns="http://www.w3.org/2000/svg">
<path d="M-237.552 67.5455C-260.722 25.4857 -165.183 11.8521 -8.89268 11.7423C-2.48912 4.51085 1.12679 0 1.12679 0L-1.31439 11.7474C351.209 12.4622 1000.67 79.1174 1306.15 46.9042C1750.94 0 1446.49 539.695 1548.44 518.422C1650.39 497.15 1481.71 784.332 1148.9 762.851C816.087 741.371 204.341 506.276 202.126 620.803C199.911 735.329 -123.459 599.53 -123.459 599.53L-1.31439 11.7474C-3.856 11.7423 -6.38219 11.7405 -8.89268 11.7423C-45.5512 53.1403 -173.568 183.699 -237.552 67.5455Z" fill="url(#paint0_linear_367_1656)" fill-opacity="0.34"/>
<defs>
<linearGradient id="paint0_linear_367_1656" x1="668.5" y1="0" x2="668.5" y2="764" gradientUnits="userSpaceOnUse">
<stop stop-color="#FFF2B3"/>
<stop offset="1" stop-color="#FFF2B3" stop-opacity="0"/>
</linearGradient>
</defs>
</svg>
