<svg width="762" height="751" viewBox="0 0 762 751" fill="none" xmlns="http://www.w3.org/2000/svg">
<path d="M189.573 230.795C230.497 173.95 279.753 125.267 315.447 102.407C351.141 79.5462 412.829 65.9134 454.117 81.9875C495.404 98.0615 554.848 192.66 566.454 198.771C578.06 204.882 638.962 272.133 669.099 304.084C699.235 336.035 705.046 435.444 664.279 499.296C623.512 563.148 544.321 518.351 399.911 620.786C255.502 723.221 192.749 676.463 202.492 535.809C212.236 395.155 122.833 323.499 189.573 230.795Z" fill="#DEECF5"/>
<path d="M356.578 163.968C352.758 166.508 354.358 170.065 352.992 175.055C351.136 182.339 354.886 185.132 358.717 183.738C362.391 182.389 362.703 177.848 366.094 175.577C369.485 173.305 374.593 174.413 377.156 171.663C379.72 168.912 377.801 164.872 369.443 164.272C363.715 163.917 360.439 161.561 356.578 163.968Z" fill="#839AA9"/>
<path d="M345.278 167.663C349.326 168.648 352.057 171.448 351.058 173.747C350.059 176.045 345.992 177.22 341.747 176.149C337.699 175.165 334.968 172.365 335.967 170.066C336.966 167.768 341.074 166.724 345.278 167.663Z" fill="#839AA9"/>
<path d="M363.874 155.543C363.673 159.334 365.935 162.27 368.797 162.161C371.658 162.052 374.1 158.906 374.145 155.16C374.346 151.369 372.085 148.433 369.223 148.542C366.518 148.606 364.076 151.752 363.874 155.543Z" fill="#839AA9"/>
<path d="M348.587 156.227C351.787 158.891 352.762 162.63 350.622 164.54C348.483 166.45 344.046 165.866 340.846 163.201C337.646 160.536 336.671 156.798 338.811 154.887C340.991 153.109 345.23 153.607 348.587 156.227Z" fill="#839AA9"/>
<path d="M350.575 154.934C352.489 158.402 356.153 160.358 359.005 159.104C361.7 157.894 362.411 154.1 360.457 150.5C358.543 147.033 354.879 145.077 352.027 146.331C349.332 147.541 348.662 151.467 350.575 154.934Z" fill="#839AA9"/>
<path d="M608.001 398.918C603.55 397.81 602.003 401.391 597.397 403.747C590.767 407.289 591.234 411.942 594.847 413.83C598.32 415.634 601.884 412.802 605.848 413.773C609.813 414.745 612.439 419.264 616.199 419.302C619.958 419.339 621.647 415.198 616.454 408.622C612.853 404.153 612.383 400.145 608.001 398.918Z" fill="#839AA9"/>
<path d="M597.652 393.067C599.655 396.72 599.43 400.625 597.059 401.438C594.688 402.25 591.077 400.039 589.005 396.183C587.001 392.531 587.227 388.625 589.598 387.813C591.969 387 595.51 389.33 597.652 393.067Z" fill="#839AA9"/>
<path d="M619.143 398.623C616.208 401.032 615.566 404.682 617.576 406.721C619.586 408.761 623.556 408.442 626.352 405.949C629.287 403.54 629.93 399.89 627.919 397.851C626.048 395.896 622.078 396.215 619.143 398.623Z" fill="#839AA9"/>
<path d="M608.328 387.797C608.519 391.957 606.416 395.198 603.562 394.907C600.709 394.615 598.149 390.945 597.958 386.785C597.767 382.625 599.87 379.384 602.723 379.675C605.506 380.086 607.998 383.552 608.328 387.797Z" fill="#839AA9"/>
<path d="M610.623 388.393C609.353 392.145 610.38 396.17 613.23 397.429C615.94 398.603 619.221 396.569 620.561 392.699C621.831 388.948 620.804 384.923 617.954 383.663C615.244 382.489 611.892 384.642 610.623 388.393Z" fill="#839AA9"/>
<path d="M490.817 347.255C486.366 346.147 484.818 349.728 480.213 352.083C473.583 355.626 474.05 360.278 477.663 362.167C481.136 363.97 484.699 361.138 488.664 362.109C492.629 363.081 495.255 367.6 499.015 367.638C502.774 367.676 504.463 363.534 499.27 356.958C495.668 352.489 495.198 348.481 490.817 347.255Z" fill="#839AA9"/>
<path d="M480.468 341.404C482.471 345.056 482.245 348.961 479.875 349.774C477.504 350.587 473.893 348.376 471.821 344.519C469.817 340.867 470.043 336.962 472.414 336.149C474.785 335.336 478.326 337.666 480.468 341.404Z" fill="#839AA9"/>
<path d="M501.959 346.96C499.024 349.368 498.381 353.018 500.392 355.057C502.402 357.097 506.372 356.778 509.168 354.285C512.103 351.877 512.745 348.227 510.735 346.187C508.864 344.233 504.893 344.551 501.959 346.96Z" fill="#839AA9"/>
<path d="M491.144 336.133C491.334 340.293 489.232 343.535 486.378 343.243C483.525 342.952 480.964 339.282 480.774 335.121C480.583 330.961 482.685 327.72 485.539 328.012C488.322 328.422 490.814 331.888 491.144 336.133Z" fill="#839AA9"/>
<path d="M493.439 336.73C492.169 340.481 493.196 344.506 496.045 345.765C498.756 346.94 502.037 344.905 503.377 341.035C504.646 337.284 503.619 333.259 500.77 332C498.06 330.825 494.708 332.979 493.439 336.73Z" fill="#839AA9"/>
<path d="M260.817 423.255C256.366 422.147 254.818 425.728 250.213 428.083C243.583 431.626 244.05 436.278 247.662 438.167C251.136 439.97 254.699 437.138 258.664 438.11C262.628 439.081 265.255 443.6 269.014 443.638C272.774 443.676 274.463 439.534 269.27 432.958C265.668 428.489 265.198 424.481 260.817 423.255Z" fill="#839AA9"/>
<path d="M250.468 417.404C252.471 421.056 252.245 424.961 249.874 425.774C247.504 426.587 243.893 424.376 241.82 420.519C239.817 416.867 240.043 412.962 242.414 412.149C244.785 411.336 248.325 413.666 250.468 417.404Z" fill="#839AA9"/>
<path d="M271.959 422.96C269.024 425.368 268.381 429.018 270.392 431.057C272.402 433.097 276.372 432.778 279.168 430.285C282.103 427.877 282.745 424.227 280.735 422.187C278.863 420.233 274.893 420.551 271.959 422.96Z" fill="#839AA9"/>
<path d="M261.143 412.133C261.334 416.293 259.232 419.535 256.378 419.243C253.525 418.952 250.964 415.282 250.773 411.121C250.583 406.961 252.685 403.72 255.539 404.012C258.322 404.422 260.814 407.888 261.143 412.133Z" fill="#839AA9"/>
<path d="M263.439 412.73C262.169 416.481 263.196 420.506 266.045 421.765C268.756 422.94 272.037 420.905 273.377 417.035C274.646 413.284 273.619 409.259 270.77 408C268.06 406.825 264.708 408.979 263.439 412.73Z" fill="#839AA9"/>
<path d="M319.957 576.259C315.956 574.014 313.518 577.059 308.453 578.114C301.123 579.778 300.344 584.389 303.329 587.165C306.202 589.822 310.388 588.032 313.954 590.017C317.521 592.002 318.86 597.054 322.476 598.084C326.092 599.114 328.815 595.566 325.544 587.851C323.252 582.589 323.858 578.6 319.957 576.259Z" fill="#839AA9"/>
<path d="M311.522 567.881C312.489 571.933 311.239 575.64 308.737 575.797C306.236 575.954 303.338 572.868 302.358 568.601C301.391 564.549 302.641 560.842 305.143 560.685C307.644 560.528 310.443 563.71 311.522 567.881Z" fill="#839AA9"/>
<path d="M330.78 578.919C327.313 580.466 325.729 583.817 327.129 586.315C328.529 588.813 332.442 589.555 335.797 587.889C339.264 586.342 340.848 582.992 339.449 580.493C338.16 578.114 334.247 577.372 330.78 578.919Z" fill="#839AA9"/>
<path d="M323.211 565.62C322.295 569.682 319.411 572.252 316.736 571.217C314.061 570.182 312.561 565.966 313.477 561.903C314.392 557.84 317.277 555.27 319.952 556.305C322.528 557.437 324.015 561.438 323.211 565.62Z" fill="#839AA9"/>
<path d="M325.267 566.801C323.051 570.084 322.978 574.237 325.393 576.205C327.696 578.053 331.399 576.958 333.713 573.58C335.929 570.298 336.002 566.144 333.587 564.177C331.284 562.328 327.482 563.519 325.267 566.801Z" fill="#839AA9"/>
<path d="M328.112 279.025C326.796 275.915 323.186 274.451 320.077 275.767C317.335 276.927 315.881 279.762 316.44 282.564L299.91 289.559C298.287 287.206 295.24 286.276 292.499 287.436C289.389 288.752 287.926 292.362 289.242 295.472C289.813 296.822 290.8 297.9 292.075 298.518C291.648 299.905 291.717 301.323 292.289 302.673C293.605 305.783 297.215 307.246 300.324 305.93C303.066 304.77 304.52 301.936 303.961 299.133L320.45 292.156C322.073 294.509 325.12 295.439 327.861 294.279C330.971 292.963 332.434 289.353 331.118 286.243C330.547 284.893 329.56 283.815 328.286 283.197C328.753 281.793 328.684 280.375 328.112 279.025ZM326.44 284.991C327.576 285.282 328.5 286.097 328.95 287.161C329.764 289.084 328.867 291.297 326.944 292.11C325.061 292.907 322.883 292.092 322.029 290.186C321.769 289.572 321.088 289.33 320.474 289.589L302.102 297.363C301.489 297.623 301.246 298.304 301.448 298.894C302.203 300.794 301.33 302.948 299.407 303.762C297.484 304.575 295.271 303.679 294.457 301.755C294.007 300.692 294.065 299.461 294.648 298.443C294.847 298.117 294.832 297.738 294.693 297.41C294.555 297.083 294.253 296.825 293.92 296.724C292.784 296.433 291.86 295.618 291.41 294.554C290.597 292.631 291.494 290.418 293.417 289.605C295.299 288.808 297.477 289.623 298.331 291.529C298.591 292.143 299.273 292.385 299.886 292.126L318.34 284.317C318.953 284.058 319.196 283.376 318.994 282.786C318.239 280.887 319.112 278.732 321.035 277.919C322.958 277.105 325.171 278.002 325.985 279.925C326.435 280.989 326.377 282.219 325.794 283.238C325.594 283.563 325.61 283.943 325.749 284.27C325.805 284.632 326.108 284.89 326.44 284.991Z" fill="#839AA9"/>
<path d="M306.599 282.338C307.213 282.079 307.496 281.38 307.237 280.766L306.007 277.861C305.748 277.247 305.049 276.964 304.435 277.224C303.822 277.483 303.538 278.182 303.798 278.796L305.027 281.701C305.287 282.315 305.986 282.598 306.599 282.338Z" fill="#839AA9"/>
<path d="M310.99 281.542C311.188 281.554 311.328 281.543 311.492 281.474C311.901 281.301 312.207 280.882 312.214 280.445L312.334 277.307C312.354 276.671 311.832 276.12 311.179 276.059C310.543 276.038 309.992 276.561 309.931 277.214L309.811 280.352C309.791 280.988 310.313 281.539 310.99 281.542Z" fill="#839AA9"/>
<path d="M301.313 285.009C301.691 285.332 302.146 285.38 302.555 285.207C302.719 285.138 302.865 285.028 302.953 284.894C303.381 284.424 303.35 283.665 302.862 283.196L300.526 281.097C300.056 280.669 299.297 280.7 298.828 281.188C298.4 281.659 298.432 282.417 298.92 282.886L301.313 285.009Z" fill="#839AA9"/>
<path d="M313.802 299.359C313.188 299.619 312.905 300.318 313.164 300.932L314.394 303.837C314.653 304.45 315.352 304.734 315.966 304.474C316.579 304.214 316.863 303.515 316.603 302.902L315.374 299.997C315.114 299.383 314.415 299.1 313.802 299.359Z" fill="#839AA9"/>
<path d="M309.411 300.156C308.775 300.136 308.224 300.658 308.163 301.311L308.043 304.449C308.023 305.085 308.545 305.636 309.199 305.697C309.397 305.71 309.537 305.699 309.701 305.629C310.11 305.456 310.415 305.038 310.423 304.6L310.542 301.462C310.61 300.71 310.087 300.159 309.411 300.156Z" fill="#839AA9"/>
<path d="M319.088 296.689C318.617 296.26 317.859 296.292 317.39 296.78C316.962 297.25 316.993 298.009 317.481 298.478L319.816 300.577C320.194 300.9 320.649 300.949 321.058 300.775C321.222 300.706 321.368 300.596 321.456 300.462C321.884 299.992 321.853 299.233 321.365 298.764L319.088 296.689Z" fill="#839AA9"/>
<path d="M442.112 488.025C440.796 484.915 437.186 483.451 434.077 484.767C431.335 485.927 429.881 488.762 430.44 491.564L413.91 498.559C412.287 496.206 409.24 495.276 406.499 496.436C403.389 497.752 401.926 501.362 403.242 504.472C403.813 505.822 404.8 506.9 406.075 507.518C405.648 508.905 405.717 510.323 406.289 511.673C407.605 514.783 411.215 516.246 414.324 514.93C417.066 513.77 418.52 510.936 417.961 508.133L434.45 501.156C436.073 503.509 439.12 504.439 441.861 503.279C444.971 501.963 446.434 498.353 445.118 495.243C444.547 493.893 443.56 492.815 442.286 492.196C442.753 490.793 442.684 489.375 442.112 488.025ZM440.44 493.991C441.576 494.282 442.5 495.097 442.95 496.161C443.764 498.084 442.867 500.296 440.944 501.11C439.061 501.907 436.883 501.091 436.029 499.186C435.769 498.572 435.088 498.33 434.474 498.589L416.102 506.363C415.489 506.623 415.246 507.304 415.448 507.894C416.203 509.794 415.33 511.948 413.407 512.762C411.484 513.575 409.271 512.679 408.457 510.755C408.007 509.692 408.065 508.461 408.648 507.443C408.847 507.117 408.832 506.738 408.693 506.41C408.555 506.083 408.253 505.825 407.92 505.724C406.784 505.433 405.86 504.618 405.41 503.554C404.597 501.631 405.494 499.418 407.417 498.605C409.299 497.808 411.477 498.623 412.331 500.529C412.591 501.143 413.273 501.385 413.886 501.126L432.34 493.317C432.953 493.058 433.196 492.376 432.994 491.786C432.239 489.887 433.112 487.732 435.035 486.918C436.958 486.105 439.171 487.002 439.985 488.925C440.435 489.989 440.377 491.219 439.794 492.238C439.594 492.563 439.61 492.943 439.749 493.27C439.805 493.632 440.108 493.89 440.44 493.991Z" fill="#839AA9"/>
<path d="M420.599 491.338C421.213 491.078 421.496 490.38 421.237 489.766L420.007 486.861C419.748 486.247 419.049 485.964 418.435 486.224C417.822 486.483 417.538 487.182 417.798 487.796L419.027 490.701C419.287 491.315 419.986 491.598 420.599 491.338Z" fill="#839AA9"/>
<path d="M424.99 490.542C425.188 490.554 425.328 490.543 425.492 490.474C425.901 490.301 426.207 489.882 426.214 489.445L426.334 486.307C426.354 485.671 425.832 485.12 425.179 485.059C424.543 485.038 423.992 485.561 423.931 486.214L423.811 489.352C423.791 489.988 424.313 490.539 424.99 490.542Z" fill="#839AA9"/>
<path d="M415.313 494.009C415.691 494.332 416.146 494.38 416.555 494.207C416.719 494.138 416.865 494.028 416.953 493.894C417.381 493.424 417.35 492.665 416.862 492.196L414.526 490.097C414.056 489.669 413.297 489.7 412.828 490.188C412.4 490.659 412.432 491.417 412.92 491.886L415.313 494.009Z" fill="#839AA9"/>
<path d="M427.802 508.359C427.188 508.619 426.905 509.318 427.164 509.932L428.394 512.837C428.653 513.45 429.352 513.734 429.966 513.474C430.579 513.214 430.863 512.515 430.603 511.902L429.374 508.997C429.114 508.383 428.415 508.1 427.802 508.359Z" fill="#839AA9"/>
<path d="M423.411 509.156C422.775 509.135 422.224 509.658 422.163 510.311L422.043 513.449C422.023 514.085 422.545 514.636 423.199 514.697C423.397 514.71 423.537 514.699 423.701 514.629C424.11 514.456 424.415 514.038 424.423 513.6L424.542 510.462C424.61 509.71 424.087 509.159 423.411 509.156Z" fill="#839AA9"/>
<path d="M433.088 505.688C432.617 505.26 431.859 505.292 431.39 505.78C430.962 506.25 430.993 507.009 431.481 507.478L433.816 509.577C434.194 509.9 434.649 509.949 435.058 509.775C435.222 509.706 435.368 509.596 435.456 509.462C435.884 508.992 435.853 508.233 435.365 507.764L433.088 505.688Z" fill="#839AA9"/>
</svg>
