<svg width="765" height="755" viewBox="0 0 765 755" fill="none" xmlns="http://www.w3.org/2000/svg">
<path d="M574.193 521.148C533.504 578.161 484.449 627.047 448.85 650.055C413.25 673.062 351.619 686.949 310.265 671.046C268.912 655.142 209.078 560.789 197.447 554.726C185.816 548.663 124.637 481.665 94.3689 449.838C64.1012 418.012 57.8802 318.628 98.3836 254.608C138.887 190.588 218.262 235.058 362.248 132.028C506.234 28.9983 569.179 75.4974 560.016 216.19C550.852 356.884 640.55 428.17 574.193 521.148Z" fill="#FFFEDE"/>
<path d="M407.465 588.663C411.274 586.108 409.659 582.557 411.005 577.562C412.831 570.271 409.069 567.493 405.245 568.903C401.576 570.266 401.283 574.809 397.901 577.094C394.519 579.38 389.407 578.293 386.855 581.054C384.303 583.815 386.238 587.847 394.598 588.413C400.328 588.744 403.614 591.087 407.465 588.663Z" fill="#839AA9"/>
<path d="M418.749 584.922C414.697 583.954 411.955 581.165 412.944 578.862C413.934 576.56 417.997 575.368 422.246 576.421C426.298 577.389 429.04 580.178 428.051 582.48C427.061 584.783 422.958 585.843 418.749 584.922Z" fill="#839AA9"/>
<path d="M400.203 597.119C400.389 593.327 398.115 590.4 395.254 590.521C392.393 590.641 389.963 593.798 389.934 597.544C389.748 601.336 392.022 604.262 394.883 604.142C397.588 604.067 400.018 600.91 400.203 597.119Z" fill="#839AA9"/>
<path d="M415.488 596.372C412.276 593.72 411.286 589.986 413.418 588.067C415.55 586.148 419.989 586.714 423.2 589.366C426.411 592.017 427.401 595.752 425.27 597.671C423.097 599.458 418.855 598.978 415.488 596.372Z" fill="#839AA9"/>
<path d="M413.505 597.672C411.577 594.213 407.904 592.272 405.058 593.538C402.368 594.758 401.673 598.556 403.642 602.147C405.569 605.606 409.242 607.548 412.088 606.282C414.778 605.061 415.432 601.132 413.505 597.672Z" fill="#839AA9"/>
<path d="M155.075 354.752C159.531 355.842 161.063 352.255 165.659 349.88C172.274 346.31 171.788 341.66 168.168 339.786C164.687 337.997 161.135 340.844 157.167 339.889C153.198 338.933 150.553 334.425 146.793 334.403C143.033 334.381 141.362 338.529 146.582 345.084C150.202 349.538 150.688 353.544 155.075 354.752Z" fill="#839AA9"/>
<path d="M165.448 360.561C163.429 356.917 163.639 353.011 166.007 352.188C168.374 351.366 171.994 353.562 174.082 357.409C176.101 361.054 175.891 364.96 173.524 365.782C171.156 366.605 167.606 364.289 165.448 360.561Z" fill="#839AA9"/>
<path d="M143.934 355.093C146.859 352.673 147.486 349.02 145.468 346.989C143.449 344.958 139.48 345.293 136.695 347.798C133.77 350.218 133.142 353.871 135.161 355.902C137.041 357.849 141.01 357.514 143.934 355.093Z" fill="#839AA9"/>
<path d="M154.794 365.875C154.586 361.716 156.675 358.466 159.53 358.746C162.385 359.025 164.96 362.685 165.168 366.844C165.376 371.003 163.287 374.253 160.432 373.973C157.647 373.575 155.141 370.119 154.794 365.875Z" fill="#839AA9"/>
<path d="M152.496 365.288C153.75 361.532 152.707 357.511 149.852 356.263C147.137 355.1 143.864 357.148 142.541 361.024C141.287 364.78 142.33 368.801 145.185 370.048C147.9 371.211 151.242 369.044 152.496 365.288Z" fill="#839AA9"/>
<path d="M272.471 405.932C276.927 407.022 278.459 403.434 283.055 401.06C289.67 397.49 289.184 392.839 285.564 390.966C282.083 389.177 278.531 392.024 274.563 391.069C270.594 390.113 267.949 385.605 264.189 385.583C260.43 385.561 258.758 389.709 263.978 396.264C267.598 400.718 268.085 404.724 272.471 405.932Z" fill="#839AA9"/>
<path d="M282.844 411.741C280.826 408.096 281.035 404.19 283.403 403.368C285.77 402.546 289.39 404.741 291.478 408.589C293.497 412.233 293.287 416.139 290.92 416.962C288.552 417.784 285.002 415.469 282.844 411.741Z" fill="#839AA9"/>
<path d="M261.331 406.273C264.255 403.853 264.883 400.2 262.864 398.169C260.845 396.138 256.876 396.473 254.091 398.978C251.166 401.398 250.539 405.051 252.557 407.082C254.437 409.029 258.406 408.694 261.331 406.273Z" fill="#839AA9"/>
<path d="M272.19 417.055C271.982 412.896 274.072 409.646 276.926 409.926C279.781 410.205 282.356 413.865 282.564 418.024C282.772 422.183 280.683 425.433 277.828 425.153C275.043 424.755 272.537 421.299 272.19 417.055Z" fill="#839AA9"/>
<path d="M269.893 416.468C271.147 412.711 270.103 408.691 267.249 407.443C264.533 406.28 261.26 408.328 259.937 412.203C258.683 415.96 259.726 419.981 262.581 421.228C265.296 422.391 268.639 420.224 269.893 416.468Z" fill="#839AA9"/>
<path d="M502.156 328.984C506.611 330.074 508.144 326.486 512.74 324.112C519.355 320.542 518.869 315.891 515.248 314.018C511.767 312.229 508.216 315.076 504.247 314.121C500.279 313.165 497.634 308.657 493.874 308.635C490.114 308.613 488.442 312.761 493.663 319.316C497.283 323.77 497.769 327.776 502.156 328.984Z" fill="#839AA9"/>
<path d="M512.529 334.793C510.51 331.148 510.72 327.242 513.087 326.42C515.455 325.597 519.075 327.793 521.163 331.641C523.181 335.285 522.972 339.191 520.604 340.014C518.237 340.836 514.686 338.521 512.529 334.793Z" fill="#839AA9"/>
<path d="M491.015 329.325C493.94 326.905 494.567 323.252 492.549 321.221C490.53 319.19 486.561 319.525 483.775 322.03C480.851 324.45 480.223 328.103 482.242 330.134C484.122 332.081 488.09 331.745 491.015 329.325Z" fill="#839AA9"/>
<path d="M501.875 340.107C501.667 335.947 503.756 332.698 506.611 332.977C509.465 333.257 512.041 336.917 512.249 341.076C512.457 345.235 510.368 348.485 507.513 348.205C504.728 347.806 502.222 344.351 501.875 340.107Z" fill="#839AA9"/>
<path d="M499.577 339.52C500.831 335.763 499.788 331.743 496.933 330.495C494.218 329.332 490.945 331.38 489.621 335.255C488.367 339.012 489.411 343.033 492.265 344.28C494.981 345.443 498.323 343.276 499.577 339.52Z" fill="#839AA9"/>
<path d="M442.385 176.225C446.395 178.454 448.821 175.399 453.881 174.323C461.204 172.629 461.964 168.014 458.968 165.251C456.083 162.606 451.906 164.413 448.331 162.443C444.756 160.472 443.396 155.426 439.776 154.411C436.156 153.396 433.447 156.955 436.75 164.656C439.064 169.908 438.474 173.9 442.385 176.225Z" fill="#839AA9"/>
<path d="M450.855 184.568C449.871 180.52 451.106 176.808 453.606 176.641C456.107 176.473 459.018 179.548 460.015 183.811C460.999 187.859 459.764 191.57 457.264 191.738C454.763 191.906 451.95 188.735 450.855 184.568Z" fill="#839AA9"/>
<path d="M431.551 173.61C435.011 172.048 436.582 168.691 435.172 166.199C433.761 163.707 429.845 162.981 426.497 164.66C423.036 166.222 421.466 169.579 422.876 172.071C424.174 174.445 428.091 175.171 431.551 173.61Z" fill="#839AA9"/>
<path d="M439.175 186.878C440.074 182.812 442.948 180.23 445.627 181.254C448.306 182.278 449.823 186.488 448.924 190.554C448.026 194.621 445.152 197.203 442.473 196.178C439.892 195.058 438.389 191.063 439.175 186.878Z" fill="#839AA9"/>
<path d="M437.114 185.705C439.317 182.413 439.373 178.259 436.949 176.302C434.638 174.463 430.94 175.573 428.64 178.961C426.437 182.252 426.381 186.406 428.805 188.363C431.116 190.203 434.912 188.996 437.114 185.705Z" fill="#839AA9"/>
<path d="M435.456 473.491C436.784 476.595 440.401 478.043 443.505 476.715C446.241 475.544 447.684 472.703 447.113 469.903L463.615 462.84C465.247 465.186 468.298 466.104 471.034 464.932C474.138 463.604 475.587 459.987 474.258 456.883C473.681 455.535 472.69 454.462 471.413 453.848C471.834 452.46 471.758 451.043 471.181 449.695C469.853 446.59 466.237 445.142 463.132 446.471C460.396 447.642 458.954 450.482 459.524 453.283L443.064 460.328C441.431 457.982 438.381 457.064 435.644 458.236C432.54 459.564 431.091 463.18 432.42 466.285C432.997 467.632 433.988 468.706 435.265 469.319C434.804 470.725 434.879 472.143 435.456 473.491ZM437.104 467.518C435.966 467.231 435.039 466.42 434.585 465.358C433.763 463.438 434.651 461.222 436.571 460.4C438.449 459.596 440.631 460.402 441.493 462.305C441.756 462.917 442.438 463.157 443.051 462.894L461.39 455.045C462.003 454.783 462.242 454.101 462.038 453.511C461.275 451.615 462.139 449.457 464.059 448.635C465.979 447.814 468.195 448.701 469.017 450.621C469.471 451.683 469.418 452.914 468.84 453.935C468.642 454.261 468.659 454.64 468.799 454.967C468.939 455.294 469.242 455.551 469.574 455.65C470.712 455.937 471.639 456.748 472.093 457.81C472.915 459.729 472.027 461.946 470.108 462.768C468.229 463.572 466.047 462.766 465.185 460.863C464.923 460.251 464.24 460.011 463.628 460.273L445.207 468.158C444.594 468.42 444.354 469.102 444.558 469.691C445.322 471.588 444.457 473.746 442.537 474.568C440.618 475.389 438.401 474.501 437.58 472.582C437.125 471.52 437.178 470.289 437.756 469.268C437.955 468.942 437.938 468.562 437.798 468.236C437.74 467.874 437.436 467.617 437.104 467.518Z" fill="#839AA9"/>
<path d="M456.955 470.088C456.342 470.351 456.062 471.05 456.324 471.663L457.565 474.563C457.828 475.176 458.527 475.456 459.14 475.194C459.753 474.932 460.033 474.232 459.771 473.619L458.53 470.719C458.268 470.106 457.568 469.826 456.955 470.088Z" fill="#839AA9"/>
<path d="M452.567 470.903C452.369 470.891 452.229 470.903 452.066 470.973C451.657 471.148 451.354 471.567 451.348 472.005L451.241 475.143C451.223 475.779 451.748 476.328 452.401 476.387C453.037 476.404 453.586 475.88 453.645 475.226L453.751 472.088C453.769 471.452 453.244 470.903 452.567 470.903Z" fill="#839AA9"/>
<path d="M462.23 467.396C461.851 467.075 461.396 467.028 460.987 467.203C460.824 467.272 460.678 467.383 460.591 467.517C460.165 467.99 460.199 468.748 460.689 469.215L463.033 471.305C463.505 471.731 464.264 471.696 464.731 471.206C465.157 470.734 465.122 469.976 464.632 469.509L462.23 467.396Z" fill="#839AA9"/>
<path d="M449.683 453.097C450.295 452.835 450.576 452.135 450.313 451.522L449.072 448.622C448.81 448.01 448.11 447.729 447.497 447.991C446.885 448.254 446.604 448.954 446.867 449.566L448.108 452.466C448.37 453.079 449.07 453.359 449.683 453.097Z" fill="#839AA9"/>
<path d="M454.07 452.282C454.706 452.3 455.254 451.775 455.313 451.122L455.42 447.984C455.437 447.348 454.913 446.799 454.259 446.74C454.061 446.729 453.921 446.74 453.758 446.81C453.349 446.985 453.046 447.405 453.039 447.842L452.933 450.981C452.868 451.733 453.393 452.282 454.07 452.282Z" fill="#839AA9"/>
<path d="M444.408 455.79C444.88 456.216 445.638 456.181 446.105 455.691C446.531 455.219 446.497 454.461 446.007 453.994L443.663 451.904C443.284 451.583 442.829 451.536 442.42 451.711C442.257 451.781 442.111 451.892 442.023 452.026C441.597 452.498 441.632 453.256 442.122 453.723L444.408 455.79Z" fill="#839AA9"/>
<path d="M320.595 264.963C321.923 268.067 325.539 269.515 328.644 268.187C331.38 267.016 332.822 264.175 332.252 261.375L348.753 254.312C350.386 256.658 353.436 257.576 356.173 256.404C359.277 255.076 360.725 251.46 359.397 248.355C358.82 247.007 357.829 245.934 356.551 245.32C356.972 243.932 356.897 242.515 356.32 241.167C354.992 238.062 351.375 236.614 348.271 237.943C345.535 239.114 344.092 241.954 344.663 244.755L328.202 251.8C326.57 249.454 323.519 248.536 320.783 249.708C317.679 251.036 316.23 254.652 317.559 257.757C318.136 259.104 319.127 260.178 320.404 260.792C319.942 262.197 320.018 263.615 320.595 264.963ZM322.243 258.99C321.105 258.703 320.178 257.892 319.723 256.83C318.902 254.91 319.79 252.694 321.709 251.872C323.588 251.068 325.77 251.874 326.632 253.777C326.894 254.389 327.577 254.629 328.189 254.367L346.529 246.517C347.141 246.255 347.381 245.573 347.177 244.983C346.414 243.087 347.278 240.929 349.198 240.107C351.117 239.286 353.334 240.174 354.155 242.093C354.61 243.155 354.557 244.386 353.979 245.407C353.78 245.733 353.798 246.112 353.937 246.439C354.077 246.766 354.381 247.023 354.713 247.122C355.85 247.409 356.778 248.22 357.232 249.282C358.054 251.202 357.166 253.418 355.246 254.24C353.367 255.044 351.186 254.238 350.324 252.335C350.061 251.723 349.379 251.483 348.766 251.745L330.345 259.63C329.733 259.892 329.493 260.574 329.697 261.164C330.46 263.06 329.596 265.218 327.676 266.04C325.756 266.861 323.54 265.973 322.718 264.054C322.264 262.992 322.317 261.761 322.895 260.74C323.094 260.414 323.076 260.034 322.936 259.708C322.878 259.346 322.575 259.089 322.243 258.99Z" fill="#839AA9"/>
<path d="M342.094 261.56C341.481 261.823 341.201 262.523 341.463 263.135L342.704 266.035C342.966 266.648 343.666 266.928 344.279 266.666C344.891 266.404 345.172 265.704 344.91 265.091L343.668 262.191C343.406 261.579 342.706 261.298 342.094 261.56Z" fill="#839AA9"/>
<path d="M337.706 262.375C337.508 262.363 337.368 262.375 337.204 262.445C336.796 262.62 336.492 263.039 336.486 263.477L336.38 266.615C336.362 267.251 336.887 267.8 337.54 267.859C338.176 267.876 338.725 267.352 338.783 266.698L338.89 263.56C338.908 262.924 338.383 262.375 337.706 262.375Z" fill="#839AA9"/>
<path d="M347.369 258.868C346.99 258.547 346.535 258.5 346.126 258.675C345.963 258.744 345.817 258.855 345.729 258.989C345.303 259.462 345.338 260.22 345.828 260.687L348.172 262.777C348.644 263.203 349.403 263.168 349.869 262.678C350.296 262.206 350.261 261.448 349.771 260.981L347.369 258.868Z" fill="#839AA9"/>
<path d="M334.821 244.569C335.434 244.307 335.714 243.607 335.452 242.994L334.211 240.094C333.949 239.482 333.249 239.201 332.636 239.463C332.023 239.726 331.743 240.426 332.005 241.038L333.246 243.938C333.509 244.551 334.209 244.831 334.821 244.569Z" fill="#839AA9"/>
<path d="M339.209 243.754C339.844 243.772 340.393 243.247 340.452 242.594L340.558 239.456C340.576 238.82 340.051 238.271 339.398 238.212C339.2 238.201 339.06 238.212 338.896 238.282C338.488 238.457 338.184 238.877 338.178 239.314L338.072 242.453C338.007 243.205 338.532 243.754 339.209 243.754Z" fill="#839AA9"/>
<path d="M329.546 247.262C330.019 247.688 330.777 247.653 331.244 247.163C331.67 246.691 331.635 245.933 331.146 245.466L328.801 243.376C328.422 243.055 327.967 243.008 327.559 243.183C327.396 243.253 327.25 243.364 327.162 243.498C326.736 243.97 326.771 244.729 327.26 245.195L329.546 247.262Z" fill="#839AA9"/>
</svg>
