<svg width="360" height="409" viewBox="0 0 360 409" fill="none" xmlns="http://www.w3.org/2000/svg">
<path d="M0 33.188C0 14.9626 14.7746 0.187988 33 0.187988H327C345.225 0.187988 360 14.9626 360 33.188V269.996H0V33.188Z" fill="#FFF1A6"/>
<path d="M92.2062 100.168C91.0862 100.168 90.0782 99.976 89.1822 99.592C88.2862 99.192 87.5822 98.632 87.0702 97.912C86.5582 97.192 86.3022 96.352 86.3022 95.392H89.2302C89.2942 96.112 89.5742 96.704 90.0702 97.168C90.5822 97.632 91.2942 97.864 92.2062 97.864C93.1502 97.864 93.8862 97.64 94.4142 97.192C94.9422 96.728 95.2062 96.136 95.2062 95.416C95.2062 94.856 95.0382 94.4 94.7022 94.048C94.3822 93.696 93.9742 93.424 93.4782 93.232C92.9982 93.04 92.3262 92.832 91.4622 92.608C90.3742 92.32 89.4862 92.032 88.7982 91.744C88.1262 91.44 87.5502 90.976 87.0702 90.352C86.5902 89.728 86.3502 88.896 86.3502 87.856C86.3502 86.896 86.5902 86.056 87.0702 85.336C87.5502 84.616 88.2222 84.064 89.0862 83.68C89.9502 83.296 90.9502 83.104 92.0862 83.104C93.7022 83.104 95.0222 83.512 96.0462 84.328C97.0862 85.128 97.6622 86.232 97.7742 87.64H94.7502C94.7022 87.032 94.4142 86.512 93.8862 86.08C93.3582 85.648 92.6622 85.432 91.7982 85.432C91.0142 85.432 90.3742 85.632 89.8782 86.032C89.3822 86.432 89.1342 87.008 89.1342 87.76C89.1342 88.272 89.2862 88.696 89.5902 89.032C89.9102 89.352 90.3102 89.608 90.7902 89.8C91.2702 89.992 91.9262 90.2 92.7582 90.424C93.8622 90.728 94.7582 91.032 95.4462 91.336C96.1502 91.64 96.7422 92.112 97.2222 92.752C97.7182 93.376 97.9662 94.216 97.9662 95.272C97.9662 96.12 97.7342 96.92 97.2702 97.672C96.8222 98.424 96.1582 99.032 95.2782 99.496C94.4142 99.944 93.3902 100.168 92.2062 100.168ZM108.035 86.56C109.043 86.56 109.939 86.776 110.723 87.208C111.523 87.64 112.147 88.28 112.595 89.128C113.059 89.976 113.291 91 113.291 92.2V100H110.579V92.608C110.579 91.424 110.283 90.52 109.691 89.896C109.099 89.256 108.291 88.936 107.267 88.936C106.243 88.936 105.427 89.256 104.819 89.896C104.227 90.52 103.931 91.424 103.931 92.608V100H101.195V82.24H103.931V88.312C104.395 87.752 104.979 87.32 105.683 87.016C106.403 86.712 107.187 86.56 108.035 86.56ZM115.868 93.328C115.868 92 116.14 90.824 116.684 89.8C117.244 88.776 117.996 87.984 118.94 87.424C119.9 86.848 120.956 86.56 122.108 86.56C123.148 86.56 124.052 86.768 124.82 87.184C125.604 87.584 126.228 88.088 126.692 88.696V86.776H129.452V100H126.692V98.032C126.228 98.656 125.596 99.176 124.796 99.592C123.996 100.008 123.084 100.216 122.06 100.216C120.924 100.216 119.884 99.928 118.94 99.352C117.996 98.76 117.244 97.944 116.684 96.904C116.14 95.848 115.868 94.656 115.868 93.328ZM126.692 93.376C126.692 92.464 126.5 91.672 126.116 91C125.748 90.328 125.26 89.816 124.652 89.464C124.044 89.112 123.388 88.936 122.684 88.936C121.98 88.936 121.324 89.112 120.716 89.464C120.108 89.8 119.612 90.304 119.228 90.976C118.86 91.632 118.676 92.416 118.676 93.328C118.676 94.24 118.86 95.04 119.228 95.728C119.612 96.416 120.108 96.944 120.716 97.312C121.34 97.664 121.996 97.84 122.684 97.84C123.388 97.84 124.044 97.664 124.652 97.312C125.26 96.96 125.748 96.448 126.116 95.776C126.5 95.088 126.692 94.288 126.692 93.376ZM149.054 86.56C150.094 86.56 151.022 86.776 151.838 87.208C152.67 87.64 153.318 88.28 153.782 89.128C154.262 89.976 154.502 91 154.502 92.2V100H151.79V92.608C151.79 91.424 151.494 90.52 150.902 89.896C150.31 89.256 149.502 88.936 148.478 88.936C147.454 88.936 146.638 89.256 146.03 89.896C145.438 90.52 145.142 91.424 145.142 92.608V100H142.43V92.608C142.43 91.424 142.134 90.52 141.542 89.896C140.95 89.256 140.142 88.936 139.118 88.936C138.094 88.936 137.278 89.256 136.67 89.896C136.078 90.52 135.782 91.424 135.782 92.608V100H133.046V86.776H135.782V88.288C136.23 87.744 136.798 87.32 137.486 87.016C138.174 86.712 138.91 86.56 139.694 86.56C140.75 86.56 141.694 86.784 142.526 87.232C143.358 87.68 143.998 88.328 144.446 89.176C144.846 88.376 145.47 87.744 146.318 87.28C147.166 86.8 148.078 86.56 149.054 86.56ZM160.72 88.72C161.184 88.112 161.816 87.6 162.616 87.184C163.416 86.768 164.32 86.56 165.328 86.56C166.48 86.56 167.528 86.848 168.472 87.424C169.432 87.984 170.184 88.776 170.728 89.8C171.272 90.824 171.544 92 171.544 93.328C171.544 94.656 171.272 95.848 170.728 96.904C170.184 97.944 169.432 98.76 168.472 99.352C167.528 99.928 166.48 100.216 165.328 100.216C164.32 100.216 163.424 100.016 162.64 99.616C161.856 99.2 161.216 98.688 160.72 98.08V106.288H157.984V86.776H160.72V88.72ZM168.76 93.328C168.76 92.416 168.568 91.632 168.184 90.976C167.816 90.304 167.32 89.8 166.696 89.464C166.088 89.112 165.432 88.936 164.728 88.936C164.04 88.936 163.384 89.112 162.76 89.464C162.152 89.816 161.656 90.328 161.272 91C160.904 91.672 160.72 92.464 160.72 93.376C160.72 94.288 160.904 95.088 161.272 95.776C161.656 96.448 162.152 96.96 162.76 97.312C163.384 97.664 164.04 97.84 164.728 97.84C165.432 97.84 166.088 97.664 166.696 97.312C167.32 96.944 167.816 96.416 168.184 95.728C168.568 95.04 168.76 94.24 168.76 93.328ZM179.985 100.216C178.737 100.216 177.609 99.936 176.601 99.376C175.593 98.8 174.801 98 174.225 96.976C173.649 95.936 173.361 94.736 173.361 93.376C173.361 92.032 173.657 90.84 174.249 89.8C174.841 88.76 175.649 87.96 176.673 87.4C177.697 86.84 178.841 86.56 180.105 86.56C181.369 86.56 182.513 86.84 183.537 87.4C184.561 87.96 185.369 88.76 185.961 89.8C186.553 90.84 186.849 92.032 186.849 93.376C186.849 94.72 186.545 95.912 185.937 96.952C185.329 97.992 184.497 98.8 183.441 99.376C182.401 99.936 181.249 100.216 179.985 100.216ZM179.985 97.84C180.689 97.84 181.345 97.672 181.953 97.336C182.577 97 183.081 96.496 183.465 95.824C183.849 95.152 184.041 94.336 184.041 93.376C184.041 92.416 183.857 91.608 183.489 90.952C183.121 90.28 182.633 89.776 182.025 89.44C181.417 89.104 180.761 88.936 180.057 88.936C179.353 88.936 178.697 89.104 178.089 89.44C177.497 89.776 177.025 90.28 176.673 90.952C176.321 91.608 176.145 92.416 176.145 93.376C176.145 94.8 176.505 95.904 177.225 96.688C177.961 97.456 178.881 97.84 179.985 97.84ZM195.29 100.216C194.042 100.216 192.914 99.936 191.906 99.376C190.898 98.8 190.106 98 189.53 96.976C188.954 95.936 188.666 94.736 188.666 93.376C188.666 92.032 188.962 90.84 189.554 89.8C190.146 88.76 190.954 87.96 191.978 87.4C193.002 86.84 194.146 86.56 195.41 86.56C196.674 86.56 197.818 86.84 198.842 87.4C199.866 87.96 200.674 88.76 201.266 89.8C201.858 90.84 202.154 92.032 202.154 93.376C202.154 94.72 201.85 95.912 201.242 96.952C200.634 97.992 199.802 98.8 198.746 99.376C197.706 99.936 196.554 100.216 195.29 100.216ZM195.29 97.84C195.994 97.84 196.65 97.672 197.258 97.336C197.882 97 198.386 96.496 198.77 95.824C199.154 95.152 199.346 94.336 199.346 93.376C199.346 92.416 199.162 91.608 198.794 90.952C198.426 90.28 197.938 89.776 197.33 89.44C196.722 89.104 196.066 88.936 195.362 88.936C194.658 88.936 194.002 89.104 193.394 89.44C192.802 89.776 192.33 90.28 191.978 90.952C191.626 91.608 191.45 92.416 191.45 93.376C191.45 94.8 191.81 95.904 192.53 96.688C193.266 97.456 194.186 97.84 195.29 97.84ZM220.021 91.432C220.917 91.592 221.677 92.064 222.301 92.848C222.925 93.632 223.237 94.52 223.237 95.512C223.237 96.36 223.013 97.128 222.565 97.816C222.133 98.488 221.501 99.024 220.669 99.424C219.837 99.808 218.869 100 217.765 100H211.093V83.32H217.453C218.589 83.32 219.565 83.512 220.381 83.896C221.197 84.28 221.813 84.8 222.229 85.456C222.645 86.096 222.853 86.816 222.853 87.616C222.853 88.576 222.597 89.376 222.085 90.016C221.573 90.656 220.885 91.128 220.021 91.432ZM213.829 90.328H217.213C218.109 90.328 218.805 90.128 219.301 89.728C219.813 89.312 220.069 88.72 220.069 87.952C220.069 87.2 219.813 86.616 219.301 86.2C218.805 85.768 218.109 85.552 217.213 85.552H213.829V90.328ZM217.525 97.768C218.453 97.768 219.181 97.544 219.709 97.096C220.237 96.648 220.501 96.024 220.501 95.224C220.501 94.408 220.221 93.76 219.661 93.28C219.101 92.8 218.357 92.56 217.429 92.56H213.829V97.768H217.525ZM227.602 85.024C227.106 85.024 226.69 84.856 226.354 84.52C226.018 84.184 225.85 83.768 225.85 83.272C225.85 82.776 226.018 82.36 226.354 82.024C226.69 81.688 227.106 81.52 227.602 81.52C228.082 81.52 228.49 81.688 228.826 82.024C229.162 82.36 229.33 82.776 229.33 83.272C229.33 83.768 229.162 84.184 228.826 84.52C228.49 84.856 228.082 85.024 227.602 85.024ZM228.946 86.776V100H226.21V86.776H228.946ZM231.626 93.328C231.626 92 231.898 90.824 232.442 89.8C233.002 88.776 233.754 87.984 234.698 87.424C235.658 86.848 236.714 86.56 237.866 86.56C238.906 86.56 239.81 86.768 240.578 87.184C241.362 87.584 241.986 88.088 242.45 88.696V86.776H245.21V100H242.45V98.032C241.986 98.656 241.354 99.176 240.554 99.592C239.754 100.008 238.842 100.216 237.818 100.216C236.682 100.216 235.642 99.928 234.698 99.352C233.754 98.76 233.002 97.944 232.442 96.904C231.898 95.848 231.626 94.656 231.626 93.328ZM242.45 93.376C242.45 92.464 242.258 91.672 241.874 91C241.506 90.328 241.018 89.816 240.41 89.464C239.802 89.112 239.146 88.936 238.442 88.936C237.738 88.936 237.082 89.112 236.474 89.464C235.866 89.8 235.37 90.304 234.986 90.976C234.618 91.632 234.434 92.416 234.434 93.328C234.434 94.24 234.618 95.04 234.986 95.728C235.37 96.416 235.866 96.944 236.474 97.312C237.098 97.664 237.754 97.84 238.442 97.84C239.146 97.84 239.802 97.664 240.41 97.312C241.018 96.96 241.506 96.448 241.874 95.776C242.258 95.088 242.45 94.288 242.45 93.376ZM253.604 100.216C252.564 100.216 251.628 100.032 250.796 99.664C249.98 99.28 249.332 98.768 248.852 98.128C248.372 97.472 248.116 96.744 248.084 95.944H250.916C250.964 96.504 251.228 96.976 251.708 97.36C252.204 97.728 252.82 97.912 253.556 97.912C254.324 97.912 254.916 97.768 255.332 97.48C255.764 97.176 255.98 96.792 255.98 96.328C255.98 95.832 255.74 95.464 255.26 95.224C254.796 94.984 254.052 94.72 253.028 94.432C252.036 94.16 251.228 93.896 250.604 93.64C249.98 93.384 249.436 92.992 248.972 92.464C248.524 91.936 248.3 91.24 248.3 90.376C248.3 89.672 248.508 89.032 248.924 88.456C249.34 87.864 249.932 87.4 250.7 87.064C251.484 86.728 252.38 86.56 253.388 86.56C254.892 86.56 256.1 86.944 257.012 87.712C257.94 88.464 258.436 89.496 258.5 90.808H255.764C255.716 90.216 255.476 89.744 255.044 89.392C254.612 89.04 254.028 88.864 253.292 88.864C252.572 88.864 252.02 89 251.636 89.272C251.252 89.544 251.06 89.904 251.06 90.352C251.06 90.704 251.188 91 251.444 91.24C251.7 91.48 252.012 91.672 252.38 91.816C252.748 91.944 253.292 92.112 254.012 92.32C254.972 92.576 255.756 92.84 256.364 93.112C256.988 93.368 257.524 93.752 257.972 94.264C258.42 94.776 258.652 95.456 258.668 96.304C258.668 97.056 258.46 97.728 258.044 98.32C257.628 98.912 257.036 99.376 256.268 99.712C255.516 100.048 254.628 100.216 253.604 100.216ZM260.712 93.328C260.712 92 260.984 90.824 261.528 89.8C262.088 88.776 262.84 87.984 263.784 87.424C264.744 86.848 265.8 86.56 266.952 86.56C267.992 86.56 268.896 86.768 269.664 87.184C270.448 87.584 271.072 88.088 271.536 88.696V86.776H274.296V100H271.536V98.032C271.072 98.656 270.44 99.176 269.64 99.592C268.84 100.008 267.928 100.216 266.904 100.216C265.768 100.216 264.728 99.928 263.784 99.352C262.84 98.76 262.088 97.944 261.528 96.904C260.984 95.848 260.712 94.656 260.712 93.328ZM271.536 93.376C271.536 92.464 271.344 91.672 270.96 91C270.592 90.328 270.104 89.816 269.496 89.464C268.888 89.112 268.232 88.936 267.528 88.936C266.824 88.936 266.168 89.112 265.56 89.464C264.952 89.8 264.456 90.304 264.072 90.976C263.704 91.632 263.52 92.416 263.52 93.328C263.52 94.24 263.704 95.04 264.072 95.728C264.456 96.416 264.952 96.944 265.56 97.312C266.184 97.664 266.84 97.84 267.528 97.84C268.232 97.84 268.888 97.664 269.496 97.312C270.104 96.96 270.592 96.448 270.96 95.776C271.344 95.088 271.536 94.288 271.536 93.376ZM149.843 117.288C149.843 118.136 149.643 118.936 149.243 119.688C148.843 120.44 148.203 121.056 147.323 121.536C146.443 122 145.315 122.232 143.939 122.232H140.915V129H138.179V112.32H143.939C145.219 112.32 146.299 112.544 147.179 112.992C148.075 113.424 148.739 114.016 149.171 114.768C149.619 115.52 149.843 116.36 149.843 117.288ZM143.939 120C144.979 120 145.755 119.768 146.267 119.304C146.779 118.824 147.035 118.152 147.035 117.288C147.035 115.464 146.003 114.552 143.939 114.552H140.915V120H143.939ZM151.54 122.328C151.54 121 151.812 119.824 152.356 118.8C152.916 117.776 153.668 116.984 154.612 116.424C155.572 115.848 156.628 115.56 157.78 115.56C158.82 115.56 159.724 115.768 160.492 116.184C161.276 116.584 161.9 117.088 162.364 117.696V115.776H165.124V129H162.364V127.032C161.9 127.656 161.268 128.176 160.468 128.592C159.668 129.008 158.756 129.216 157.732 129.216C156.596 129.216 155.556 128.928 154.612 128.352C153.668 127.76 152.916 126.944 152.356 125.904C151.812 124.848 151.54 123.656 151.54 122.328ZM162.364 122.376C162.364 121.464 162.172 120.672 161.788 120C161.42 119.328 160.932 118.816 160.324 118.464C159.716 118.112 159.06 117.936 158.356 117.936C157.652 117.936 156.996 118.112 156.388 118.464C155.78 118.8 155.284 119.304 154.9 119.976C154.532 120.632 154.348 121.416 154.348 122.328C154.348 123.24 154.532 124.04 154.9 124.728C155.284 125.416 155.78 125.944 156.388 126.312C157.012 126.664 157.668 126.84 158.356 126.84C159.06 126.84 159.716 126.664 160.324 126.312C160.932 125.96 161.42 125.448 161.788 124.776C162.172 124.088 162.364 123.288 162.364 122.376ZM171.454 117.696C171.854 117.024 172.382 116.504 173.038 116.136C173.71 115.752 174.502 115.56 175.414 115.56V118.392H174.718C173.646 118.392 172.83 118.664 172.27 119.208C171.726 119.752 171.454 120.696 171.454 122.04V129H168.718V115.776H171.454V117.696ZM183.473 118.008H181.025V129H178.265V118.008H176.705V115.776H178.265V114.84C178.265 113.32 178.665 112.216 179.465 111.528C180.281 110.824 181.553 110.472 183.281 110.472V112.752C182.449 112.752 181.865 112.912 181.529 113.232C181.193 113.536 181.025 114.072 181.025 114.84V115.776H183.473V118.008ZM197.874 115.776V129H195.138V127.44C194.706 127.984 194.138 128.416 193.434 128.736C192.746 129.04 192.01 129.192 191.226 129.192C190.186 129.192 189.25 128.976 188.418 128.544C187.602 128.112 186.954 127.472 186.474 126.624C186.01 125.776 185.778 124.752 185.778 123.552V115.776H188.49V123.144C188.49 124.328 188.786 125.24 189.378 125.88C189.97 126.504 190.778 126.816 191.802 126.816C192.826 126.816 193.634 126.504 194.226 125.88C194.834 125.24 195.138 124.328 195.138 123.144V115.776H197.874ZM217.492 115.56C218.532 115.56 219.46 115.776 220.276 116.208C221.108 116.64 221.756 117.28 222.22 118.128C222.7 118.976 222.94 120 222.94 121.2V129H220.228V121.608C220.228 120.424 219.932 119.52 219.34 118.896C218.748 118.256 217.94 117.936 216.916 117.936C215.892 117.936 215.076 118.256 214.468 118.896C213.876 119.52 213.58 120.424 213.58 121.608V129H210.868V121.608C210.868 120.424 210.572 119.52 209.98 118.896C209.388 118.256 208.58 117.936 207.556 117.936C206.532 117.936 205.716 118.256 205.108 118.896C204.516 119.52 204.22 120.424 204.22 121.608V129H201.484V115.776H204.22V117.288C204.668 116.744 205.236 116.32 205.924 116.016C206.612 115.712 207.348 115.56 208.132 115.56C209.188 115.56 210.132 115.784 210.964 116.232C211.796 116.68 212.436 117.328 212.884 118.176C213.284 117.376 213.908 116.744 214.756 116.28C215.604 115.8 216.516 115.56 217.492 115.56ZM118.191 146.288C118.191 147.136 117.991 147.936 117.591 148.688C117.191 149.44 116.551 150.056 115.671 150.536C114.791 151 113.663 151.232 112.287 151.232H109.263V158H106.527V141.32H112.287C113.567 141.32 114.647 141.544 115.527 141.992C116.423 142.424 117.087 143.016 117.519 143.768C117.967 144.52 118.191 145.36 118.191 146.288ZM112.287 149C113.327 149 114.103 148.768 114.615 148.304C115.127 147.824 115.383 147.152 115.383 146.288C115.383 144.464 114.351 143.552 112.287 143.552H109.263V149H112.287ZM126.536 158.216C125.288 158.216 124.16 157.936 123.152 157.376C122.144 156.8 121.352 156 120.776 154.976C120.2 153.936 119.912 152.736 119.912 151.376C119.912 150.032 120.208 148.84 120.8 147.8C121.392 146.76 122.2 145.96 123.224 145.4C124.248 144.84 125.392 144.56 126.656 144.56C127.92 144.56 129.064 144.84 130.088 145.4C131.112 145.96 131.92 146.76 132.512 147.8C133.104 148.84 133.4 150.032 133.4 151.376C133.4 152.72 133.096 153.912 132.488 154.952C131.88 155.992 131.048 156.8 129.992 157.376C128.952 157.936 127.8 158.216 126.536 158.216ZM126.536 155.84C127.24 155.84 127.896 155.672 128.504 155.336C129.128 155 129.632 154.496 130.016 153.824C130.4 153.152 130.592 152.336 130.592 151.376C130.592 150.416 130.408 149.608 130.04 148.952C129.672 148.28 129.184 147.776 128.576 147.44C127.968 147.104 127.312 146.936 126.608 146.936C125.904 146.936 125.248 147.104 124.64 147.44C124.048 147.776 123.576 148.28 123.224 148.952C122.872 149.608 122.696 150.416 122.696 151.376C122.696 152.8 123.056 153.904 123.776 154.688C124.512 155.456 125.432 155.84 126.536 155.84ZM139.297 147.008V154.328C139.297 154.824 139.409 155.184 139.633 155.408C139.873 155.616 140.273 155.72 140.833 155.72H142.513V158H140.353C139.121 158 138.177 157.712 137.521 157.136C136.865 156.56 136.537 155.624 136.537 154.328V147.008H134.977V144.776H136.537V141.488H139.297V144.776H142.513V147.008H139.297ZM150.77 158.216C149.522 158.216 148.394 157.936 147.386 157.376C146.378 156.8 145.586 156 145.01 154.976C144.434 153.936 144.146 152.736 144.146 151.376C144.146 150.032 144.442 148.84 145.034 147.8C145.626 146.76 146.434 145.96 147.458 145.4C148.482 144.84 149.626 144.56 150.89 144.56C152.154 144.56 153.298 144.84 154.322 145.4C155.346 145.96 156.154 146.76 156.746 147.8C157.338 148.84 157.634 150.032 157.634 151.376C157.634 152.72 157.33 153.912 156.722 154.952C156.114 155.992 155.282 156.8 154.226 157.376C153.186 157.936 152.034 158.216 150.77 158.216ZM150.77 155.84C151.474 155.84 152.13 155.672 152.738 155.336C153.362 155 153.866 154.496 154.25 153.824C154.634 153.152 154.826 152.336 154.826 151.376C154.826 150.416 154.642 149.608 154.274 148.952C153.906 148.28 153.418 147.776 152.81 147.44C152.202 147.104 151.546 146.936 150.842 146.936C150.138 146.936 149.482 147.104 148.874 147.44C148.282 147.776 147.81 148.28 147.458 148.952C147.106 149.608 146.93 150.416 146.93 151.376C146.93 152.8 147.29 153.904 148.01 154.688C148.746 155.456 149.666 155.84 150.77 155.84ZM167.011 144.56C168.051 144.56 168.979 144.776 169.795 145.208C170.627 145.64 171.275 146.28 171.739 147.128C172.203 147.976 172.435 149 172.435 150.2V158H169.723V150.608C169.723 149.424 169.427 148.52 168.835 147.896C168.243 147.256 167.435 146.936 166.411 146.936C165.387 146.936 164.571 147.256 163.963 147.896C163.371 148.52 163.075 149.424 163.075 150.608V158H160.339V144.776H163.075V146.288C163.523 145.744 164.091 145.32 164.779 145.016C165.483 144.712 166.227 144.56 167.011 144.56ZM181.253 144.56C182.277 144.56 183.181 144.768 183.965 145.184C184.765 145.584 185.389 146.088 185.837 146.696V144.776H188.597V158.216C188.597 159.432 188.341 160.512 187.829 161.456C187.317 162.416 186.573 163.168 185.597 163.712C184.637 164.256 183.485 164.528 182.141 164.528C180.349 164.528 178.861 164.104 177.677 163.256C176.493 162.424 175.821 161.288 175.661 159.848H178.373C178.581 160.536 179.021 161.088 179.693 161.504C180.381 161.936 181.197 162.152 182.141 162.152C183.245 162.152 184.133 161.816 184.805 161.144C185.493 160.472 185.837 159.496 185.837 158.216V156.008C185.373 156.632 184.741 157.16 183.941 157.592C183.157 158.008 182.261 158.216 181.253 158.216C180.101 158.216 179.045 157.928 178.085 157.352C177.141 156.76 176.389 155.944 175.829 154.904C175.285 153.848 175.013 152.656 175.013 151.328C175.013 150 175.285 148.824 175.829 147.8C176.389 146.776 177.141 145.984 178.085 145.424C179.045 144.848 180.101 144.56 181.253 144.56ZM185.837 151.376C185.837 150.464 185.645 149.672 185.261 149C184.893 148.328 184.405 147.816 183.797 147.464C183.189 147.112 182.533 146.936 181.829 146.936C181.125 146.936 180.469 147.112 179.861 147.464C179.253 147.8 178.757 148.304 178.373 148.976C178.005 149.632 177.821 150.416 177.821 151.328C177.821 152.24 178.005 153.04 178.373 153.728C178.757 154.416 179.253 154.944 179.861 155.312C180.485 155.664 181.141 155.84 181.829 155.84C182.533 155.84 183.189 155.664 183.797 155.312C184.405 154.96 184.893 154.448 185.261 153.776C185.645 153.088 185.837 152.288 185.837 151.376ZM207.617 158L201.161 150.536V158H198.425V141.32H201.161V148.928L207.641 141.32H211.073L203.825 149.672L211.193 158H207.617ZM225.589 144.776V158H222.853V156.44C222.421 156.984 221.853 157.416 221.149 157.736C220.461 158.04 219.725 158.192 218.941 158.192C217.901 158.192 216.965 157.976 216.133 157.544C215.317 157.112 214.669 156.472 214.189 155.624C213.725 154.776 213.493 153.752 213.493 152.552V144.776H216.205V152.144C216.205 153.328 216.501 154.24 217.093 154.88C217.685 155.504 218.493 155.816 219.517 155.816C220.541 155.816 221.349 155.504 221.941 154.88C222.549 154.24 222.853 153.328 222.853 152.144V144.776H225.589ZM234.43 151.4L240.526 158H236.83L231.934 152.312V158H229.198V140.24H231.934V150.56L236.734 144.776H240.526L234.43 151.4ZM254.464 144.776V158H251.728V156.44C251.296 156.984 250.728 157.416 250.024 157.736C249.336 158.04 248.6 158.192 247.816 158.192C246.776 158.192 245.84 157.976 245.008 157.544C244.192 157.112 243.544 156.472 243.064 155.624C242.6 154.776 242.368 153.752 242.368 152.552V144.776H245.08V152.144C245.08 153.328 245.376 154.24 245.968 154.88C246.56 155.504 247.368 155.816 248.392 155.816C249.416 155.816 250.224 155.504 250.816 154.88C251.424 154.24 251.728 153.328 251.728 152.144V144.776H254.464ZM65.8312 175.288C65.8312 176.136 65.6312 176.936 65.2312 177.688C64.8312 178.44 64.1912 179.056 63.3112 179.536C62.4312 180 61.3032 180.232 59.9272 180.232H56.9032V187H54.1672V170.32H59.9272C61.2072 170.32 62.2872 170.544 63.1672 170.992C64.0632 171.424 64.7272 172.016 65.1592 172.768C65.6072 173.52 65.8312 174.36 65.8312 175.288ZM59.9272 178C60.9672 178 61.7432 177.768 62.2552 177.304C62.7672 176.824 63.0232 176.152 63.0232 175.288C63.0232 173.464 61.9912 172.552 59.9272 172.552H56.9032V178H59.9272ZM80.5606 180.064C80.5606 180.56 80.5286 181.008 80.4646 181.408H70.3606C70.4406 182.464 70.8326 183.312 71.5366 183.952C72.2406 184.592 73.1046 184.912 74.1286 184.912C75.6006 184.912 76.6406 184.296 77.2486 183.064H80.2006C79.8006 184.28 79.0726 185.28 78.0166 186.064C76.9766 186.832 75.6806 187.216 74.1286 187.216C72.8646 187.216 71.7286 186.936 70.7206 186.376C69.7286 185.8 68.9446 185 68.3686 183.976C67.8086 182.936 67.5286 181.736 67.5286 180.376C67.5286 179.016 67.8006 177.824 68.3446 176.8C68.9046 175.76 69.6806 174.96 70.6726 174.4C71.6806 173.84 72.8326 173.56 74.1286 173.56C75.3766 173.56 76.4886 173.832 77.4646 174.376C78.4406 174.92 79.2006 175.688 79.7446 176.68C80.2886 177.656 80.5606 178.784 80.5606 180.064ZM77.7046 179.2C77.6886 178.192 77.3286 177.384 76.6246 176.776C75.9206 176.168 75.0486 175.864 74.0086 175.864C73.0646 175.864 72.2566 176.168 71.5846 176.776C70.9126 177.368 70.5126 178.176 70.3846 179.2H77.7046ZM99.2611 173.56C100.301 173.56 101.229 173.776 102.045 174.208C102.877 174.64 103.525 175.28 103.989 176.128C104.469 176.976 104.709 178 104.709 179.2V187H101.997V179.608C101.997 178.424 101.701 177.52 101.109 176.896C100.517 176.256 99.7091 175.936 98.6851 175.936C97.6611 175.936 96.8451 176.256 96.2371 176.896C95.6451 177.52 95.3491 178.424 95.3491 179.608V187H92.6371V179.608C92.6371 178.424 92.3411 177.52 91.7491 176.896C91.1571 176.256 90.3491 175.936 89.3251 175.936C88.3011 175.936 87.4851 176.256 86.8771 176.896C86.2851 177.52 85.9891 178.424 85.9891 179.608V187H83.2531V173.776H85.9891V175.288C86.4371 174.744 87.0051 174.32 87.6931 174.016C88.3811 173.712 89.1171 173.56 89.9011 173.56C90.9571 173.56 91.9011 173.784 92.7331 174.232C93.5651 174.68 94.2051 175.328 94.6531 176.176C95.0531 175.376 95.6771 174.744 96.5251 174.28C97.3731 173.8 98.2851 173.56 99.2611 173.56ZM110.927 175.744C111.391 175.104 112.023 174.584 112.823 174.184C113.639 173.768 114.543 173.56 115.535 173.56C116.703 173.56 117.759 173.84 118.703 174.4C119.647 174.96 120.391 175.76 120.935 176.8C121.479 177.824 121.751 179 121.751 180.328C121.751 181.656 121.479 182.848 120.935 183.904C120.391 184.944 119.639 185.76 118.679 186.352C117.735 186.928 116.687 187.216 115.535 187.216C114.511 187.216 113.599 187.016 112.799 186.616C112.015 186.216 111.391 185.704 110.927 185.08V187H108.191V169.24H110.927V175.744ZM118.967 180.328C118.967 179.416 118.775 178.632 118.391 177.976C118.023 177.304 117.527 176.8 116.903 176.464C116.295 176.112 115.639 175.936 114.935 175.936C114.247 175.936 113.591 176.112 112.967 176.464C112.359 176.816 111.863 177.328 111.479 178C111.111 178.672 110.927 179.464 110.927 180.376C110.927 181.288 111.111 182.088 111.479 182.776C111.863 183.448 112.359 183.96 112.967 184.312C113.591 184.664 114.247 184.84 114.935 184.84C115.639 184.84 116.295 184.664 116.903 184.312C117.527 183.944 118.023 183.416 118.391 182.728C118.775 182.04 118.967 181.24 118.967 180.328ZM136.576 180.064C136.576 180.56 136.544 181.008 136.48 181.408H126.376C126.456 182.464 126.848 183.312 127.552 183.952C128.256 184.592 129.12 184.912 130.144 184.912C131.616 184.912 132.656 184.296 133.264 183.064H136.216C135.816 184.28 135.088 185.28 134.032 186.064C132.992 186.832 131.696 187.216 130.144 187.216C128.88 187.216 127.744 186.936 126.736 186.376C125.744 185.8 124.96 185 124.384 183.976C123.824 182.936 123.544 181.736 123.544 180.376C123.544 179.016 123.816 177.824 124.36 176.8C124.92 175.76 125.696 174.96 126.688 174.4C127.696 173.84 128.848 173.56 130.144 173.56C131.392 173.56 132.504 173.832 133.48 174.376C134.456 174.92 135.216 175.688 135.76 176.68C136.304 177.656 136.576 178.784 136.576 180.064ZM133.72 179.2C133.704 178.192 133.344 177.384 132.64 176.776C131.936 176.168 131.064 175.864 130.024 175.864C129.08 175.864 128.272 176.168 127.6 176.776C126.928 177.368 126.528 178.176 126.4 179.2H133.72ZM142.005 175.696C142.405 175.024 142.933 174.504 143.589 174.136C144.261 173.752 145.053 173.56 145.965 173.56V176.392H145.269C144.197 176.392 143.381 176.664 142.821 177.208C142.277 177.752 142.005 178.696 142.005 180.04V187H139.269V173.776H142.005V175.696ZM153.28 187.216C152.24 187.216 151.304 187.032 150.472 186.664C149.656 186.28 149.008 185.768 148.528 185.128C148.048 184.472 147.792 183.744 147.76 182.944H150.592C150.64 183.504 150.904 183.976 151.384 184.36C151.88 184.728 152.496 184.912 153.232 184.912C154 184.912 154.592 184.768 155.008 184.48C155.44 184.176 155.656 183.792 155.656 183.328C155.656 182.832 155.416 182.464 154.936 182.224C154.472 181.984 153.728 181.72 152.704 181.432C151.712 181.16 150.904 180.896 150.28 180.64C149.656 180.384 149.112 179.992 148.648 179.464C148.2 178.936 147.976 178.24 147.976 177.376C147.976 176.672 148.184 176.032 148.6 175.456C149.016 174.864 149.608 174.4 150.376 174.064C151.16 173.728 152.056 173.56 153.064 173.56C154.568 173.56 155.776 173.944 156.688 174.712C157.616 175.464 158.112 176.496 158.176 177.808H155.44C155.392 177.216 155.152 176.744 154.72 176.392C154.288 176.04 153.704 175.864 152.968 175.864C152.248 175.864 151.696 176 151.312 176.272C150.928 176.544 150.736 176.904 150.736 177.352C150.736 177.704 150.864 178 151.12 178.24C151.376 178.48 151.688 178.672 152.056 178.816C152.424 178.944 152.968 179.112 153.688 179.32C154.648 179.576 155.432 179.84 156.04 180.112C156.664 180.368 157.2 180.752 157.648 181.264C158.096 181.776 158.328 182.456 158.344 183.304C158.344 184.056 158.136 184.728 157.72 185.32C157.304 185.912 156.712 186.376 155.944 186.712C155.192 187.048 154.304 187.216 153.28 187.216ZM162.692 172.024C162.196 172.024 161.78 171.856 161.444 171.52C161.108 171.184 160.94 170.768 160.94 170.272C160.94 169.776 161.108 169.36 161.444 169.024C161.78 168.688 162.196 168.52 162.692 168.52C163.172 168.52 163.58 168.688 163.916 169.024C164.252 169.36 164.42 169.776 164.42 170.272C164.42 170.768 164.252 171.184 163.916 171.52C163.58 171.856 163.172 172.024 162.692 172.024ZM164.036 173.776V187H161.3V173.776H164.036ZM174.468 173.56C175.476 173.56 176.372 173.776 177.156 174.208C177.956 174.64 178.58 175.28 179.028 176.128C179.492 176.976 179.724 178 179.724 179.2V187H177.012V179.608C177.012 178.424 176.716 177.52 176.124 176.896C175.532 176.256 174.724 175.936 173.7 175.936C172.676 175.936 171.86 176.256 171.252 176.896C170.66 177.52 170.364 178.424 170.364 179.608V187H167.628V169.24H170.364V175.312C170.828 174.752 171.412 174.32 172.116 174.016C172.836 173.712 173.62 173.56 174.468 173.56ZM182.302 180.328C182.302 179 182.574 177.824 183.118 176.8C183.678 175.776 184.43 174.984 185.374 174.424C186.334 173.848 187.39 173.56 188.542 173.56C189.582 173.56 190.486 173.768 191.254 174.184C192.038 174.584 192.662 175.088 193.126 175.696V173.776H195.886V187H193.126V185.032C192.662 185.656 192.03 186.176 191.23 186.592C190.43 187.008 189.518 187.216 188.494 187.216C187.358 187.216 186.318 186.928 185.374 186.352C184.43 185.76 183.678 184.944 183.118 183.904C182.574 182.848 182.302 181.656 182.302 180.328ZM193.126 180.376C193.126 179.464 192.934 178.672 192.55 178C192.182 177.328 191.694 176.816 191.086 176.464C190.478 176.112 189.822 175.936 189.118 175.936C188.414 175.936 187.758 176.112 187.15 176.464C186.542 176.8 186.046 177.304 185.662 177.976C185.294 178.632 185.11 179.416 185.11 180.328C185.11 181.24 185.294 182.04 185.662 182.728C186.046 183.416 186.542 183.944 187.15 184.312C187.774 184.664 188.43 184.84 189.118 184.84C189.822 184.84 190.478 184.664 191.086 184.312C191.694 183.96 192.182 183.448 192.55 182.776C192.934 182.088 193.126 181.288 193.126 180.376ZM206.152 173.56C207.192 173.56 208.12 173.776 208.936 174.208C209.768 174.64 210.416 175.28 210.88 176.128C211.344 176.976 211.576 178 211.576 179.2V187H208.864V179.608C208.864 178.424 208.568 177.52 207.976 176.896C207.384 176.256 206.576 175.936 205.552 175.936C204.528 175.936 203.712 176.256 203.104 176.896C202.512 177.52 202.216 178.424 202.216 179.608V187H199.48V173.776H202.216V175.288C202.664 174.744 203.232 174.32 203.92 174.016C204.624 173.712 205.368 173.56 206.152 173.56ZM232.076 170.32V172.552H227.636V187H224.9V172.552H220.436V170.32H232.076ZM246.967 180.064C246.967 180.56 246.935 181.008 246.871 181.408H236.767C236.847 182.464 237.239 183.312 237.943 183.952C238.647 184.592 239.511 184.912 240.535 184.912C242.007 184.912 243.047 184.296 243.655 183.064H246.607C246.207 184.28 245.479 185.28 244.423 186.064C243.383 186.832 242.087 187.216 240.535 187.216C239.271 187.216 238.135 186.936 237.127 186.376C236.135 185.8 235.351 185 234.775 183.976C234.215 182.936 233.935 181.736 233.935 180.376C233.935 179.016 234.207 177.824 234.751 176.8C235.311 175.76 236.087 174.96 237.079 174.4C238.087 173.84 239.239 173.56 240.535 173.56C241.783 173.56 242.895 173.832 243.871 174.376C244.847 174.92 245.607 175.688 246.151 176.68C246.695 177.656 246.967 178.784 246.967 180.064ZM244.111 179.2C244.095 178.192 243.735 177.384 243.031 176.776C242.327 176.168 241.455 175.864 240.415 175.864C239.471 175.864 238.663 176.168 237.991 176.776C237.319 177.368 236.919 178.176 236.791 179.2H244.111ZM252.395 169.24V187H249.659V169.24H252.395ZM257.38 172.024C256.884 172.024 256.468 171.856 256.132 171.52C255.796 171.184 255.628 170.768 255.628 170.272C255.628 169.776 255.796 169.36 256.132 169.024C256.468 168.688 256.884 168.52 257.38 168.52C257.86 168.52 258.268 168.688 258.604 169.024C258.94 169.36 259.108 169.776 259.108 170.272C259.108 170.768 258.94 171.184 258.604 171.52C258.268 171.856 257.86 172.024 257.38 172.024ZM258.724 173.776V187H255.988V173.776H258.724ZM268.988 173.56C270.028 173.56 270.956 173.776 271.772 174.208C272.604 174.64 273.252 175.28 273.716 176.128C274.18 176.976 274.412 178 274.412 179.2V187H271.7V179.608C271.7 178.424 271.404 177.52 270.812 176.896C270.22 176.256 269.412 175.936 268.388 175.936C267.364 175.936 266.548 176.256 265.94 176.896C265.348 177.52 265.052 178.424 265.052 179.608V187H262.316V173.776H265.052V175.288C265.5 174.744 266.068 174.32 266.756 174.016C267.46 173.712 268.204 173.56 268.988 173.56ZM283.23 173.56C284.254 173.56 285.158 173.768 285.942 174.184C286.742 174.584 287.366 175.088 287.814 175.696V173.776H290.574V187.216C290.574 188.432 290.318 189.512 289.806 190.456C289.294 191.416 288.55 192.168 287.574 192.712C286.614 193.256 285.462 193.528 284.118 193.528C282.326 193.528 280.838 193.104 279.654 192.256C278.47 191.424 277.798 190.288 277.638 188.848H280.35C280.558 189.536 280.998 190.088 281.67 190.504C282.358 190.936 283.174 191.152 284.118 191.152C285.222 191.152 286.11 190.816 286.782 190.144C287.47 189.472 287.814 188.496 287.814 187.216V185.008C287.35 185.632 286.718 186.16 285.918 186.592C285.134 187.008 284.238 187.216 283.23 187.216C282.078 187.216 281.022 186.928 280.062 186.352C279.118 185.76 278.366 184.944 277.806 183.904C277.262 182.848 276.99 181.656 276.99 180.328C276.99 179 277.262 177.824 277.806 176.8C278.366 175.776 279.118 174.984 280.062 174.424C281.022 173.848 282.078 173.56 283.23 173.56ZM287.814 180.376C287.814 179.464 287.622 178.672 287.238 178C286.87 177.328 286.382 176.816 285.774 176.464C285.166 176.112 284.51 175.936 283.806 175.936C283.102 175.936 282.446 176.112 281.838 176.464C281.23 176.8 280.734 177.304 280.35 177.976C279.982 178.632 279.798 179.416 279.798 180.328C279.798 181.24 279.982 182.04 280.35 182.728C280.734 183.416 281.23 183.944 281.838 184.312C282.462 184.664 283.118 184.84 283.806 184.84C284.51 184.84 285.166 184.664 285.774 184.312C286.382 183.96 286.87 183.448 287.238 182.776C287.622 182.088 287.814 181.288 287.814 180.376ZM293.255 180.328C293.255 179 293.527 177.824 294.071 176.8C294.631 175.776 295.383 174.984 296.327 174.424C297.287 173.848 298.343 173.56 299.495 173.56C300.535 173.56 301.439 173.768 302.207 174.184C302.991 174.584 303.615 175.088 304.079 175.696V173.776H306.839V187H304.079V185.032C303.615 185.656 302.983 186.176 302.183 186.592C301.383 187.008 300.471 187.216 299.447 187.216C298.311 187.216 297.271 186.928 296.327 186.352C295.383 185.76 294.631 184.944 294.071 183.904C293.527 182.848 293.255 181.656 293.255 180.328ZM304.079 180.376C304.079 179.464 303.887 178.672 303.503 178C303.135 177.328 302.647 176.816 302.039 176.464C301.431 176.112 300.775 175.936 300.071 175.936C299.367 175.936 298.711 176.112 298.103 176.464C297.495 176.8 296.999 177.304 296.615 177.976C296.247 178.632 296.063 179.416 296.063 180.328C296.063 181.24 296.247 182.04 296.615 182.728C296.999 183.416 297.495 183.944 298.103 184.312C298.727 184.664 299.383 184.84 300.071 184.84C300.775 184.84 301.431 184.664 302.039 184.312C302.647 183.96 303.135 183.448 303.503 182.776C303.887 182.088 304.079 181.288 304.079 180.376Z" fill="#181817"/>
<rect y="269.808" width="360" height="138.607" fill="#FFCC00"/>
<path d="M95.7575 336.288C95.3735 335.584 94.8455 335.048 94.1735 334.68C93.5015 334.312 92.7175 334.128 91.8215 334.128C90.8295 334.128 89.9495 334.352 89.1815 334.8C88.4135 335.248 87.8135 335.888 87.3815 336.72C86.9495 337.552 86.7335 338.512 86.7335 339.6C86.7335 340.72 86.9495 341.696 87.3815 342.528C87.8295 343.36 88.4455 344 89.2295 344.448C90.0135 344.896 90.9255 345.12 91.9655 345.12C93.2455 345.12 94.2935 344.784 95.1095 344.112C95.9255 343.424 96.4615 342.472 96.7175 341.256H90.9575V338.688H100.03V341.616C99.8055 342.784 99.3255 343.864 98.5895 344.856C97.8535 345.848 96.9015 346.648 95.7335 347.256C94.5815 347.848 93.2855 348.144 91.8455 348.144C90.2295 348.144 88.7655 347.784 87.4535 347.064C86.1575 346.328 85.1335 345.312 84.3815 344.016C83.6455 342.72 83.2775 341.248 83.2775 339.6C83.2775 337.952 83.6455 336.48 84.3815 335.184C85.1335 333.872 86.1575 332.856 87.4535 332.136C88.7655 331.4 90.2215 331.032 91.8215 331.032C93.7095 331.032 95.3495 331.496 96.7415 332.424C98.1335 333.336 99.0935 334.624 99.6215 336.288H95.7575ZM105.875 336.768C106.307 336.064 106.867 335.512 107.555 335.112C108.259 334.712 109.059 334.512 109.955 334.512V338.04H109.067C108.011 338.04 107.211 338.288 106.667 338.784C106.139 339.28 105.875 340.144 105.875 341.376V348H102.515V334.704H105.875V336.768ZM118.123 348.216C116.843 348.216 115.691 347.936 114.667 347.376C113.643 346.8 112.835 345.992 112.243 344.952C111.667 343.912 111.379 342.712 111.379 341.352C111.379 339.992 111.675 338.792 112.267 337.752C112.875 336.712 113.699 335.912 114.739 335.352C115.779 334.776 116.939 334.488 118.219 334.488C119.499 334.488 120.659 334.776 121.699 335.352C122.739 335.912 123.555 336.712 124.147 337.752C124.755 338.792 125.059 339.992 125.059 341.352C125.059 342.712 124.747 343.912 124.122 344.952C123.515 345.992 122.683 346.8 121.627 347.376C120.587 347.936 119.419 348.216 118.123 348.216ZM118.123 345.288C118.731 345.288 119.299 345.144 119.827 344.856C120.371 344.552 120.803 344.104 121.123 343.512C121.443 342.92 121.603 342.2 121.603 341.352C121.603 340.088 121.267 339.12 120.595 338.448C119.939 337.76 119.131 337.416 118.171 337.416C117.211 337.416 116.403 337.76 115.747 338.448C115.107 339.12 114.787 340.088 114.787 341.352C114.787 342.616 115.099 343.592 115.723 344.28C116.363 344.952 117.163 345.288 118.123 345.288ZM133.427 348.216C132.147 348.216 130.995 347.936 129.971 347.376C128.947 346.8 128.139 345.992 127.547 344.952C126.971 343.912 126.683 342.712 126.683 341.352C126.683 339.992 126.979 338.792 127.571 337.752C128.179 336.712 129.003 335.912 130.043 335.352C131.083 334.776 132.243 334.488 133.523 334.488C134.803 334.488 135.963 334.776 137.003 335.352C138.043 335.912 138.859 336.712 139.451 337.752C140.059 338.792 140.363 339.992 140.363 341.352C140.363 342.712 140.051 343.912 139.427 344.952C138.819 345.992 137.987 346.8 136.931 347.376C135.891 347.936 134.723 348.216 133.427 348.216ZM133.427 345.288C134.035 345.288 134.603 345.144 135.131 344.856C135.675 344.552 136.107 344.104 136.427 343.512C136.747 342.92 136.907 342.2 136.907 341.352C136.907 340.088 136.571 339.12 135.899 338.448C135.243 337.76 134.435 337.416 133.475 337.416C132.515 337.416 131.707 337.76 131.051 338.448C130.411 339.12 130.091 340.088 130.091 341.352C130.091 342.616 130.403 343.592 131.027 344.28C131.667 344.952 132.467 345.288 133.427 345.288ZM159.34 334.512C160.972 334.512 162.284 335.016 163.276 336.024C164.284 337.016 164.788 338.408 164.788 340.2V348H161.428V340.656C161.428 339.616 161.164 338.824 160.636 338.28C160.108 337.72 159.388 337.44 158.476 337.44C157.564 337.44 156.836 337.72 156.292 338.28C155.764 338.824 155.5 339.616 155.5 340.656V348H152.14V340.656C152.14 339.616 151.876 338.824 151.348 338.28C150.82 337.72 150.1 337.44 149.188 337.44C148.26 337.44 147.524 337.72 146.98 338.28C146.452 338.824 146.188 339.616 146.188 340.656V348H142.828V334.704H146.188V336.312C146.62 335.752 147.172 335.312 147.844 334.992C148.532 334.672 149.284 334.512 150.1 334.512C151.14 334.512 152.068 334.736 152.884 335.184C153.7 335.616 154.332 336.24 154.78 337.056C155.212 336.288 155.836 335.672 156.652 335.208C157.484 334.744 158.38 334.512 159.34 334.512ZM169.68 333.12C169.088 333.12 168.592 332.936 168.192 332.568C167.808 332.184 167.616 331.712 167.616 331.152C167.616 330.592 167.808 330.128 168.192 329.76C168.592 329.376 169.088 329.184 169.68 329.184C170.272 329.184 170.76 329.376 171.144 329.76C171.544 330.128 171.744 330.592 171.744 331.152C171.744 331.712 171.544 332.184 171.144 332.568C170.76 332.936 170.272 333.12 169.68 333.12ZM171.336 334.704V348H167.976V334.704H171.336ZM182.024 334.512C183.608 334.512 184.888 335.016 185.864 336.024C186.84 337.016 187.328 338.408 187.328 340.2V348H183.968V340.656C183.968 339.6 183.704 338.792 183.176 338.232C182.648 337.656 181.928 337.368 181.016 337.368C180.088 337.368 179.352 337.656 178.808 338.232C178.28 338.792 178.016 339.6 178.016 340.656V348H174.656V334.704H178.016V336.36C178.464 335.784 179.032 335.336 179.72 335.016C180.424 334.68 181.192 334.512 182.024 334.512ZM195.731 334.488C196.723 334.488 197.595 334.688 198.347 335.088C199.099 335.472 199.691 335.976 200.123 336.6V334.704H203.507V348.096C203.507 349.328 203.259 350.424 202.763 351.384C202.267 352.36 201.523 353.128 200.531 353.688C199.539 354.264 198.339 354.552 196.931 354.552C195.043 354.552 193.491 354.112 192.275 353.232C191.075 352.352 190.395 351.152 190.235 349.632H193.571C193.747 350.24 194.123 350.72 194.699 351.072C195.291 351.44 196.003 351.624 196.835 351.624C197.811 351.624 198.603 351.328 199.211 350.736C199.819 350.16 200.123 349.28 200.123 348.096V346.032C199.691 346.656 199.091 347.176 198.323 347.592C197.571 348.008 196.707 348.216 195.731 348.216C194.611 348.216 193.587 347.928 192.659 347.352C191.731 346.776 190.995 345.968 190.451 344.928C189.923 343.872 189.659 342.664 189.659 341.304C189.659 339.96 189.923 338.768 190.451 337.728C190.995 336.688 191.723 335.888 192.635 335.328C193.563 334.768 194.595 334.488 195.731 334.488ZM200.123 341.352C200.123 340.536 199.963 339.84 199.643 339.264C199.323 338.672 198.891 338.224 198.347 337.92C197.803 337.6 197.219 337.44 196.595 337.44C195.971 337.44 195.395 337.592 194.867 337.896C194.339 338.2 193.907 338.648 193.571 339.24C193.251 339.816 193.091 340.504 193.091 341.304C193.091 342.104 193.251 342.808 193.571 343.416C193.907 344.008 194.339 344.464 194.867 344.784C195.411 345.104 195.987 345.264 196.595 345.264C197.219 345.264 197.803 345.112 198.347 344.808C198.891 344.488 199.323 344.04 199.643 343.464C199.963 342.872 200.123 342.168 200.123 341.352ZM222.012 339.408C222.956 339.584 223.732 340.056 224.34 340.824C224.948 341.592 225.252 342.472 225.252 343.464C225.252 344.36 225.028 345.152 224.58 345.84C224.148 346.512 223.516 347.04 222.684 347.424C221.852 347.808 220.868 348 219.732 348H212.508V331.248H219.42C220.556 331.248 221.532 331.432 222.348 331.8C223.18 332.168 223.804 332.68 224.22 333.336C224.652 333.992 224.868 334.736 224.868 335.568C224.868 336.544 224.604 337.36 224.076 338.016C223.564 338.672 222.876 339.136 222.012 339.408ZM215.868 338.16H218.94C219.74 338.16 220.356 337.984 220.788 337.632C221.22 337.264 221.436 336.744 221.436 336.072C221.436 335.4 221.22 334.88 220.788 334.512C220.356 334.144 219.74 333.96 218.94 333.96H215.868V338.16ZM219.252 345.264C220.068 345.264 220.7 345.072 221.148 344.688C221.612 344.304 221.844 343.76 221.844 343.056C221.844 342.336 221.604 341.776 221.124 341.376C220.644 340.96 219.996 340.752 219.18 340.752H215.868V345.264H219.252ZM229.633 333.12C229.041 333.12 228.545 332.936 228.145 332.568C227.761 332.184 227.569 331.712 227.569 331.152C227.569 330.592 227.761 330.128 228.145 329.76C228.545 329.376 229.041 329.184 229.633 329.184C230.225 329.184 230.713 329.376 231.097 329.76C231.497 330.128 231.697 330.592 231.697 331.152C231.697 331.712 231.497 332.184 231.097 332.568C230.713 332.936 230.225 333.12 229.633 333.12ZM231.289 334.704V348H227.929V334.704H231.289ZM233.745 341.304C233.745 339.96 234.009 338.768 234.537 337.728C235.081 336.688 235.809 335.888 236.721 335.328C237.649 334.768 238.681 334.488 239.817 334.488C240.809 334.488 241.673 334.688 242.409 335.088C243.161 335.488 243.761 335.992 244.209 336.6V334.704H247.593V348H244.209V346.056C243.777 346.68 243.177 347.2 242.409 347.616C241.657 348.016 240.785 348.216 239.793 348.216C238.673 348.216 237.649 347.928 236.721 347.352C235.809 346.776 235.081 345.968 234.537 344.928C234.009 343.872 233.745 342.664 233.745 341.304ZM244.209 341.352C244.209 340.536 244.049 339.84 243.729 339.264C243.409 338.672 242.977 338.224 242.433 337.92C241.889 337.6 241.305 337.44 240.681 337.44C240.057 337.44 239.481 337.592 238.953 337.896C238.425 338.2 237.993 338.648 237.657 339.24C237.337 339.816 237.177 340.504 237.177 341.304C237.177 342.104 237.337 342.808 237.657 343.416C237.993 344.008 238.425 344.464 238.953 344.784C239.497 345.104 240.073 345.264 240.681 345.264C241.305 345.264 241.889 345.112 242.433 344.808C242.977 344.488 243.409 344.04 243.729 343.464C244.049 342.872 244.209 342.168 244.209 341.352ZM255.963 348.216C254.875 348.216 253.899 348.024 253.035 347.64C252.171 347.24 251.483 346.704 250.971 346.032C250.475 345.36 250.203 344.616 250.155 343.8H253.539C253.603 344.312 253.851 344.736 254.283 345.072C254.731 345.408 255.283 345.576 255.939 345.576C256.579 345.576 257.075 345.448 257.427 345.192C257.795 344.936 257.979 344.608 257.979 344.208C257.979 343.776 257.755 343.456 257.307 343.248C256.875 343.024 256.179 342.784 255.219 342.528C254.227 342.288 253.411 342.04 252.771 341.784C252.147 341.528 251.603 341.136 251.139 340.608C250.691 340.08 250.467 339.368 250.467 338.472C250.467 337.736 250.675 337.064 251.091 336.456C251.523 335.848 252.131 335.368 252.915 335.016C253.715 334.664 254.651 334.488 255.723 334.488C257.307 334.488 258.571 334.888 259.515 335.688C260.459 336.472 260.979 337.536 261.075 338.88H257.859C257.811 338.352 257.587 337.936 257.187 337.632C256.803 337.312 256.283 337.152 255.627 337.152C255.019 337.152 254.547 337.264 254.211 337.488C253.891 337.712 253.731 338.024 253.731 338.424C253.731 338.872 253.955 339.216 254.403 339.456C254.851 339.68 255.547 339.912 256.491 340.152C257.451 340.392 258.243 340.64 258.867 340.896C259.491 341.152 260.027 341.552 260.475 342.096C260.939 342.624 261.179 343.328 261.195 344.208C261.195 344.976 260.979 345.664 260.547 346.272C260.131 346.88 259.523 347.36 258.723 347.712C257.939 348.048 257.019 348.216 255.963 348.216ZM263.089 341.304C263.089 339.96 263.353 338.768 263.881 337.728C264.425 336.688 265.153 335.888 266.065 335.328C266.993 334.768 268.025 334.488 269.161 334.488C270.153 334.488 271.017 334.688 271.753 335.088C272.505 335.488 273.105 335.992 273.553 336.6V334.704H276.937V348H273.553V346.056C273.121 346.68 272.521 347.2 271.753 347.616C271.001 348.016 270.129 348.216 269.137 348.216C268.017 348.216 266.993 347.928 266.065 347.352C265.153 346.776 264.425 345.968 263.881 344.928C263.353 343.872 263.089 342.664 263.089 341.304ZM273.553 341.352C273.553 340.536 273.393 339.84 273.073 339.264C272.753 338.672 272.321 338.224 271.777 337.92C271.233 337.6 270.649 337.44 270.025 337.44C269.401 337.44 268.825 337.592 268.297 337.896C267.769 338.2 267.337 338.648 267.001 339.24C266.681 339.816 266.521 340.504 266.521 341.304C266.521 342.104 266.681 342.808 267.001 343.416C267.337 344.008 267.769 344.464 268.297 344.784C268.841 345.104 269.417 345.264 270.025 345.264C270.649 345.264 271.233 345.112 271.777 344.808C272.321 344.488 272.753 344.04 273.073 343.464C273.393 342.872 273.553 342.168 273.553 341.352Z" fill="#FDFDFD"/>
</svg>
