<svg width="360" height="409" viewBox="0 0 360 409" fill="none" xmlns="http://www.w3.org/2000/svg">
<path d="M0 33.1879C0 14.9625 14.7746 0.187866 33 0.187866H327C345.225 0.187866 360 14.9625 360 33.1879V269.996H0V33.1879Z" fill="#FFF1A6"/>
<path d="M58.4249 86.168C57.3049 86.168 56.2969 85.976 55.4009 85.592C54.5049 85.192 53.8009 84.632 53.2889 83.912C52.7769 83.192 52.5209 82.352 52.5209 81.392H55.4489C55.5129 82.112 55.7929 82.704 56.2889 83.168C56.8009 83.632 57.5129 83.864 58.4249 83.864C59.3689 83.864 60.1049 83.64 60.6329 83.192C61.1609 82.728 61.4249 82.136 61.4249 81.416C61.4249 80.856 61.2569 80.4 60.9209 80.048C60.6009 79.696 60.1929 79.424 59.6969 79.232C59.2169 79.04 58.5449 78.832 57.6809 78.608C56.5929 78.32 55.7049 78.032 55.0169 77.744C54.3449 77.44 53.7689 76.976 53.2889 76.352C52.8089 75.728 52.5689 74.896 52.5689 73.856C52.5689 72.896 52.8089 72.056 53.2889 71.336C53.7689 70.616 54.4409 70.064 55.3049 69.68C56.1689 69.296 57.1689 69.104 58.3049 69.104C59.9209 69.104 61.2409 69.512 62.2649 70.328C63.3049 71.128 63.8809 72.232 63.9929 73.64H60.9689C60.9209 73.032 60.6329 72.512 60.1049 72.08C59.5769 71.648 58.8809 71.432 58.0169 71.432C57.2329 71.432 56.5929 71.632 56.0969 72.032C55.6009 72.432 55.3529 73.008 55.3529 73.76C55.3529 74.272 55.5049 74.696 55.8089 75.032C56.1289 75.352 56.5289 75.608 57.0089 75.8C57.4889 75.992 58.1449 76.2 58.9769 76.424C60.0809 76.728 60.9769 77.032 61.6649 77.336C62.3689 77.64 62.9609 78.112 63.4409 78.752C63.9369 79.376 64.1849 80.216 64.1849 81.272C64.1849 82.12 63.9529 82.92 63.4889 83.672C63.0409 84.424 62.3769 85.032 61.4969 85.496C60.6329 85.944 59.6089 86.168 58.4249 86.168ZM74.2533 72.56C75.2613 72.56 76.1573 72.776 76.9413 73.208C77.7413 73.64 78.3653 74.28 78.8133 75.128C79.2773 75.976 79.5093 77 79.5093 78.2V86H76.7973V78.608C76.7973 77.424 76.5013 76.52 75.9093 75.896C75.3173 75.256 74.5093 74.936 73.4853 74.936C72.4613 74.936 71.6453 75.256 71.0373 75.896C70.4453 76.52 70.1493 77.424 70.1493 78.608V86H67.4133V68.24H70.1493V74.312C70.6133 73.752 71.1973 73.32 71.9013 73.016C72.6213 72.712 73.4053 72.56 74.2533 72.56ZM82.0872 79.328C82.0872 78 82.3592 76.824 82.9032 75.8C83.4632 74.776 84.2152 73.984 85.1592 73.424C86.1192 72.848 87.1752 72.56 88.3272 72.56C89.3672 72.56 90.2712 72.768 91.0392 73.184C91.8232 73.584 92.4472 74.088 92.9112 74.696V72.776H95.6712V86H92.9112V84.032C92.4472 84.656 91.8152 85.176 91.0152 85.592C90.2152 86.008 89.3032 86.216 88.2792 86.216C87.1432 86.216 86.1032 85.928 85.1592 85.352C84.2152 84.76 83.4632 83.944 82.9032 82.904C82.3592 81.848 82.0872 80.656 82.0872 79.328ZM92.9112 79.376C92.9112 78.464 92.7192 77.672 92.3352 77C91.9672 76.328 91.4792 75.816 90.8712 75.464C90.2632 75.112 89.6072 74.936 88.9032 74.936C88.1992 74.936 87.5432 75.112 86.9352 75.464C86.3272 75.8 85.8312 76.304 85.4472 76.976C85.0792 77.632 84.8952 78.416 84.8952 79.328C84.8952 80.24 85.0792 81.04 85.4472 81.728C85.8312 82.416 86.3272 82.944 86.9352 83.312C87.5592 83.664 88.2152 83.84 88.9032 83.84C89.6072 83.84 90.2632 83.664 90.8712 83.312C91.4792 82.96 91.9672 82.448 92.3352 81.776C92.7192 81.088 92.9112 80.288 92.9112 79.376ZM115.273 72.56C116.313 72.56 117.241 72.776 118.057 73.208C118.889 73.64 119.537 74.28 120.001 75.128C120.481 75.976 120.721 77 120.721 78.2V86H118.009V78.608C118.009 77.424 117.713 76.52 117.121 75.896C116.529 75.256 115.721 74.936 114.697 74.936C113.673 74.936 112.857 75.256 112.249 75.896C111.657 76.52 111.361 77.424 111.361 78.608V86H108.649V78.608C108.649 77.424 108.353 76.52 107.761 75.896C107.169 75.256 106.361 74.936 105.337 74.936C104.313 74.936 103.497 75.256 102.889 75.896C102.297 76.52 102.001 77.424 102.001 78.608V86H99.2648V72.776H102.001V74.288C102.449 73.744 103.017 73.32 103.705 73.016C104.393 72.712 105.129 72.56 105.913 72.56C106.969 72.56 107.913 72.784 108.745 73.232C109.577 73.68 110.217 74.328 110.665 75.176C111.065 74.376 111.689 73.744 112.537 73.28C113.385 72.8 114.297 72.56 115.273 72.56ZM126.938 74.72C127.402 74.112 128.034 73.6 128.834 73.184C129.634 72.768 130.538 72.56 131.546 72.56C132.698 72.56 133.746 72.848 134.69 73.424C135.65 73.984 136.402 74.776 136.946 75.8C137.49 76.824 137.762 78 137.762 79.328C137.762 80.656 137.49 81.848 136.946 82.904C136.402 83.944 135.65 84.76 134.69 85.352C133.746 85.928 132.698 86.216 131.546 86.216C130.538 86.216 129.642 86.016 128.858 85.616C128.074 85.2 127.434 84.688 126.938 84.08V92.288H124.202V72.776H126.938V74.72ZM134.978 79.328C134.978 78.416 134.786 77.632 134.402 76.976C134.034 76.304 133.538 75.8 132.914 75.464C132.306 75.112 131.65 74.936 130.946 74.936C130.258 74.936 129.602 75.112 128.978 75.464C128.37 75.816 127.874 76.328 127.49 77C127.122 77.672 126.938 78.464 126.938 79.376C126.938 80.288 127.122 81.088 127.49 81.776C127.874 82.448 128.37 82.96 128.978 83.312C129.602 83.664 130.258 83.84 130.946 83.84C131.65 83.84 132.306 83.664 132.914 83.312C133.538 82.944 134.034 82.416 134.402 81.728C134.786 81.04 134.978 80.24 134.978 79.328ZM146.204 86.216C144.956 86.216 143.828 85.936 142.82 85.376C141.812 84.8 141.02 84 140.444 82.976C139.868 81.936 139.58 80.736 139.58 79.376C139.58 78.032 139.876 76.84 140.468 75.8C141.06 74.76 141.868 73.96 142.892 73.4C143.916 72.84 145.06 72.56 146.324 72.56C147.588 72.56 148.732 72.84 149.756 73.4C150.78 73.96 151.588 74.76 152.18 75.8C152.772 76.84 153.068 78.032 153.068 79.376C153.068 80.72 152.764 81.912 152.156 82.952C151.548 83.992 150.716 84.8 149.66 85.376C148.62 85.936 147.468 86.216 146.204 86.216ZM146.204 83.84C146.908 83.84 147.564 83.672 148.172 83.336C148.796 83 149.3 82.496 149.684 81.824C150.068 81.152 150.26 80.336 150.26 79.376C150.26 78.416 150.076 77.608 149.708 76.952C149.34 76.28 148.852 75.776 148.244 75.44C147.636 75.104 146.98 74.936 146.276 74.936C145.572 74.936 144.916 75.104 144.308 75.44C143.716 75.776 143.244 76.28 142.892 76.952C142.54 77.608 142.364 78.416 142.364 79.376C142.364 80.8 142.724 81.904 143.444 82.688C144.18 83.456 145.1 83.84 146.204 83.84ZM161.509 86.216C160.261 86.216 159.133 85.936 158.125 85.376C157.117 84.8 156.325 84 155.749 82.976C155.173 81.936 154.885 80.736 154.885 79.376C154.885 78.032 155.181 76.84 155.773 75.8C156.365 74.76 157.173 73.96 158.197 73.4C159.221 72.84 160.365 72.56 161.629 72.56C162.893 72.56 164.037 72.84 165.061 73.4C166.085 73.96 166.893 74.76 167.485 75.8C168.077 76.84 168.373 78.032 168.373 79.376C168.373 80.72 168.069 81.912 167.461 82.952C166.853 83.992 166.021 84.8 164.965 85.376C163.925 85.936 162.773 86.216 161.509 86.216ZM161.509 83.84C162.213 83.84 162.869 83.672 163.477 83.336C164.101 83 164.605 82.496 164.989 81.824C165.373 81.152 165.565 80.336 165.565 79.376C165.565 78.416 165.381 77.608 165.013 76.952C164.645 76.28 164.157 75.776 163.549 75.44C162.941 75.104 162.285 74.936 161.581 74.936C160.877 74.936 160.221 75.104 159.613 75.44C159.021 75.776 158.549 76.28 158.197 76.952C157.845 77.608 157.669 78.416 157.669 79.376C157.669 80.8 158.029 81.904 158.749 82.688C159.485 83.456 160.405 83.84 161.509 83.84ZM187.368 82.592H180.384L179.184 86H176.328L182.304 69.296H185.472L191.448 86H188.568L187.368 82.592ZM186.6 80.36L183.888 72.608L181.152 80.36H186.6ZM200.718 72.56C201.758 72.56 202.686 72.776 203.502 73.208C204.334 73.64 204.982 74.28 205.446 75.128C205.91 75.976 206.142 77 206.142 78.2V86H203.43V78.608C203.43 77.424 203.134 76.52 202.542 75.896C201.95 75.256 201.142 74.936 200.118 74.936C199.094 74.936 198.278 75.256 197.67 75.896C197.078 76.52 196.782 77.424 196.782 78.608V86H194.046V72.776H196.782V74.288C197.23 73.744 197.798 73.32 198.486 73.016C199.19 72.712 199.934 72.56 200.718 72.56ZM212.824 75.008V82.328C212.824 82.824 212.936 83.184 213.16 83.408C213.4 83.616 213.8 83.72 214.36 83.72H216.04V86H213.88C212.648 86 211.704 85.712 211.048 85.136C210.392 84.56 210.064 83.624 210.064 82.328V75.008H208.504V72.776H210.064V69.488H212.824V72.776H216.04V75.008H212.824ZM219.954 71.024C219.458 71.024 219.042 70.856 218.706 70.52C218.37 70.184 218.202 69.768 218.202 69.272C218.202 68.776 218.37 68.36 218.706 68.024C219.042 67.688 219.458 67.52 219.954 67.52C220.434 67.52 220.842 67.688 221.178 68.024C221.514 68.36 221.682 68.776 221.682 69.272C221.682 69.768 221.514 70.184 221.178 70.52C220.842 70.856 220.434 71.024 219.954 71.024ZM221.298 72.776V86H218.562V72.776H221.298ZM240.22 69.32V81.344C240.22 82.832 239.764 84.008 238.852 84.872C237.956 85.736 236.772 86.168 235.3 86.168C233.828 86.168 232.636 85.736 231.724 84.872C230.828 84.008 230.38 82.832 230.38 81.344H233.14C233.156 82.08 233.34 82.664 233.692 83.096C234.06 83.528 234.596 83.744 235.3 83.744C236.004 83.744 236.54 83.528 236.908 83.096C237.276 82.648 237.46 82.064 237.46 81.344V69.32H240.22ZM243.759 79.328C243.759 78 244.031 76.824 244.575 75.8C245.135 74.776 245.887 73.984 246.831 73.424C247.791 72.848 248.847 72.56 249.999 72.56C251.039 72.56 251.943 72.768 252.711 73.184C253.495 73.584 254.119 74.088 254.583 74.696V72.776H257.343V86H254.583V84.032C254.119 84.656 253.487 85.176 252.687 85.592C251.887 86.008 250.975 86.216 249.951 86.216C248.815 86.216 247.775 85.928 246.831 85.352C245.887 84.76 245.135 83.944 244.575 82.904C244.031 81.848 243.759 80.656 243.759 79.328ZM254.583 79.376C254.583 78.464 254.391 77.672 254.007 77C253.639 76.328 253.151 75.816 252.543 75.464C251.935 75.112 251.279 74.936 250.575 74.936C249.871 74.936 249.215 75.112 248.607 75.464C247.999 75.8 247.503 76.304 247.119 76.976C246.751 77.632 246.567 78.416 246.567 79.328C246.567 80.24 246.751 81.04 247.119 81.728C247.503 82.416 247.999 82.944 248.607 83.312C249.231 83.664 249.887 83.84 250.575 83.84C251.279 83.84 251.935 83.664 252.543 83.312C253.151 82.96 253.639 82.448 254.007 81.776C254.391 81.088 254.583 80.288 254.583 79.376ZM276.945 72.56C277.985 72.56 278.913 72.776 279.729 73.208C280.561 73.64 281.209 74.28 281.673 75.128C282.153 75.976 282.393 77 282.393 78.2V86H279.681V78.608C279.681 77.424 279.385 76.52 278.793 75.896C278.201 75.256 277.393 74.936 276.369 74.936C275.345 74.936 274.529 75.256 273.921 75.896C273.329 76.52 273.033 77.424 273.033 78.608V86H270.321V78.608C270.321 77.424 270.025 76.52 269.433 75.896C268.841 75.256 268.033 74.936 267.009 74.936C265.985 74.936 265.169 75.256 264.561 75.896C263.969 76.52 263.673 77.424 263.673 78.608V86H260.937V72.776H263.673V74.288C264.121 73.744 264.689 73.32 265.377 73.016C266.065 72.712 266.801 72.56 267.585 72.56C268.641 72.56 269.585 72.784 270.417 73.232C271.249 73.68 271.889 74.328 272.337 75.176C272.737 74.376 273.361 73.744 274.209 73.28C275.057 72.8 275.969 72.56 276.945 72.56ZM297.85 72.776V86H295.114V84.44C294.682 84.984 294.114 85.416 293.41 85.736C292.722 86.04 291.986 86.192 291.202 86.192C290.162 86.192 289.226 85.976 288.394 85.544C287.578 85.112 286.93 84.472 286.45 83.624C285.986 82.776 285.754 81.752 285.754 80.552V72.776H288.466V80.144C288.466 81.328 288.762 82.24 289.354 82.88C289.946 83.504 290.754 83.816 291.778 83.816C292.802 83.816 293.61 83.504 294.202 82.88C294.81 82.24 295.114 81.328 295.114 80.144V72.776H297.85ZM304.196 74.696C304.596 74.024 305.124 73.504 305.78 73.136C306.452 72.752 307.244 72.56 308.156 72.56V75.392H307.46C306.388 75.392 305.572 75.664 305.012 76.208C304.468 76.752 304.196 77.696 304.196 79.04V86H301.46V72.776H304.196V74.696ZM149.343 103.288C149.343 104.136 149.143 104.936 148.743 105.688C148.343 106.44 147.703 107.056 146.823 107.536C145.943 108 144.815 108.232 143.439 108.232H140.415V115H137.679V98.32H143.439C144.719 98.32 145.799 98.544 146.679 98.992C147.575 99.424 148.239 100.016 148.671 100.768C149.119 101.52 149.343 102.36 149.343 103.288ZM143.439 106C144.479 106 145.255 105.768 145.767 105.304C146.279 104.824 146.535 104.152 146.535 103.288C146.535 101.464 145.503 100.552 143.439 100.552H140.415V106H143.439ZM151.04 108.328C151.04 107 151.312 105.824 151.856 104.8C152.416 103.776 153.168 102.984 154.112 102.424C155.072 101.848 156.128 101.56 157.28 101.56C158.32 101.56 159.224 101.768 159.992 102.184C160.776 102.584 161.4 103.088 161.864 103.696V101.776H164.624V115H161.864V113.032C161.4 113.656 160.768 114.176 159.968 114.592C159.168 115.008 158.256 115.216 157.232 115.216C156.096 115.216 155.056 114.928 154.112 114.352C153.168 113.76 152.416 112.944 151.856 111.904C151.312 110.848 151.04 109.656 151.04 108.328ZM161.864 108.376C161.864 107.464 161.672 106.672 161.288 106C160.92 105.328 160.432 104.816 159.824 104.464C159.216 104.112 158.56 103.936 157.856 103.936C157.152 103.936 156.496 104.112 155.888 104.464C155.28 104.8 154.784 105.304 154.4 105.976C154.032 106.632 153.848 107.416 153.848 108.328C153.848 109.24 154.032 110.04 154.4 110.728C154.784 111.416 155.28 111.944 155.888 112.312C156.512 112.664 157.168 112.84 157.856 112.84C158.56 112.84 159.216 112.664 159.824 112.312C160.432 111.96 160.92 111.448 161.288 110.776C161.672 110.088 161.864 109.288 161.864 108.376ZM170.954 103.696C171.354 103.024 171.882 102.504 172.538 102.136C173.21 101.752 174.002 101.56 174.914 101.56V104.392H174.218C173.146 104.392 172.33 104.664 171.77 105.208C171.226 105.752 170.954 106.696 170.954 108.04V115H168.218V101.776H170.954V103.696ZM182.973 104.008H180.525V115H177.765V104.008H176.205V101.776H177.765V100.84C177.765 99.32 178.165 98.216 178.965 97.528C179.781 96.824 181.053 96.472 182.781 96.472V98.752C181.949 98.752 181.365 98.912 181.029 99.232C180.693 99.536 180.525 100.072 180.525 100.84V101.776H182.973V104.008ZM197.374 101.776V115H194.638V113.44C194.206 113.984 193.638 114.416 192.934 114.736C192.246 115.04 191.51 115.192 190.726 115.192C189.686 115.192 188.75 114.976 187.918 114.544C187.102 114.112 186.454 113.472 185.974 112.624C185.51 111.776 185.278 110.752 185.278 109.552V101.776H187.99V109.144C187.99 110.328 188.286 111.24 188.878 111.88C189.47 112.504 190.278 112.816 191.302 112.816C192.326 112.816 193.134 112.504 193.726 111.88C194.334 111.24 194.638 110.328 194.638 109.144V101.776H197.374ZM216.992 101.56C218.032 101.56 218.96 101.776 219.776 102.208C220.608 102.64 221.256 103.28 221.72 104.128C222.2 104.976 222.44 106 222.44 107.2V115H219.728V107.608C219.728 106.424 219.432 105.52 218.84 104.896C218.248 104.256 217.44 103.936 216.416 103.936C215.392 103.936 214.576 104.256 213.968 104.896C213.376 105.52 213.08 106.424 213.08 107.608V115H210.368V107.608C210.368 106.424 210.072 105.52 209.48 104.896C208.888 104.256 208.08 103.936 207.056 103.936C206.032 103.936 205.216 104.256 204.608 104.896C204.016 105.52 203.72 106.424 203.72 107.608V115H200.984V101.776H203.72V103.288C204.168 102.744 204.736 102.32 205.424 102.016C206.112 101.712 206.848 101.56 207.632 101.56C208.688 101.56 209.632 101.784 210.464 102.232C211.296 102.68 211.936 103.328 212.384 104.176C212.784 103.376 213.408 102.744 214.256 102.28C215.104 101.8 216.016 101.56 216.992 101.56ZM117.691 132.288C117.691 133.136 117.491 133.936 117.091 134.688C116.691 135.44 116.051 136.056 115.171 136.536C114.291 137 113.163 137.232 111.787 137.232H108.763V144H106.027V127.32H111.787C113.067 127.32 114.147 127.544 115.027 127.992C115.923 128.424 116.587 129.016 117.019 129.768C117.467 130.52 117.691 131.36 117.691 132.288ZM111.787 135C112.827 135 113.603 134.768 114.115 134.304C114.627 133.824 114.883 133.152 114.883 132.288C114.883 130.464 113.851 129.552 111.787 129.552H108.763V135H111.787ZM126.036 144.216C124.788 144.216 123.66 143.936 122.652 143.376C121.644 142.8 120.852 142 120.276 140.976C119.7 139.936 119.412 138.736 119.412 137.376C119.412 136.032 119.708 134.84 120.3 133.8C120.892 132.76 121.7 131.96 122.724 131.4C123.748 130.84 124.892 130.56 126.156 130.56C127.42 130.56 128.564 130.84 129.588 131.4C130.612 131.96 131.42 132.76 132.012 133.8C132.604 134.84 132.9 136.032 132.9 137.376C132.9 138.72 132.596 139.912 131.988 140.952C131.38 141.992 130.548 142.8 129.492 143.376C128.452 143.936 127.3 144.216 126.036 144.216ZM126.036 141.84C126.74 141.84 127.396 141.672 128.004 141.336C128.628 141 129.132 140.496 129.516 139.824C129.9 139.152 130.092 138.336 130.092 137.376C130.092 136.416 129.908 135.608 129.54 134.952C129.172 134.28 128.684 133.776 128.076 133.44C127.468 133.104 126.812 132.936 126.108 132.936C125.404 132.936 124.748 133.104 124.14 133.44C123.548 133.776 123.076 134.28 122.724 134.952C122.372 135.608 122.196 136.416 122.196 137.376C122.196 138.8 122.556 139.904 123.276 140.688C124.012 141.456 124.932 141.84 126.036 141.84ZM138.797 133.008V140.328C138.797 140.824 138.909 141.184 139.133 141.408C139.373 141.616 139.773 141.72 140.333 141.72H142.013V144H139.853C138.621 144 137.677 143.712 137.021 143.136C136.365 142.56 136.037 141.624 136.037 140.328V133.008H134.477V130.776H136.037V127.488H138.797V130.776H142.013V133.008H138.797ZM150.27 144.216C149.022 144.216 147.894 143.936 146.886 143.376C145.878 142.8 145.086 142 144.51 140.976C143.934 139.936 143.646 138.736 143.646 137.376C143.646 136.032 143.942 134.84 144.534 133.8C145.126 132.76 145.934 131.96 146.958 131.4C147.982 130.84 149.126 130.56 150.39 130.56C151.654 130.56 152.798 130.84 153.822 131.4C154.846 131.96 155.654 132.76 156.246 133.8C156.838 134.84 157.134 136.032 157.134 137.376C157.134 138.72 156.83 139.912 156.222 140.952C155.614 141.992 154.782 142.8 153.726 143.376C152.686 143.936 151.534 144.216 150.27 144.216ZM150.27 141.84C150.974 141.84 151.63 141.672 152.238 141.336C152.862 141 153.366 140.496 153.75 139.824C154.134 139.152 154.326 138.336 154.326 137.376C154.326 136.416 154.142 135.608 153.774 134.952C153.406 134.28 152.918 133.776 152.31 133.44C151.702 133.104 151.046 132.936 150.342 132.936C149.638 132.936 148.982 133.104 148.374 133.44C147.782 133.776 147.31 134.28 146.958 134.952C146.606 135.608 146.43 136.416 146.43 137.376C146.43 138.8 146.79 139.904 147.51 140.688C148.246 141.456 149.166 141.84 150.27 141.84ZM166.511 130.56C167.551 130.56 168.479 130.776 169.295 131.208C170.127 131.64 170.775 132.28 171.239 133.128C171.703 133.976 171.935 135 171.935 136.2V144H169.223V136.608C169.223 135.424 168.927 134.52 168.335 133.896C167.743 133.256 166.935 132.936 165.911 132.936C164.887 132.936 164.071 133.256 163.463 133.896C162.871 134.52 162.575 135.424 162.575 136.608V144H159.839V130.776H162.575V132.288C163.023 131.744 163.591 131.32 164.279 131.016C164.983 130.712 165.727 130.56 166.511 130.56ZM180.753 130.56C181.777 130.56 182.681 130.768 183.465 131.184C184.265 131.584 184.889 132.088 185.337 132.696V130.776H188.097V144.216C188.097 145.432 187.841 146.512 187.329 147.456C186.817 148.416 186.073 149.168 185.097 149.712C184.137 150.256 182.985 150.528 181.641 150.528C179.849 150.528 178.361 150.104 177.177 149.256C175.993 148.424 175.321 147.288 175.161 145.848H177.873C178.081 146.536 178.521 147.088 179.193 147.504C179.881 147.936 180.697 148.152 181.641 148.152C182.745 148.152 183.633 147.816 184.305 147.144C184.993 146.472 185.337 145.496 185.337 144.216V142.008C184.873 142.632 184.241 143.16 183.441 143.592C182.657 144.008 181.761 144.216 180.753 144.216C179.601 144.216 178.545 143.928 177.585 143.352C176.641 142.76 175.889 141.944 175.329 140.904C174.785 139.848 174.513 138.656 174.513 137.328C174.513 136 174.785 134.824 175.329 133.8C175.889 132.776 176.641 131.984 177.585 131.424C178.545 130.848 179.601 130.56 180.753 130.56ZM185.337 137.376C185.337 136.464 185.145 135.672 184.761 135C184.393 134.328 183.905 133.816 183.297 133.464C182.689 133.112 182.033 132.936 181.329 132.936C180.625 132.936 179.969 133.112 179.361 133.464C178.753 133.8 178.257 134.304 177.873 134.976C177.505 135.632 177.321 136.416 177.321 137.328C177.321 138.24 177.505 139.04 177.873 139.728C178.257 140.416 178.753 140.944 179.361 141.312C179.985 141.664 180.641 141.84 181.329 141.84C182.033 141.84 182.689 141.664 183.297 141.312C183.905 140.96 184.393 140.448 184.761 139.776C185.145 139.088 185.337 138.288 185.337 137.376ZM207.117 144L200.661 136.536V144H197.925V127.32H200.661V134.928L207.141 127.32H210.573L203.325 135.672L210.693 144H207.117ZM225.089 130.776V144H222.353V142.44C221.921 142.984 221.353 143.416 220.649 143.736C219.961 144.04 219.225 144.192 218.441 144.192C217.401 144.192 216.465 143.976 215.633 143.544C214.817 143.112 214.169 142.472 213.689 141.624C213.225 140.776 212.993 139.752 212.993 138.552V130.776H215.705V138.144C215.705 139.328 216.001 140.24 216.593 140.88C217.185 141.504 217.993 141.816 219.017 141.816C220.041 141.816 220.849 141.504 221.441 140.88C222.049 140.24 222.353 139.328 222.353 138.144V130.776H225.089ZM233.93 137.4L240.026 144H236.33L231.434 138.312V144H228.698V126.24H231.434V136.56L236.234 130.776H240.026L233.93 137.4ZM253.964 130.776V144H251.228V142.44C250.796 142.984 250.228 143.416 249.524 143.736C248.836 144.04 248.1 144.192 247.316 144.192C246.276 144.192 245.34 143.976 244.508 143.544C243.692 143.112 243.044 142.472 242.564 141.624C242.1 140.776 241.868 139.752 241.868 138.552V130.776H244.58V138.144C244.58 139.328 244.876 140.24 245.468 140.88C246.06 141.504 246.868 141.816 247.892 141.816C248.916 141.816 249.724 141.504 250.316 140.88C250.924 140.24 251.228 139.328 251.228 138.144V130.776H253.964ZM106.197 156.32V158.552H101.757V173H99.0211V158.552H94.5571V156.32H106.197ZM111.704 161.696C112.104 161.024 112.632 160.504 113.288 160.136C113.96 159.752 114.752 159.56 115.664 159.56V162.392H114.968C113.896 162.392 113.08 162.664 112.52 163.208C111.976 163.752 111.704 164.696 111.704 166.04V173H108.968V159.776H111.704V161.696ZM119.571 158.024C119.075 158.024 118.659 157.856 118.323 157.52C117.987 157.184 117.819 156.768 117.819 156.272C117.819 155.776 117.987 155.36 118.323 155.024C118.659 154.688 119.075 154.52 119.571 154.52C120.051 154.52 120.459 154.688 120.795 155.024C121.131 155.36 121.299 155.776 121.299 156.272C121.299 156.768 121.131 157.184 120.795 157.52C120.459 157.856 120.051 158.024 119.571 158.024ZM120.915 159.776V173H118.179V159.776H120.915ZM140.515 159.56C141.555 159.56 142.483 159.776 143.299 160.208C144.131 160.64 144.779 161.28 145.243 162.128C145.723 162.976 145.963 164 145.963 165.2V173H143.251V165.608C143.251 164.424 142.955 163.52 142.363 162.896C141.771 162.256 140.963 161.936 139.939 161.936C138.915 161.936 138.099 162.256 137.491 162.896C136.899 163.52 136.603 164.424 136.603 165.608V173H133.891V165.608C133.891 164.424 133.595 163.52 133.003 162.896C132.411 162.256 131.603 161.936 130.579 161.936C129.555 161.936 128.739 162.256 128.131 162.896C127.539 163.52 127.243 164.424 127.243 165.608V173H124.507V159.776H127.243V161.288C127.691 160.744 128.259 160.32 128.947 160.016C129.635 159.712 130.371 159.56 131.155 159.56C132.211 159.56 133.155 159.784 133.987 160.232C134.819 160.68 135.459 161.328 135.907 162.176C136.307 161.376 136.931 160.744 137.779 160.28C138.627 159.8 139.539 159.56 140.515 159.56ZM165.453 159.56C166.493 159.56 167.421 159.776 168.237 160.208C169.069 160.64 169.717 161.28 170.181 162.128C170.661 162.976 170.901 164 170.901 165.2V173H168.189V165.608C168.189 164.424 167.893 163.52 167.301 162.896C166.709 162.256 165.901 161.936 164.877 161.936C163.853 161.936 163.037 162.256 162.429 162.896C161.837 163.52 161.541 164.424 161.541 165.608V173H158.829V165.608C158.829 164.424 158.533 163.52 157.941 162.896C157.349 162.256 156.541 161.936 155.517 161.936C154.493 161.936 153.677 162.256 153.069 162.896C152.477 163.52 152.181 164.424 152.181 165.608V173H149.445V159.776H152.181V161.288C152.629 160.744 153.197 160.32 153.885 160.016C154.573 159.712 155.309 159.56 156.093 159.56C157.149 159.56 158.093 159.784 158.925 160.232C159.757 160.68 160.397 161.328 160.845 162.176C161.245 161.376 161.869 160.744 162.717 160.28C163.565 159.8 164.477 159.56 165.453 159.56ZM175.774 158.024C175.278 158.024 174.862 157.856 174.526 157.52C174.19 157.184 174.022 156.768 174.022 156.272C174.022 155.776 174.19 155.36 174.526 155.024C174.862 154.688 175.278 154.52 175.774 154.52C176.254 154.52 176.662 154.688 176.998 155.024C177.334 155.36 177.502 155.776 177.502 156.272C177.502 156.768 177.334 157.184 176.998 157.52C176.662 157.856 176.254 158.024 175.774 158.024ZM177.118 159.776V173H174.382V159.776H177.118ZM187.382 159.56C188.422 159.56 189.35 159.776 190.166 160.208C190.998 160.64 191.646 161.28 192.11 162.128C192.574 162.976 192.806 164 192.806 165.2V173H190.094V165.608C190.094 164.424 189.798 163.52 189.206 162.896C188.614 162.256 187.806 161.936 186.782 161.936C185.758 161.936 184.942 162.256 184.334 162.896C183.742 163.52 183.446 164.424 183.446 165.608V173H180.71V159.776H183.446V161.288C183.894 160.744 184.462 160.32 185.15 160.016C185.854 159.712 186.598 159.56 187.382 159.56ZM201.624 159.56C202.648 159.56 203.552 159.768 204.336 160.184C205.136 160.584 205.76 161.088 206.208 161.696V159.776H208.968V173.216C208.968 174.432 208.712 175.512 208.2 176.456C207.688 177.416 206.944 178.168 205.968 178.712C205.008 179.256 203.856 179.528 202.512 179.528C200.72 179.528 199.232 179.104 198.048 178.256C196.864 177.424 196.192 176.288 196.032 174.848H198.744C198.952 175.536 199.392 176.088 200.064 176.504C200.752 176.936 201.568 177.152 202.512 177.152C203.616 177.152 204.504 176.816 205.176 176.144C205.864 175.472 206.208 174.496 206.208 173.216V171.008C205.744 171.632 205.112 172.16 204.312 172.592C203.528 173.008 202.632 173.216 201.624 173.216C200.472 173.216 199.416 172.928 198.456 172.352C197.512 171.76 196.76 170.944 196.2 169.904C195.656 168.848 195.384 167.656 195.384 166.328C195.384 165 195.656 163.824 196.2 162.8C196.76 161.776 197.512 160.984 198.456 160.424C199.416 159.848 200.472 159.56 201.624 159.56ZM206.208 166.376C206.208 165.464 206.016 164.672 205.632 164C205.264 163.328 204.776 162.816 204.168 162.464C203.56 162.112 202.904 161.936 202.2 161.936C201.496 161.936 200.84 162.112 200.232 162.464C199.624 162.8 199.128 163.304 198.744 163.976C198.376 164.632 198.192 165.416 198.192 166.328C198.192 167.24 198.376 168.04 198.744 168.728C199.128 169.416 199.624 169.944 200.232 170.312C200.856 170.664 201.512 170.84 202.2 170.84C202.904 170.84 203.56 170.664 204.168 170.312C204.776 169.96 205.264 169.448 205.632 168.776C206.016 168.088 206.208 167.288 206.208 166.376ZM230.46 161.288C230.46 162.136 230.26 162.936 229.86 163.688C229.46 164.44 228.82 165.056 227.94 165.536C227.06 166 225.932 166.232 224.556 166.232H221.532V173H218.796V156.32H224.556C225.836 156.32 226.916 156.544 227.796 156.992C228.692 157.424 229.356 158.016 229.788 158.768C230.236 159.52 230.46 160.36 230.46 161.288ZM224.556 164C225.596 164 226.372 163.768 226.884 163.304C227.396 162.824 227.652 162.152 227.652 161.288C227.652 159.464 226.62 158.552 224.556 158.552H221.532V164H224.556ZM238.806 173.216C237.558 173.216 236.43 172.936 235.422 172.376C234.414 171.8 233.622 171 233.046 169.976C232.47 168.936 232.182 167.736 232.182 166.376C232.182 165.032 232.478 163.84 233.07 162.8C233.662 161.76 234.47 160.96 235.494 160.4C236.518 159.84 237.662 159.56 238.926 159.56C240.19 159.56 241.334 159.84 242.358 160.4C243.382 160.96 244.19 161.76 244.782 162.8C245.374 163.84 245.67 165.032 245.67 166.376C245.67 167.72 245.366 168.912 244.758 169.952C244.15 170.992 243.318 171.8 242.262 172.376C241.222 172.936 240.07 173.216 238.806 173.216ZM238.806 170.84C239.51 170.84 240.166 170.672 240.774 170.336C241.398 170 241.902 169.496 242.286 168.824C242.67 168.152 242.862 167.336 242.862 166.376C242.862 165.416 242.678 164.608 242.31 163.952C241.942 163.28 241.454 162.776 240.846 162.44C240.238 162.104 239.582 161.936 238.878 161.936C238.174 161.936 237.518 162.104 236.91 162.44C236.318 162.776 235.846 163.28 235.494 163.952C235.142 164.608 234.966 165.416 234.966 166.376C234.966 167.8 235.326 168.904 236.046 169.688C236.782 170.456 237.702 170.84 238.806 170.84ZM266.134 159.776L262.03 173H259.15L256.486 163.232L253.822 173H250.942L246.814 159.776H249.598L252.358 170.408L255.166 159.776H258.022L260.71 170.36L263.446 159.776H266.134ZM65.3312 190.288C65.3312 191.136 65.1312 191.936 64.7312 192.688C64.3312 193.44 63.6912 194.056 62.8112 194.536C61.9312 195 60.8032 195.232 59.4272 195.232H56.4032V202H53.6672V185.32H59.4272C60.7072 185.32 61.7872 185.544 62.6672 185.992C63.5632 186.424 64.2272 187.016 64.6592 187.768C65.1072 188.52 65.3312 189.36 65.3312 190.288ZM59.4272 193C60.4672 193 61.2432 192.768 61.7552 192.304C62.2672 191.824 62.5232 191.152 62.5232 190.288C62.5232 188.464 61.4912 187.552 59.4272 187.552H56.4032V193H59.4272ZM80.0606 195.064C80.0606 195.56 80.0286 196.008 79.9646 196.408H69.8606C69.9406 197.464 70.3326 198.312 71.0366 198.952C71.7406 199.592 72.6046 199.912 73.6286 199.912C75.1006 199.912 76.1406 199.296 76.7486 198.064H79.7006C79.3006 199.28 78.5726 200.28 77.5166 201.064C76.4766 201.832 75.1806 202.216 73.6286 202.216C72.3646 202.216 71.2286 201.936 70.2206 201.376C69.2286 200.8 68.4446 200 67.8686 198.976C67.3086 197.936 67.0286 196.736 67.0286 195.376C67.0286 194.016 67.3006 192.824 67.8446 191.8C68.4046 190.76 69.1806 189.96 70.1726 189.4C71.1806 188.84 72.3326 188.56 73.6286 188.56C74.8766 188.56 75.9886 188.832 76.9646 189.376C77.9406 189.92 78.7006 190.688 79.2446 191.68C79.7886 192.656 80.0606 193.784 80.0606 195.064ZM77.2046 194.2C77.1886 193.192 76.8286 192.384 76.1246 191.776C75.4206 191.168 74.5486 190.864 73.5086 190.864C72.5646 190.864 71.7566 191.168 71.0846 191.776C70.4126 192.368 70.0126 193.176 69.8846 194.2H77.2046ZM98.7611 188.56C99.8011 188.56 100.729 188.776 101.545 189.208C102.377 189.64 103.025 190.28 103.489 191.128C103.969 191.976 104.209 193 104.209 194.2V202H101.497V194.608C101.497 193.424 101.201 192.52 100.609 191.896C100.017 191.256 99.2091 190.936 98.1851 190.936C97.1611 190.936 96.3451 191.256 95.7371 191.896C95.1451 192.52 94.8491 193.424 94.8491 194.608V202H92.1371V194.608C92.1371 193.424 91.8411 192.52 91.2491 191.896C90.6571 191.256 89.8491 190.936 88.8251 190.936C87.8011 190.936 86.9851 191.256 86.3771 191.896C85.7851 192.52 85.4891 193.424 85.4891 194.608V202H82.7531V188.776H85.4891V190.288C85.9371 189.744 86.5051 189.32 87.1931 189.016C87.8811 188.712 88.6171 188.56 89.4011 188.56C90.4571 188.56 91.4011 188.784 92.2331 189.232C93.0651 189.68 93.7051 190.328 94.1531 191.176C94.5531 190.376 95.1771 189.744 96.0251 189.28C96.8731 188.8 97.7851 188.56 98.7611 188.56ZM110.427 190.744C110.891 190.104 111.523 189.584 112.323 189.184C113.139 188.768 114.043 188.56 115.035 188.56C116.203 188.56 117.259 188.84 118.203 189.4C119.147 189.96 119.891 190.76 120.435 191.8C120.979 192.824 121.251 194 121.251 195.328C121.251 196.656 120.979 197.848 120.435 198.904C119.891 199.944 119.139 200.76 118.179 201.352C117.235 201.928 116.187 202.216 115.035 202.216C114.011 202.216 113.099 202.016 112.299 201.616C111.515 201.216 110.891 200.704 110.427 200.08V202H107.691V184.24H110.427V190.744ZM118.467 195.328C118.467 194.416 118.275 193.632 117.891 192.976C117.523 192.304 117.027 191.8 116.403 191.464C115.795 191.112 115.139 190.936 114.435 190.936C113.747 190.936 113.091 191.112 112.467 191.464C111.859 191.816 111.363 192.328 110.979 193C110.611 193.672 110.427 194.464 110.427 195.376C110.427 196.288 110.611 197.088 110.979 197.776C111.363 198.448 111.859 198.96 112.467 199.312C113.091 199.664 113.747 199.84 114.435 199.84C115.139 199.84 115.795 199.664 116.403 199.312C117.027 198.944 117.523 198.416 117.891 197.728C118.275 197.04 118.467 196.24 118.467 195.328ZM136.076 195.064C136.076 195.56 136.044 196.008 135.98 196.408H125.876C125.956 197.464 126.348 198.312 127.052 198.952C127.756 199.592 128.62 199.912 129.644 199.912C131.116 199.912 132.156 199.296 132.764 198.064H135.716C135.316 199.28 134.588 200.28 133.532 201.064C132.492 201.832 131.196 202.216 129.644 202.216C128.38 202.216 127.244 201.936 126.236 201.376C125.244 200.8 124.46 200 123.884 198.976C123.324 197.936 123.044 196.736 123.044 195.376C123.044 194.016 123.316 192.824 123.86 191.8C124.42 190.76 125.196 189.96 126.188 189.4C127.196 188.84 128.348 188.56 129.644 188.56C130.892 188.56 132.004 188.832 132.98 189.376C133.956 189.92 134.716 190.688 135.26 191.68C135.804 192.656 136.076 193.784 136.076 195.064ZM133.22 194.2C133.204 193.192 132.844 192.384 132.14 191.776C131.436 191.168 130.564 190.864 129.524 190.864C128.58 190.864 127.772 191.168 127.1 191.776C126.428 192.368 126.028 193.176 125.9 194.2H133.22ZM141.505 190.696C141.905 190.024 142.433 189.504 143.089 189.136C143.761 188.752 144.553 188.56 145.465 188.56V191.392H144.769C143.697 191.392 142.881 191.664 142.321 192.208C141.777 192.752 141.505 193.696 141.505 195.04V202H138.769V188.776H141.505V190.696ZM152.78 202.216C151.74 202.216 150.804 202.032 149.972 201.664C149.156 201.28 148.508 200.768 148.028 200.128C147.548 199.472 147.292 198.744 147.26 197.944H150.092C150.14 198.504 150.404 198.976 150.884 199.36C151.38 199.728 151.996 199.912 152.732 199.912C153.5 199.912 154.092 199.768 154.508 199.48C154.94 199.176 155.156 198.792 155.156 198.328C155.156 197.832 154.916 197.464 154.436 197.224C153.972 196.984 153.228 196.72 152.204 196.432C151.212 196.16 150.404 195.896 149.78 195.64C149.156 195.384 148.612 194.992 148.148 194.464C147.7 193.936 147.476 193.24 147.476 192.376C147.476 191.672 147.684 191.032 148.1 190.456C148.516 189.864 149.108 189.4 149.876 189.064C150.66 188.728 151.556 188.56 152.564 188.56C154.068 188.56 155.276 188.944 156.188 189.712C157.116 190.464 157.612 191.496 157.676 192.808H154.94C154.892 192.216 154.652 191.744 154.22 191.392C153.788 191.04 153.204 190.864 152.468 190.864C151.748 190.864 151.196 191 150.812 191.272C150.428 191.544 150.236 191.904 150.236 192.352C150.236 192.704 150.364 193 150.62 193.24C150.876 193.48 151.188 193.672 151.556 193.816C151.924 193.944 152.468 194.112 153.188 194.32C154.148 194.576 154.932 194.84 155.54 195.112C156.164 195.368 156.7 195.752 157.148 196.264C157.596 196.776 157.828 197.456 157.844 198.304C157.844 199.056 157.636 199.728 157.22 200.32C156.804 200.912 156.212 201.376 155.444 201.712C154.692 202.048 153.804 202.216 152.78 202.216ZM162.192 187.024C161.696 187.024 161.28 186.856 160.944 186.52C160.608 186.184 160.44 185.768 160.44 185.272C160.44 184.776 160.608 184.36 160.944 184.024C161.28 183.688 161.696 183.52 162.192 183.52C162.672 183.52 163.08 183.688 163.416 184.024C163.752 184.36 163.92 184.776 163.92 185.272C163.92 185.768 163.752 186.184 163.416 186.52C163.08 186.856 162.672 187.024 162.192 187.024ZM163.536 188.776V202H160.8V188.776H163.536ZM173.968 188.56C174.976 188.56 175.872 188.776 176.656 189.208C177.456 189.64 178.08 190.28 178.528 191.128C178.992 191.976 179.224 193 179.224 194.2V202H176.512V194.608C176.512 193.424 176.216 192.52 175.624 191.896C175.032 191.256 174.224 190.936 173.2 190.936C172.176 190.936 171.36 191.256 170.752 191.896C170.16 192.52 169.864 193.424 169.864 194.608V202H167.128V184.24H169.864V190.312C170.328 189.752 170.912 189.32 171.616 189.016C172.336 188.712 173.12 188.56 173.968 188.56ZM181.802 195.328C181.802 194 182.074 192.824 182.618 191.8C183.178 190.776 183.93 189.984 184.874 189.424C185.834 188.848 186.89 188.56 188.042 188.56C189.082 188.56 189.986 188.768 190.754 189.184C191.538 189.584 192.162 190.088 192.626 190.696V188.776H195.386V202H192.626V200.032C192.162 200.656 191.53 201.176 190.73 201.592C189.93 202.008 189.018 202.216 187.994 202.216C186.858 202.216 185.818 201.928 184.874 201.352C183.93 200.76 183.178 199.944 182.618 198.904C182.074 197.848 181.802 196.656 181.802 195.328ZM192.626 195.376C192.626 194.464 192.434 193.672 192.05 193C191.682 192.328 191.194 191.816 190.586 191.464C189.978 191.112 189.322 190.936 188.618 190.936C187.914 190.936 187.258 191.112 186.65 191.464C186.042 191.8 185.546 192.304 185.162 192.976C184.794 193.632 184.61 194.416 184.61 195.328C184.61 196.24 184.794 197.04 185.162 197.728C185.546 198.416 186.042 198.944 186.65 199.312C187.274 199.664 187.93 199.84 188.618 199.84C189.322 199.84 189.978 199.664 190.586 199.312C191.194 198.96 191.682 198.448 192.05 197.776C192.434 197.088 192.626 196.288 192.626 195.376ZM205.652 188.56C206.692 188.56 207.62 188.776 208.436 189.208C209.268 189.64 209.916 190.28 210.38 191.128C210.844 191.976 211.076 193 211.076 194.2V202H208.364V194.608C208.364 193.424 208.068 192.52 207.476 191.896C206.884 191.256 206.076 190.936 205.052 190.936C204.028 190.936 203.212 191.256 202.604 191.896C202.012 192.52 201.716 193.424 201.716 194.608V202H198.98V188.776H201.716V190.288C202.164 189.744 202.732 189.32 203.42 189.016C204.124 188.712 204.868 188.56 205.652 188.56ZM231.576 185.32V187.552H227.136V202H224.4V187.552H219.936V185.32H231.576ZM246.467 195.064C246.467 195.56 246.435 196.008 246.371 196.408H236.267C236.347 197.464 236.739 198.312 237.443 198.952C238.147 199.592 239.011 199.912 240.035 199.912C241.507 199.912 242.547 199.296 243.155 198.064H246.107C245.707 199.28 244.979 200.28 243.923 201.064C242.883 201.832 241.587 202.216 240.035 202.216C238.771 202.216 237.635 201.936 236.627 201.376C235.635 200.8 234.851 200 234.275 198.976C233.715 197.936 233.435 196.736 233.435 195.376C233.435 194.016 233.707 192.824 234.251 191.8C234.811 190.76 235.587 189.96 236.579 189.4C237.587 188.84 238.739 188.56 240.035 188.56C241.283 188.56 242.395 188.832 243.371 189.376C244.347 189.92 245.107 190.688 245.651 191.68C246.195 192.656 246.467 193.784 246.467 195.064ZM243.611 194.2C243.595 193.192 243.235 192.384 242.531 191.776C241.827 191.168 240.955 190.864 239.915 190.864C238.971 190.864 238.163 191.168 237.491 191.776C236.819 192.368 236.419 193.176 236.291 194.2H243.611ZM251.895 184.24V202H249.159V184.24H251.895ZM256.88 187.024C256.384 187.024 255.968 186.856 255.632 186.52C255.296 186.184 255.128 185.768 255.128 185.272C255.128 184.776 255.296 184.36 255.632 184.024C255.968 183.688 256.384 183.52 256.88 183.52C257.36 183.52 257.768 183.688 258.104 184.024C258.44 184.36 258.608 184.776 258.608 185.272C258.608 185.768 258.44 186.184 258.104 186.52C257.768 186.856 257.36 187.024 256.88 187.024ZM258.224 188.776V202H255.488V188.776H258.224ZM268.488 188.56C269.528 188.56 270.456 188.776 271.272 189.208C272.104 189.64 272.752 190.28 273.216 191.128C273.68 191.976 273.912 193 273.912 194.2V202H271.2V194.608C271.2 193.424 270.904 192.52 270.312 191.896C269.72 191.256 268.912 190.936 267.888 190.936C266.864 190.936 266.048 191.256 265.44 191.896C264.848 192.52 264.552 193.424 264.552 194.608V202H261.816V188.776H264.552V190.288C265 189.744 265.568 189.32 266.256 189.016C266.96 188.712 267.704 188.56 268.488 188.56ZM282.73 188.56C283.754 188.56 284.658 188.768 285.442 189.184C286.242 189.584 286.866 190.088 287.314 190.696V188.776H290.074V202.216C290.074 203.432 289.818 204.512 289.306 205.456C288.794 206.416 288.05 207.168 287.074 207.712C286.114 208.256 284.962 208.528 283.618 208.528C281.826 208.528 280.338 208.104 279.154 207.256C277.97 206.424 277.298 205.288 277.138 203.848H279.85C280.058 204.536 280.498 205.088 281.17 205.504C281.858 205.936 282.674 206.152 283.618 206.152C284.722 206.152 285.61 205.816 286.282 205.144C286.97 204.472 287.314 203.496 287.314 202.216V200.008C286.85 200.632 286.218 201.16 285.418 201.592C284.634 202.008 283.738 202.216 282.73 202.216C281.578 202.216 280.522 201.928 279.562 201.352C278.618 200.76 277.866 199.944 277.306 198.904C276.762 197.848 276.49 196.656 276.49 195.328C276.49 194 276.762 192.824 277.306 191.8C277.866 190.776 278.618 189.984 279.562 189.424C280.522 188.848 281.578 188.56 282.73 188.56ZM287.314 195.376C287.314 194.464 287.122 193.672 286.738 193C286.37 192.328 285.882 191.816 285.274 191.464C284.666 191.112 284.01 190.936 283.306 190.936C282.602 190.936 281.946 191.112 281.338 191.464C280.73 191.8 280.234 192.304 279.85 192.976C279.482 193.632 279.298 194.416 279.298 195.328C279.298 196.24 279.482 197.04 279.85 197.728C280.234 198.416 280.73 198.944 281.338 199.312C281.962 199.664 282.618 199.84 283.306 199.84C284.01 199.84 284.666 199.664 285.274 199.312C285.882 198.96 286.37 198.448 286.738 197.776C287.122 197.088 287.314 196.288 287.314 195.376ZM292.755 195.328C292.755 194 293.027 192.824 293.571 191.8C294.131 190.776 294.883 189.984 295.827 189.424C296.787 188.848 297.843 188.56 298.995 188.56C300.035 188.56 300.939 188.768 301.707 189.184C302.491 189.584 303.115 190.088 303.579 190.696V188.776H306.339V202H303.579V200.032C303.115 200.656 302.483 201.176 301.683 201.592C300.883 202.008 299.971 202.216 298.947 202.216C297.811 202.216 296.771 201.928 295.827 201.352C294.883 200.76 294.131 199.944 293.571 198.904C293.027 197.848 292.755 196.656 292.755 195.328ZM303.579 195.376C303.579 194.464 303.387 193.672 303.003 193C302.635 192.328 302.147 191.816 301.539 191.464C300.931 191.112 300.275 190.936 299.571 190.936C298.867 190.936 298.211 191.112 297.603 191.464C296.995 191.8 296.499 192.304 296.115 192.976C295.747 193.632 295.563 194.416 295.563 195.328C295.563 196.24 295.747 197.04 296.115 197.728C296.499 198.416 296.995 198.944 297.603 199.312C298.227 199.664 298.883 199.84 299.571 199.84C300.275 199.84 300.931 199.664 301.539 199.312C302.147 198.96 302.635 198.448 303.003 197.776C303.387 197.088 303.579 196.288 303.579 195.376Z" fill="#181817"/>
<rect y="269.808" width="360" height="138.607" fill="#FFCC00"/>
<path d="M88.777 336.288C88.393 335.584 87.865 335.048 87.193 334.68C86.521 334.312 85.737 334.128 84.841 334.128C83.849 334.128 82.969 334.352 82.201 334.8C81.433 335.248 80.833 335.888 80.401 336.72C79.969 337.552 79.753 338.512 79.753 339.6C79.753 340.72 79.969 341.696 80.401 342.528C80.849 343.36 81.465 344 82.249 344.448C83.033 344.896 83.945 345.12 84.985 345.12C86.265 345.12 87.313 344.784 88.129 344.112C88.945 343.424 89.481 342.472 89.737 341.256H83.977V338.688H93.049V341.616C92.825 342.784 92.345 343.864 91.609 344.856C90.873 345.848 89.921 346.648 88.753 347.256C87.601 347.848 86.305 348.144 84.865 348.144C83.249 348.144 81.785 347.784 80.473 347.064C79.177 346.328 78.153 345.312 77.401 344.016C76.665 342.72 76.297 341.248 76.297 339.6C76.297 337.952 76.665 336.48 77.401 335.184C78.153 333.872 79.177 332.856 80.473 332.136C81.785 331.4 83.241 331.032 84.841 331.032C86.729 331.032 88.369 331.496 89.761 332.424C91.153 333.336 92.113 334.624 92.641 336.288H88.777ZM98.8949 336.768C99.3269 336.064 99.8869 335.512 100.575 335.112C101.279 334.712 102.079 334.512 102.975 334.512V338.04H102.087C101.031 338.04 100.231 338.288 99.6869 338.784C99.1589 339.28 98.8949 340.144 98.8949 341.376V348H95.5349V334.704H98.8949V336.768ZM111.142 348.216C109.862 348.216 108.71 347.936 107.686 347.376C106.662 346.8 105.854 345.992 105.262 344.952C104.686 343.912 104.398 342.712 104.398 341.352C104.398 339.992 104.694 338.792 105.286 337.752C105.894 336.712 106.718 335.912 107.758 335.352C108.798 334.776 109.958 334.488 111.238 334.488C112.518 334.488 113.678 334.776 114.718 335.352C115.758 335.912 116.574 336.712 117.166 337.752C117.774 338.792 118.078 339.992 118.078 341.352C118.078 342.712 117.766 343.912 117.142 344.952C116.534 345.992 115.702 346.8 114.646 347.376C113.606 347.936 112.438 348.216 111.142 348.216ZM111.142 345.288C111.75 345.288 112.318 345.144 112.846 344.856C113.39 344.552 113.822 344.104 114.142 343.512C114.462 342.92 114.622 342.2 114.622 341.352C114.622 340.088 114.286 339.12 113.614 338.448C112.958 337.76 112.15 337.416 111.19 337.416C110.23 337.416 109.422 337.76 108.766 338.448C108.126 339.12 107.806 340.088 107.806 341.352C107.806 342.616 108.118 343.592 108.742 344.28C109.382 344.952 110.182 345.288 111.142 345.288ZM126.447 348.216C125.167 348.216 124.015 347.936 122.991 347.376C121.967 346.8 121.159 345.992 120.567 344.952C119.991 343.912 119.703 342.712 119.703 341.352C119.703 339.992 119.999 338.792 120.591 337.752C121.199 336.712 122.023 335.912 123.063 335.352C124.103 334.776 125.263 334.488 126.543 334.488C127.823 334.488 128.983 334.776 130.023 335.352C131.063 335.912 131.879 336.712 132.471 337.752C133.079 338.792 133.383 339.992 133.383 341.352C133.383 342.712 133.071 343.912 132.447 344.952C131.839 345.992 131.007 346.8 129.951 347.376C128.911 347.936 127.743 348.216 126.447 348.216ZM126.447 345.288C127.055 345.288 127.623 345.144 128.151 344.856C128.695 344.552 129.127 344.104 129.447 343.512C129.767 342.92 129.927 342.2 129.927 341.352C129.927 340.088 129.591 339.12 128.919 338.448C128.263 337.76 127.455 337.416 126.495 337.416C125.535 337.416 124.727 337.76 124.071 338.448C123.431 339.12 123.111 340.088 123.111 341.352C123.111 342.616 123.423 343.592 124.047 344.28C124.687 344.952 125.487 345.288 126.447 345.288ZM152.359 334.512C153.991 334.512 155.303 335.016 156.295 336.024C157.303 337.016 157.807 338.408 157.807 340.2V348H154.447V340.656C154.447 339.616 154.183 338.824 153.655 338.28C153.127 337.72 152.407 337.44 151.495 337.44C150.583 337.44 149.855 337.72 149.311 338.28C148.783 338.824 148.519 339.616 148.519 340.656V348H145.159V340.656C145.159 339.616 144.895 338.824 144.367 338.28C143.839 337.72 143.119 337.44 142.207 337.44C141.279 337.44 140.543 337.72 139.999 338.28C139.471 338.824 139.207 339.616 139.207 340.656V348H135.847V334.704H139.207V336.312C139.639 335.752 140.191 335.312 140.863 334.992C141.551 334.672 142.303 334.512 143.119 334.512C144.159 334.512 145.087 334.736 145.903 335.184C146.719 335.616 147.351 336.24 147.799 337.056C148.231 336.288 148.855 335.672 149.671 335.208C150.503 334.744 151.399 334.512 152.359 334.512ZM162.7 333.12C162.108 333.12 161.612 332.936 161.212 332.568C160.828 332.184 160.636 331.712 160.636 331.152C160.636 330.592 160.828 330.128 161.212 329.76C161.612 329.376 162.108 329.184 162.7 329.184C163.292 329.184 163.78 329.376 164.164 329.76C164.564 330.128 164.764 330.592 164.764 331.152C164.764 331.712 164.564 332.184 164.164 332.568C163.78 332.936 163.292 333.12 162.7 333.12ZM164.356 334.704V348H160.996V334.704H164.356ZM175.044 334.512C176.628 334.512 177.908 335.016 178.884 336.024C179.86 337.016 180.348 338.408 180.348 340.2V348H176.988V340.656C176.988 339.6 176.724 338.792 176.196 338.232C175.668 337.656 174.948 337.368 174.036 337.368C173.108 337.368 172.372 337.656 171.828 338.232C171.3 338.792 171.036 339.6 171.036 340.656V348H167.676V334.704H171.036V336.36C171.484 335.784 172.052 335.336 172.74 335.016C173.444 334.68 174.212 334.512 175.044 334.512ZM188.751 334.488C189.743 334.488 190.615 334.688 191.367 335.088C192.119 335.472 192.711 335.976 193.143 336.6V334.704H196.527V348.096C196.527 349.328 196.279 350.424 195.783 351.384C195.287 352.36 194.543 353.128 193.551 353.688C192.559 354.264 191.359 354.552 189.951 354.552C188.063 354.552 186.511 354.112 185.295 353.232C184.095 352.352 183.415 351.152 183.255 349.632H186.591C186.767 350.24 187.143 350.72 187.719 351.072C188.311 351.44 189.023 351.624 189.855 351.624C190.831 351.624 191.623 351.328 192.231 350.736C192.839 350.16 193.143 349.28 193.143 348.096V346.032C192.711 346.656 192.111 347.176 191.343 347.592C190.591 348.008 189.727 348.216 188.751 348.216C187.631 348.216 186.607 347.928 185.679 347.352C184.751 346.776 184.015 345.968 183.471 344.928C182.943 343.872 182.679 342.664 182.679 341.304C182.679 339.96 182.943 338.768 183.471 337.728C184.015 336.688 184.743 335.888 185.655 335.328C186.583 334.768 187.615 334.488 188.751 334.488ZM193.143 341.352C193.143 340.536 192.983 339.84 192.663 339.264C192.343 338.672 191.911 338.224 191.367 337.92C190.823 337.6 190.239 337.44 189.615 337.44C188.991 337.44 188.415 337.592 187.887 337.896C187.359 338.2 186.927 338.648 186.591 339.24C186.271 339.816 186.111 340.504 186.111 341.304C186.111 342.104 186.271 342.808 186.591 343.416C186.927 344.008 187.359 344.464 187.887 344.784C188.431 345.104 189.007 345.264 189.615 345.264C190.239 345.264 190.823 345.112 191.367 344.808C191.911 344.488 192.343 344.04 192.663 343.464C192.983 342.872 193.143 342.168 193.143 341.352ZM215.295 331.248V343.008C215.295 344.64 214.823 345.912 213.879 346.824C212.935 347.72 211.671 348.168 210.087 348.168C208.487 348.168 207.191 347.704 206.199 346.776C205.223 345.848 204.735 344.552 204.735 342.888H208.095C208.111 343.608 208.279 344.168 208.599 344.568C208.935 344.968 209.415 345.168 210.039 345.168C210.647 345.168 211.111 344.976 211.431 344.592C211.751 344.208 211.911 343.68 211.911 343.008V331.248H215.295ZM218.351 341.304C218.351 339.96 218.615 338.768 219.143 337.728C219.687 336.688 220.415 335.888 221.327 335.328C222.255 334.768 223.287 334.488 224.423 334.488C225.415 334.488 226.279 334.688 227.015 335.088C227.767 335.488 228.367 335.992 228.815 336.6V334.704H232.199V348H228.815V346.056C228.383 346.68 227.783 347.2 227.015 347.616C226.263 348.016 225.391 348.216 224.399 348.216C223.279 348.216 222.255 347.928 221.327 347.352C220.415 346.776 219.687 345.968 219.143 344.928C218.615 343.872 218.351 342.664 218.351 341.304ZM228.815 341.352C228.815 340.536 228.655 339.84 228.335 339.264C228.015 338.672 227.583 338.224 227.039 337.92C226.495 337.6 225.911 337.44 225.287 337.44C224.663 337.44 224.087 337.592 223.559 337.896C223.031 338.2 222.599 338.648 222.263 339.24C221.943 339.816 221.783 340.504 221.783 341.304C221.783 342.104 221.943 342.808 222.263 343.416C222.599 344.008 223.031 344.464 223.559 344.784C224.103 345.104 224.679 345.264 225.287 345.264C225.911 345.264 226.495 345.112 227.039 344.808C227.583 344.488 228.015 344.04 228.335 343.464C228.655 342.872 228.815 342.168 228.815 341.352ZM251.992 334.512C253.624 334.512 254.936 335.016 255.928 336.024C256.936 337.016 257.44 338.408 257.44 340.2V348H254.08V340.656C254.08 339.616 253.816 338.824 253.288 338.28C252.76 337.72 252.04 337.44 251.128 337.44C250.216 337.44 249.488 337.72 248.944 338.28C248.416 338.824 248.152 339.616 248.152 340.656V348H244.792V340.656C244.792 339.616 244.528 338.824 244 338.28C243.472 337.72 242.752 337.44 241.84 337.44C240.912 337.44 240.176 337.72 239.632 338.28C239.104 338.824 238.84 339.616 238.84 340.656V348H235.48V334.704H238.84V336.312C239.272 335.752 239.824 335.312 240.496 334.992C241.184 334.672 241.936 334.512 242.752 334.512C243.792 334.512 244.72 334.736 245.536 335.184C246.352 335.616 246.984 336.24 247.432 337.056C247.864 336.288 248.488 335.672 249.304 335.208C250.136 334.744 251.032 334.512 251.992 334.512ZM273.181 334.704V348H269.797V346.32C269.365 346.896 268.797 347.352 268.093 347.688C267.405 348.008 266.653 348.168 265.837 348.168C264.797 348.168 263.877 347.952 263.077 347.52C262.277 347.072 261.645 346.424 261.181 345.576C260.733 344.712 260.509 343.688 260.509 342.504V334.704H263.869V342.024C263.869 343.08 264.133 343.896 264.661 344.472C265.189 345.032 265.909 345.312 266.821 345.312C267.749 345.312 268.477 345.032 269.005 344.472C269.533 343.896 269.797 343.08 269.797 342.024V334.704H273.181ZM279.856 336.768C280.288 336.064 280.848 335.512 281.536 335.112C282.24 334.712 283.04 334.512 283.936 334.512V338.04H283.048C281.992 338.04 281.192 338.288 280.648 338.784C280.12 339.28 279.856 340.144 279.856 341.376V348H276.496V334.704H279.856V336.768Z" fill="#FDFDFD"/>
</svg>
