<svg width="360" height="410" viewBox="0 0 360 410" fill="none" xmlns="http://www.w3.org/2000/svg">
<path d="M0 33.7727C0 15.5473 14.7746 0.772675 33 0.772675H327C345.225 0.772675 360 15.5473 360 33.7727V270.581H0V33.7727Z" fill="#FFF1A6"/>
<path d="M70.5616 87.7528C69.4416 87.7528 68.4336 87.5608 67.5376 87.1768C66.6416 86.7768 65.9376 86.2168 65.4256 85.4968C64.9136 84.7768 64.6576 83.9368 64.6576 82.9768H67.5856C67.6496 83.6968 67.9296 84.2888 68.4256 84.7528C68.9376 85.2168 69.6496 85.4488 70.5616 85.4488C71.5056 85.4488 72.2416 85.2248 72.7696 84.7768C73.2976 84.3128 73.5616 83.7208 73.5616 83.0008C73.5616 82.4408 73.3936 81.9848 73.0576 81.6328C72.7376 81.2808 72.3296 81.0088 71.8336 80.8168C71.3536 80.6248 70.6816 80.4168 69.8176 80.1928C68.7296 79.9048 67.8416 79.6168 67.1536 79.3288C66.4816 79.0248 65.9056 78.5608 65.4256 77.9368C64.9456 77.3128 64.7056 76.4808 64.7056 75.4408C64.7056 74.4808 64.9456 73.6408 65.4256 72.9208C65.9056 72.2008 66.5776 71.6488 67.4416 71.2648C68.3056 70.8808 69.3056 70.6888 70.4416 70.6888C72.0576 70.6888 73.3776 71.0968 74.4016 71.9128C75.4416 72.7128 76.0176 73.8168 76.1296 75.2248H73.1056C73.0576 74.6168 72.7696 74.0968 72.2416 73.6648C71.7136 73.2328 71.0176 73.0168 70.1536 73.0168C69.3696 73.0168 68.7296 73.2168 68.2336 73.6168C67.7376 74.0168 67.4896 74.5928 67.4896 75.3448C67.4896 75.8568 67.6416 76.2808 67.9456 76.6168C68.2656 76.9368 68.6656 77.1928 69.1456 77.3848C69.6256 77.5768 70.2816 77.7848 71.1136 78.0088C72.2176 78.3128 73.1136 78.6168 73.8016 78.9208C74.5056 79.2248 75.0976 79.6968 75.5776 80.3368C76.0736 80.9608 76.3216 81.8008 76.3216 82.8568C76.3216 83.7048 76.0896 84.5048 75.6256 85.2568C75.1776 86.0088 74.5136 86.6168 73.6336 87.0808C72.7696 87.5288 71.7456 87.7528 70.5616 87.7528ZM86.39 74.1448C87.398 74.1448 88.294 74.3608 89.078 74.7928C89.878 75.2248 90.502 75.8648 90.95 76.7128C91.414 77.5608 91.646 78.5848 91.646 79.7848V87.5848H88.934V80.1928C88.934 79.0088 88.638 78.1048 88.046 77.4808C87.454 76.8408 86.646 76.5208 85.622 76.5208C84.598 76.5208 83.782 76.8408 83.174 77.4808C82.582 78.1048 82.286 79.0088 82.286 80.1928V87.5848H79.55V69.8248H82.286V75.8968C82.75 75.3368 83.334 74.9048 84.038 74.6008C84.758 74.2968 85.542 74.1448 86.39 74.1448ZM94.2239 80.9128C94.2239 79.5848 94.4959 78.4088 95.0399 77.3848C95.5999 76.3608 96.3519 75.5688 97.2959 75.0088C98.2559 74.4328 99.3119 74.1448 100.464 74.1448C101.504 74.1448 102.408 74.3528 103.176 74.7688C103.96 75.1688 104.584 75.6728 105.048 76.2808V74.3608H107.808V87.5848H105.048V85.6168C104.584 86.2408 103.952 86.7608 103.152 87.1768C102.352 87.5928 101.44 87.8008 100.416 87.8008C99.2799 87.8008 98.2399 87.5128 97.2959 86.9368C96.3519 86.3448 95.5999 85.5288 95.0399 84.4888C94.4959 83.4328 94.2239 82.2408 94.2239 80.9128ZM105.048 80.9608C105.048 80.0488 104.856 79.2568 104.472 78.5848C104.104 77.9128 103.616 77.4008 103.008 77.0488C102.4 76.6968 101.744 76.5208 101.04 76.5208C100.336 76.5208 99.6799 76.6968 99.0719 77.0488C98.4639 77.3848 97.9679 77.8888 97.5839 78.5608C97.2159 79.2168 97.0319 80.0008 97.0319 80.9128C97.0319 81.8248 97.2159 82.6248 97.5839 83.3128C97.9679 84.0008 98.4639 84.5288 99.0719 84.8968C99.6959 85.2488 100.352 85.4248 101.04 85.4248C101.744 85.4248 102.4 85.2488 103.008 84.8968C103.616 84.5448 104.104 84.0328 104.472 83.3608C104.856 82.6728 105.048 81.8728 105.048 80.9608ZM127.41 74.1448C128.45 74.1448 129.378 74.3608 130.194 74.7928C131.026 75.2248 131.674 75.8648 132.138 76.7128C132.618 77.5608 132.858 78.5848 132.858 79.7848V87.5848H130.146V80.1928C130.146 79.0088 129.85 78.1048 129.258 77.4808C128.666 76.8408 127.858 76.5208 126.834 76.5208C125.81 76.5208 124.994 76.8408 124.386 77.4808C123.794 78.1048 123.498 79.0088 123.498 80.1928V87.5848H120.786V80.1928C120.786 79.0088 120.49 78.1048 119.898 77.4808C119.306 76.8408 118.498 76.5208 117.474 76.5208C116.45 76.5208 115.634 76.8408 115.026 77.4808C114.434 78.1048 114.138 79.0088 114.138 80.1928V87.5848H111.402V74.3608H114.138V75.8728C114.586 75.3288 115.154 74.9048 115.842 74.6008C116.53 74.2968 117.266 74.1448 118.05 74.1448C119.106 74.1448 120.05 74.3688 120.882 74.8168C121.714 75.2648 122.354 75.9128 122.802 76.7608C123.202 75.9608 123.826 75.3288 124.674 74.8648C125.522 74.3848 126.434 74.1448 127.41 74.1448ZM139.075 76.3048C139.539 75.6968 140.171 75.1848 140.971 74.7688C141.771 74.3528 142.675 74.1448 143.683 74.1448C144.835 74.1448 145.883 74.4328 146.827 75.0088C147.787 75.5688 148.539 76.3608 149.083 77.3848C149.627 78.4088 149.899 79.5848 149.899 80.9128C149.899 82.2408 149.627 83.4328 149.083 84.4888C148.539 85.5288 147.787 86.3448 146.827 86.9368C145.883 87.5128 144.835 87.8008 143.683 87.8008C142.675 87.8008 141.779 87.6008 140.995 87.2008C140.211 86.7848 139.571 86.2728 139.075 85.6648V93.8728H136.339V74.3608H139.075V76.3048ZM147.115 80.9128C147.115 80.0008 146.923 79.2168 146.539 78.5608C146.171 77.8888 145.675 77.3848 145.051 77.0488C144.443 76.6968 143.787 76.5208 143.083 76.5208C142.395 76.5208 141.739 76.6968 141.115 77.0488C140.507 77.4008 140.011 77.9128 139.627 78.5848C139.259 79.2568 139.075 80.0488 139.075 80.9608C139.075 81.8728 139.259 82.6728 139.627 83.3608C140.011 84.0328 140.507 84.5448 141.115 84.8968C141.739 85.2488 142.395 85.4248 143.083 85.4248C143.787 85.4248 144.443 85.2488 145.051 84.8968C145.675 84.5288 146.171 84.0008 146.539 83.3128C146.923 82.6248 147.115 81.8248 147.115 80.9128ZM158.341 87.8008C157.093 87.8008 155.965 87.5208 154.957 86.9608C153.949 86.3848 153.157 85.5848 152.581 84.5608C152.005 83.5208 151.717 82.3208 151.717 80.9608C151.717 79.6168 152.013 78.4248 152.605 77.3848C153.197 76.3448 154.005 75.5448 155.029 74.9848C156.053 74.4248 157.197 74.1448 158.461 74.1448C159.725 74.1448 160.869 74.4248 161.893 74.9848C162.917 75.5448 163.725 76.3448 164.317 77.3848C164.909 78.4248 165.205 79.6168 165.205 80.9608C165.205 82.3048 164.901 83.4968 164.293 84.5368C163.685 85.5768 162.853 86.3848 161.797 86.9608C160.757 87.5208 159.605 87.8008 158.341 87.8008ZM158.341 85.4248C159.045 85.4248 159.701 85.2568 160.309 84.9208C160.933 84.5848 161.437 84.0808 161.821 83.4088C162.205 82.7368 162.397 81.9208 162.397 80.9608C162.397 80.0008 162.213 79.1928 161.845 78.5368C161.477 77.8648 160.989 77.3608 160.381 77.0248C159.773 76.6888 159.117 76.5208 158.413 76.5208C157.709 76.5208 157.053 76.6888 156.445 77.0248C155.853 77.3608 155.381 77.8648 155.029 78.5368C154.677 79.1928 154.501 80.0008 154.501 80.9608C154.501 82.3848 154.861 83.4888 155.581 84.2728C156.317 85.0408 157.237 85.4248 158.341 85.4248ZM173.645 87.8008C172.397 87.8008 171.269 87.5208 170.261 86.9608C169.253 86.3848 168.461 85.5848 167.885 84.5608C167.309 83.5208 167.021 82.3208 167.021 80.9608C167.021 79.6168 167.317 78.4248 167.909 77.3848C168.501 76.3448 169.309 75.5448 170.333 74.9848C171.357 74.4248 172.501 74.1448 173.765 74.1448C175.029 74.1448 176.173 74.4248 177.197 74.9848C178.221 75.5448 179.029 76.3448 179.621 77.3848C180.213 78.4248 180.509 79.6168 180.509 80.9608C180.509 82.3048 180.205 83.4968 179.597 84.5368C178.989 85.5768 178.157 86.3848 177.101 86.9608C176.061 87.5208 174.909 87.8008 173.645 87.8008ZM173.645 85.4248C174.349 85.4248 175.005 85.2568 175.613 84.9208C176.237 84.5848 176.741 84.0808 177.125 83.4088C177.509 82.7368 177.701 81.9208 177.701 80.9608C177.701 80.0008 177.517 79.1928 177.149 78.5368C176.781 77.8648 176.293 77.3608 175.685 77.0248C175.077 76.6888 174.421 76.5208 173.717 76.5208C173.013 76.5208 172.357 76.6888 171.749 77.0248C171.157 77.3608 170.685 77.8648 170.333 78.5368C169.981 79.1928 169.805 80.0008 169.805 80.9608C169.805 82.3848 170.165 83.4888 170.885 84.2728C171.621 85.0408 172.541 85.4248 173.645 85.4248ZM201.112 75.8728C201.112 76.7208 200.912 77.5208 200.512 78.2728C200.112 79.0248 199.472 79.6408 198.592 80.1208C197.712 80.5848 196.584 80.8168 195.208 80.8168H192.184V87.5848H189.448V70.9048H195.208C196.488 70.9048 197.568 71.1288 198.448 71.5768C199.344 72.0088 200.008 72.6008 200.44 73.3528C200.888 74.1048 201.112 74.9448 201.112 75.8728ZM195.208 78.5848C196.248 78.5848 197.024 78.3528 197.536 77.8888C198.048 77.4088 198.304 76.7368 198.304 75.8728C198.304 74.0488 197.272 73.1368 195.208 73.1368H192.184V78.5848H195.208ZM206.458 76.2808C206.858 75.6088 207.386 75.0888 208.042 74.7208C208.714 74.3368 209.506 74.1448 210.418 74.1448V76.9768H209.722C208.65 76.9768 207.834 77.2488 207.274 77.7928C206.73 78.3368 206.458 79.2808 206.458 80.6248V87.5848H203.722V74.3608H206.458V76.2808ZM225.053 80.6488C225.053 81.1448 225.021 81.5928 224.957 81.9928H214.853C214.933 83.0488 215.325 83.8968 216.029 84.5368C216.733 85.1768 217.597 85.4968 218.621 85.4968C220.093 85.4968 221.133 84.8808 221.741 83.6488H224.693C224.293 84.8648 223.565 85.8648 222.509 86.6488C221.469 87.4168 220.173 87.8008 218.621 87.8008C217.357 87.8008 216.221 87.5208 215.213 86.9608C214.221 86.3848 213.437 85.5848 212.861 84.5608C212.301 83.5208 212.021 82.3208 212.021 80.9608C212.021 79.6008 212.293 78.4088 212.837 77.3848C213.397 76.3448 214.173 75.5448 215.165 74.9848C216.173 74.4248 217.325 74.1448 218.621 74.1448C219.869 74.1448 220.981 74.4168 221.957 74.9608C222.933 75.5048 223.693 76.2728 224.237 77.2648C224.781 78.2408 225.053 79.3688 225.053 80.6488ZM222.197 79.7848C222.181 78.7768 221.821 77.9688 221.117 77.3608C220.413 76.7528 219.541 76.4488 218.501 76.4488C217.557 76.4488 216.749 76.7528 216.077 77.3608C215.405 77.9528 215.005 78.7608 214.877 79.7848H222.197ZM243.753 74.1448C244.793 74.1448 245.721 74.3608 246.537 74.7928C247.369 75.2248 248.017 75.8648 248.481 76.7128C248.961 77.5608 249.201 78.5848 249.201 79.7848V87.5848H246.489V80.1928C246.489 79.0088 246.193 78.1048 245.601 77.4808C245.009 76.8408 244.201 76.5208 243.177 76.5208C242.153 76.5208 241.337 76.8408 240.729 77.4808C240.137 78.1048 239.841 79.0088 239.841 80.1928V87.5848H237.129V80.1928C237.129 79.0088 236.833 78.1048 236.241 77.4808C235.649 76.8408 234.841 76.5208 233.817 76.5208C232.793 76.5208 231.977 76.8408 231.369 77.4808C230.777 78.1048 230.481 79.0088 230.481 80.1928V87.5848H227.745V74.3608H230.481V75.8728C230.929 75.3288 231.497 74.9048 232.185 74.6008C232.873 74.2968 233.609 74.1448 234.393 74.1448C235.449 74.1448 236.393 74.3688 237.225 74.8168C238.057 75.2648 238.697 75.9128 239.145 76.7608C239.545 75.9608 240.169 75.3288 241.017 74.8648C241.865 74.3848 242.777 74.1448 243.753 74.1448ZM254.075 72.6088C253.579 72.6088 253.163 72.4408 252.827 72.1048C252.491 71.7688 252.323 71.3528 252.323 70.8568C252.323 70.3608 252.491 69.9448 252.827 69.6088C253.163 69.2728 253.579 69.1048 254.075 69.1048C254.555 69.1048 254.963 69.2728 255.299 69.6088C255.635 69.9448 255.803 70.3608 255.803 70.8568C255.803 71.3528 255.635 71.7688 255.299 72.1048C254.963 72.4408 254.555 72.6088 254.075 72.6088ZM255.419 74.3608V87.5848H252.683V74.3608H255.419ZM270.987 74.3608V87.5848H268.251V86.0248C267.819 86.5688 267.251 87.0008 266.547 87.3208C265.859 87.6248 265.123 87.7768 264.339 87.7768C263.299 87.7768 262.363 87.5608 261.531 87.1288C260.715 86.6968 260.067 86.0568 259.587 85.2088C259.123 84.3608 258.891 83.3368 258.891 82.1368V74.3608H261.603V81.7288C261.603 82.9128 261.899 83.8248 262.491 84.4648C263.083 85.0888 263.891 85.4008 264.915 85.4008C265.939 85.4008 266.747 85.0888 267.339 84.4648C267.947 83.8248 268.251 82.9128 268.251 81.7288V74.3608H270.987ZM290.605 74.1448C291.645 74.1448 292.573 74.3608 293.389 74.7928C294.221 75.2248 294.869 75.8648 295.333 76.7128C295.813 77.5608 296.053 78.5848 296.053 79.7848V87.5848H293.341V80.1928C293.341 79.0088 293.045 78.1048 292.453 77.4808C291.861 76.8408 291.053 76.5208 290.029 76.5208C289.005 76.5208 288.189 76.8408 287.581 77.4808C286.989 78.1048 286.693 79.0088 286.693 80.1928V87.5848H283.981V80.1928C283.981 79.0088 283.685 78.1048 283.093 77.4808C282.501 76.8408 281.693 76.5208 280.669 76.5208C279.645 76.5208 278.829 76.8408 278.221 77.4808C277.629 78.1048 277.333 79.0088 277.333 80.1928V87.5848H274.597V74.3608H277.333V75.8728C277.781 75.3288 278.349 74.9048 279.037 74.6008C279.725 74.2968 280.461 74.1448 281.245 74.1448C282.301 74.1448 283.245 74.3688 284.077 74.8168C284.909 75.2648 285.549 75.9128 285.997 76.7608C286.397 75.9608 287.021 75.3288 287.869 74.8648C288.717 74.3848 289.629 74.1448 290.605 74.1448ZM149.843 104.873C149.843 105.721 149.643 106.521 149.243 107.273C148.843 108.025 148.203 108.641 147.323 109.121C146.443 109.585 145.315 109.817 143.939 109.817H140.915V116.585H138.179V99.9048H143.939C145.219 99.9048 146.299 100.129 147.179 100.577C148.075 101.009 148.739 101.601 149.171 102.353C149.619 103.105 149.843 103.945 149.843 104.873ZM143.939 107.585C144.979 107.585 145.755 107.353 146.267 106.889C146.779 106.409 147.035 105.737 147.035 104.873C147.035 103.049 146.003 102.137 143.939 102.137H140.915V107.585H143.939ZM151.54 109.913C151.54 108.585 151.812 107.409 152.356 106.385C152.916 105.361 153.668 104.569 154.612 104.009C155.572 103.433 156.628 103.145 157.78 103.145C158.82 103.145 159.724 103.353 160.492 103.769C161.276 104.169 161.9 104.673 162.364 105.281V103.361H165.124V116.585H162.364V114.617C161.9 115.241 161.268 115.761 160.468 116.177C159.668 116.593 158.756 116.801 157.732 116.801C156.596 116.801 155.556 116.513 154.612 115.937C153.668 115.345 152.916 114.529 152.356 113.489C151.812 112.433 151.54 111.241 151.54 109.913ZM162.364 109.961C162.364 109.049 162.172 108.257 161.788 107.585C161.42 106.913 160.932 106.401 160.324 106.049C159.716 105.697 159.06 105.521 158.356 105.521C157.652 105.521 156.996 105.697 156.388 106.049C155.78 106.385 155.284 106.889 154.9 107.561C154.532 108.217 154.348 109.001 154.348 109.913C154.348 110.825 154.532 111.625 154.9 112.313C155.284 113.001 155.78 113.529 156.388 113.897C157.012 114.249 157.668 114.425 158.356 114.425C159.06 114.425 159.716 114.249 160.324 113.897C160.932 113.545 161.42 113.033 161.788 112.361C162.172 111.673 162.364 110.873 162.364 109.961ZM171.454 105.281C171.854 104.609 172.382 104.089 173.038 103.721C173.71 103.337 174.502 103.145 175.414 103.145V105.977H174.718C173.646 105.977 172.83 106.249 172.27 106.793C171.726 107.337 171.454 108.281 171.454 109.625V116.585H168.718V103.361H171.454V105.281ZM183.473 105.593H181.025V116.585H178.265V105.593H176.705V103.361H178.265V102.425C178.265 100.905 178.665 99.8008 179.465 99.1128C180.281 98.4088 181.553 98.0568 183.281 98.0568V100.337C182.449 100.337 181.865 100.497 181.529 100.817C181.193 101.121 181.025 101.657 181.025 102.425V103.361H183.473V105.593ZM197.874 103.361V116.585H195.138V115.025C194.706 115.569 194.138 116.001 193.434 116.321C192.746 116.625 192.01 116.777 191.226 116.777C190.186 116.777 189.25 116.561 188.418 116.129C187.602 115.697 186.954 115.057 186.474 114.209C186.01 113.361 185.778 112.337 185.778 111.137V103.361H188.49V110.729C188.49 111.913 188.786 112.825 189.378 113.465C189.97 114.089 190.778 114.401 191.802 114.401C192.826 114.401 193.634 114.089 194.226 113.465C194.834 112.825 195.138 111.913 195.138 110.729V103.361H197.874ZM217.492 103.145C218.532 103.145 219.46 103.361 220.276 103.793C221.108 104.225 221.756 104.865 222.22 105.713C222.7 106.561 222.94 107.585 222.94 108.785V116.585H220.228V109.193C220.228 108.009 219.932 107.105 219.34 106.481C218.748 105.841 217.94 105.521 216.916 105.521C215.892 105.521 215.076 105.841 214.468 106.481C213.876 107.105 213.58 108.009 213.58 109.193V116.585H210.868V109.193C210.868 108.009 210.572 107.105 209.98 106.481C209.388 105.841 208.58 105.521 207.556 105.521C206.532 105.521 205.716 105.841 205.108 106.481C204.516 107.105 204.22 108.009 204.22 109.193V116.585H201.484V103.361H204.22V104.873C204.668 104.329 205.236 103.905 205.924 103.601C206.612 103.297 207.348 103.145 208.132 103.145C209.188 103.145 210.132 103.369 210.964 103.817C211.796 104.265 212.436 104.913 212.884 105.761C213.284 104.961 213.908 104.329 214.756 103.865C215.604 103.385 216.516 103.145 217.492 103.145ZM118.191 133.873C118.191 134.721 117.991 135.521 117.591 136.273C117.191 137.025 116.551 137.641 115.671 138.121C114.791 138.585 113.663 138.817 112.287 138.817H109.263V145.585H106.527V128.905H112.287C113.567 128.905 114.647 129.129 115.527 129.577C116.423 130.009 117.087 130.601 117.519 131.353C117.967 132.105 118.191 132.945 118.191 133.873ZM112.287 136.585C113.327 136.585 114.103 136.353 114.615 135.889C115.127 135.409 115.383 134.737 115.383 133.873C115.383 132.049 114.351 131.137 112.287 131.137H109.263V136.585H112.287ZM126.536 145.801C125.288 145.801 124.16 145.521 123.152 144.961C122.144 144.385 121.352 143.585 120.776 142.561C120.2 141.521 119.912 140.321 119.912 138.961C119.912 137.617 120.208 136.425 120.8 135.385C121.392 134.345 122.2 133.545 123.224 132.985C124.248 132.425 125.392 132.145 126.656 132.145C127.92 132.145 129.064 132.425 130.088 132.985C131.112 133.545 131.92 134.345 132.512 135.385C133.104 136.425 133.4 137.617 133.4 138.961C133.4 140.305 133.096 141.497 132.488 142.537C131.88 143.577 131.048 144.385 129.992 144.961C128.952 145.521 127.8 145.801 126.536 145.801ZM126.536 143.425C127.24 143.425 127.896 143.257 128.504 142.921C129.128 142.585 129.632 142.081 130.016 141.409C130.4 140.737 130.592 139.921 130.592 138.961C130.592 138.001 130.408 137.193 130.04 136.537C129.672 135.865 129.184 135.361 128.576 135.025C127.968 134.689 127.312 134.521 126.608 134.521C125.904 134.521 125.248 134.689 124.64 135.025C124.048 135.361 123.576 135.865 123.224 136.537C122.872 137.193 122.696 138.001 122.696 138.961C122.696 140.385 123.056 141.489 123.776 142.273C124.512 143.041 125.432 143.425 126.536 143.425ZM139.297 134.593V141.913C139.297 142.409 139.409 142.769 139.633 142.993C139.873 143.201 140.273 143.305 140.833 143.305H142.513V145.585H140.353C139.121 145.585 138.177 145.297 137.521 144.721C136.865 144.145 136.537 143.209 136.537 141.913V134.593H134.977V132.361H136.537V129.073H139.297V132.361H142.513V134.593H139.297ZM150.77 145.801C149.522 145.801 148.394 145.521 147.386 144.961C146.378 144.385 145.586 143.585 145.01 142.561C144.434 141.521 144.146 140.321 144.146 138.961C144.146 137.617 144.442 136.425 145.034 135.385C145.626 134.345 146.434 133.545 147.458 132.985C148.482 132.425 149.626 132.145 150.89 132.145C152.154 132.145 153.298 132.425 154.322 132.985C155.346 133.545 156.154 134.345 156.746 135.385C157.338 136.425 157.634 137.617 157.634 138.961C157.634 140.305 157.33 141.497 156.722 142.537C156.114 143.577 155.282 144.385 154.226 144.961C153.186 145.521 152.034 145.801 150.77 145.801ZM150.77 143.425C151.474 143.425 152.13 143.257 152.738 142.921C153.362 142.585 153.866 142.081 154.25 141.409C154.634 140.737 154.826 139.921 154.826 138.961C154.826 138.001 154.642 137.193 154.274 136.537C153.906 135.865 153.418 135.361 152.81 135.025C152.202 134.689 151.546 134.521 150.842 134.521C150.138 134.521 149.482 134.689 148.874 135.025C148.282 135.361 147.81 135.865 147.458 136.537C147.106 137.193 146.93 138.001 146.93 138.961C146.93 140.385 147.29 141.489 148.01 142.273C148.746 143.041 149.666 143.425 150.77 143.425ZM167.011 132.145C168.051 132.145 168.979 132.361 169.795 132.793C170.627 133.225 171.275 133.865 171.739 134.713C172.203 135.561 172.435 136.585 172.435 137.785V145.585H169.723V138.193C169.723 137.009 169.427 136.105 168.835 135.481C168.243 134.841 167.435 134.521 166.411 134.521C165.387 134.521 164.571 134.841 163.963 135.481C163.371 136.105 163.075 137.009 163.075 138.193V145.585H160.339V132.361H163.075V133.873C163.523 133.329 164.091 132.905 164.779 132.601C165.483 132.297 166.227 132.145 167.011 132.145ZM181.253 132.145C182.277 132.145 183.181 132.353 183.965 132.769C184.765 133.169 185.389 133.673 185.837 134.281V132.361H188.597V145.801C188.597 147.017 188.341 148.097 187.829 149.041C187.317 150.001 186.573 150.753 185.597 151.297C184.637 151.841 183.485 152.113 182.141 152.113C180.349 152.113 178.861 151.689 177.677 150.841C176.493 150.009 175.821 148.873 175.661 147.433H178.373C178.581 148.121 179.021 148.673 179.693 149.089C180.381 149.521 181.197 149.737 182.141 149.737C183.245 149.737 184.133 149.401 184.805 148.729C185.493 148.057 185.837 147.081 185.837 145.801V143.593C185.373 144.217 184.741 144.745 183.941 145.177C183.157 145.593 182.261 145.801 181.253 145.801C180.101 145.801 179.045 145.513 178.085 144.937C177.141 144.345 176.389 143.529 175.829 142.489C175.285 141.433 175.013 140.241 175.013 138.913C175.013 137.585 175.285 136.409 175.829 135.385C176.389 134.361 177.141 133.569 178.085 133.009C179.045 132.433 180.101 132.145 181.253 132.145ZM185.837 138.961C185.837 138.049 185.645 137.257 185.261 136.585C184.893 135.913 184.405 135.401 183.797 135.049C183.189 134.697 182.533 134.521 181.829 134.521C181.125 134.521 180.469 134.697 179.861 135.049C179.253 135.385 178.757 135.889 178.373 136.561C178.005 137.217 177.821 138.001 177.821 138.913C177.821 139.825 178.005 140.625 178.373 141.313C178.757 142.001 179.253 142.529 179.861 142.897C180.485 143.249 181.141 143.425 181.829 143.425C182.533 143.425 183.189 143.249 183.797 142.897C184.405 142.545 184.893 142.033 185.261 141.361C185.645 140.673 185.837 139.873 185.837 138.961ZM207.617 145.585L201.161 138.121V145.585H198.425V128.905H201.161V136.513L207.641 128.905H211.073L203.825 137.257L211.193 145.585H207.617ZM225.589 132.361V145.585H222.853V144.025C222.421 144.569 221.853 145.001 221.149 145.321C220.461 145.625 219.725 145.777 218.941 145.777C217.901 145.777 216.965 145.561 216.133 145.129C215.317 144.697 214.669 144.057 214.189 143.209C213.725 142.361 213.493 141.337 213.493 140.137V132.361H216.205V139.729C216.205 140.913 216.501 141.825 217.093 142.465C217.685 143.089 218.493 143.401 219.517 143.401C220.541 143.401 221.349 143.089 221.941 142.465C222.549 141.825 222.853 140.913 222.853 139.729V132.361H225.589ZM234.43 138.985L240.526 145.585H236.83L231.934 139.897V145.585H229.198V127.825H231.934V138.145L236.734 132.361H240.526L234.43 138.985ZM254.464 132.361V145.585H251.728V144.025C251.296 144.569 250.728 145.001 250.024 145.321C249.336 145.625 248.6 145.777 247.816 145.777C246.776 145.777 245.84 145.561 245.008 145.129C244.192 144.697 243.544 144.057 243.064 143.209C242.6 142.361 242.368 141.337 242.368 140.137V132.361H245.08V139.729C245.08 140.913 245.376 141.825 245.968 142.465C246.56 143.089 247.368 143.401 248.392 143.401C249.416 143.401 250.224 143.089 250.816 142.465C251.424 141.825 251.728 140.913 251.728 139.729V132.361H254.464ZM106.217 157.905V160.137H101.777V174.585H99.0406V160.137H94.5766V157.905H106.217ZM111.724 163.281C112.124 162.609 112.652 162.089 113.308 161.721C113.98 161.337 114.772 161.145 115.684 161.145V163.977H114.988C113.916 163.977 113.1 164.249 112.54 164.793C111.996 165.337 111.724 166.281 111.724 167.625V174.585H108.988V161.361H111.724V163.281ZM119.59 159.609C119.094 159.609 118.678 159.441 118.342 159.105C118.006 158.769 117.838 158.353 117.838 157.857C117.838 157.361 118.006 156.945 118.342 156.609C118.678 156.273 119.094 156.105 119.59 156.105C120.07 156.105 120.478 156.273 120.814 156.609C121.15 156.945 121.318 157.361 121.318 157.857C121.318 158.353 121.15 158.769 120.814 159.105C120.478 159.441 120.07 159.609 119.59 159.609ZM120.934 161.361V174.585H118.198V161.361H120.934ZM140.535 161.145C141.575 161.145 142.503 161.361 143.319 161.793C144.151 162.225 144.799 162.865 145.263 163.713C145.743 164.561 145.983 165.585 145.983 166.785V174.585H143.271V167.193C143.271 166.009 142.975 165.105 142.383 164.481C141.791 163.841 140.983 163.521 139.959 163.521C138.935 163.521 138.119 163.841 137.511 164.481C136.919 165.105 136.623 166.009 136.623 167.193V174.585H133.911V167.193C133.911 166.009 133.615 165.105 133.023 164.481C132.431 163.841 131.623 163.521 130.599 163.521C129.575 163.521 128.759 163.841 128.151 164.481C127.559 165.105 127.263 166.009 127.263 167.193V174.585H124.527V161.361H127.263V162.873C127.711 162.329 128.279 161.905 128.967 161.601C129.655 161.297 130.391 161.145 131.175 161.145C132.231 161.145 133.175 161.369 134.007 161.817C134.839 162.265 135.479 162.913 135.927 163.761C136.327 162.961 136.951 162.329 137.799 161.865C138.647 161.385 139.559 161.145 140.535 161.145ZM165.472 161.145C166.512 161.145 167.44 161.361 168.256 161.793C169.088 162.225 169.736 162.865 170.2 163.713C170.68 164.561 170.92 165.585 170.92 166.785V174.585H168.208V167.193C168.208 166.009 167.912 165.105 167.32 164.481C166.728 163.841 165.92 163.521 164.896 163.521C163.872 163.521 163.056 163.841 162.448 164.481C161.856 165.105 161.56 166.009 161.56 167.193V174.585H158.848V167.193C158.848 166.009 158.552 165.105 157.96 164.481C157.368 163.841 156.56 163.521 155.536 163.521C154.512 163.521 153.696 163.841 153.088 164.481C152.496 165.105 152.2 166.009 152.2 167.193V174.585H149.464V161.361H152.2V162.873C152.648 162.329 153.216 161.905 153.904 161.601C154.592 161.297 155.328 161.145 156.112 161.145C157.168 161.145 158.112 161.369 158.944 161.817C159.776 162.265 160.416 162.913 160.864 163.761C161.264 162.961 161.888 162.329 162.736 161.865C163.584 161.385 164.496 161.145 165.472 161.145ZM175.794 159.609C175.298 159.609 174.882 159.441 174.546 159.105C174.21 158.769 174.042 158.353 174.042 157.857C174.042 157.361 174.21 156.945 174.546 156.609C174.882 156.273 175.298 156.105 175.794 156.105C176.274 156.105 176.682 156.273 177.018 156.609C177.354 156.945 177.522 157.361 177.522 157.857C177.522 158.353 177.354 158.769 177.018 159.105C176.682 159.441 176.274 159.609 175.794 159.609ZM177.138 161.361V174.585H174.402V161.361H177.138ZM187.402 161.145C188.442 161.145 189.37 161.361 190.186 161.793C191.018 162.225 191.666 162.865 192.13 163.713C192.594 164.561 192.826 165.585 192.826 166.785V174.585H190.114V167.193C190.114 166.009 189.818 165.105 189.226 164.481C188.634 163.841 187.826 163.521 186.802 163.521C185.778 163.521 184.962 163.841 184.354 164.481C183.762 165.105 183.466 166.009 183.466 167.193V174.585H180.73V161.361H183.466V162.873C183.914 162.329 184.482 161.905 185.17 161.601C185.874 161.297 186.618 161.145 187.402 161.145ZM201.644 161.145C202.668 161.145 203.572 161.353 204.356 161.769C205.156 162.169 205.78 162.673 206.228 163.281V161.361H208.988V174.801C208.988 176.017 208.732 177.097 208.22 178.041C207.708 179.001 206.964 179.753 205.988 180.297C205.028 180.841 203.876 181.113 202.532 181.113C200.74 181.113 199.252 180.689 198.068 179.841C196.884 179.009 196.212 177.873 196.052 176.433H198.764C198.972 177.121 199.412 177.673 200.084 178.089C200.772 178.521 201.588 178.737 202.532 178.737C203.636 178.737 204.524 178.401 205.196 177.729C205.884 177.057 206.228 176.081 206.228 174.801V172.593C205.764 173.217 205.132 173.745 204.332 174.177C203.548 174.593 202.652 174.801 201.644 174.801C200.492 174.801 199.436 174.513 198.476 173.937C197.532 173.345 196.78 172.529 196.22 171.489C195.676 170.433 195.404 169.241 195.404 167.913C195.404 166.585 195.676 165.409 196.22 164.385C196.78 163.361 197.532 162.569 198.476 162.009C199.436 161.433 200.492 161.145 201.644 161.145ZM206.228 167.961C206.228 167.049 206.036 166.257 205.652 165.585C205.284 164.913 204.796 164.401 204.188 164.049C203.58 163.697 202.924 163.521 202.22 163.521C201.516 163.521 200.86 163.697 200.252 164.049C199.644 164.385 199.148 164.889 198.764 165.561C198.396 166.217 198.212 167.001 198.212 167.913C198.212 168.825 198.396 169.625 198.764 170.313C199.148 171.001 199.644 171.529 200.252 171.897C200.876 172.249 201.532 172.425 202.22 172.425C202.924 172.425 203.58 172.249 204.188 171.897C204.796 171.545 205.284 171.033 205.652 170.361C206.036 169.673 206.228 168.873 206.228 167.961ZM230.48 162.873C230.48 163.721 230.28 164.521 229.88 165.273C229.48 166.025 228.84 166.641 227.96 167.121C227.08 167.585 225.952 167.817 224.576 167.817H221.552V174.585H218.816V157.905H224.576C225.856 157.905 226.936 158.129 227.816 158.577C228.712 159.009 229.376 159.601 229.808 160.353C230.256 161.105 230.48 161.945 230.48 162.873ZM224.576 165.585C225.616 165.585 226.392 165.353 226.904 164.889C227.416 164.409 227.672 163.737 227.672 162.873C227.672 161.049 226.64 160.137 224.576 160.137H221.552V165.585H224.576ZM232.177 167.913C232.177 166.585 232.449 165.409 232.993 164.385C233.553 163.361 234.305 162.569 235.249 162.009C236.209 161.433 237.265 161.145 238.417 161.145C239.457 161.145 240.361 161.353 241.129 161.769C241.913 162.169 242.537 162.673 243.001 163.281V161.361H245.761V174.585H243.001V172.617C242.537 173.241 241.905 173.761 241.105 174.177C240.305 174.593 239.393 174.801 238.369 174.801C237.233 174.801 236.193 174.513 235.249 173.937C234.305 173.345 233.553 172.529 232.993 171.489C232.449 170.433 232.177 169.241 232.177 167.913ZM243.001 167.961C243.001 167.049 242.809 166.257 242.425 165.585C242.057 164.913 241.569 164.401 240.961 164.049C240.353 163.697 239.697 163.521 238.993 163.521C238.289 163.521 237.633 163.697 237.025 164.049C236.417 164.385 235.921 164.889 235.537 165.561C235.169 166.217 234.985 167.001 234.985 167.913C234.985 168.825 235.169 169.625 235.537 170.313C235.921 171.001 236.417 171.529 237.025 171.897C237.649 172.249 238.305 172.425 238.993 172.425C239.697 172.425 240.353 172.249 240.961 171.897C241.569 171.545 242.057 171.033 242.425 170.361C242.809 169.673 243.001 168.873 243.001 167.961ZM267.115 161.361L263.011 174.585H260.131L257.467 164.817L254.803 174.585H251.923L247.795 161.361H250.579L253.339 171.993L256.147 161.361H259.003L261.691 171.945L264.427 161.361H267.115ZM65.8312 191.873C65.8312 192.721 65.6312 193.521 65.2312 194.273C64.8312 195.025 64.1912 195.641 63.3112 196.121C62.4312 196.585 61.3032 196.817 59.9272 196.817H56.9032V203.585H54.1672V186.905H59.9272C61.2072 186.905 62.2872 187.129 63.1672 187.577C64.0632 188.009 64.7272 188.601 65.1592 189.353C65.6072 190.105 65.8312 190.945 65.8312 191.873ZM59.9272 194.585C60.9672 194.585 61.7432 194.353 62.2552 193.889C62.7672 193.409 63.0232 192.737 63.0232 191.873C63.0232 190.049 61.9912 189.137 59.9272 189.137H56.9032V194.585H59.9272ZM80.5606 196.649C80.5606 197.145 80.5286 197.593 80.4646 197.993H70.3606C70.4406 199.049 70.8326 199.897 71.5366 200.537C72.2406 201.177 73.1046 201.497 74.1286 201.497C75.6006 201.497 76.6406 200.881 77.2486 199.649H80.2006C79.8006 200.865 79.0726 201.865 78.0166 202.649C76.9766 203.417 75.6806 203.801 74.1286 203.801C72.8646 203.801 71.7286 203.521 70.7206 202.961C69.7286 202.385 68.9446 201.585 68.3686 200.561C67.8086 199.521 67.5286 198.321 67.5286 196.961C67.5286 195.601 67.8006 194.409 68.3446 193.385C68.9046 192.345 69.6806 191.545 70.6726 190.985C71.6806 190.425 72.8326 190.145 74.1286 190.145C75.3766 190.145 76.4886 190.417 77.4646 190.961C78.4406 191.505 79.2006 192.273 79.7446 193.265C80.2886 194.241 80.5606 195.369 80.5606 196.649ZM77.7046 195.785C77.6886 194.777 77.3286 193.969 76.6246 193.361C75.9206 192.753 75.0486 192.449 74.0086 192.449C73.0646 192.449 72.2566 192.753 71.5846 193.361C70.9126 193.953 70.5126 194.761 70.3846 195.785H77.7046ZM99.2611 190.145C100.301 190.145 101.229 190.361 102.045 190.793C102.877 191.225 103.525 191.865 103.989 192.713C104.469 193.561 104.709 194.585 104.709 195.785V203.585H101.997V196.193C101.997 195.009 101.701 194.105 101.109 193.481C100.517 192.841 99.7091 192.521 98.6851 192.521C97.6611 192.521 96.8451 192.841 96.2371 193.481C95.6451 194.105 95.3491 195.009 95.3491 196.193V203.585H92.6371V196.193C92.6371 195.009 92.3411 194.105 91.7491 193.481C91.1571 192.841 90.3491 192.521 89.3251 192.521C88.3011 192.521 87.4851 192.841 86.8771 193.481C86.2851 194.105 85.9891 195.009 85.9891 196.193V203.585H83.2531V190.361H85.9891V191.873C86.4371 191.329 87.0051 190.905 87.6931 190.601C88.3811 190.297 89.1171 190.145 89.9011 190.145C90.9571 190.145 91.9011 190.369 92.7331 190.817C93.5651 191.265 94.2051 191.913 94.6531 192.761C95.0531 191.961 95.6771 191.329 96.5251 190.865C97.3731 190.385 98.2851 190.145 99.2611 190.145ZM110.927 192.329C111.391 191.689 112.023 191.169 112.823 190.769C113.639 190.353 114.543 190.145 115.535 190.145C116.703 190.145 117.759 190.425 118.703 190.985C119.647 191.545 120.391 192.345 120.935 193.385C121.479 194.409 121.751 195.585 121.751 196.913C121.751 198.241 121.479 199.433 120.935 200.489C120.391 201.529 119.639 202.345 118.679 202.937C117.735 203.513 116.687 203.801 115.535 203.801C114.511 203.801 113.599 203.601 112.799 203.201C112.015 202.801 111.391 202.289 110.927 201.665V203.585H108.191V185.825H110.927V192.329ZM118.967 196.913C118.967 196.001 118.775 195.217 118.391 194.561C118.023 193.889 117.527 193.385 116.903 193.049C116.295 192.697 115.639 192.521 114.935 192.521C114.247 192.521 113.591 192.697 112.967 193.049C112.359 193.401 111.863 193.913 111.479 194.585C111.111 195.257 110.927 196.049 110.927 196.961C110.927 197.873 111.111 198.673 111.479 199.361C111.863 200.033 112.359 200.545 112.967 200.897C113.591 201.249 114.247 201.425 114.935 201.425C115.639 201.425 116.295 201.249 116.903 200.897C117.527 200.529 118.023 200.001 118.391 199.313C118.775 198.625 118.967 197.825 118.967 196.913ZM136.576 196.649C136.576 197.145 136.544 197.593 136.48 197.993H126.376C126.456 199.049 126.848 199.897 127.552 200.537C128.256 201.177 129.12 201.497 130.144 201.497C131.616 201.497 132.656 200.881 133.264 199.649H136.216C135.816 200.865 135.088 201.865 134.032 202.649C132.992 203.417 131.696 203.801 130.144 203.801C128.88 203.801 127.744 203.521 126.736 202.961C125.744 202.385 124.96 201.585 124.384 200.561C123.824 199.521 123.544 198.321 123.544 196.961C123.544 195.601 123.816 194.409 124.36 193.385C124.92 192.345 125.696 191.545 126.688 190.985C127.696 190.425 128.848 190.145 130.144 190.145C131.392 190.145 132.504 190.417 133.48 190.961C134.456 191.505 135.216 192.273 135.76 193.265C136.304 194.241 136.576 195.369 136.576 196.649ZM133.72 195.785C133.704 194.777 133.344 193.969 132.64 193.361C131.936 192.753 131.064 192.449 130.024 192.449C129.08 192.449 128.272 192.753 127.6 193.361C126.928 193.953 126.528 194.761 126.4 195.785H133.72ZM142.005 192.281C142.405 191.609 142.933 191.089 143.589 190.721C144.261 190.337 145.053 190.145 145.965 190.145V192.977H145.269C144.197 192.977 143.381 193.249 142.821 193.793C142.277 194.337 142.005 195.281 142.005 196.625V203.585H139.269V190.361H142.005V192.281ZM153.28 203.801C152.24 203.801 151.304 203.617 150.472 203.249C149.656 202.865 149.008 202.353 148.528 201.713C148.048 201.057 147.792 200.329 147.76 199.529H150.592C150.64 200.089 150.904 200.561 151.384 200.945C151.88 201.313 152.496 201.497 153.232 201.497C154 201.497 154.592 201.353 155.008 201.065C155.44 200.761 155.656 200.377 155.656 199.913C155.656 199.417 155.416 199.049 154.936 198.809C154.472 198.569 153.728 198.305 152.704 198.017C151.712 197.745 150.904 197.481 150.28 197.225C149.656 196.969 149.112 196.577 148.648 196.049C148.2 195.521 147.976 194.825 147.976 193.961C147.976 193.257 148.184 192.617 148.6 192.041C149.016 191.449 149.608 190.985 150.376 190.649C151.16 190.313 152.056 190.145 153.064 190.145C154.568 190.145 155.776 190.529 156.688 191.297C157.616 192.049 158.112 193.081 158.176 194.393H155.44C155.392 193.801 155.152 193.329 154.72 192.977C154.288 192.625 153.704 192.449 152.968 192.449C152.248 192.449 151.696 192.585 151.312 192.857C150.928 193.129 150.736 193.489 150.736 193.937C150.736 194.289 150.864 194.585 151.12 194.825C151.376 195.065 151.688 195.257 152.056 195.401C152.424 195.529 152.968 195.697 153.688 195.905C154.648 196.161 155.432 196.425 156.04 196.697C156.664 196.953 157.2 197.337 157.648 197.849C158.096 198.361 158.328 199.041 158.344 199.889C158.344 200.641 158.136 201.313 157.72 201.905C157.304 202.497 156.712 202.961 155.944 203.297C155.192 203.633 154.304 203.801 153.28 203.801ZM162.692 188.609C162.196 188.609 161.78 188.441 161.444 188.105C161.108 187.769 160.94 187.353 160.94 186.857C160.94 186.361 161.108 185.945 161.444 185.609C161.78 185.273 162.196 185.105 162.692 185.105C163.172 185.105 163.58 185.273 163.916 185.609C164.252 185.945 164.42 186.361 164.42 186.857C164.42 187.353 164.252 187.769 163.916 188.105C163.58 188.441 163.172 188.609 162.692 188.609ZM164.036 190.361V203.585H161.3V190.361H164.036ZM174.468 190.145C175.476 190.145 176.372 190.361 177.156 190.793C177.956 191.225 178.58 191.865 179.028 192.713C179.492 193.561 179.724 194.585 179.724 195.785V203.585H177.012V196.193C177.012 195.009 176.716 194.105 176.124 193.481C175.532 192.841 174.724 192.521 173.7 192.521C172.676 192.521 171.86 192.841 171.252 193.481C170.66 194.105 170.364 195.009 170.364 196.193V203.585H167.628V185.825H170.364V191.897C170.828 191.337 171.412 190.905 172.116 190.601C172.836 190.297 173.62 190.145 174.468 190.145ZM182.302 196.913C182.302 195.585 182.574 194.409 183.118 193.385C183.678 192.361 184.43 191.569 185.374 191.009C186.334 190.433 187.39 190.145 188.542 190.145C189.582 190.145 190.486 190.353 191.254 190.769C192.038 191.169 192.662 191.673 193.126 192.281V190.361H195.886V203.585H193.126V201.617C192.662 202.241 192.03 202.761 191.23 203.177C190.43 203.593 189.518 203.801 188.494 203.801C187.358 203.801 186.318 203.513 185.374 202.937C184.43 202.345 183.678 201.529 183.118 200.489C182.574 199.433 182.302 198.241 182.302 196.913ZM193.126 196.961C193.126 196.049 192.934 195.257 192.55 194.585C192.182 193.913 191.694 193.401 191.086 193.049C190.478 192.697 189.822 192.521 189.118 192.521C188.414 192.521 187.758 192.697 187.15 193.049C186.542 193.385 186.046 193.889 185.662 194.561C185.294 195.217 185.11 196.001 185.11 196.913C185.11 197.825 185.294 198.625 185.662 199.313C186.046 200.001 186.542 200.529 187.15 200.897C187.774 201.249 188.43 201.425 189.118 201.425C189.822 201.425 190.478 201.249 191.086 200.897C191.694 200.545 192.182 200.033 192.55 199.361C192.934 198.673 193.126 197.873 193.126 196.961ZM206.152 190.145C207.192 190.145 208.12 190.361 208.936 190.793C209.768 191.225 210.416 191.865 210.88 192.713C211.344 193.561 211.576 194.585 211.576 195.785V203.585H208.864V196.193C208.864 195.009 208.568 194.105 207.976 193.481C207.384 192.841 206.576 192.521 205.552 192.521C204.528 192.521 203.712 192.841 203.104 193.481C202.512 194.105 202.216 195.009 202.216 196.193V203.585H199.48V190.361H202.216V191.873C202.664 191.329 203.232 190.905 203.92 190.601C204.624 190.297 205.368 190.145 206.152 190.145ZM232.076 186.905V189.137H227.636V203.585H224.9V189.137H220.436V186.905H232.076ZM246.967 196.649C246.967 197.145 246.935 197.593 246.871 197.993H236.767C236.847 199.049 237.239 199.897 237.943 200.537C238.647 201.177 239.511 201.497 240.535 201.497C242.007 201.497 243.047 200.881 243.655 199.649H246.607C246.207 200.865 245.479 201.865 244.423 202.649C243.383 203.417 242.087 203.801 240.535 203.801C239.271 203.801 238.135 203.521 237.127 202.961C236.135 202.385 235.351 201.585 234.775 200.561C234.215 199.521 233.935 198.321 233.935 196.961C233.935 195.601 234.207 194.409 234.751 193.385C235.311 192.345 236.087 191.545 237.079 190.985C238.087 190.425 239.239 190.145 240.535 190.145C241.783 190.145 242.895 190.417 243.871 190.961C244.847 191.505 245.607 192.273 246.151 193.265C246.695 194.241 246.967 195.369 246.967 196.649ZM244.111 195.785C244.095 194.777 243.735 193.969 243.031 193.361C242.327 192.753 241.455 192.449 240.415 192.449C239.471 192.449 238.663 192.753 237.991 193.361C237.319 193.953 236.919 194.761 236.791 195.785H244.111ZM252.395 185.825V203.585H249.659V185.825H252.395ZM257.38 188.609C256.884 188.609 256.468 188.441 256.132 188.105C255.796 187.769 255.628 187.353 255.628 186.857C255.628 186.361 255.796 185.945 256.132 185.609C256.468 185.273 256.884 185.105 257.38 185.105C257.86 185.105 258.268 185.273 258.604 185.609C258.94 185.945 259.108 186.361 259.108 186.857C259.108 187.353 258.94 187.769 258.604 188.105C258.268 188.441 257.86 188.609 257.38 188.609ZM258.724 190.361V203.585H255.988V190.361H258.724ZM268.988 190.145C270.028 190.145 270.956 190.361 271.772 190.793C272.604 191.225 273.252 191.865 273.716 192.713C274.18 193.561 274.412 194.585 274.412 195.785V203.585H271.7V196.193C271.7 195.009 271.404 194.105 270.812 193.481C270.22 192.841 269.412 192.521 268.388 192.521C267.364 192.521 266.548 192.841 265.94 193.481C265.348 194.105 265.052 195.009 265.052 196.193V203.585H262.316V190.361H265.052V191.873C265.5 191.329 266.068 190.905 266.756 190.601C267.46 190.297 268.204 190.145 268.988 190.145ZM283.23 190.145C284.254 190.145 285.158 190.353 285.942 190.769C286.742 191.169 287.366 191.673 287.814 192.281V190.361H290.574V203.801C290.574 205.017 290.318 206.097 289.806 207.041C289.294 208.001 288.55 208.753 287.574 209.297C286.614 209.841 285.462 210.113 284.118 210.113C282.326 210.113 280.838 209.689 279.654 208.841C278.47 208.009 277.798 206.873 277.638 205.433H280.35C280.558 206.121 280.998 206.673 281.67 207.089C282.358 207.521 283.174 207.737 284.118 207.737C285.222 207.737 286.11 207.401 286.782 206.729C287.47 206.057 287.814 205.081 287.814 203.801V201.593C287.35 202.217 286.718 202.745 285.918 203.177C285.134 203.593 284.238 203.801 283.23 203.801C282.078 203.801 281.022 203.513 280.062 202.937C279.118 202.345 278.366 201.529 277.806 200.489C277.262 199.433 276.99 198.241 276.99 196.913C276.99 195.585 277.262 194.409 277.806 193.385C278.366 192.361 279.118 191.569 280.062 191.009C281.022 190.433 282.078 190.145 283.23 190.145ZM287.814 196.961C287.814 196.049 287.622 195.257 287.238 194.585C286.87 193.913 286.382 193.401 285.774 193.049C285.166 192.697 284.51 192.521 283.806 192.521C283.102 192.521 282.446 192.697 281.838 193.049C281.23 193.385 280.734 193.889 280.35 194.561C279.982 195.217 279.798 196.001 279.798 196.913C279.798 197.825 279.982 198.625 280.35 199.313C280.734 200.001 281.23 200.529 281.838 200.897C282.462 201.249 283.118 201.425 283.806 201.425C284.51 201.425 285.166 201.249 285.774 200.897C286.382 200.545 286.87 200.033 287.238 199.361C287.622 198.673 287.814 197.873 287.814 196.961ZM293.255 196.913C293.255 195.585 293.527 194.409 294.071 193.385C294.631 192.361 295.383 191.569 296.327 191.009C297.287 190.433 298.343 190.145 299.495 190.145C300.535 190.145 301.439 190.353 302.207 190.769C302.991 191.169 303.615 191.673 304.079 192.281V190.361H306.839V203.585H304.079V201.617C303.615 202.241 302.983 202.761 302.183 203.177C301.383 203.593 300.471 203.801 299.447 203.801C298.311 203.801 297.271 203.513 296.327 202.937C295.383 202.345 294.631 201.529 294.071 200.489C293.527 199.433 293.255 198.241 293.255 196.913ZM304.079 196.961C304.079 196.049 303.887 195.257 303.503 194.585C303.135 193.913 302.647 193.401 302.039 193.049C301.431 192.697 300.775 192.521 300.071 192.521C299.367 192.521 298.711 192.697 298.103 193.049C297.495 193.385 296.999 193.889 296.615 194.561C296.247 195.217 296.063 196.001 296.063 196.913C296.063 197.825 296.247 198.625 296.615 199.313C296.999 200.001 297.495 200.529 298.103 200.897C298.727 201.249 299.383 201.425 300.071 201.425C300.775 201.425 301.431 201.249 302.039 200.897C302.647 200.545 303.135 200.033 303.503 199.361C303.887 198.673 304.079 197.873 304.079 196.961ZM125.135 215.905C126.911 215.905 128.463 216.249 129.791 216.937C131.135 217.609 132.167 218.585 132.887 219.865C133.623 221.129 133.991 222.609 133.991 224.305C133.991 226.001 133.623 227.473 132.887 228.721C132.167 229.969 131.135 230.929 129.791 231.601C128.463 232.257 126.911 232.585 125.135 232.585H119.687V215.905H125.135ZM125.135 230.353C127.087 230.353 128.583 229.825 129.623 228.769C130.663 227.713 131.183 226.225 131.183 224.305C131.183 222.369 130.663 220.857 129.623 219.769C128.583 218.681 127.087 218.137 125.135 218.137H122.423V230.353H125.135ZM148.822 225.649C148.822 226.145 148.79 226.593 148.726 226.993H138.622C138.702 228.049 139.094 228.897 139.798 229.537C140.502 230.177 141.366 230.497 142.39 230.497C143.862 230.497 144.902 229.881 145.51 228.649H148.462C148.062 229.865 147.334 230.865 146.278 231.649C145.238 232.417 143.942 232.801 142.39 232.801C141.126 232.801 139.99 232.521 138.982 231.961C137.99 231.385 137.206 230.585 136.63 229.561C136.07 228.521 135.79 227.321 135.79 225.961C135.79 224.601 136.062 223.409 136.606 222.385C137.166 221.345 137.942 220.545 138.934 219.985C139.942 219.425 141.094 219.145 142.39 219.145C143.638 219.145 144.75 219.417 145.726 219.961C146.702 220.505 147.462 221.273 148.006 222.265C148.55 223.241 148.822 224.369 148.822 225.649ZM145.966 224.785C145.95 223.777 145.59 222.969 144.886 222.361C144.182 221.753 143.31 221.449 142.27 221.449C141.326 221.449 140.518 221.753 139.846 222.361C139.174 222.953 138.774 223.761 138.646 224.785H145.966ZM156.843 219.145C157.867 219.145 158.771 219.353 159.555 219.769C160.355 220.169 160.979 220.673 161.427 221.281V219.361H164.187V232.801C164.187 234.017 163.931 235.097 163.419 236.041C162.907 237.001 162.163 237.753 161.187 238.297C160.227 238.841 159.075 239.113 157.731 239.113C155.939 239.113 154.451 238.689 153.267 237.841C152.083 237.009 151.411 235.873 151.251 234.433H153.963C154.171 235.121 154.611 235.673 155.283 236.089C155.971 236.521 156.787 236.737 157.731 236.737C158.835 236.737 159.723 236.401 160.395 235.729C161.083 235.057 161.427 234.081 161.427 232.801V230.593C160.963 231.217 160.331 231.745 159.531 232.177C158.747 232.593 157.851 232.801 156.843 232.801C155.691 232.801 154.635 232.513 153.675 231.937C152.731 231.345 151.979 230.529 151.419 229.489C150.875 228.433 150.603 227.241 150.603 225.913C150.603 224.585 150.875 223.409 151.419 222.385C151.979 221.361 152.731 220.569 153.675 220.009C154.635 219.433 155.691 219.145 156.843 219.145ZM161.427 225.961C161.427 225.049 161.235 224.257 160.851 223.585C160.483 222.913 159.995 222.401 159.387 222.049C158.779 221.697 158.123 221.521 157.419 221.521C156.715 221.521 156.059 221.697 155.451 222.049C154.843 222.385 154.347 222.889 153.963 223.561C153.595 224.217 153.411 225.001 153.411 225.913C153.411 226.825 153.595 227.625 153.963 228.313C154.347 229.001 154.843 229.529 155.451 229.897C156.075 230.249 156.731 230.425 157.419 230.425C158.123 230.425 158.779 230.249 159.387 229.897C159.995 229.545 160.483 229.033 160.851 228.361C161.235 227.673 161.427 226.873 161.427 225.961ZM170.516 221.281C170.916 220.609 171.444 220.089 172.1 219.721C172.772 219.337 173.564 219.145 174.476 219.145V221.977H173.78C172.708 221.977 171.892 222.249 171.332 222.793C170.788 223.337 170.516 224.281 170.516 225.625V232.585H167.78V219.361H170.516V221.281ZM189.111 225.649C189.111 226.145 189.079 226.593 189.015 226.993H178.911C178.991 228.049 179.383 228.897 180.087 229.537C180.791 230.177 181.655 230.497 182.679 230.497C184.151 230.497 185.191 229.881 185.799 228.649H188.751C188.351 229.865 187.623 230.865 186.567 231.649C185.527 232.417 184.231 232.801 182.679 232.801C181.415 232.801 180.279 232.521 179.271 231.961C178.279 231.385 177.495 230.585 176.919 229.561C176.359 228.521 176.079 227.321 176.079 225.961C176.079 224.601 176.351 223.409 176.895 222.385C177.455 221.345 178.231 220.545 179.223 219.985C180.231 219.425 181.383 219.145 182.679 219.145C183.927 219.145 185.039 219.417 186.015 219.961C186.991 220.505 187.751 221.273 188.295 222.265C188.839 223.241 189.111 224.369 189.111 225.649ZM186.255 224.785C186.239 223.777 185.879 222.969 185.175 222.361C184.471 221.753 183.599 221.449 182.559 221.449C181.615 221.449 180.807 221.753 180.135 222.361C179.463 222.953 179.063 223.761 178.935 224.785H186.255ZM190.892 225.913C190.892 224.585 191.164 223.409 191.708 222.385C192.268 221.361 193.02 220.569 193.964 220.009C194.924 219.433 195.98 219.145 197.132 219.145C198.172 219.145 199.076 219.353 199.844 219.769C200.628 220.169 201.252 220.673 201.716 221.281V219.361H204.476V232.585H201.716V230.617C201.252 231.241 200.62 231.761 199.82 232.177C199.02 232.593 198.108 232.801 197.084 232.801C195.948 232.801 194.908 232.513 193.964 231.937C193.02 231.345 192.268 230.529 191.708 229.489C191.164 228.433 190.892 227.241 190.892 225.913ZM201.716 225.961C201.716 225.049 201.524 224.257 201.14 223.585C200.772 222.913 200.284 222.401 199.676 222.049C199.068 221.697 198.412 221.521 197.708 221.521C197.004 221.521 196.348 221.697 195.74 222.049C195.132 222.385 194.636 222.889 194.252 223.561C193.884 224.217 193.7 225.001 193.7 225.913C193.7 226.825 193.884 227.625 194.252 228.313C194.636 229.001 195.132 229.529 195.74 229.897C196.364 230.249 197.02 230.425 197.708 230.425C198.412 230.425 199.068 230.249 199.676 229.897C200.284 229.545 200.772 229.033 201.14 228.361C201.524 227.673 201.716 226.873 201.716 225.961ZM212.87 232.801C211.83 232.801 210.894 232.617 210.062 232.249C209.246 231.865 208.598 231.353 208.118 230.713C207.638 230.057 207.382 229.329 207.35 228.529H210.182C210.23 229.089 210.494 229.561 210.974 229.945C211.47 230.313 212.086 230.497 212.822 230.497C213.59 230.497 214.182 230.353 214.598 230.065C215.03 229.761 215.246 229.377 215.246 228.913C215.246 228.417 215.006 228.049 214.526 227.809C214.062 227.569 213.318 227.305 212.294 227.017C211.302 226.745 210.494 226.481 209.87 226.225C209.246 225.969 208.702 225.577 208.238 225.049C207.79 224.521 207.566 223.825 207.566 222.961C207.566 222.257 207.774 221.617 208.19 221.041C208.606 220.449 209.198 219.985 209.966 219.649C210.75 219.313 211.646 219.145 212.654 219.145C214.158 219.145 215.366 219.529 216.278 220.297C217.206 221.049 217.702 222.081 217.766 223.393H215.03C214.982 222.801 214.742 222.329 214.31 221.977C213.878 221.625 213.294 221.449 212.558 221.449C211.838 221.449 211.286 221.585 210.902 221.857C210.518 222.129 210.326 222.489 210.326 222.937C210.326 223.289 210.454 223.585 210.71 223.825C210.966 224.065 211.278 224.257 211.646 224.401C212.014 224.529 212.558 224.697 213.278 224.905C214.238 225.161 215.022 225.425 215.63 225.697C216.254 225.953 216.79 226.337 217.238 226.849C217.686 227.361 217.918 228.041 217.934 228.889C217.934 229.641 217.726 230.313 217.31 230.905C216.894 231.497 216.302 231.961 215.534 232.297C214.782 232.633 213.894 232.801 212.87 232.801ZM233.01 225.649C233.01 226.145 232.978 226.593 232.914 226.993H222.81C222.89 228.049 223.282 228.897 223.986 229.537C224.69 230.177 225.554 230.497 226.578 230.497C228.05 230.497 229.09 229.881 229.698 228.649H232.65C232.25 229.865 231.522 230.865 230.466 231.649C229.426 232.417 228.13 232.801 226.578 232.801C225.314 232.801 224.178 232.521 223.17 231.961C222.178 231.385 221.394 230.585 220.818 229.561C220.258 228.521 219.978 227.321 219.978 225.961C219.978 224.601 220.25 223.409 220.794 222.385C221.354 221.345 222.13 220.545 223.122 219.985C224.13 219.425 225.282 219.145 226.578 219.145C227.826 219.145 228.938 219.417 229.914 219.961C230.89 220.505 231.65 221.273 232.194 222.265C232.738 223.241 233.01 224.369 233.01 225.649ZM230.154 224.785C230.138 223.777 229.778 222.969 229.074 222.361C228.37 221.753 227.498 221.449 226.458 221.449C225.514 221.449 224.706 221.753 224.034 222.361C223.362 222.953 222.962 223.761 222.834 224.785H230.154ZM238.438 221.281C238.838 220.609 239.366 220.089 240.022 219.721C240.694 219.337 241.486 219.145 242.398 219.145V221.977H241.702C240.63 221.977 239.814 222.249 239.254 222.793C238.71 223.337 238.438 224.281 238.438 225.625V232.585H235.702V219.361H238.438V221.281Z" fill="#181817"/>
<rect y="270.393" width="360" height="138.607" fill="#FFCC00"/>
<path d="M81.4645 336.873C81.0805 336.169 80.5525 335.633 79.8805 335.265C79.2085 334.897 78.4245 334.713 77.5285 334.713C76.5365 334.713 75.6565 334.937 74.8885 335.385C74.1205 335.833 73.5205 336.473 73.0885 337.305C72.6565 338.137 72.4405 339.097 72.4405 340.185C72.4405 341.305 72.6565 342.281 73.0885 343.113C73.5365 343.945 74.1525 344.585 74.9365 345.033C75.7205 345.481 76.6325 345.705 77.6725 345.705C78.9525 345.705 80.0005 345.369 80.8165 344.697C81.6325 344.009 82.1685 343.057 82.4245 341.841H76.6645V339.273H85.7365V342.201C85.5125 343.369 85.0325 344.449 84.2965 345.441C83.5605 346.433 82.6085 347.233 81.4405 347.841C80.2885 348.433 78.9925 348.729 77.5525 348.729C75.9365 348.729 74.4725 348.369 73.1605 347.649C71.8645 346.913 70.8405 345.897 70.0885 344.601C69.3525 343.305 68.9845 341.833 68.9845 340.185C68.9845 338.537 69.3525 337.065 70.0885 335.769C70.8405 334.457 71.8645 333.441 73.1605 332.721C74.4725 331.985 75.9285 331.617 77.5285 331.617C79.4165 331.617 81.0565 332.081 82.4485 333.009C83.8405 333.921 84.8005 335.209 85.3285 336.873H81.4645ZM91.5824 337.353C92.0144 336.649 92.5744 336.097 93.2624 335.697C93.9664 335.297 94.7664 335.097 95.6624 335.097V338.625H94.7744C93.7184 338.625 92.9184 338.873 92.3744 339.369C91.8464 339.865 91.5824 340.729 91.5824 341.961V348.585H88.2224V335.289H91.5824V337.353ZM103.83 348.801C102.55 348.801 101.398 348.521 100.374 347.961C99.3495 347.385 98.5415 346.577 97.9495 345.537C97.3735 344.497 97.0855 343.297 97.0855 341.937C97.0855 340.577 97.3815 339.377 97.9735 338.337C98.5815 337.297 99.4055 336.497 100.446 335.937C101.486 335.361 102.646 335.073 103.926 335.073C105.206 335.073 106.366 335.361 107.406 335.937C108.446 336.497 109.262 337.297 109.854 338.337C110.462 339.377 110.766 340.577 110.766 341.937C110.766 343.297 110.454 344.497 109.83 345.537C109.222 346.577 108.39 347.385 107.334 347.961C106.294 348.521 105.126 348.801 103.83 348.801ZM103.83 345.873C104.438 345.873 105.006 345.729 105.534 345.441C106.078 345.137 106.51 344.689 106.83 344.097C107.15 343.505 107.31 342.785 107.31 341.937C107.31 340.673 106.974 339.705 106.302 339.033C105.646 338.345 104.838 338.001 103.878 338.001C102.918 338.001 102.11 338.345 101.454 339.033C100.814 339.705 100.494 340.673 100.494 341.937C100.494 343.201 100.806 344.177 101.43 344.865C102.07 345.537 102.87 345.873 103.83 345.873ZM119.134 348.801C117.854 348.801 116.702 348.521 115.678 347.961C114.654 347.385 113.846 346.577 113.254 345.537C112.678 344.497 112.39 343.297 112.39 341.937C112.39 340.577 112.686 339.377 113.278 338.337C113.886 337.297 114.71 336.497 115.75 335.937C116.79 335.361 117.95 335.073 119.23 335.073C120.51 335.073 121.67 335.361 122.71 335.937C123.75 336.497 124.566 337.297 125.158 338.337C125.766 339.377 126.07 340.577 126.07 341.937C126.07 343.297 125.758 344.497 125.134 345.537C124.526 346.577 123.694 347.385 122.638 347.961C121.598 348.521 120.43 348.801 119.134 348.801ZM119.134 345.873C119.742 345.873 120.31 345.729 120.838 345.441C121.382 345.137 121.814 344.689 122.134 344.097C122.454 343.505 122.614 342.785 122.614 341.937C122.614 340.673 122.278 339.705 121.606 339.033C120.95 338.345 120.142 338.001 119.182 338.001C118.222 338.001 117.414 338.345 116.758 339.033C116.118 339.705 115.798 340.673 115.798 341.937C115.798 343.201 116.11 344.177 116.734 344.865C117.374 345.537 118.174 345.873 119.134 345.873ZM145.047 335.097C146.679 335.097 147.991 335.601 148.983 336.609C149.991 337.601 150.495 338.993 150.495 340.785V348.585H147.135V341.241C147.135 340.201 146.871 339.409 146.343 338.865C145.815 338.305 145.095 338.025 144.183 338.025C143.271 338.025 142.543 338.305 141.999 338.865C141.471 339.409 141.207 340.201 141.207 341.241V348.585H137.847V341.241C137.847 340.201 137.583 339.409 137.055 338.865C136.527 338.305 135.807 338.025 134.895 338.025C133.967 338.025 133.231 338.305 132.687 338.865C132.159 339.409 131.895 340.201 131.895 341.241V348.585H128.535V335.289H131.895V336.897C132.327 336.337 132.879 335.897 133.551 335.577C134.239 335.257 134.991 335.097 135.807 335.097C136.847 335.097 137.775 335.321 138.591 335.769C139.407 336.201 140.039 336.825 140.487 337.641C140.919 336.873 141.543 336.257 142.359 335.793C143.191 335.329 144.087 335.097 145.047 335.097ZM155.387 333.705C154.795 333.705 154.299 333.521 153.899 333.153C153.515 332.769 153.323 332.297 153.323 331.737C153.323 331.177 153.515 330.713 153.899 330.345C154.299 329.961 154.795 329.769 155.387 329.769C155.979 329.769 156.467 329.961 156.851 330.345C157.251 330.713 157.451 331.177 157.451 331.737C157.451 332.297 157.251 332.769 156.851 333.153C156.467 333.521 155.979 333.705 155.387 333.705ZM157.043 335.289V348.585H153.683V335.289H157.043ZM167.731 335.097C169.315 335.097 170.595 335.601 171.571 336.609C172.547 337.601 173.035 338.993 173.035 340.785V348.585H169.675V341.241C169.675 340.185 169.411 339.377 168.883 338.817C168.355 338.241 167.635 337.953 166.723 337.953C165.795 337.953 165.059 338.241 164.515 338.817C163.987 339.377 163.723 340.185 163.723 341.241V348.585H160.363V335.289H163.723V336.945C164.171 336.369 164.739 335.921 165.427 335.601C166.131 335.265 166.899 335.097 167.731 335.097ZM181.438 335.073C182.43 335.073 183.302 335.273 184.054 335.673C184.806 336.057 185.398 336.561 185.83 337.185V335.289H189.214V348.681C189.214 349.913 188.966 351.009 188.47 351.969C187.974 352.945 187.23 353.713 186.238 354.273C185.246 354.849 184.046 355.137 182.638 355.137C180.75 355.137 179.198 354.697 177.982 353.817C176.782 352.937 176.102 351.737 175.942 350.217H179.278C179.454 350.825 179.83 351.305 180.406 351.657C180.998 352.025 181.71 352.209 182.542 352.209C183.518 352.209 184.31 351.913 184.918 351.321C185.526 350.745 185.83 349.865 185.83 348.681V346.617C185.398 347.241 184.798 347.761 184.03 348.177C183.278 348.593 182.414 348.801 181.438 348.801C180.318 348.801 179.294 348.513 178.366 347.937C177.438 347.361 176.702 346.553 176.158 345.513C175.63 344.457 175.366 343.249 175.366 341.889C175.366 340.545 175.63 339.353 176.158 338.313C176.702 337.273 177.43 336.473 178.342 335.913C179.27 335.353 180.302 335.073 181.438 335.073ZM185.83 341.937C185.83 341.121 185.67 340.425 185.35 339.849C185.03 339.257 184.598 338.809 184.054 338.505C183.51 338.185 182.926 338.025 182.302 338.025C181.678 338.025 181.102 338.177 180.574 338.481C180.046 338.785 179.614 339.233 179.278 339.825C178.958 340.401 178.798 341.089 178.798 341.889C178.798 342.689 178.958 343.393 179.278 344.001C179.614 344.593 180.046 345.049 180.574 345.369C181.118 345.689 181.694 345.849 182.302 345.849C182.926 345.849 183.51 345.697 184.054 345.393C184.598 345.073 185.03 344.625 185.35 344.049C185.67 343.457 185.83 342.753 185.83 341.937ZM207.671 348.585L201.575 341.121V348.585H198.215V331.833H201.575V339.345L207.671 331.833H211.727L204.815 340.137L211.919 348.585H207.671ZM220.033 348.801C218.753 348.801 217.601 348.521 216.577 347.961C215.553 347.385 214.745 346.577 214.153 345.537C213.577 344.497 213.289 343.297 213.289 341.937C213.289 340.577 213.585 339.377 214.177 338.337C214.785 337.297 215.609 336.497 216.649 335.937C217.689 335.361 218.849 335.073 220.129 335.073C221.409 335.073 222.569 335.361 223.609 335.937C224.649 336.497 225.465 337.297 226.057 338.337C226.665 339.377 226.969 340.577 226.969 341.937C226.969 343.297 226.657 344.497 226.033 345.537C225.425 346.577 224.593 347.385 223.537 347.961C222.497 348.521 221.329 348.801 220.033 348.801ZM220.033 345.873C220.641 345.873 221.209 345.729 221.737 345.441C222.281 345.137 222.713 344.689 223.033 344.097C223.353 343.505 223.513 342.785 223.513 341.937C223.513 340.673 223.177 339.705 222.505 339.033C221.849 338.345 221.041 338.001 220.081 338.001C219.121 338.001 218.313 338.345 217.657 339.033C217.017 339.705 216.697 340.673 216.697 341.937C216.697 343.201 217.009 344.177 217.633 344.865C218.273 345.537 219.073 345.873 220.033 345.873ZM245.945 335.097C247.577 335.097 248.889 335.601 249.881 336.609C250.889 337.601 251.393 338.993 251.393 340.785V348.585H248.033V341.241C248.033 340.201 247.769 339.409 247.241 338.865C246.713 338.305 245.993 338.025 245.081 338.025C244.169 338.025 243.441 338.305 242.897 338.865C242.369 339.409 242.105 340.201 242.105 341.241V348.585H238.745V341.241C238.745 340.201 238.481 339.409 237.953 338.865C237.425 338.305 236.705 338.025 235.793 338.025C234.865 338.025 234.129 338.305 233.585 338.865C233.057 339.409 232.793 340.201 232.793 341.241V348.585H229.433V335.289H232.793V336.897C233.225 336.337 233.777 335.897 234.449 335.577C235.137 335.257 235.889 335.097 236.705 335.097C237.745 335.097 238.673 335.321 239.489 335.769C240.305 336.201 240.937 336.825 241.385 337.641C241.817 336.873 242.441 336.257 243.257 335.793C244.089 335.329 244.985 335.097 245.945 335.097ZM257.942 337.209C258.374 336.601 258.966 336.097 259.718 335.697C260.486 335.281 261.358 335.073 262.334 335.073C263.47 335.073 264.494 335.353 265.406 335.913C266.334 336.473 267.062 337.273 267.59 338.313C268.134 339.337 268.406 340.529 268.406 341.889C268.406 343.249 268.134 344.457 267.59 345.513C267.062 346.553 266.334 347.361 265.406 347.937C264.494 348.513 263.47 348.801 262.334 348.801C261.358 348.801 260.494 348.601 259.742 348.201C259.006 347.801 258.406 347.297 257.942 346.689V354.921H254.582V335.289H257.942V337.209ZM264.974 341.889C264.974 341.089 264.806 340.401 264.47 339.825C264.15 339.233 263.718 338.785 263.174 338.481C262.646 338.177 262.07 338.025 261.446 338.025C260.838 338.025 260.262 338.185 259.718 338.505C259.19 338.809 258.758 339.257 258.422 339.849C258.102 340.441 257.942 341.137 257.942 341.937C257.942 342.737 258.102 343.433 258.422 344.025C258.758 344.617 259.19 345.073 259.718 345.393C260.262 345.697 260.838 345.849 261.446 345.849C262.07 345.849 262.646 345.689 263.174 345.369C263.718 345.049 264.15 344.593 264.47 344.001C264.806 343.409 264.974 342.705 264.974 341.889ZM274.207 330.825V348.585H270.847V330.825H274.207ZM279.231 333.705C278.639 333.705 278.143 333.521 277.743 333.153C277.359 332.769 277.167 332.297 277.167 331.737C277.167 331.177 277.359 330.713 277.743 330.345C278.143 329.961 278.639 329.769 279.231 329.769C279.823 329.769 280.311 329.961 280.695 330.345C281.095 330.713 281.295 331.177 281.295 331.737C281.295 332.297 281.095 332.769 280.695 333.153C280.311 333.521 279.823 333.705 279.231 333.705ZM280.887 335.289V348.585H277.527V335.289H280.887ZM288.119 338.049V344.481C288.119 344.929 288.223 345.257 288.431 345.465C288.655 345.657 289.023 345.753 289.535 345.753H291.095V348.585H288.983C286.151 348.585 284.735 347.209 284.735 344.457V338.049H283.151V335.289H284.735V332.001H288.119V335.289H291.095V338.049H288.119Z" fill="#FDFDFD"/>
</svg>
