<svg width="360" height="410" viewBox="0 0 360 410" fill="none" xmlns="http://www.w3.org/2000/svg">
<path d="M0 33.1879C0 14.9625 14.7746 0.187866 33 0.187866H327C345.225 0.187866 360 14.9625 360 33.1879V269.996H0V33.1879Z" fill="#FFF1A6"/>
<path d="M71.0538 86.168C69.9338 86.168 68.9258 85.976 68.0298 85.592C67.1338 85.192 66.4298 84.632 65.9178 83.912C65.4058 83.192 65.1498 82.352 65.1498 81.392H68.0778C68.1418 82.112 68.4218 82.704 68.9178 83.168C69.4298 83.632 70.1418 83.864 71.0538 83.864C71.9978 83.864 72.7338 83.64 73.2618 83.192C73.7898 82.728 74.0538 82.136 74.0538 81.416C74.0538 80.856 73.8858 80.4 73.5498 80.048C73.2298 79.696 72.8218 79.424 72.3258 79.232C71.8458 79.04 71.1738 78.832 70.3098 78.608C69.2218 78.32 68.3338 78.032 67.6458 77.744C66.9738 77.44 66.3978 76.976 65.9178 76.352C65.4378 75.728 65.1978 74.896 65.1978 73.856C65.1978 72.896 65.4378 72.056 65.9178 71.336C66.3978 70.616 67.0698 70.064 67.9338 69.68C68.7978 69.296 69.7978 69.104 70.9338 69.104C72.5498 69.104 73.8698 69.512 74.8938 70.328C75.9338 71.128 76.5098 72.232 76.6218 73.64H73.5978C73.5498 73.032 73.2618 72.512 72.7338 72.08C72.2058 71.648 71.5098 71.432 70.6458 71.432C69.8618 71.432 69.2218 71.632 68.7258 72.032C68.2298 72.432 67.9818 73.008 67.9818 73.76C67.9818 74.272 68.1338 74.696 68.4378 75.032C68.7578 75.352 69.1578 75.608 69.6378 75.8C70.1178 75.992 70.7738 76.2 71.6058 76.424C72.7098 76.728 73.6058 77.032 74.2938 77.336C74.9978 77.64 75.5898 78.112 76.0698 78.752C76.5658 79.376 76.8138 80.216 76.8138 81.272C76.8138 82.12 76.5818 82.92 76.1178 83.672C75.6698 84.424 75.0058 85.032 74.1258 85.496C73.2618 85.944 72.2378 86.168 71.0538 86.168ZM86.8822 72.56C87.8902 72.56 88.7862 72.776 89.5702 73.208C90.3702 73.64 90.9942 74.28 91.4422 75.128C91.9062 75.976 92.1382 77 92.1382 78.2V86H89.4262V78.608C89.4262 77.424 89.1302 76.52 88.5382 75.896C87.9462 75.256 87.1382 74.936 86.1142 74.936C85.0902 74.936 84.2742 75.256 83.6662 75.896C83.0742 76.52 82.7782 77.424 82.7782 78.608V86H80.0422V68.24H82.7782V74.312C83.2422 73.752 83.8262 73.32 84.5302 73.016C85.2502 72.712 86.0342 72.56 86.8822 72.56ZM94.7161 79.328C94.7161 78 94.9881 76.824 95.5321 75.8C96.0921 74.776 96.8441 73.984 97.7881 73.424C98.7481 72.848 99.8041 72.56 100.956 72.56C101.996 72.56 102.9 72.768 103.668 73.184C104.452 73.584 105.076 74.088 105.54 74.696V72.776H108.3V86H105.54V84.032C105.076 84.656 104.444 85.176 103.644 85.592C102.844 86.008 101.932 86.216 100.908 86.216C99.7721 86.216 98.7321 85.928 97.7881 85.352C96.8441 84.76 96.0921 83.944 95.5321 82.904C94.9881 81.848 94.7161 80.656 94.7161 79.328ZM105.54 79.376C105.54 78.464 105.348 77.672 104.964 77C104.596 76.328 104.108 75.816 103.5 75.464C102.892 75.112 102.236 74.936 101.532 74.936C100.828 74.936 100.172 75.112 99.5641 75.464C98.9561 75.8 98.4601 76.304 98.0761 76.976C97.7081 77.632 97.5241 78.416 97.5241 79.328C97.5241 80.24 97.7081 81.04 98.0761 81.728C98.4601 82.416 98.9561 82.944 99.5641 83.312C100.188 83.664 100.844 83.84 101.532 83.84C102.236 83.84 102.892 83.664 103.5 83.312C104.108 82.96 104.596 82.448 104.964 81.776C105.348 81.088 105.54 80.288 105.54 79.376ZM127.902 72.56C128.942 72.56 129.87 72.776 130.686 73.208C131.518 73.64 132.166 74.28 132.63 75.128C133.11 75.976 133.35 77 133.35 78.2V86H130.638V78.608C130.638 77.424 130.342 76.52 129.75 75.896C129.158 75.256 128.35 74.936 127.326 74.936C126.302 74.936 125.486 75.256 124.878 75.896C124.286 76.52 123.99 77.424 123.99 78.608V86H121.278V78.608C121.278 77.424 120.982 76.52 120.39 75.896C119.798 75.256 118.99 74.936 117.966 74.936C116.942 74.936 116.126 75.256 115.518 75.896C114.926 76.52 114.63 77.424 114.63 78.608V86H111.894V72.776H114.63V74.288C115.078 73.744 115.646 73.32 116.334 73.016C117.022 72.712 117.758 72.56 118.542 72.56C119.598 72.56 120.542 72.784 121.374 73.232C122.206 73.68 122.846 74.328 123.294 75.176C123.694 74.376 124.318 73.744 125.166 73.28C126.014 72.8 126.926 72.56 127.902 72.56ZM139.567 74.72C140.031 74.112 140.663 73.6 141.463 73.184C142.263 72.768 143.167 72.56 144.175 72.56C145.327 72.56 146.375 72.848 147.319 73.424C148.279 73.984 149.031 74.776 149.575 75.8C150.119 76.824 150.391 78 150.391 79.328C150.391 80.656 150.119 81.848 149.575 82.904C149.031 83.944 148.279 84.76 147.319 85.352C146.375 85.928 145.327 86.216 144.175 86.216C143.167 86.216 142.271 86.016 141.487 85.616C140.703 85.2 140.063 84.688 139.567 84.08V92.288H136.831V72.776H139.567V74.72ZM147.607 79.328C147.607 78.416 147.415 77.632 147.031 76.976C146.663 76.304 146.167 75.8 145.543 75.464C144.935 75.112 144.279 74.936 143.575 74.936C142.887 74.936 142.231 75.112 141.607 75.464C140.999 75.816 140.503 76.328 140.119 77C139.751 77.672 139.567 78.464 139.567 79.376C139.567 80.288 139.751 81.088 140.119 81.776C140.503 82.448 140.999 82.96 141.607 83.312C142.231 83.664 142.887 83.84 143.575 83.84C144.279 83.84 144.935 83.664 145.543 83.312C146.167 82.944 146.663 82.416 147.031 81.728C147.415 81.04 147.607 80.24 147.607 79.328ZM158.833 86.216C157.585 86.216 156.457 85.936 155.449 85.376C154.441 84.8 153.649 84 153.073 82.976C152.497 81.936 152.209 80.736 152.209 79.376C152.209 78.032 152.505 76.84 153.097 75.8C153.689 74.76 154.497 73.96 155.521 73.4C156.545 72.84 157.689 72.56 158.953 72.56C160.217 72.56 161.361 72.84 162.385 73.4C163.409 73.96 164.217 74.76 164.809 75.8C165.401 76.84 165.697 78.032 165.697 79.376C165.697 80.72 165.393 81.912 164.785 82.952C164.177 83.992 163.345 84.8 162.289 85.376C161.249 85.936 160.097 86.216 158.833 86.216ZM158.833 83.84C159.537 83.84 160.193 83.672 160.801 83.336C161.425 83 161.929 82.496 162.313 81.824C162.697 81.152 162.889 80.336 162.889 79.376C162.889 78.416 162.705 77.608 162.337 76.952C161.969 76.28 161.481 75.776 160.873 75.44C160.265 75.104 159.609 74.936 158.905 74.936C158.201 74.936 157.545 75.104 156.937 75.44C156.345 75.776 155.873 76.28 155.521 76.952C155.169 77.608 154.993 78.416 154.993 79.376C154.993 80.8 155.353 81.904 156.073 82.688C156.809 83.456 157.729 83.84 158.833 83.84ZM174.138 86.216C172.89 86.216 171.762 85.936 170.754 85.376C169.746 84.8 168.954 84 168.378 82.976C167.802 81.936 167.514 80.736 167.514 79.376C167.514 78.032 167.81 76.84 168.402 75.8C168.994 74.76 169.802 73.96 170.826 73.4C171.85 72.84 172.994 72.56 174.258 72.56C175.522 72.56 176.666 72.84 177.69 73.4C178.714 73.96 179.522 74.76 180.114 75.8C180.706 76.84 181.002 78.032 181.002 79.376C181.002 80.72 180.698 81.912 180.09 82.952C179.482 83.992 178.65 84.8 177.594 85.376C176.554 85.936 175.402 86.216 174.138 86.216ZM174.138 83.84C174.842 83.84 175.498 83.672 176.106 83.336C176.73 83 177.234 82.496 177.618 81.824C178.002 81.152 178.194 80.336 178.194 79.376C178.194 78.416 178.01 77.608 177.642 76.952C177.274 76.28 176.786 75.776 176.178 75.44C175.57 75.104 174.914 74.936 174.21 74.936C173.506 74.936 172.85 75.104 172.242 75.44C171.65 75.776 171.178 76.28 170.826 76.952C170.474 77.608 170.298 78.416 170.298 79.376C170.298 80.8 170.658 81.904 171.378 82.688C172.114 83.456 173.034 83.84 174.138 83.84ZM199.997 82.592H193.013L191.813 86H188.957L194.933 69.296H198.101L204.077 86H201.197L199.997 82.592ZM199.229 80.36L196.517 72.608L193.781 80.36H199.229ZM213.347 72.56C214.387 72.56 215.315 72.776 216.131 73.208C216.963 73.64 217.611 74.28 218.075 75.128C218.539 75.976 218.771 77 218.771 78.2V86H216.059V78.608C216.059 77.424 215.763 76.52 215.171 75.896C214.579 75.256 213.771 74.936 212.747 74.936C211.723 74.936 210.907 75.256 210.299 75.896C209.707 76.52 209.411 77.424 209.411 78.608V86H206.675V72.776H209.411V74.288C209.859 73.744 210.427 73.32 211.115 73.016C211.819 72.712 212.563 72.56 213.347 72.56ZM225.453 75.008V82.328C225.453 82.824 225.565 83.184 225.789 83.408C226.029 83.616 226.429 83.72 226.989 83.72H228.669V86H226.509C225.277 86 224.333 85.712 223.677 85.136C223.021 84.56 222.693 83.624 222.693 82.328V75.008H221.133V72.776H222.693V69.488H225.453V72.776H228.669V75.008H225.453ZM232.583 71.024C232.087 71.024 231.671 70.856 231.335 70.52C230.999 70.184 230.831 69.768 230.831 69.272C230.831 68.776 230.999 68.36 231.335 68.024C231.671 67.688 232.087 67.52 232.583 67.52C233.063 67.52 233.471 67.688 233.807 68.024C234.143 68.36 234.311 68.776 234.311 69.272C234.311 69.768 234.143 70.184 233.807 70.52C233.471 70.856 233.063 71.024 232.583 71.024ZM233.927 72.776V86H231.191V72.776H233.927ZM252.945 86L246.489 78.536V86H243.753V69.32H246.489V76.928L252.969 69.32H256.401L249.153 77.672L256.521 86H252.945ZM270.917 72.776V86H268.181V84.44C267.749 84.984 267.181 85.416 266.477 85.736C265.789 86.04 265.053 86.192 264.269 86.192C263.229 86.192 262.293 85.976 261.461 85.544C260.645 85.112 259.997 84.472 259.517 83.624C259.053 82.776 258.821 81.752 258.821 80.552V72.776H261.533V80.144C261.533 81.328 261.829 82.24 262.421 82.88C263.013 83.504 263.821 83.816 264.845 83.816C265.869 83.816 266.677 83.504 267.269 82.88C267.877 82.24 268.181 81.328 268.181 80.144V72.776H270.917ZM277.719 75.008V82.328C277.719 82.824 277.831 83.184 278.055 83.408C278.295 83.616 278.695 83.72 279.255 83.72H280.935V86H278.775C277.543 86 276.599 85.712 275.943 85.136C275.287 84.56 274.959 83.624 274.959 82.328V75.008H273.399V72.776H274.959V69.488H277.719V72.776H280.935V75.008H277.719ZM295.432 72.776V86H292.696V84.44C292.264 84.984 291.696 85.416 290.992 85.736C290.304 86.04 289.568 86.192 288.784 86.192C287.744 86.192 286.808 85.976 285.976 85.544C285.16 85.112 284.512 84.472 284.032 83.624C283.568 82.776 283.336 81.752 283.336 80.552V72.776H286.048V80.144C286.048 81.328 286.344 82.24 286.936 82.88C287.528 83.504 288.336 83.816 289.36 83.816C290.384 83.816 291.192 83.504 291.784 82.88C292.392 82.24 292.696 81.328 292.696 80.144V72.776H295.432ZM149.843 103.288C149.843 104.136 149.643 104.936 149.243 105.688C148.843 106.44 148.203 107.056 147.323 107.536C146.443 108 145.315 108.232 143.939 108.232H140.915V115H138.179V98.32H143.939C145.219 98.32 146.299 98.544 147.179 98.992C148.075 99.424 148.739 100.016 149.171 100.768C149.619 101.52 149.843 102.36 149.843 103.288ZM143.939 106C144.979 106 145.755 105.768 146.267 105.304C146.779 104.824 147.035 104.152 147.035 103.288C147.035 101.464 146.003 100.552 143.939 100.552H140.915V106H143.939ZM151.54 108.328C151.54 107 151.812 105.824 152.356 104.8C152.916 103.776 153.668 102.984 154.612 102.424C155.572 101.848 156.628 101.56 157.78 101.56C158.82 101.56 159.724 101.768 160.492 102.184C161.276 102.584 161.9 103.088 162.364 103.696V101.776H165.124V115H162.364V113.032C161.9 113.656 161.268 114.176 160.468 114.592C159.668 115.008 158.756 115.216 157.732 115.216C156.596 115.216 155.556 114.928 154.612 114.352C153.668 113.76 152.916 112.944 152.356 111.904C151.812 110.848 151.54 109.656 151.54 108.328ZM162.364 108.376C162.364 107.464 162.172 106.672 161.788 106C161.42 105.328 160.932 104.816 160.324 104.464C159.716 104.112 159.06 103.936 158.356 103.936C157.652 103.936 156.996 104.112 156.388 104.464C155.78 104.8 155.284 105.304 154.9 105.976C154.532 106.632 154.348 107.416 154.348 108.328C154.348 109.24 154.532 110.04 154.9 110.728C155.284 111.416 155.78 111.944 156.388 112.312C157.012 112.664 157.668 112.84 158.356 112.84C159.06 112.84 159.716 112.664 160.324 112.312C160.932 111.96 161.42 111.448 161.788 110.776C162.172 110.088 162.364 109.288 162.364 108.376ZM171.454 103.696C171.854 103.024 172.382 102.504 173.038 102.136C173.71 101.752 174.502 101.56 175.414 101.56V104.392H174.718C173.646 104.392 172.83 104.664 172.27 105.208C171.726 105.752 171.454 106.696 171.454 108.04V115H168.718V101.776H171.454V103.696ZM183.473 104.008H181.025V115H178.265V104.008H176.705V101.776H178.265V100.84C178.265 99.32 178.665 98.216 179.465 97.528C180.281 96.824 181.553 96.472 183.281 96.472V98.752C182.449 98.752 181.865 98.912 181.529 99.232C181.193 99.536 181.025 100.072 181.025 100.84V101.776H183.473V104.008ZM197.874 101.776V115H195.138V113.44C194.706 113.984 194.138 114.416 193.434 114.736C192.746 115.04 192.01 115.192 191.226 115.192C190.186 115.192 189.25 114.976 188.418 114.544C187.602 114.112 186.954 113.472 186.474 112.624C186.01 111.776 185.778 110.752 185.778 109.552V101.776H188.49V109.144C188.49 110.328 188.786 111.24 189.378 111.88C189.97 112.504 190.778 112.816 191.802 112.816C192.826 112.816 193.634 112.504 194.226 111.88C194.834 111.24 195.138 110.328 195.138 109.144V101.776H197.874ZM217.492 101.56C218.532 101.56 219.46 101.776 220.276 102.208C221.108 102.64 221.756 103.28 222.22 104.128C222.7 104.976 222.94 106 222.94 107.2V115H220.228V107.608C220.228 106.424 219.932 105.52 219.34 104.896C218.748 104.256 217.94 103.936 216.916 103.936C215.892 103.936 215.076 104.256 214.468 104.896C213.876 105.52 213.58 106.424 213.58 107.608V115H210.868V107.608C210.868 106.424 210.572 105.52 209.98 104.896C209.388 104.256 208.58 103.936 207.556 103.936C206.532 103.936 205.716 104.256 205.108 104.896C204.516 105.52 204.22 106.424 204.22 107.608V115H201.484V101.776H204.22V103.288C204.668 102.744 205.236 102.32 205.924 102.016C206.612 101.712 207.348 101.56 208.132 101.56C209.188 101.56 210.132 101.784 210.964 102.232C211.796 102.68 212.436 103.328 212.884 104.176C213.284 103.376 213.908 102.744 214.756 102.28C215.604 101.8 216.516 101.56 217.492 101.56ZM118.191 132.288C118.191 133.136 117.991 133.936 117.591 134.688C117.191 135.44 116.551 136.056 115.671 136.536C114.791 137 113.663 137.232 112.287 137.232H109.263V144H106.527V127.32H112.287C113.567 127.32 114.647 127.544 115.527 127.992C116.423 128.424 117.087 129.016 117.519 129.768C117.967 130.52 118.191 131.36 118.191 132.288ZM112.287 135C113.327 135 114.103 134.768 114.615 134.304C115.127 133.824 115.383 133.152 115.383 132.288C115.383 130.464 114.351 129.552 112.287 129.552H109.263V135H112.287ZM126.536 144.216C125.288 144.216 124.16 143.936 123.152 143.376C122.144 142.8 121.352 142 120.776 140.976C120.2 139.936 119.912 138.736 119.912 137.376C119.912 136.032 120.208 134.84 120.8 133.8C121.392 132.76 122.2 131.96 123.224 131.4C124.248 130.84 125.392 130.56 126.656 130.56C127.92 130.56 129.064 130.84 130.088 131.4C131.112 131.96 131.92 132.76 132.512 133.8C133.104 134.84 133.4 136.032 133.4 137.376C133.4 138.72 133.096 139.912 132.488 140.952C131.88 141.992 131.048 142.8 129.992 143.376C128.952 143.936 127.8 144.216 126.536 144.216ZM126.536 141.84C127.24 141.84 127.896 141.672 128.504 141.336C129.128 141 129.632 140.496 130.016 139.824C130.4 139.152 130.592 138.336 130.592 137.376C130.592 136.416 130.408 135.608 130.04 134.952C129.672 134.28 129.184 133.776 128.576 133.44C127.968 133.104 127.312 132.936 126.608 132.936C125.904 132.936 125.248 133.104 124.64 133.44C124.048 133.776 123.576 134.28 123.224 134.952C122.872 135.608 122.696 136.416 122.696 137.376C122.696 138.8 123.056 139.904 123.776 140.688C124.512 141.456 125.432 141.84 126.536 141.84ZM139.297 133.008V140.328C139.297 140.824 139.409 141.184 139.633 141.408C139.873 141.616 140.273 141.72 140.833 141.72H142.513V144H140.353C139.121 144 138.177 143.712 137.521 143.136C136.865 142.56 136.537 141.624 136.537 140.328V133.008H134.977V130.776H136.537V127.488H139.297V130.776H142.513V133.008H139.297ZM150.77 144.216C149.522 144.216 148.394 143.936 147.386 143.376C146.378 142.8 145.586 142 145.01 140.976C144.434 139.936 144.146 138.736 144.146 137.376C144.146 136.032 144.442 134.84 145.034 133.8C145.626 132.76 146.434 131.96 147.458 131.4C148.482 130.84 149.626 130.56 150.89 130.56C152.154 130.56 153.298 130.84 154.322 131.4C155.346 131.96 156.154 132.76 156.746 133.8C157.338 134.84 157.634 136.032 157.634 137.376C157.634 138.72 157.33 139.912 156.722 140.952C156.114 141.992 155.282 142.8 154.226 143.376C153.186 143.936 152.034 144.216 150.77 144.216ZM150.77 141.84C151.474 141.84 152.13 141.672 152.738 141.336C153.362 141 153.866 140.496 154.25 139.824C154.634 139.152 154.826 138.336 154.826 137.376C154.826 136.416 154.642 135.608 154.274 134.952C153.906 134.28 153.418 133.776 152.81 133.44C152.202 133.104 151.546 132.936 150.842 132.936C150.138 132.936 149.482 133.104 148.874 133.44C148.282 133.776 147.81 134.28 147.458 134.952C147.106 135.608 146.93 136.416 146.93 137.376C146.93 138.8 147.29 139.904 148.01 140.688C148.746 141.456 149.666 141.84 150.77 141.84ZM167.011 130.56C168.051 130.56 168.979 130.776 169.795 131.208C170.627 131.64 171.275 132.28 171.739 133.128C172.203 133.976 172.435 135 172.435 136.2V144H169.723V136.608C169.723 135.424 169.427 134.52 168.835 133.896C168.243 133.256 167.435 132.936 166.411 132.936C165.387 132.936 164.571 133.256 163.963 133.896C163.371 134.52 163.075 135.424 163.075 136.608V144H160.339V130.776H163.075V132.288C163.523 131.744 164.091 131.32 164.779 131.016C165.483 130.712 166.227 130.56 167.011 130.56ZM181.253 130.56C182.277 130.56 183.181 130.768 183.965 131.184C184.765 131.584 185.389 132.088 185.837 132.696V130.776H188.597V144.216C188.597 145.432 188.341 146.512 187.829 147.456C187.317 148.416 186.573 149.168 185.597 149.712C184.637 150.256 183.485 150.528 182.141 150.528C180.349 150.528 178.861 150.104 177.677 149.256C176.493 148.424 175.821 147.288 175.661 145.848H178.373C178.581 146.536 179.021 147.088 179.693 147.504C180.381 147.936 181.197 148.152 182.141 148.152C183.245 148.152 184.133 147.816 184.805 147.144C185.493 146.472 185.837 145.496 185.837 144.216V142.008C185.373 142.632 184.741 143.16 183.941 143.592C183.157 144.008 182.261 144.216 181.253 144.216C180.101 144.216 179.045 143.928 178.085 143.352C177.141 142.76 176.389 141.944 175.829 140.904C175.285 139.848 175.013 138.656 175.013 137.328C175.013 136 175.285 134.824 175.829 133.8C176.389 132.776 177.141 131.984 178.085 131.424C179.045 130.848 180.101 130.56 181.253 130.56ZM185.837 137.376C185.837 136.464 185.645 135.672 185.261 135C184.893 134.328 184.405 133.816 183.797 133.464C183.189 133.112 182.533 132.936 181.829 132.936C181.125 132.936 180.469 133.112 179.861 133.464C179.253 133.8 178.757 134.304 178.373 134.976C178.005 135.632 177.821 136.416 177.821 137.328C177.821 138.24 178.005 139.04 178.373 139.728C178.757 140.416 179.253 140.944 179.861 141.312C180.485 141.664 181.141 141.84 181.829 141.84C182.533 141.84 183.189 141.664 183.797 141.312C184.405 140.96 184.893 140.448 185.261 139.776C185.645 139.088 185.837 138.288 185.837 137.376ZM207.617 144L201.161 136.536V144H198.425V127.32H201.161V134.928L207.641 127.32H211.073L203.825 135.672L211.193 144H207.617ZM225.589 130.776V144H222.853V142.44C222.421 142.984 221.853 143.416 221.149 143.736C220.461 144.04 219.725 144.192 218.941 144.192C217.901 144.192 216.965 143.976 216.133 143.544C215.317 143.112 214.669 142.472 214.189 141.624C213.725 140.776 213.493 139.752 213.493 138.552V130.776H216.205V138.144C216.205 139.328 216.501 140.24 217.093 140.88C217.685 141.504 218.493 141.816 219.517 141.816C220.541 141.816 221.349 141.504 221.941 140.88C222.549 140.24 222.853 139.328 222.853 138.144V130.776H225.589ZM234.43 137.4L240.526 144H236.83L231.934 138.312V144H229.198V126.24H231.934V136.56L236.734 130.776H240.526L234.43 137.4ZM254.464 130.776V144H251.728V142.44C251.296 142.984 250.728 143.416 250.024 143.736C249.336 144.04 248.6 144.192 247.816 144.192C246.776 144.192 245.84 143.976 245.008 143.544C244.192 143.112 243.544 142.472 243.064 141.624C242.6 140.776 242.368 139.752 242.368 138.552V130.776H245.08V138.144C245.08 139.328 245.376 140.24 245.968 140.88C246.56 141.504 247.368 141.816 248.392 141.816C249.416 141.816 250.224 141.504 250.816 140.88C251.424 140.24 251.728 139.328 251.728 138.144V130.776H254.464ZM106.217 156.32V158.552H101.777V173H99.0406V158.552H94.5766V156.32H106.217ZM111.724 161.696C112.124 161.024 112.652 160.504 113.308 160.136C113.98 159.752 114.772 159.56 115.684 159.56V162.392H114.988C113.916 162.392 113.1 162.664 112.54 163.208C111.996 163.752 111.724 164.696 111.724 166.04V173H108.988V159.776H111.724V161.696ZM119.59 158.024C119.094 158.024 118.678 157.856 118.342 157.52C118.006 157.184 117.838 156.768 117.838 156.272C117.838 155.776 118.006 155.36 118.342 155.024C118.678 154.688 119.094 154.52 119.59 154.52C120.07 154.52 120.478 154.688 120.814 155.024C121.15 155.36 121.318 155.776 121.318 156.272C121.318 156.768 121.15 157.184 120.814 157.52C120.478 157.856 120.07 158.024 119.59 158.024ZM120.934 159.776V173H118.198V159.776H120.934ZM140.535 159.56C141.575 159.56 142.503 159.776 143.319 160.208C144.151 160.64 144.799 161.28 145.263 162.128C145.743 162.976 145.983 164 145.983 165.2V173H143.271V165.608C143.271 164.424 142.975 163.52 142.383 162.896C141.791 162.256 140.983 161.936 139.959 161.936C138.935 161.936 138.119 162.256 137.511 162.896C136.919 163.52 136.623 164.424 136.623 165.608V173H133.911V165.608C133.911 164.424 133.615 163.52 133.023 162.896C132.431 162.256 131.623 161.936 130.599 161.936C129.575 161.936 128.759 162.256 128.151 162.896C127.559 163.52 127.263 164.424 127.263 165.608V173H124.527V159.776H127.263V161.288C127.711 160.744 128.279 160.32 128.967 160.016C129.655 159.712 130.391 159.56 131.175 159.56C132.231 159.56 133.175 159.784 134.007 160.232C134.839 160.68 135.479 161.328 135.927 162.176C136.327 161.376 136.951 160.744 137.799 160.28C138.647 159.8 139.559 159.56 140.535 159.56ZM165.472 159.56C166.512 159.56 167.44 159.776 168.256 160.208C169.088 160.64 169.736 161.28 170.2 162.128C170.68 162.976 170.92 164 170.92 165.2V173H168.208V165.608C168.208 164.424 167.912 163.52 167.32 162.896C166.728 162.256 165.92 161.936 164.896 161.936C163.872 161.936 163.056 162.256 162.448 162.896C161.856 163.52 161.56 164.424 161.56 165.608V173H158.848V165.608C158.848 164.424 158.552 163.52 157.96 162.896C157.368 162.256 156.56 161.936 155.536 161.936C154.512 161.936 153.696 162.256 153.088 162.896C152.496 163.52 152.2 164.424 152.2 165.608V173H149.464V159.776H152.2V161.288C152.648 160.744 153.216 160.32 153.904 160.016C154.592 159.712 155.328 159.56 156.112 159.56C157.168 159.56 158.112 159.784 158.944 160.232C159.776 160.68 160.416 161.328 160.864 162.176C161.264 161.376 161.888 160.744 162.736 160.28C163.584 159.8 164.496 159.56 165.472 159.56ZM175.794 158.024C175.298 158.024 174.882 157.856 174.546 157.52C174.21 157.184 174.042 156.768 174.042 156.272C174.042 155.776 174.21 155.36 174.546 155.024C174.882 154.688 175.298 154.52 175.794 154.52C176.274 154.52 176.682 154.688 177.018 155.024C177.354 155.36 177.522 155.776 177.522 156.272C177.522 156.768 177.354 157.184 177.018 157.52C176.682 157.856 176.274 158.024 175.794 158.024ZM177.138 159.776V173H174.402V159.776H177.138ZM187.402 159.56C188.442 159.56 189.37 159.776 190.186 160.208C191.018 160.64 191.666 161.28 192.13 162.128C192.594 162.976 192.826 164 192.826 165.2V173H190.114V165.608C190.114 164.424 189.818 163.52 189.226 162.896C188.634 162.256 187.826 161.936 186.802 161.936C185.778 161.936 184.962 162.256 184.354 162.896C183.762 163.52 183.466 164.424 183.466 165.608V173H180.73V159.776H183.466V161.288C183.914 160.744 184.482 160.32 185.17 160.016C185.874 159.712 186.618 159.56 187.402 159.56ZM201.644 159.56C202.668 159.56 203.572 159.768 204.356 160.184C205.156 160.584 205.78 161.088 206.228 161.696V159.776H208.988V173.216C208.988 174.432 208.732 175.512 208.22 176.456C207.708 177.416 206.964 178.168 205.988 178.712C205.028 179.256 203.876 179.528 202.532 179.528C200.74 179.528 199.252 179.104 198.068 178.256C196.884 177.424 196.212 176.288 196.052 174.848H198.764C198.972 175.536 199.412 176.088 200.084 176.504C200.772 176.936 201.588 177.152 202.532 177.152C203.636 177.152 204.524 176.816 205.196 176.144C205.884 175.472 206.228 174.496 206.228 173.216V171.008C205.764 171.632 205.132 172.16 204.332 172.592C203.548 173.008 202.652 173.216 201.644 173.216C200.492 173.216 199.436 172.928 198.476 172.352C197.532 171.76 196.78 170.944 196.22 169.904C195.676 168.848 195.404 167.656 195.404 166.328C195.404 165 195.676 163.824 196.22 162.8C196.78 161.776 197.532 160.984 198.476 160.424C199.436 159.848 200.492 159.56 201.644 159.56ZM206.228 166.376C206.228 165.464 206.036 164.672 205.652 164C205.284 163.328 204.796 162.816 204.188 162.464C203.58 162.112 202.924 161.936 202.22 161.936C201.516 161.936 200.86 162.112 200.252 162.464C199.644 162.8 199.148 163.304 198.764 163.976C198.396 164.632 198.212 165.416 198.212 166.328C198.212 167.24 198.396 168.04 198.764 168.728C199.148 169.416 199.644 169.944 200.252 170.312C200.876 170.664 201.532 170.84 202.22 170.84C202.924 170.84 203.58 170.664 204.188 170.312C204.796 169.96 205.284 169.448 205.652 168.776C206.036 168.088 206.228 167.288 206.228 166.376ZM230.48 161.288C230.48 162.136 230.28 162.936 229.88 163.688C229.48 164.44 228.84 165.056 227.96 165.536C227.08 166 225.952 166.232 224.576 166.232H221.552V173H218.816V156.32H224.576C225.856 156.32 226.936 156.544 227.816 156.992C228.712 157.424 229.376 158.016 229.808 158.768C230.256 159.52 230.48 160.36 230.48 161.288ZM224.576 164C225.616 164 226.392 163.768 226.904 163.304C227.416 162.824 227.672 162.152 227.672 161.288C227.672 159.464 226.64 158.552 224.576 158.552H221.552V164H224.576ZM232.177 166.328C232.177 165 232.449 163.824 232.993 162.8C233.553 161.776 234.305 160.984 235.249 160.424C236.209 159.848 237.265 159.56 238.417 159.56C239.457 159.56 240.361 159.768 241.129 160.184C241.913 160.584 242.537 161.088 243.001 161.696V159.776H245.761V173H243.001V171.032C242.537 171.656 241.905 172.176 241.105 172.592C240.305 173.008 239.393 173.216 238.369 173.216C237.233 173.216 236.193 172.928 235.249 172.352C234.305 171.76 233.553 170.944 232.993 169.904C232.449 168.848 232.177 167.656 232.177 166.328ZM243.001 166.376C243.001 165.464 242.809 164.672 242.425 164C242.057 163.328 241.569 162.816 240.961 162.464C240.353 162.112 239.697 161.936 238.993 161.936C238.289 161.936 237.633 162.112 237.025 162.464C236.417 162.8 235.921 163.304 235.537 163.976C235.169 164.632 234.985 165.416 234.985 166.328C234.985 167.24 235.169 168.04 235.537 168.728C235.921 169.416 236.417 169.944 237.025 170.312C237.649 170.664 238.305 170.84 238.993 170.84C239.697 170.84 240.353 170.664 240.961 170.312C241.569 169.96 242.057 169.448 242.425 168.776C242.809 168.088 243.001 167.288 243.001 166.376ZM267.115 159.776L263.011 173H260.131L257.467 163.232L254.803 173H251.923L247.795 159.776H250.579L253.339 170.408L256.147 159.776H259.003L261.691 170.36L264.427 159.776H267.115ZM65.8312 190.288C65.8312 191.136 65.6312 191.936 65.2312 192.688C64.8312 193.44 64.1912 194.056 63.3112 194.536C62.4312 195 61.3032 195.232 59.9272 195.232H56.9032V202H54.1672V185.32H59.9272C61.2072 185.32 62.2872 185.544 63.1672 185.992C64.0632 186.424 64.7272 187.016 65.1592 187.768C65.6072 188.52 65.8312 189.36 65.8312 190.288ZM59.9272 193C60.9672 193 61.7432 192.768 62.2552 192.304C62.7672 191.824 63.0232 191.152 63.0232 190.288C63.0232 188.464 61.9912 187.552 59.9272 187.552H56.9032V193H59.9272ZM80.5606 195.064C80.5606 195.56 80.5286 196.008 80.4646 196.408H70.3606C70.4406 197.464 70.8326 198.312 71.5366 198.952C72.2406 199.592 73.1046 199.912 74.1286 199.912C75.6006 199.912 76.6406 199.296 77.2486 198.064H80.2006C79.8006 199.28 79.0726 200.28 78.0166 201.064C76.9766 201.832 75.6806 202.216 74.1286 202.216C72.8646 202.216 71.7286 201.936 70.7206 201.376C69.7286 200.8 68.9446 200 68.3686 198.976C67.8086 197.936 67.5286 196.736 67.5286 195.376C67.5286 194.016 67.8006 192.824 68.3446 191.8C68.9046 190.76 69.6806 189.96 70.6726 189.4C71.6806 188.84 72.8326 188.56 74.1286 188.56C75.3766 188.56 76.4886 188.832 77.4646 189.376C78.4406 189.92 79.2006 190.688 79.7446 191.68C80.2886 192.656 80.5606 193.784 80.5606 195.064ZM77.7046 194.2C77.6886 193.192 77.3286 192.384 76.6246 191.776C75.9206 191.168 75.0486 190.864 74.0086 190.864C73.0646 190.864 72.2566 191.168 71.5846 191.776C70.9126 192.368 70.5126 193.176 70.3846 194.2H77.7046ZM99.2611 188.56C100.301 188.56 101.229 188.776 102.045 189.208C102.877 189.64 103.525 190.28 103.989 191.128C104.469 191.976 104.709 193 104.709 194.2V202H101.997V194.608C101.997 193.424 101.701 192.52 101.109 191.896C100.517 191.256 99.7091 190.936 98.6851 190.936C97.6611 190.936 96.8451 191.256 96.2371 191.896C95.6451 192.52 95.3491 193.424 95.3491 194.608V202H92.6371V194.608C92.6371 193.424 92.3411 192.52 91.7491 191.896C91.1571 191.256 90.3491 190.936 89.3251 190.936C88.3011 190.936 87.4851 191.256 86.8771 191.896C86.2851 192.52 85.9891 193.424 85.9891 194.608V202H83.2531V188.776H85.9891V190.288C86.4371 189.744 87.0051 189.32 87.6931 189.016C88.3811 188.712 89.1171 188.56 89.9011 188.56C90.9571 188.56 91.9011 188.784 92.7331 189.232C93.5651 189.68 94.2051 190.328 94.6531 191.176C95.0531 190.376 95.6771 189.744 96.5251 189.28C97.3731 188.8 98.2851 188.56 99.2611 188.56ZM110.927 190.744C111.391 190.104 112.023 189.584 112.823 189.184C113.639 188.768 114.543 188.56 115.535 188.56C116.703 188.56 117.759 188.84 118.703 189.4C119.647 189.96 120.391 190.76 120.935 191.8C121.479 192.824 121.751 194 121.751 195.328C121.751 196.656 121.479 197.848 120.935 198.904C120.391 199.944 119.639 200.76 118.679 201.352C117.735 201.928 116.687 202.216 115.535 202.216C114.511 202.216 113.599 202.016 112.799 201.616C112.015 201.216 111.391 200.704 110.927 200.08V202H108.191V184.24H110.927V190.744ZM118.967 195.328C118.967 194.416 118.775 193.632 118.391 192.976C118.023 192.304 117.527 191.8 116.903 191.464C116.295 191.112 115.639 190.936 114.935 190.936C114.247 190.936 113.591 191.112 112.967 191.464C112.359 191.816 111.863 192.328 111.479 193C111.111 193.672 110.927 194.464 110.927 195.376C110.927 196.288 111.111 197.088 111.479 197.776C111.863 198.448 112.359 198.96 112.967 199.312C113.591 199.664 114.247 199.84 114.935 199.84C115.639 199.84 116.295 199.664 116.903 199.312C117.527 198.944 118.023 198.416 118.391 197.728C118.775 197.04 118.967 196.24 118.967 195.328ZM136.576 195.064C136.576 195.56 136.544 196.008 136.48 196.408H126.376C126.456 197.464 126.848 198.312 127.552 198.952C128.256 199.592 129.12 199.912 130.144 199.912C131.616 199.912 132.656 199.296 133.264 198.064H136.216C135.816 199.28 135.088 200.28 134.032 201.064C132.992 201.832 131.696 202.216 130.144 202.216C128.88 202.216 127.744 201.936 126.736 201.376C125.744 200.8 124.96 200 124.384 198.976C123.824 197.936 123.544 196.736 123.544 195.376C123.544 194.016 123.816 192.824 124.36 191.8C124.92 190.76 125.696 189.96 126.688 189.4C127.696 188.84 128.848 188.56 130.144 188.56C131.392 188.56 132.504 188.832 133.48 189.376C134.456 189.92 135.216 190.688 135.76 191.68C136.304 192.656 136.576 193.784 136.576 195.064ZM133.72 194.2C133.704 193.192 133.344 192.384 132.64 191.776C131.936 191.168 131.064 190.864 130.024 190.864C129.08 190.864 128.272 191.168 127.6 191.776C126.928 192.368 126.528 193.176 126.4 194.2H133.72ZM142.005 190.696C142.405 190.024 142.933 189.504 143.589 189.136C144.261 188.752 145.053 188.56 145.965 188.56V191.392H145.269C144.197 191.392 143.381 191.664 142.821 192.208C142.277 192.752 142.005 193.696 142.005 195.04V202H139.269V188.776H142.005V190.696ZM153.28 202.216C152.24 202.216 151.304 202.032 150.472 201.664C149.656 201.28 149.008 200.768 148.528 200.128C148.048 199.472 147.792 198.744 147.76 197.944H150.592C150.64 198.504 150.904 198.976 151.384 199.36C151.88 199.728 152.496 199.912 153.232 199.912C154 199.912 154.592 199.768 155.008 199.48C155.44 199.176 155.656 198.792 155.656 198.328C155.656 197.832 155.416 197.464 154.936 197.224C154.472 196.984 153.728 196.72 152.704 196.432C151.712 196.16 150.904 195.896 150.28 195.64C149.656 195.384 149.112 194.992 148.648 194.464C148.2 193.936 147.976 193.24 147.976 192.376C147.976 191.672 148.184 191.032 148.6 190.456C149.016 189.864 149.608 189.4 150.376 189.064C151.16 188.728 152.056 188.56 153.064 188.56C154.568 188.56 155.776 188.944 156.688 189.712C157.616 190.464 158.112 191.496 158.176 192.808H155.44C155.392 192.216 155.152 191.744 154.72 191.392C154.288 191.04 153.704 190.864 152.968 190.864C152.248 190.864 151.696 191 151.312 191.272C150.928 191.544 150.736 191.904 150.736 192.352C150.736 192.704 150.864 193 151.12 193.24C151.376 193.48 151.688 193.672 152.056 193.816C152.424 193.944 152.968 194.112 153.688 194.32C154.648 194.576 155.432 194.84 156.04 195.112C156.664 195.368 157.2 195.752 157.648 196.264C158.096 196.776 158.328 197.456 158.344 198.304C158.344 199.056 158.136 199.728 157.72 200.32C157.304 200.912 156.712 201.376 155.944 201.712C155.192 202.048 154.304 202.216 153.28 202.216ZM162.692 187.024C162.196 187.024 161.78 186.856 161.444 186.52C161.108 186.184 160.94 185.768 160.94 185.272C160.94 184.776 161.108 184.36 161.444 184.024C161.78 183.688 162.196 183.52 162.692 183.52C163.172 183.52 163.58 183.688 163.916 184.024C164.252 184.36 164.42 184.776 164.42 185.272C164.42 185.768 164.252 186.184 163.916 186.52C163.58 186.856 163.172 187.024 162.692 187.024ZM164.036 188.776V202H161.3V188.776H164.036ZM174.468 188.56C175.476 188.56 176.372 188.776 177.156 189.208C177.956 189.64 178.58 190.28 179.028 191.128C179.492 191.976 179.724 193 179.724 194.2V202H177.012V194.608C177.012 193.424 176.716 192.52 176.124 191.896C175.532 191.256 174.724 190.936 173.7 190.936C172.676 190.936 171.86 191.256 171.252 191.896C170.66 192.52 170.364 193.424 170.364 194.608V202H167.628V184.24H170.364V190.312C170.828 189.752 171.412 189.32 172.116 189.016C172.836 188.712 173.62 188.56 174.468 188.56ZM182.302 195.328C182.302 194 182.574 192.824 183.118 191.8C183.678 190.776 184.43 189.984 185.374 189.424C186.334 188.848 187.39 188.56 188.542 188.56C189.582 188.56 190.486 188.768 191.254 189.184C192.038 189.584 192.662 190.088 193.126 190.696V188.776H195.886V202H193.126V200.032C192.662 200.656 192.03 201.176 191.23 201.592C190.43 202.008 189.518 202.216 188.494 202.216C187.358 202.216 186.318 201.928 185.374 201.352C184.43 200.76 183.678 199.944 183.118 198.904C182.574 197.848 182.302 196.656 182.302 195.328ZM193.126 195.376C193.126 194.464 192.934 193.672 192.55 193C192.182 192.328 191.694 191.816 191.086 191.464C190.478 191.112 189.822 190.936 189.118 190.936C188.414 190.936 187.758 191.112 187.15 191.464C186.542 191.8 186.046 192.304 185.662 192.976C185.294 193.632 185.11 194.416 185.11 195.328C185.11 196.24 185.294 197.04 185.662 197.728C186.046 198.416 186.542 198.944 187.15 199.312C187.774 199.664 188.43 199.84 189.118 199.84C189.822 199.84 190.478 199.664 191.086 199.312C191.694 198.96 192.182 198.448 192.55 197.776C192.934 197.088 193.126 196.288 193.126 195.376ZM206.152 188.56C207.192 188.56 208.12 188.776 208.936 189.208C209.768 189.64 210.416 190.28 210.88 191.128C211.344 191.976 211.576 193 211.576 194.2V202H208.864V194.608C208.864 193.424 208.568 192.52 207.976 191.896C207.384 191.256 206.576 190.936 205.552 190.936C204.528 190.936 203.712 191.256 203.104 191.896C202.512 192.52 202.216 193.424 202.216 194.608V202H199.48V188.776H202.216V190.288C202.664 189.744 203.232 189.32 203.92 189.016C204.624 188.712 205.368 188.56 206.152 188.56ZM232.076 185.32V187.552H227.636V202H224.9V187.552H220.436V185.32H232.076ZM246.967 195.064C246.967 195.56 246.935 196.008 246.871 196.408H236.767C236.847 197.464 237.239 198.312 237.943 198.952C238.647 199.592 239.511 199.912 240.535 199.912C242.007 199.912 243.047 199.296 243.655 198.064H246.607C246.207 199.28 245.479 200.28 244.423 201.064C243.383 201.832 242.087 202.216 240.535 202.216C239.271 202.216 238.135 201.936 237.127 201.376C236.135 200.8 235.351 200 234.775 198.976C234.215 197.936 233.935 196.736 233.935 195.376C233.935 194.016 234.207 192.824 234.751 191.8C235.311 190.76 236.087 189.96 237.079 189.4C238.087 188.84 239.239 188.56 240.535 188.56C241.783 188.56 242.895 188.832 243.871 189.376C244.847 189.92 245.607 190.688 246.151 191.68C246.695 192.656 246.967 193.784 246.967 195.064ZM244.111 194.2C244.095 193.192 243.735 192.384 243.031 191.776C242.327 191.168 241.455 190.864 240.415 190.864C239.471 190.864 238.663 191.168 237.991 191.776C237.319 192.368 236.919 193.176 236.791 194.2H244.111ZM252.395 184.24V202H249.659V184.24H252.395ZM257.38 187.024C256.884 187.024 256.468 186.856 256.132 186.52C255.796 186.184 255.628 185.768 255.628 185.272C255.628 184.776 255.796 184.36 256.132 184.024C256.468 183.688 256.884 183.52 257.38 183.52C257.86 183.52 258.268 183.688 258.604 184.024C258.94 184.36 259.108 184.776 259.108 185.272C259.108 185.768 258.94 186.184 258.604 186.52C258.268 186.856 257.86 187.024 257.38 187.024ZM258.724 188.776V202H255.988V188.776H258.724ZM268.988 188.56C270.028 188.56 270.956 188.776 271.772 189.208C272.604 189.64 273.252 190.28 273.716 191.128C274.18 191.976 274.412 193 274.412 194.2V202H271.7V194.608C271.7 193.424 271.404 192.52 270.812 191.896C270.22 191.256 269.412 190.936 268.388 190.936C267.364 190.936 266.548 191.256 265.94 191.896C265.348 192.52 265.052 193.424 265.052 194.608V202H262.316V188.776H265.052V190.288C265.5 189.744 266.068 189.32 266.756 189.016C267.46 188.712 268.204 188.56 268.988 188.56ZM283.23 188.56C284.254 188.56 285.158 188.768 285.942 189.184C286.742 189.584 287.366 190.088 287.814 190.696V188.776H290.574V202.216C290.574 203.432 290.318 204.512 289.806 205.456C289.294 206.416 288.55 207.168 287.574 207.712C286.614 208.256 285.462 208.528 284.118 208.528C282.326 208.528 280.838 208.104 279.654 207.256C278.47 206.424 277.798 205.288 277.638 203.848H280.35C280.558 204.536 280.998 205.088 281.67 205.504C282.358 205.936 283.174 206.152 284.118 206.152C285.222 206.152 286.11 205.816 286.782 205.144C287.47 204.472 287.814 203.496 287.814 202.216V200.008C287.35 200.632 286.718 201.16 285.918 201.592C285.134 202.008 284.238 202.216 283.23 202.216C282.078 202.216 281.022 201.928 280.062 201.352C279.118 200.76 278.366 199.944 277.806 198.904C277.262 197.848 276.99 196.656 276.99 195.328C276.99 194 277.262 192.824 277.806 191.8C278.366 190.776 279.118 189.984 280.062 189.424C281.022 188.848 282.078 188.56 283.23 188.56ZM287.814 195.376C287.814 194.464 287.622 193.672 287.238 193C286.87 192.328 286.382 191.816 285.774 191.464C285.166 191.112 284.51 190.936 283.806 190.936C283.102 190.936 282.446 191.112 281.838 191.464C281.23 191.8 280.734 192.304 280.35 192.976C279.982 193.632 279.798 194.416 279.798 195.328C279.798 196.24 279.982 197.04 280.35 197.728C280.734 198.416 281.23 198.944 281.838 199.312C282.462 199.664 283.118 199.84 283.806 199.84C284.51 199.84 285.166 199.664 285.774 199.312C286.382 198.96 286.87 198.448 287.238 197.776C287.622 197.088 287.814 196.288 287.814 195.376ZM293.255 195.328C293.255 194 293.527 192.824 294.071 191.8C294.631 190.776 295.383 189.984 296.327 189.424C297.287 188.848 298.343 188.56 299.495 188.56C300.535 188.56 301.439 188.768 302.207 189.184C302.991 189.584 303.615 190.088 304.079 190.696V188.776H306.839V202H304.079V200.032C303.615 200.656 302.983 201.176 302.183 201.592C301.383 202.008 300.471 202.216 299.447 202.216C298.311 202.216 297.271 201.928 296.327 201.352C295.383 200.76 294.631 199.944 294.071 198.904C293.527 197.848 293.255 196.656 293.255 195.328ZM304.079 195.376C304.079 194.464 303.887 193.672 303.503 193C303.135 192.328 302.647 191.816 302.039 191.464C301.431 191.112 300.775 190.936 300.071 190.936C299.367 190.936 298.711 191.112 298.103 191.464C297.495 191.8 296.999 192.304 296.615 192.976C296.247 193.632 296.063 194.416 296.063 195.328C296.063 196.24 296.247 197.04 296.615 197.728C296.999 198.416 297.495 198.944 298.103 199.312C298.727 199.664 299.383 199.84 300.071 199.84C300.775 199.84 301.431 199.664 302.039 199.312C302.647 198.96 303.135 198.448 303.503 197.776C303.887 197.088 304.079 196.288 304.079 195.376Z" fill="#181817"/>
<rect y="270.808" width="360" height="138.607" fill="#FFCC00"/>
<path d="M100.636 337.288C100.252 336.584 99.7244 336.048 99.0524 335.68C98.3804 335.312 97.5964 335.128 96.7004 335.128C95.7084 335.128 94.8284 335.352 94.0604 335.8C93.2924 336.248 92.6924 336.888 92.2604 337.72C91.8284 338.552 91.6124 339.512 91.6124 340.6C91.6124 341.72 91.8284 342.696 92.2604 343.528C92.7084 344.36 93.3244 345 94.1084 345.448C94.8924 345.896 95.8044 346.12 96.8444 346.12C98.1244 346.12 99.1724 345.784 99.9884 345.112C100.804 344.424 101.34 343.472 101.596 342.256H95.8364V339.688H104.908V342.616C104.684 343.784 104.204 344.864 103.468 345.856C102.732 346.848 101.78 347.648 100.612 348.256C99.4604 348.848 98.1644 349.144 96.7244 349.144C95.1084 349.144 93.6444 348.784 92.3324 348.064C91.0364 347.328 90.0124 346.312 89.2604 345.016C88.5244 343.72 88.1564 342.248 88.1564 340.6C88.1564 338.952 88.5244 337.48 89.2604 336.184C90.0124 334.872 91.0364 333.856 92.3324 333.136C93.6444 332.4 95.1004 332.032 96.7004 332.032C98.5884 332.032 100.228 332.496 101.62 333.424C103.012 334.336 103.972 335.624 104.5 337.288H100.636ZM110.754 337.768C111.186 337.064 111.746 336.512 112.434 336.112C113.138 335.712 113.938 335.512 114.834 335.512V339.04H113.946C112.89 339.04 112.09 339.288 111.546 339.784C111.018 340.28 110.754 341.144 110.754 342.376V349H107.394V335.704H110.754V337.768ZM123.001 349.216C121.721 349.216 120.569 348.936 119.545 348.376C118.521 347.8 117.713 346.992 117.121 345.952C116.545 344.912 116.257 343.712 116.257 342.352C116.257 340.992 116.553 339.792 117.145 338.752C117.753 337.712 118.577 336.912 119.617 336.352C120.657 335.776 121.817 335.488 123.097 335.488C124.377 335.488 125.537 335.776 126.577 336.352C127.617 336.912 128.433 337.712 129.025 338.752C129.633 339.792 129.937 340.992 129.937 342.352C129.937 343.712 129.625 344.912 129.001 345.952C128.393 346.992 127.561 347.8 126.505 348.376C125.465 348.936 124.297 349.216 123.001 349.216ZM123.001 346.288C123.609 346.288 124.177 346.144 124.705 345.856C125.249 345.552 125.681 345.104 126.001 344.512C126.321 343.92 126.481 343.2 126.481 342.352C126.481 341.088 126.145 340.12 125.473 339.448C124.817 338.76 124.009 338.416 123.049 338.416C122.089 338.416 121.281 338.76 120.625 339.448C119.985 340.12 119.665 341.088 119.665 342.352C119.665 343.616 119.977 344.592 120.601 345.28C121.241 345.952 122.041 346.288 123.001 346.288ZM138.306 349.216C137.026 349.216 135.874 348.936 134.85 348.376C133.826 347.8 133.018 346.992 132.426 345.952C131.85 344.912 131.562 343.712 131.562 342.352C131.562 340.992 131.858 339.792 132.45 338.752C133.058 337.712 133.882 336.912 134.922 336.352C135.962 335.776 137.122 335.488 138.402 335.488C139.682 335.488 140.842 335.776 141.882 336.352C142.922 336.912 143.738 337.712 144.33 338.752C144.938 339.792 145.242 340.992 145.242 342.352C145.242 343.712 144.93 344.912 144.306 345.952C143.698 346.992 142.866 347.8 141.81 348.376C140.77 348.936 139.602 349.216 138.306 349.216ZM138.306 346.288C138.914 346.288 139.482 346.144 140.01 345.856C140.554 345.552 140.986 345.104 141.306 344.512C141.626 343.92 141.786 343.2 141.786 342.352C141.786 341.088 141.45 340.12 140.778 339.448C140.122 338.76 139.314 338.416 138.354 338.416C137.394 338.416 136.586 338.76 135.93 339.448C135.29 340.12 134.97 341.088 134.97 342.352C134.97 343.616 135.282 344.592 135.906 345.28C136.546 345.952 137.346 346.288 138.306 346.288ZM164.219 335.512C165.851 335.512 167.163 336.016 168.155 337.024C169.163 338.016 169.667 339.408 169.667 341.2V349H166.307V341.656C166.307 340.616 166.043 339.824 165.515 339.28C164.987 338.72 164.267 338.44 163.355 338.44C162.443 338.44 161.715 338.72 161.171 339.28C160.643 339.824 160.379 340.616 160.379 341.656V349H157.019V341.656C157.019 340.616 156.755 339.824 156.227 339.28C155.699 338.72 154.979 338.44 154.067 338.44C153.139 338.44 152.403 338.72 151.859 339.28C151.331 339.824 151.067 340.616 151.067 341.656V349H147.707V335.704H151.067V337.312C151.499 336.752 152.051 336.312 152.723 335.992C153.411 335.672 154.163 335.512 154.979 335.512C156.019 335.512 156.947 335.736 157.763 336.184C158.579 336.616 159.211 337.24 159.659 338.056C160.091 337.288 160.715 336.672 161.531 336.208C162.363 335.744 163.259 335.512 164.219 335.512ZM174.559 334.12C173.967 334.12 173.471 333.936 173.071 333.568C172.687 333.184 172.495 332.712 172.495 332.152C172.495 331.592 172.687 331.128 173.071 330.76C173.471 330.376 173.967 330.184 174.559 330.184C175.151 330.184 175.639 330.376 176.023 330.76C176.423 331.128 176.623 331.592 176.623 332.152C176.623 332.712 176.423 333.184 176.023 333.568C175.639 333.936 175.151 334.12 174.559 334.12ZM176.215 335.704V349H172.855V335.704H176.215ZM186.903 335.512C188.487 335.512 189.767 336.016 190.743 337.024C191.719 338.016 192.207 339.408 192.207 341.2V349H188.847V341.656C188.847 340.6 188.583 339.792 188.055 339.232C187.527 338.656 186.807 338.368 185.895 338.368C184.967 338.368 184.231 338.656 183.687 339.232C183.159 339.792 182.895 340.6 182.895 341.656V349H179.535V335.704H182.895V337.36C183.343 336.784 183.911 336.336 184.599 336.016C185.303 335.68 186.071 335.512 186.903 335.512ZM200.61 335.488C201.602 335.488 202.474 335.688 203.226 336.088C203.978 336.472 204.57 336.976 205.002 337.6V335.704H208.386V349.096C208.386 350.328 208.138 351.424 207.642 352.384C207.146 353.36 206.402 354.128 205.41 354.688C204.418 355.264 203.218 355.552 201.81 355.552C199.922 355.552 198.37 355.112 197.154 354.232C195.954 353.352 195.274 352.152 195.114 350.632H198.45C198.626 351.24 199.002 351.72 199.578 352.072C200.17 352.44 200.882 352.624 201.714 352.624C202.69 352.624 203.482 352.328 204.09 351.736C204.698 351.16 205.002 350.28 205.002 349.096V347.032C204.57 347.656 203.97 348.176 203.202 348.592C202.45 349.008 201.586 349.216 200.61 349.216C199.49 349.216 198.466 348.928 197.538 348.352C196.61 347.776 195.874 346.968 195.33 345.928C194.802 344.872 194.538 343.664 194.538 342.304C194.538 340.96 194.802 339.768 195.33 338.728C195.874 337.688 196.602 336.888 197.514 336.328C198.442 335.768 199.474 335.488 200.61 335.488ZM205.002 342.352C205.002 341.536 204.842 340.84 204.522 340.264C204.202 339.672 203.77 339.224 203.226 338.92C202.682 338.6 202.098 338.44 201.474 338.44C200.85 338.44 200.274 338.592 199.746 338.896C199.218 339.2 198.786 339.648 198.45 340.24C198.13 340.816 197.97 341.504 197.97 342.304C197.97 343.104 198.13 343.808 198.45 344.416C198.786 345.008 199.218 345.464 199.746 345.784C200.29 346.104 200.866 346.264 201.474 346.264C202.098 346.264 202.682 346.112 203.226 345.808C203.77 345.488 204.202 345.04 204.522 344.464C204.842 343.872 205.002 343.168 205.002 342.352ZM226.842 349L220.746 341.536V349H217.386V332.248H220.746V339.76L226.842 332.248H230.898L223.986 340.552L231.09 349H226.842ZM245.853 335.704V349H242.469V347.32C242.037 347.896 241.469 348.352 240.765 348.688C240.077 349.008 239.325 349.168 238.509 349.168C237.469 349.168 236.549 348.952 235.749 348.52C234.949 348.072 234.317 347.424 233.853 346.576C233.405 345.712 233.181 344.688 233.181 343.504V335.704H236.541V343.024C236.541 344.08 236.805 344.896 237.333 345.472C237.861 346.032 238.581 346.312 239.493 346.312C240.421 346.312 241.149 346.032 241.677 345.472C242.205 344.896 242.469 344.08 242.469 343.024V335.704H245.853ZM253.08 338.464V344.896C253.08 345.344 253.184 345.672 253.392 345.88C253.616 346.072 253.984 346.168 254.496 346.168H256.056V349H253.944C251.112 349 249.696 347.624 249.696 344.872V338.464H248.112V335.704H249.696V332.416H253.08V335.704H256.056V338.464H253.08ZM271.024 335.704V349H267.64V347.32C267.208 347.896 266.64 348.352 265.936 348.688C265.248 349.008 264.496 349.168 263.68 349.168C262.64 349.168 261.72 348.952 260.92 348.52C260.12 348.072 259.488 347.424 259.024 346.576C258.576 345.712 258.352 344.688 258.352 343.504V335.704H261.712V343.024C261.712 344.08 261.976 344.896 262.504 345.472C263.032 346.032 263.752 346.312 264.664 346.312C265.592 346.312 266.32 346.032 266.848 345.472C267.376 344.896 267.64 344.08 267.64 343.024V335.704H271.024Z" fill="#FDFDFD"/>
</svg>
