<svg width="348" height="373" viewBox="0 0 348 373" fill="none" xmlns="http://www.w3.org/2000/svg">
<g filter="url(#filter0_d_2818_1128)">
<rect x="74" y="70" width="200" height="224.81" rx="25" fill="url(#paint0_linear_2818_1128)"/>
<rect x="74.5" y="70.5" width="199" height="223.81" rx="24.5" stroke="#98F2E1"/>
</g>
<path d="M138.1 242.138C137.713 241.325 137.153 240.698 136.42 240.258C135.687 239.805 134.833 239.578 133.86 239.578C132.887 239.578 132.007 239.805 131.22 240.258C130.447 240.698 129.833 241.338 129.38 242.178C128.94 243.005 128.72 243.965 128.72 245.058C128.72 246.151 128.94 247.111 129.38 247.938C129.833 248.765 130.447 249.405 131.22 249.858C132.007 250.298 132.887 250.518 133.86 250.518C135.22 250.518 136.34 250.111 137.22 249.298C138.1 248.485 138.613 247.385 138.76 245.998H133.2V244.518H140.7V245.918C140.593 247.065 140.233 248.118 139.62 249.078C139.007 250.025 138.2 250.778 137.2 251.338C136.2 251.885 135.087 252.158 133.86 252.158C132.567 252.158 131.387 251.858 130.32 251.258C129.253 250.645 128.407 249.798 127.78 248.718C127.167 247.638 126.86 246.418 126.86 245.058C126.86 243.698 127.167 242.478 127.78 241.398C128.407 240.305 129.253 239.458 130.32 238.858C131.387 238.245 132.567 237.938 133.86 237.938C135.34 237.938 136.647 238.305 137.78 239.038C138.927 239.771 139.76 240.805 140.28 242.138H138.1ZM144.926 242.858C145.246 242.231 145.7 241.745 146.286 241.398C146.886 241.051 147.613 240.878 148.466 240.878V242.758H147.986C145.946 242.758 144.926 243.865 144.926 246.078V252.038H143.106V241.078H144.926V242.858ZM155.347 252.218C154.321 252.218 153.387 251.985 152.547 251.518C151.721 251.051 151.067 250.391 150.587 249.538C150.121 248.671 149.887 247.671 149.887 246.538C149.887 245.418 150.127 244.431 150.607 243.578C151.101 242.711 151.767 242.051 152.607 241.598C153.447 241.131 154.387 240.898 155.427 240.898C156.467 240.898 157.407 241.131 158.247 241.598C159.087 242.051 159.747 242.705 160.227 243.558C160.721 244.411 160.967 245.405 160.967 246.538C160.967 247.671 160.714 248.671 160.207 249.538C159.714 250.391 159.041 251.051 158.187 251.518C157.334 251.985 156.387 252.218 155.347 252.218ZM155.347 250.618C156.001 250.618 156.614 250.465 157.187 250.158C157.761 249.851 158.221 249.391 158.567 248.778C158.927 248.165 159.107 247.418 159.107 246.538C159.107 245.658 158.934 244.911 158.587 244.298C158.241 243.685 157.787 243.231 157.227 242.938C156.667 242.631 156.061 242.478 155.407 242.478C154.741 242.478 154.127 242.631 153.567 242.938C153.021 243.231 152.581 243.685 152.247 244.298C151.914 244.911 151.747 245.658 151.747 246.538C151.747 247.431 151.907 248.185 152.227 248.798C152.561 249.411 153.001 249.871 153.547 250.178C154.094 250.471 154.694 250.618 155.347 250.618ZM168.14 252.218C167.114 252.218 166.18 251.985 165.34 251.518C164.514 251.051 163.86 250.391 163.38 249.538C162.914 248.671 162.68 247.671 162.68 246.538C162.68 245.418 162.92 244.431 163.4 243.578C163.894 242.711 164.56 242.051 165.4 241.598C166.24 241.131 167.18 240.898 168.22 240.898C169.26 240.898 170.2 241.131 171.04 241.598C171.88 242.051 172.54 242.705 173.02 243.558C173.514 244.411 173.76 245.405 173.76 246.538C173.76 247.671 173.507 248.671 173 249.538C172.507 250.391 171.834 251.051 170.98 251.518C170.127 251.985 169.18 252.218 168.14 252.218ZM168.14 250.618C168.794 250.618 169.407 250.465 169.98 250.158C170.554 249.851 171.014 249.391 171.36 248.778C171.72 248.165 171.9 247.418 171.9 246.538C171.9 245.658 171.727 244.911 171.38 244.298C171.034 243.685 170.58 243.231 170.02 242.938C169.46 242.631 168.854 242.478 168.2 242.478C167.534 242.478 166.92 242.631 166.36 242.938C165.814 243.231 165.374 243.685 165.04 244.298C164.707 244.911 164.54 245.658 164.54 246.538C164.54 247.431 164.7 248.185 165.02 248.798C165.354 249.411 165.794 249.871 166.34 250.178C166.887 250.471 167.487 250.618 168.14 250.618ZM189.333 240.878C190.187 240.878 190.947 241.058 191.613 241.418C192.28 241.765 192.807 242.291 193.193 242.998C193.58 243.705 193.773 244.565 193.773 245.578V252.038H191.973V245.838C191.973 244.745 191.7 243.911 191.153 243.338C190.62 242.751 189.893 242.458 188.973 242.458C188.027 242.458 187.273 242.765 186.713 243.378C186.153 243.978 185.873 244.851 185.873 245.998V252.038H184.073V245.838C184.073 244.745 183.8 243.911 183.253 243.338C182.72 242.751 181.993 242.458 181.073 242.458C180.127 242.458 179.373 242.765 178.813 243.378C178.253 243.978 177.973 244.851 177.973 245.998V252.038H176.153V241.078H177.973V242.658C178.333 242.085 178.813 241.645 179.413 241.338C180.027 241.031 180.7 240.878 181.433 240.878C182.353 240.878 183.167 241.085 183.873 241.498C184.58 241.911 185.107 242.518 185.453 243.318C185.76 242.545 186.267 241.945 186.973 241.518C187.68 241.091 188.467 240.878 189.333 240.878ZM197.699 239.298C197.352 239.298 197.059 239.178 196.819 238.938C196.579 238.698 196.459 238.405 196.459 238.058C196.459 237.711 196.579 237.418 196.819 237.178C197.059 236.938 197.352 236.818 197.699 236.818C198.032 236.818 198.312 236.938 198.539 237.178C198.779 237.418 198.899 237.711 198.899 238.058C198.899 238.405 198.779 238.698 198.539 238.938C198.312 239.178 198.032 239.298 197.699 239.298ZM198.579 241.078V252.038H196.759V241.078H198.579ZM207.021 240.878C208.354 240.878 209.434 241.285 210.261 242.098C211.087 242.898 211.501 244.058 211.501 245.578V252.038H209.701V245.838C209.701 244.745 209.427 243.911 208.881 243.338C208.334 242.751 207.587 242.458 206.641 242.458C205.681 242.458 204.914 242.758 204.341 243.358C203.781 243.958 203.501 244.831 203.501 245.978V252.038H201.681V241.078H203.501V242.638C203.861 242.078 204.347 241.645 204.961 241.338C205.587 241.031 206.274 240.878 207.021 240.878ZM218.994 240.898C219.94 240.898 220.767 241.105 221.474 241.518C222.194 241.931 222.727 242.451 223.074 243.078V241.078H224.914V252.278C224.914 253.278 224.7 254.165 224.274 254.938C223.847 255.725 223.234 256.338 222.434 256.778C221.647 257.218 220.727 257.438 219.674 257.438C218.234 257.438 217.034 257.098 216.074 256.418C215.114 255.738 214.547 254.811 214.374 253.638H216.174C216.374 254.305 216.787 254.838 217.414 255.238C218.04 255.651 218.794 255.858 219.674 255.858C220.674 255.858 221.487 255.545 222.114 254.918C222.754 254.291 223.074 253.411 223.074 252.278V249.978C222.714 250.618 222.18 251.151 221.474 251.578C220.767 252.005 219.94 252.218 218.994 252.218C218.02 252.218 217.134 251.978 216.334 251.498C215.547 251.018 214.927 250.345 214.474 249.478C214.02 248.611 213.794 247.625 213.794 246.518C213.794 245.398 214.02 244.418 214.474 243.578C214.927 242.725 215.547 242.065 216.334 241.598C217.134 241.131 218.02 240.898 218.994 240.898ZM223.074 246.538C223.074 245.711 222.907 244.991 222.574 244.378C222.24 243.765 221.787 243.298 221.214 242.978C220.654 242.645 220.034 242.478 219.354 242.478C218.674 242.478 218.054 242.638 217.494 242.958C216.934 243.278 216.487 243.745 216.154 244.358C215.82 244.971 215.654 245.691 215.654 246.518C215.654 247.358 215.82 248.091 216.154 248.718C216.487 249.331 216.934 249.805 217.494 250.138C218.054 250.458 218.674 250.618 219.354 250.618C220.034 250.618 220.654 250.458 221.214 250.138C221.787 249.805 222.24 249.331 222.574 248.718C222.907 248.091 223.074 247.365 223.074 246.538Z" fill="black"/>
<path d="M187.803 150.095C187.576 149.008 186.954 148.191 186.098 147.854C186.037 147.83 185.973 147.827 185.911 147.808C186.524 144.773 188.252 133.74 182.59 127.282C179.308 123.54 174.187 122.06 167.378 122.876C167.252 122.821 167.116 122.789 166.975 122.785C161.626 122.596 157.533 124.202 154.849 127.55C149.592 134.107 151.495 145.172 152.044 147.794C151.963 147.817 151.88 147.822 151.801 147.854C150.945 148.191 150.324 149.008 150.095 150.095C149.892 151.064 150.005 152.183 150.414 153.245C151.163 155.194 152.678 156.439 154.133 156.439C154.289 156.439 154.444 156.424 154.597 156.394C155.831 160.372 157.89 163.68 161.291 165.71V169.788H159.524V181.289H178.374V169.788H176.607V165.735C180.014 163.708 182.075 160.39 183.308 156.396C183.459 156.425 183.612 156.439 183.766 156.439C185.219 156.439 186.735 155.194 187.485 153.246C187.893 152.183 188.006 151.064 187.803 150.095ZM152.035 152.606C151.753 151.871 151.666 151.089 151.797 150.461C151.902 149.966 152.133 149.614 152.432 149.495C152.513 149.464 152.601 149.448 152.695 149.448C152.865 149.448 153.053 149.5 153.247 149.597C153.446 151.352 153.73 153.055 154.124 154.671C153.458 154.657 152.526 153.882 152.035 152.606ZM177.605 171.55C175.875 173.392 172.651 174.633 168.949 174.633C165.248 174.633 162.024 173.392 160.294 171.55H162.161C162.642 171.55 163.031 171.155 163.031 170.669V166.59C164.727 167.296 166.697 167.737 168.993 167.854C171.253 167.738 173.193 167.304 174.867 166.61V170.669C174.867 171.155 175.257 171.55 175.737 171.55H177.605ZM182.946 148.664C182.889 149.206 182.831 149.747 182.76 150.268C182.579 151.595 182.347 152.848 182.065 154.031C181.959 154.478 181.839 154.906 181.716 155.331C180.65 159.032 178.97 161.915 176.376 163.758C175.993 164.031 175.578 164.268 175.154 164.494C173.449 165.408 171.428 165.969 168.993 166.095C166.565 165.97 164.543 165.42 162.837 164.522C162.384 164.284 161.945 164.03 161.538 163.741C158.938 161.896 157.254 159.018 156.186 155.325C156.063 154.9 155.943 154.471 155.836 154.024C155.553 152.843 155.321 151.593 155.14 150.27C155.069 149.749 155.011 149.207 154.953 148.666C154.8 147.216 154.69 145.696 154.624 144.104C154.827 142.812 155.125 141.74 155.481 140.861C156.016 140.769 157.171 140.516 158.531 139.882C158.745 140.182 159.11 140.372 159.48 140.343C159.673 140.334 162.236 140.185 164.946 139.108C164.932 139.233 164.94 139.361 164.969 139.488C165.085 139.981 165.516 140.333 166.016 140.345C166.249 140.352 170.855 140.409 173.697 137.118C174.793 139.778 177.256 144.135 182.277 146.871L183.026 147.915C183.002 148.17 182.972 148.414 182.946 148.664ZM185.863 152.606C185.374 153.88 184.444 154.653 183.78 154.67C184.172 153.054 184.454 151.352 184.652 149.596C184.846 149.5 185.034 149.448 185.203 149.448C185.297 149.448 185.386 149.464 185.466 149.495C185.876 149.657 186.041 150.17 186.102 150.461C186.233 151.089 186.146 151.871 185.863 152.606ZM166.975 154.9V152.43C166.975 151.943 167.365 151.549 167.845 151.549C168.326 151.549 168.715 151.943 168.715 152.43V154.7H170.053C170.534 154.7 170.923 155.095 170.923 155.581C170.923 156.067 170.534 156.462 170.053 156.462H168.518C167.668 156.462 166.975 155.761 166.975 154.9ZM162.818 149.234C162.818 150.182 162.06 150.95 161.124 150.95C160.188 150.95 159.43 150.182 159.43 149.234C159.43 148.287 160.188 147.518 161.124 147.518C162.06 147.518 162.818 148.287 162.818 149.234ZM178.469 149.234C178.469 150.182 177.711 150.95 176.775 150.95C175.839 150.95 175.081 150.182 175.081 149.234C175.081 148.287 175.839 147.518 176.775 147.518C177.711 147.518 178.469 148.287 178.469 149.234ZM173.208 160.327C173.208 161.749 171.008 162.256 168.949 162.256C166.891 162.256 164.691 161.749 164.691 160.327C164.691 159.84 165.081 159.446 165.561 159.446C165.949 159.446 166.278 159.703 166.39 160.058C166.681 160.233 167.596 160.494 168.949 160.494C170.303 160.494 171.218 160.233 171.509 160.058C171.622 159.703 171.95 159.446 172.338 159.446C172.818 159.446 173.208 159.84 173.208 160.327ZM216.853 187.806C216.603 187.36 216.214 187.028 215.751 186.838C215.824 186.353 215.752 185.843 215.495 185.385C215.245 184.938 214.856 184.607 214.393 184.416C214.465 183.932 214.393 183.422 214.137 182.963C213.879 182.504 213.483 182.181 213.034 181.997C213.107 181.512 213.036 181.002 212.779 180.544C212.484 180.017 212.005 179.64 211.428 179.479C210.857 179.32 210.252 179.395 209.732 179.694L208.85 180.201C208.683 179.923 208.461 179.672 208.188 179.464V178.501H213.118C213.599 178.501 213.988 178.106 213.988 177.619C213.988 177.133 213.599 176.738 213.118 176.738H208.188V175.857H213.118C213.599 175.857 213.988 175.462 213.988 174.976C213.988 174.49 213.599 174.095 213.118 174.095H208.188V173.214H213.118C213.599 173.214 213.988 172.819 213.988 172.333C213.988 171.846 213.599 171.452 213.118 171.452H208.188V170.571H213.118C213.599 170.571 213.988 170.176 213.988 169.69C213.988 169.203 213.599 168.809 213.118 168.809H208.188L208.194 167.928H213.118C213.599 167.928 213.988 167.533 213.988 167.047C213.988 166.56 213.599 166.166 213.118 166.166H208.194C207.215 166.166 206.448 167.069 206.448 168.221V169.69V172.333V172.466C206.374 171.465 206.008 170.46 205.362 169.594C203.773 167.462 201.05 166.818 199.297 168.16C198.383 168.859 197.92 169.963 197.9 171.159C196.758 170.851 195.583 171 194.668 171.7C193.787 172.373 193.27 173.466 193.251 174.697C193.234 175.836 193.63 177.009 194.369 178C195.108 178.99 196.114 179.698 197.201 179.993C197.565 180.092 197.928 180.14 198.284 180.14C199.077 180.14 199.827 179.899 200.435 179.433C200.493 179.389 200.534 179.331 200.588 179.283L203.317 182.598L202.331 184.748C202.256 184.88 202.187 185.015 202.126 185.156L196.39 188.451L186.602 172.172C186.362 171.773 186.07 171.43 185.756 171.116C185.238 170.439 184.49 169.957 183.622 169.801C182.777 169.518 181.877 169.427 180.984 169.579V181.386C181.197 181.453 181.394 181.551 181.565 181.681C181.886 181.924 182.12 182.267 182.215 182.672L182.434 183.602L186.494 200.832V193.453L189.755 198.876C190.79 200.598 192.604 201.555 194.466 201.555C195.389 201.555 196.323 201.32 197.181 200.826L207.626 194.825C207.669 194.8 207.703 194.765 207.745 194.739C207.827 194.745 207.909 194.756 207.991 194.756C208.671 194.756 209.36 194.582 209.992 194.219L211.955 193.089L212.075 193.235C212.472 193.716 213.171 193.798 213.665 193.42L214.025 193.145L214.404 192.856L214.762 192.581C215.123 192.305 215.26 191.836 215.162 191.382L216.015 190.891C216.534 190.593 216.906 190.107 217.065 189.524C217.224 188.941 217.148 188.33 216.853 187.806ZM211.791 183.737L211.95 183.646C212.025 183.603 212.109 183.58 212.193 183.58C212.237 183.58 212.281 183.587 212.325 183.598C212.453 183.634 212.56 183.718 212.624 183.834C212.759 184.073 212.675 184.381 212.439 184.517L212.28 184.609L211.133 185.268L210.162 185.827C210.047 185.892 209.915 185.908 209.787 185.874C209.66 185.839 209.553 185.755 209.489 185.639C209.354 185.398 209.437 185.092 209.673 184.956L210.57 184.44L211.791 183.737ZM208.998 182.365L209.02 182.318C209.036 182.283 209.041 182.246 209.055 182.21C209.072 182.169 209.083 182.127 209.097 182.085L210.183 181.461L210.592 181.225C210.668 181.183 210.751 181.16 210.836 181.16C210.88 181.16 210.924 181.165 210.967 181.178C211.095 181.214 211.201 181.297 211.266 181.413C211.35 181.562 211.341 181.734 211.271 181.878C211.229 181.966 211.17 182.045 211.08 182.097L210.455 182.456L209.569 182.966L208.803 183.407C208.709 183.461 208.602 183.473 208.495 183.459L208.998 182.365ZM199.037 177.559C198.617 177.878 198.082 177.8 197.8 177.723C197.218 177.566 196.643 177.15 196.22 176.584C195.799 176.018 195.562 175.344 195.571 174.733C195.575 174.438 195.646 173.895 196.066 173.574C196.277 173.413 196.536 173.337 196.817 173.337C197.499 173.337 198.312 173.784 198.882 174.549C199.688 175.629 199.758 177.007 199.037 177.559ZM200.849 173.045C200.044 171.965 199.973 170.586 200.695 170.035C200.905 169.874 201.164 169.798 201.446 169.798C202.128 169.798 202.94 170.245 203.511 171.01C203.933 171.576 204.17 172.25 204.161 172.86C204.157 173.155 204.086 173.698 203.666 174.019C203.246 174.338 202.711 174.261 202.429 174.184C201.847 174.026 201.271 173.611 200.849 173.045ZM203.089 180.123C202.692 179.591 202.796 178.833 203.322 178.432C203.847 178.03 204.595 178.135 204.992 178.668C205.131 178.854 205.187 179.068 205.207 179.284C204.88 179.498 204.606 179.787 204.435 180.158L204.246 180.571C203.819 180.646 203.368 180.497 203.089 180.123ZM209.928 192.229L209.132 192.686C208.021 193.329 206.597 192.931 205.962 191.803L203.812 187.971C203.505 187.425 203.427 186.79 203.592 186.183L203.602 186.162L203.887 185.539L206.013 180.9C206.074 180.768 206.242 180.681 206.448 180.662C206.601 180.647 206.774 180.665 206.952 180.749C207.131 180.834 207.256 180.956 207.343 181.084C207.363 181.113 207.386 181.14 207.401 181.17C207.474 181.316 207.492 181.464 207.442 181.575L205.661 185.445L205.306 186.216C205.272 186.29 205.265 186.367 205.252 186.444C205.189 186.825 205.365 187.215 205.728 187.386C205.847 187.443 205.971 187.469 206.094 187.469C206.218 187.469 206.336 187.434 206.448 187.384V191.569C206.448 192.055 206.838 192.45 207.318 192.45C207.799 192.45 208.188 192.055 208.188 191.569V188.514L210.287 191.063L210.823 191.714L209.928 192.229ZM211.52 188.248C211.404 188.312 211.269 188.332 211.145 188.295C211.018 188.259 210.911 188.176 210.847 188.06C210.712 187.819 210.795 187.513 211.032 187.376L212.135 186.741L213.149 186.158L213.309 186.066C213.383 186.024 213.467 186.001 213.551 186.001C213.595 186.001 213.639 186.007 213.683 186.019C213.81 186.055 213.917 186.138 213.981 186.254C214.116 186.495 214.034 186.801 213.797 186.938L213.638 187.029L212.698 187.57L211.52 188.248ZM215.387 189.057C215.352 189.185 215.269 189.293 215.155 189.358C215.155 189.358 215.155 189.358 215.154 189.358L214.746 189.593L214.262 189.872L212.879 190.668C212.776 190.729 212.661 190.74 212.551 190.72C212.41 190.695 212.28 190.615 212.204 190.48C212.069 190.239 212.153 189.933 212.39 189.797L213.699 189.043L214.052 188.84L214.667 188.486C214.742 188.444 214.825 188.421 214.909 188.421C214.922 188.421 214.935 188.425 214.949 188.427C214.979 188.429 215.01 188.431 215.041 188.439C215.169 188.475 215.274 188.559 215.341 188.677C215.405 188.793 215.422 188.927 215.387 189.057ZM186.325 214.561L185.84 203.149C185.838 203.12 185.834 203.09 185.826 203.06L181.087 182.943C181.069 182.868 181.032 182.8 180.984 182.738C180.855 182.572 180.631 182.464 180.38 182.464H157.519C157.267 182.464 157.044 182.573 156.914 182.738C156.866 182.8 156.829 182.868 156.812 182.942L152.649 200.612L152.123 200.312L152.001 200.243C151.865 200.167 151.728 200.105 151.591 200.042L155.464 183.601L155.627 182.911L155.683 182.67C155.778 182.266 156.013 181.923 156.334 181.68C156.505 181.55 156.702 181.453 156.914 181.386V169.739V169.622C154.885 168.956 152.569 169.519 151.073 171.247L132.369 192.832C131.331 194.03 130.848 195.618 131.042 197.199C131.236 198.781 132.088 200.202 133.384 201.106L144.113 208.595C144.448 208.829 144.804 209.005 145.165 209.154C145.605 209.665 146.128 210.101 146.717 210.434L150.498 212.567L151.065 212.886L151.404 213.078L151.604 213.19C151.613 213.196 151.624 213.197 151.634 213.203L151.575 214.562L151.52 215.825C151.513 215.997 151.597 216.125 151.67 216.202C151.808 216.349 152.016 216.432 152.239 216.432H185.659C185.882 216.432 186.09 216.349 186.229 216.202C186.301 216.125 186.386 215.997 186.378 215.825L186.325 214.561ZM144.737 195.477L151.404 187.784V199.955C151.185 199.864 150.966 199.793 150.747 199.733C150.619 199.625 150.507 199.504 150.367 199.406L144.737 195.477ZM157.793 205.912C157.715 206.055 157.529 206.109 157.391 206.029C157.39 206.029 157.39 206.029 157.39 206.029L153.435 203.798C153.216 203.674 152.958 203.682 152.726 203.773C152.514 203.856 152.324 204.008 152.212 204.211C152.099 204.415 152.07 204.656 152.133 204.882C152.196 205.106 152.345 205.297 152.547 205.412L152.55 205.413L157.284 208.086C157.376 208.137 157.411 208.221 157.423 208.266C157.437 208.31 157.45 208.4 157.398 208.494C157.348 208.587 157.265 208.621 157.221 208.635C157.176 208.648 157.086 208.661 156.996 208.61L152.37 205.999L152.258 205.936C152.163 205.882 152.058 205.858 151.952 205.849C151.762 205.833 151.574 205.893 151.404 205.994C151.389 206.003 151.372 206.011 151.357 206.021C151.227 206.108 151.11 206.213 151.034 206.35C150.921 206.554 150.893 206.796 150.956 207.021C151.009 207.213 151.136 207.371 151.295 207.487C151.321 207.506 151.34 207.535 151.369 207.551L151.404 207.571L151.445 207.594L151.866 207.831L155.324 209.782C155.416 209.834 155.451 209.918 155.464 209.963C155.477 210.008 155.49 210.097 155.438 210.191C155.387 210.284 155.306 210.319 155.261 210.332C155.217 210.344 155.129 210.359 155.036 210.306L151.837 208.502L151.404 208.258L151.265 208.179L151.025 208.044L150.698 207.86L150.639 207.826C150.363 207.671 149.942 207.731 149.673 207.901C149.412 208.066 149.256 208.359 149.264 208.669C149.268 208.834 149.322 208.987 149.407 209.121C149.483 209.241 149.583 209.346 149.71 209.417L150.61 209.925L151.177 210.245L151.404 210.373L151.748 210.567L152.739 211.127C152.83 211.178 152.865 211.262 152.878 211.307C152.891 211.352 152.904 211.441 152.853 211.534C152.775 211.676 152.588 211.732 152.45 211.651L151.719 211.238L151.404 211.061L151.149 210.916L150.582 210.597L148.511 209.428L147.565 208.894C146.755 208.438 146.117 207.707 145.769 206.836C145.298 205.659 145.351 204.372 145.911 203.394C146.592 202.203 147.903 201.323 149.362 201.323C149.954 201.323 150.57 201.472 151.177 201.798C151.195 201.808 151.212 201.814 151.23 201.823L151.404 201.923L151.704 202.094L152.229 202.394L152.541 202.572L157.678 205.504C157.77 205.556 157.805 205.641 157.818 205.686C157.831 205.73 157.844 205.82 157.793 205.912ZM179.303 201.543C179.278 203.091 177.803 203.766 177.052 202.571L176.295 201.371C176.094 202.083 175.788 202.752 175.392 203.361C175.395 203.456 175.404 203.549 175.404 203.644C175.404 207.638 172.515 210.876 168.949 210.876C165.384 210.876 162.494 207.638 162.494 203.644C162.494 203.549 162.504 203.456 162.507 203.361C162.11 202.752 161.804 202.083 161.603 201.371L160.847 202.571C160.095 203.766 158.621 203.091 158.595 201.543C158.583 200.82 158.558 200.07 158.511 199.335C158.346 196.752 161.818 195.541 163.383 195.126C164.775 194.113 166.75 193.657 168.949 193.657C171.148 193.657 173.124 194.113 174.516 195.126C176.08 195.541 179.553 196.752 179.388 199.335C179.341 200.07 179.315 200.82 179.303 201.543ZM166.304 206.907C166.304 205.819 167.488 204.937 168.949 204.937C170.41 204.937 171.595 205.819 171.595 206.907C171.595 207.995 170.41 208.877 168.949 208.877C167.488 208.877 166.304 207.995 166.304 206.907Z" fill="#222222"/>
<defs>
<filter id="filter0_d_2818_1128" x="0" y="0" width="348" height="372.81" filterUnits="userSpaceOnUse" color-interpolation-filters="sRGB">
<feFlood flood-opacity="0" result="BackgroundImageFix"/>
<feColorMatrix in="SourceAlpha" type="matrix" values="0 0 0 0 0 0 0 0 0 0 0 0 0 0 0 0 0 0 127 0" result="hardAlpha"/>
<feOffset dy="4"/>
<feGaussianBlur stdDeviation="37"/>
<feColorMatrix type="matrix" values="0 0 0 0 0.780392 0 0 0 0 0.905882 0 0 0 0 0.882353 0 0 0 0.27 0"/>
<feBlend mode="normal" in2="BackgroundImageFix" result="effect1_dropShadow_2818_1128"/>
<feBlend mode="normal" in="SourceGraphic" in2="effect1_dropShadow_2818_1128" result="shape"/>
</filter>
<linearGradient id="paint0_linear_2818_1128" x1="174" y1="70" x2="174" y2="294.81" gradientUnits="userSpaceOnUse">
<stop stop-color="#F9FFFE"/>
<stop offset="1" stop-color="white" stop-opacity="0"/>
</linearGradient>
</defs>
</svg>
