<svg width="360" height="409" viewBox="0 0 360 409" fill="none" xmlns="http://www.w3.org/2000/svg">
<path d="M0 33.188C0 14.9626 14.7746 0.187988 33 0.187988H327C345.225 0.187988 360 14.9626 360 33.188V269.996H0V33.188Z" fill="#FFF1A6"/>
<path d="M68.02 68.32L63.076 85H59.98L56.476 72.376L52.756 85L49.684 85.024L44.956 68.32H47.86L51.316 81.904L55.06 68.32H58.132L61.612 81.832L65.092 68.32H68.02ZM69.3646 78.328C69.3646 77 69.6366 75.824 70.1806 74.8C70.7406 73.776 71.4926 72.984 72.4366 72.424C73.3966 71.848 74.4526 71.56 75.6046 71.56C76.6446 71.56 77.5486 71.768 78.3166 72.184C79.1006 72.584 79.7246 73.088 80.1886 73.696V71.776H82.9486V85H80.1886V83.032C79.7246 83.656 79.0926 84.176 78.2926 84.592C77.4926 85.008 76.5806 85.216 75.5566 85.216C74.4206 85.216 73.3806 84.928 72.4366 84.352C71.4926 83.76 70.7406 82.944 70.1806 81.904C69.6366 80.848 69.3646 79.656 69.3646 78.328ZM80.1886 78.376C80.1886 77.464 79.9966 76.672 79.6126 76C79.2446 75.328 78.7566 74.816 78.1486 74.464C77.5406 74.112 76.8846 73.936 76.1806 73.936C75.4766 73.936 74.8206 74.112 74.2126 74.464C73.6046 74.8 73.1086 75.304 72.7246 75.976C72.3566 76.632 72.1726 77.416 72.1726 78.328C72.1726 79.24 72.3566 80.04 72.7246 80.728C73.1086 81.416 73.6046 81.944 74.2126 82.312C74.8366 82.664 75.4926 82.84 76.1806 82.84C76.8846 82.84 77.5406 82.664 78.1486 82.312C78.7566 81.96 79.2446 81.448 79.6126 80.776C79.9966 80.088 80.1886 79.288 80.1886 78.376ZM87.9342 70.024C87.4382 70.024 87.0222 69.856 86.6862 69.52C86.3502 69.184 86.1822 68.768 86.1822 68.272C86.1822 67.776 86.3502 67.36 86.6862 67.024C87.0222 66.688 87.4382 66.52 87.9342 66.52C88.4142 66.52 88.8222 66.688 89.1582 67.024C89.4942 67.36 89.6622 67.776 89.6622 68.272C89.6622 68.768 89.4942 69.184 89.1582 69.52C88.8222 69.856 88.4142 70.024 87.9342 70.024ZM89.2782 87.592C89.2782 88.888 88.9502 89.824 88.2942 90.4C87.6542 90.992 86.7182 91.288 85.4862 91.288H84.0702V88.984H85.0062C85.5662 88.984 85.9582 88.872 86.1822 88.648C86.4222 88.44 86.5422 88.088 86.5422 87.592V71.776H89.2782V87.592ZM94.2623 70.024C93.7663 70.024 93.3503 69.856 93.0143 69.52C92.6783 69.184 92.5103 68.768 92.5103 68.272C92.5103 67.776 92.6783 67.36 93.0143 67.024C93.3503 66.688 93.7663 66.52 94.2623 66.52C94.7423 66.52 95.1503 66.688 95.4863 67.024C95.8223 67.36 95.9903 67.776 95.9903 68.272C95.9903 68.768 95.8223 69.184 95.4863 69.52C95.1503 69.856 94.7423 70.024 94.2623 70.024ZM95.6063 71.776V85H92.8703V71.776H95.6063ZM101.934 73.744C102.398 73.104 103.03 72.584 103.83 72.184C104.646 71.768 105.55 71.56 106.542 71.56C107.71 71.56 108.766 71.84 109.71 72.4C110.654 72.96 111.398 73.76 111.942 74.8C112.486 75.824 112.758 77 112.758 78.328C112.758 79.656 112.486 80.848 111.942 81.904C111.398 82.944 110.646 83.76 109.686 84.352C108.742 84.928 107.694 85.216 106.542 85.216C105.518 85.216 104.606 85.016 103.806 84.616C103.022 84.216 102.398 83.704 101.934 83.08V85H99.1984V67.24H101.934V73.744ZM109.974 78.328C109.974 77.416 109.782 76.632 109.398 75.976C109.03 75.304 108.534 74.8 107.91 74.464C107.302 74.112 106.646 73.936 105.942 73.936C105.254 73.936 104.598 74.112 103.974 74.464C103.366 74.816 102.87 75.328 102.486 76C102.118 76.672 101.934 77.464 101.934 78.376C101.934 79.288 102.118 80.088 102.486 80.776C102.87 81.448 103.366 81.96 103.974 82.312C104.598 82.664 105.254 82.84 105.942 82.84C106.646 82.84 107.302 82.664 107.91 82.312C108.534 81.944 109.03 81.416 109.398 80.728C109.782 80.04 109.974 79.24 109.974 78.328ZM120.786 78.376C120.786 77.016 121.058 75.824 121.602 74.8C122.162 73.76 122.93 72.96 123.906 72.4C124.882 71.84 126.002 71.56 127.266 71.56C128.866 71.56 130.186 71.944 131.226 72.712C132.282 73.464 132.994 74.544 133.362 75.952H130.41C130.17 75.296 129.786 74.784 129.258 74.416C128.73 74.048 128.066 73.864 127.266 73.864C126.146 73.864 125.25 74.264 124.578 75.064C123.922 75.848 123.594 76.952 123.594 78.376C123.594 79.8 123.922 80.912 124.578 81.712C125.25 82.512 126.146 82.912 127.266 82.912C128.85 82.912 129.898 82.216 130.41 80.824H133.362C132.978 82.168 132.258 83.24 131.202 84.04C130.146 84.824 128.834 85.216 127.266 85.216C126.002 85.216 124.882 84.936 123.906 84.376C122.93 83.8 122.162 83 121.602 81.976C121.058 80.936 120.786 79.736 120.786 78.376ZM142.929 71.56C143.937 71.56 144.833 71.776 145.617 72.208C146.417 72.64 147.041 73.28 147.489 74.128C147.953 74.976 148.185 76 148.185 77.2V85H145.473V77.608C145.473 76.424 145.177 75.52 144.585 74.896C143.993 74.256 143.185 73.936 142.161 73.936C141.137 73.936 140.321 74.256 139.713 74.896C139.121 75.52 138.825 76.424 138.825 77.608V85H136.089V67.24H138.825V73.312C139.289 72.752 139.873 72.32 140.577 72.016C141.297 71.712 142.081 71.56 142.929 71.56ZM163.795 78.064C163.795 78.56 163.763 79.008 163.699 79.408H153.595C153.675 80.464 154.067 81.312 154.771 81.952C155.475 82.592 156.339 82.912 157.363 82.912C158.835 82.912 159.875 82.296 160.483 81.064H163.435C163.035 82.28 162.307 83.28 161.251 84.064C160.211 84.832 158.915 85.216 157.363 85.216C156.099 85.216 154.963 84.936 153.955 84.376C152.963 83.8 152.179 83 151.603 81.976C151.043 80.936 150.763 79.736 150.763 78.376C150.763 77.016 151.035 75.824 151.579 74.8C152.139 73.76 152.915 72.96 153.907 72.4C154.915 71.84 156.067 71.56 157.363 71.56C158.611 71.56 159.723 71.832 160.699 72.376C161.675 72.92 162.435 73.688 162.979 74.68C163.523 75.656 163.795 76.784 163.795 78.064ZM160.939 77.2C160.923 76.192 160.563 75.384 159.859 74.776C159.155 74.168 158.283 73.864 157.243 73.864C156.299 73.864 155.491 74.168 154.819 74.776C154.147 75.368 153.747 76.176 153.619 77.2H160.939ZM165.576 78.376C165.576 77.016 165.848 75.824 166.392 74.8C166.952 73.76 167.72 72.96 168.696 72.4C169.672 71.84 170.792 71.56 172.056 71.56C173.656 71.56 174.976 71.944 176.016 72.712C177.072 73.464 177.784 74.544 178.152 75.952H175.2C174.96 75.296 174.576 74.784 174.048 74.416C173.52 74.048 172.856 73.864 172.056 73.864C170.936 73.864 170.04 74.264 169.368 75.064C168.712 75.848 168.384 76.952 168.384 78.376C168.384 79.8 168.712 80.912 169.368 81.712C170.04 82.512 170.936 82.912 172.056 82.912C173.64 82.912 174.688 82.216 175.2 80.824H178.152C177.768 82.168 177.048 83.24 175.992 84.04C174.936 84.824 173.624 85.216 172.056 85.216C170.792 85.216 169.672 84.936 168.696 84.376C167.72 83.8 166.952 83 166.392 81.976C165.848 80.936 165.576 79.736 165.576 78.376ZM186.11 78.4L192.206 85H188.51L183.614 79.312V85H180.878V67.24H183.614V77.56L188.414 71.776H192.206L186.11 78.4ZM212.378 71.776V85H209.642V83.44C209.21 83.984 208.642 84.416 207.938 84.736C207.25 85.04 206.514 85.192 205.73 85.192C204.69 85.192 203.754 84.976 202.922 84.544C202.106 84.112 201.458 83.472 200.978 82.624C200.514 81.776 200.282 80.752 200.282 79.552V71.776H202.994V79.144C202.994 80.328 203.29 81.24 203.882 81.88C204.474 82.504 205.282 82.816 206.306 82.816C207.33 82.816 208.138 82.504 208.73 81.88C209.338 81.24 209.642 80.328 209.642 79.144V71.776H212.378ZM218.724 73.72C219.188 73.112 219.82 72.6 220.62 72.184C221.42 71.768 222.324 71.56 223.332 71.56C224.484 71.56 225.532 71.848 226.476 72.424C227.436 72.984 228.188 73.776 228.732 74.8C229.276 75.824 229.548 77 229.548 78.328C229.548 79.656 229.276 80.848 228.732 81.904C228.188 82.944 227.436 83.76 226.476 84.352C225.532 84.928 224.484 85.216 223.332 85.216C222.324 85.216 221.428 85.016 220.644 84.616C219.86 84.2 219.22 83.688 218.724 83.08V91.288H215.988V71.776H218.724V73.72ZM226.764 78.328C226.764 77.416 226.572 76.632 226.188 75.976C225.82 75.304 225.324 74.8 224.7 74.464C224.092 74.112 223.436 73.936 222.732 73.936C222.044 73.936 221.388 74.112 220.764 74.464C220.156 74.816 219.66 75.328 219.276 76C218.908 76.672 218.724 77.464 218.724 78.376C218.724 79.288 218.908 80.088 219.276 80.776C219.66 81.448 220.156 81.96 220.764 82.312C221.388 82.664 222.044 82.84 222.732 82.84C223.436 82.84 224.092 82.664 224.7 82.312C225.324 81.944 225.82 81.416 226.188 80.728C226.572 80.04 226.764 79.24 226.764 78.328ZM237.576 78.328C237.576 77 237.848 75.824 238.392 74.8C238.952 73.776 239.704 72.984 240.648 72.424C241.608 71.848 242.672 71.56 243.84 71.56C244.704 71.56 245.552 71.752 246.384 72.136C247.232 72.504 247.904 73 248.4 73.624V67.24H251.16V85H248.4V83.008C247.952 83.648 247.328 84.176 246.528 84.592C245.744 85.008 244.84 85.216 243.816 85.216C242.664 85.216 241.608 84.928 240.648 84.352C239.704 83.76 238.952 82.944 238.392 81.904C237.848 80.848 237.576 79.656 237.576 78.328ZM248.4 78.376C248.4 77.464 248.208 76.672 247.824 76C247.456 75.328 246.968 74.816 246.36 74.464C245.752 74.112 245.096 73.936 244.392 73.936C243.688 73.936 243.032 74.112 242.424 74.464C241.816 74.8 241.32 75.304 240.936 75.976C240.568 76.632 240.384 77.416 240.384 78.328C240.384 79.24 240.568 80.04 240.936 80.728C241.32 81.416 241.816 81.944 242.424 82.312C243.048 82.664 243.704 82.84 244.392 82.84C245.096 82.84 245.752 82.664 246.36 82.312C246.968 81.96 247.456 81.448 247.824 80.776C248.208 80.088 248.4 79.288 248.4 78.376ZM260.489 85.216C259.241 85.216 258.113 84.936 257.105 84.376C256.097 83.8 255.305 83 254.729 81.976C254.153 80.936 253.865 79.736 253.865 78.376C253.865 77.032 254.161 75.84 254.753 74.8C255.345 73.76 256.153 72.96 257.177 72.4C258.201 71.84 259.345 71.56 260.609 71.56C261.873 71.56 263.017 71.84 264.041 72.4C265.065 72.96 265.873 73.76 266.465 74.8C267.057 75.84 267.353 77.032 267.353 78.376C267.353 79.72 267.049 80.912 266.441 81.952C265.833 82.992 265.001 83.8 263.945 84.376C262.905 84.936 261.753 85.216 260.489 85.216ZM260.489 82.84C261.193 82.84 261.849 82.672 262.457 82.336C263.081 82 263.585 81.496 263.969 80.824C264.353 80.152 264.545 79.336 264.545 78.376C264.545 77.416 264.361 76.608 263.993 75.952C263.625 75.28 263.137 74.776 262.529 74.44C261.921 74.104 261.265 73.936 260.561 73.936C259.857 73.936 259.201 74.104 258.593 74.44C258.001 74.776 257.529 75.28 257.177 75.952C256.825 76.608 256.649 77.416 256.649 78.376C256.649 79.8 257.009 80.904 257.729 81.688C258.465 82.456 259.385 82.84 260.489 82.84ZM275.29 78.4L281.386 85H277.69L272.794 79.312V85H270.058V67.24H272.794V77.56L277.594 71.776H281.386L275.29 78.4ZM286.539 74.008V81.328C286.539 81.824 286.651 82.184 286.875 82.408C287.115 82.616 287.515 82.72 288.075 82.72H289.755V85H287.595C286.363 85 285.419 84.712 284.763 84.136C284.107 83.56 283.779 82.624 283.779 81.328V74.008H282.219V71.776H283.779V68.488H286.539V71.776H289.755V74.008H286.539ZM304.397 78.064C304.397 78.56 304.365 79.008 304.301 79.408H294.197C294.277 80.464 294.669 81.312 295.373 81.952C296.077 82.592 296.941 82.912 297.965 82.912C299.437 82.912 300.477 82.296 301.085 81.064H304.037C303.637 82.28 302.909 83.28 301.853 84.064C300.813 84.832 299.517 85.216 297.965 85.216C296.701 85.216 295.565 84.936 294.557 84.376C293.565 83.8 292.781 83 292.205 81.976C291.645 80.936 291.365 79.736 291.365 78.376C291.365 77.016 291.637 75.824 292.181 74.8C292.741 73.76 293.517 72.96 294.509 72.4C295.517 71.84 296.669 71.56 297.965 71.56C299.213 71.56 300.325 71.832 301.301 72.376C302.277 72.92 303.037 73.688 303.581 74.68C304.125 75.656 304.397 76.784 304.397 78.064ZM301.541 77.2C301.525 76.192 301.165 75.384 300.461 74.776C299.757 74.168 298.885 73.864 297.845 73.864C296.901 73.864 296.093 74.168 295.421 74.776C294.749 75.368 294.349 76.176 294.221 77.2H301.541ZM309.825 73.696C310.225 73.024 310.753 72.504 311.409 72.136C312.081 71.752 312.873 71.56 313.785 71.56V74.392H313.089C312.017 74.392 311.201 74.664 310.641 75.208C310.097 75.752 309.825 76.696 309.825 78.04V85H307.089V71.776H309.825V73.696ZM66.9095 100.56C67.9175 100.56 68.8135 100.776 69.5975 101.208C70.3975 101.64 71.0215 102.28 71.4695 103.128C71.9335 103.976 72.1655 105 72.1655 106.2V114H69.4535V106.608C69.4535 105.424 69.1575 104.52 68.5655 103.896C67.9735 103.256 67.1655 102.936 66.1415 102.936C65.1175 102.936 64.3015 103.256 63.6935 103.896C63.1015 104.52 62.8055 105.424 62.8055 106.608V114H60.0695V96.24H62.8055V102.312C63.2695 101.752 63.8535 101.32 64.5575 101.016C65.2775 100.712 66.0615 100.56 66.9095 100.56ZM87.7755 107.064C87.7755 107.56 87.7435 108.008 87.6795 108.408H77.5755C77.6555 109.464 78.0475 110.312 78.7515 110.952C79.4555 111.592 80.3195 111.912 81.3435 111.912C82.8155 111.912 83.8555 111.296 84.4635 110.064H87.4155C87.0155 111.28 86.2875 112.28 85.2315 113.064C84.1915 113.832 82.8955 114.216 81.3435 114.216C80.0795 114.216 78.9435 113.936 77.9355 113.376C76.9435 112.8 76.1595 112 75.5835 110.976C75.0235 109.936 74.7435 108.736 74.7435 107.376C74.7435 106.016 75.0155 104.824 75.5595 103.8C76.1195 102.76 76.8955 101.96 77.8875 101.4C78.8955 100.84 80.0475 100.56 81.3435 100.56C82.5915 100.56 83.7035 100.832 84.6795 101.376C85.6555 101.92 86.4155 102.688 86.9595 103.68C87.5035 104.656 87.7755 105.784 87.7755 107.064ZM84.9195 106.2C84.9035 105.192 84.5435 104.384 83.8395 103.776C83.1355 103.168 82.2635 102.864 81.2235 102.864C80.2795 102.864 79.4715 103.168 78.7995 103.776C78.1275 104.368 77.7275 105.176 77.5995 106.2H84.9195ZM108.228 100.776L104.124 114H101.244L98.58 104.232L95.916 114H93.036L88.908 100.776H91.692L94.452 111.408L97.26 100.776H100.116L102.804 111.36L105.54 100.776H108.228ZM109.361 107.328C109.361 106 109.633 104.824 110.177 103.8C110.737 102.776 111.489 101.984 112.433 101.424C113.393 100.848 114.449 100.56 115.601 100.56C116.641 100.56 117.545 100.768 118.313 101.184C119.097 101.584 119.721 102.088 120.185 102.696V100.776H122.945V114H120.185V112.032C119.721 112.656 119.089 113.176 118.289 113.592C117.489 114.008 116.577 114.216 115.553 114.216C114.417 114.216 113.377 113.928 112.433 113.352C111.489 112.76 110.737 111.944 110.177 110.904C109.633 109.848 109.361 108.656 109.361 107.328ZM120.185 107.376C120.185 106.464 119.993 105.672 119.609 105C119.241 104.328 118.753 103.816 118.145 103.464C117.537 103.112 116.881 102.936 116.177 102.936C115.473 102.936 114.817 103.112 114.209 103.464C113.601 103.8 113.105 104.304 112.721 104.976C112.353 105.632 112.169 106.416 112.169 107.328C112.169 108.24 112.353 109.04 112.721 109.728C113.105 110.416 113.601 110.944 114.209 111.312C114.833 111.664 115.489 111.84 116.177 111.84C116.881 111.84 117.537 111.664 118.145 111.312C118.753 110.96 119.241 110.448 119.609 109.776C119.993 109.088 120.185 108.288 120.185 107.376ZM133.21 100.56C134.25 100.56 135.178 100.776 135.994 101.208C136.826 101.64 137.474 102.28 137.938 103.128C138.402 103.976 138.634 105 138.634 106.2V114H135.922V106.608C135.922 105.424 135.626 104.52 135.034 103.896C134.442 103.256 133.634 102.936 132.61 102.936C131.586 102.936 130.77 103.256 130.162 103.896C129.57 104.52 129.274 105.424 129.274 106.608V114H126.538V100.776H129.274V102.288C129.722 101.744 130.29 101.32 130.978 101.016C131.682 100.712 132.426 100.56 133.21 100.56ZM151.095 102.72C151.559 102.112 152.191 101.6 152.991 101.184C153.791 100.768 154.695 100.56 155.703 100.56C156.855 100.56 157.903 100.848 158.847 101.424C159.807 101.984 160.559 102.776 161.103 103.8C161.647 104.824 161.919 106 161.919 107.328C161.919 108.656 161.647 109.848 161.103 110.904C160.559 111.944 159.807 112.76 158.847 113.352C157.903 113.928 156.855 114.216 155.703 114.216C154.695 114.216 153.799 114.016 153.015 113.616C152.231 113.2 151.591 112.688 151.095 112.08V120.288H148.359V100.776H151.095V102.72ZM159.135 107.328C159.135 106.416 158.943 105.632 158.559 104.976C158.191 104.304 157.695 103.8 157.071 103.464C156.463 103.112 155.807 102.936 155.103 102.936C154.415 102.936 153.759 103.112 153.135 103.464C152.527 103.816 152.031 104.328 151.647 105C151.279 105.672 151.095 106.464 151.095 107.376C151.095 108.288 151.279 109.088 151.647 109.776C152.031 110.448 152.527 110.96 153.135 111.312C153.759 111.664 154.415 111.84 155.103 111.84C155.807 111.84 156.463 111.664 157.071 111.312C157.695 110.944 158.191 110.416 158.559 109.728C158.943 109.04 159.135 108.24 159.135 107.328ZM163.712 107.328C163.712 106 163.984 104.824 164.528 103.8C165.088 102.776 165.84 101.984 166.784 101.424C167.744 100.848 168.8 100.56 169.952 100.56C170.992 100.56 171.896 100.768 172.664 101.184C173.448 101.584 174.072 102.088 174.536 102.696V100.776H177.296V114H174.536V112.032C174.072 112.656 173.44 113.176 172.64 113.592C171.84 114.008 170.928 114.216 169.904 114.216C168.768 114.216 167.728 113.928 166.784 113.352C165.84 112.76 165.088 111.944 164.528 110.904C163.984 109.848 163.712 108.656 163.712 107.328ZM174.536 107.376C174.536 106.464 174.344 105.672 173.96 105C173.592 104.328 173.104 103.816 172.496 103.464C171.888 103.112 171.232 102.936 170.528 102.936C169.824 102.936 169.168 103.112 168.56 103.464C167.952 103.8 167.456 104.304 167.072 104.976C166.704 105.632 166.52 106.416 166.52 107.328C166.52 108.24 166.704 109.04 167.072 109.728C167.456 110.416 167.952 110.944 168.56 111.312C169.184 111.664 169.84 111.84 170.528 111.84C171.232 111.84 171.888 111.664 172.496 111.312C173.104 110.96 173.592 110.448 173.96 109.776C174.344 109.088 174.536 108.288 174.536 107.376ZM179.978 107.328C179.978 106 180.25 104.824 180.794 103.8C181.354 102.776 182.106 101.984 183.05 101.424C184.01 100.848 185.074 100.56 186.242 100.56C187.106 100.56 187.954 100.752 188.786 101.136C189.634 101.504 190.306 102 190.802 102.624V96.24H193.562V114H190.802V112.008C190.354 112.648 189.73 113.176 188.93 113.592C188.146 114.008 187.242 114.216 186.218 114.216C185.066 114.216 184.01 113.928 183.05 113.352C182.106 112.76 181.354 111.944 180.794 110.904C180.25 109.848 179.978 108.656 179.978 107.328ZM190.802 107.376C190.802 106.464 190.61 105.672 190.226 105C189.858 104.328 189.37 103.816 188.762 103.464C188.154 103.112 187.498 102.936 186.794 102.936C186.09 102.936 185.434 103.112 184.826 103.464C184.218 103.8 183.722 104.304 183.338 104.976C182.97 105.632 182.786 106.416 182.786 107.328C182.786 108.24 182.97 109.04 183.338 109.728C183.722 110.416 184.218 110.944 184.826 111.312C185.45 111.664 186.106 111.84 186.794 111.84C187.498 111.84 188.154 111.664 188.762 111.312C189.37 110.96 189.858 110.448 190.226 109.776C190.61 109.088 190.802 108.288 190.802 107.376ZM196.243 107.328C196.243 106 196.515 104.824 197.059 103.8C197.619 102.776 198.371 101.984 199.315 101.424C200.275 100.848 201.331 100.56 202.483 100.56C203.523 100.56 204.427 100.768 205.195 101.184C205.979 101.584 206.603 102.088 207.067 102.696V100.776H209.827V114H207.067V112.032C206.603 112.656 205.971 113.176 205.171 113.592C204.371 114.008 203.459 114.216 202.435 114.216C201.299 114.216 200.259 113.928 199.315 113.352C198.371 112.76 197.619 111.944 197.059 110.904C196.515 109.848 196.243 108.656 196.243 107.328ZM207.067 107.376C207.067 106.464 206.875 105.672 206.491 105C206.123 104.328 205.635 103.816 205.027 103.464C204.419 103.112 203.763 102.936 203.059 102.936C202.355 102.936 201.699 103.112 201.091 103.464C200.483 103.8 199.987 104.304 199.603 104.976C199.235 105.632 199.051 106.416 199.051 107.328C199.051 108.24 199.235 109.04 199.603 109.728C199.987 110.416 200.483 110.944 201.091 111.312C201.715 111.664 202.371 111.84 203.059 111.84C203.763 111.84 204.419 111.664 205.027 111.312C205.635 110.96 206.123 110.448 206.491 109.776C206.875 109.088 207.067 108.288 207.067 107.376ZM226.495 100.56C227.503 100.56 228.399 100.776 229.183 101.208C229.983 101.64 230.607 102.28 231.055 103.128C231.519 103.976 231.751 105 231.751 106.2V114H229.039V106.608C229.039 105.424 228.743 104.52 228.151 103.896C227.559 103.256 226.751 102.936 225.727 102.936C224.703 102.936 223.887 103.256 223.279 103.896C222.687 104.52 222.391 105.424 222.391 106.608V114H219.655V96.24H222.391V102.312C222.855 101.752 223.439 101.32 224.143 101.016C224.863 100.712 225.647 100.56 226.495 100.56ZM234.329 107.328C234.329 106 234.601 104.824 235.145 103.8C235.705 102.776 236.457 101.984 237.401 101.424C238.361 100.848 239.417 100.56 240.569 100.56C241.609 100.56 242.513 100.768 243.281 101.184C244.065 101.584 244.689 102.088 245.153 102.696V100.776H247.913V114H245.153V112.032C244.689 112.656 244.057 113.176 243.257 113.592C242.457 114.008 241.545 114.216 240.521 114.216C239.385 114.216 238.345 113.928 237.401 113.352C236.457 112.76 235.705 111.944 235.145 110.904C234.601 109.848 234.329 108.656 234.329 107.328ZM245.153 107.376C245.153 106.464 244.961 105.672 244.577 105C244.209 104.328 243.721 103.816 243.113 103.464C242.505 103.112 241.849 102.936 241.145 102.936C240.441 102.936 239.785 103.112 239.177 103.464C238.569 103.8 238.073 104.304 237.689 104.976C237.321 105.632 237.137 106.416 237.137 107.328C237.137 108.24 237.321 109.04 237.689 109.728C238.073 110.416 238.569 110.944 239.177 111.312C239.801 111.664 240.457 111.84 241.145 111.84C241.849 111.84 242.505 111.664 243.113 111.312C243.721 110.96 244.209 110.448 244.577 109.776C244.961 109.088 245.153 108.288 245.153 107.376ZM254.243 102.696C254.643 102.024 255.171 101.504 255.827 101.136C256.499 100.752 257.291 100.56 258.203 100.56V103.392H257.507C256.435 103.392 255.619 103.664 255.059 104.208C254.515 104.752 254.243 105.696 254.243 107.04V114H251.507V100.776H254.243V102.696ZM262.11 99.024C261.614 99.024 261.198 98.856 260.862 98.52C260.526 98.184 260.358 97.768 260.358 97.272C260.358 96.776 260.526 96.36 260.862 96.024C261.198 95.688 261.614 95.52 262.11 95.52C262.59 95.52 262.998 95.688 263.334 96.024C263.67 96.36 263.838 96.776 263.838 97.272C263.838 97.768 263.67 98.184 263.334 98.52C262.998 98.856 262.59 99.024 262.11 99.024ZM263.454 100.776V114H260.718V100.776H263.454ZM286.6 97.32V114H283.864V106.704H276.016V114H273.28V97.32H276.016V104.472H283.864V97.32H286.6ZM299.082 91.344L292.554 118.2H289.866L296.37 91.344H299.082ZM137.339 126.32V143H134.603V135.704H126.755V143H124.019V126.32H126.755V133.472H134.603V126.32H137.339ZM151.093 133.16V135.464H141.229V133.16H151.093ZM154.26 128V125.504H159.252V143H156.492V128H154.26ZM181.581 129.776V143H178.845V141.44C178.413 141.984 177.845 142.416 177.141 142.736C176.453 143.04 175.717 143.192 174.933 143.192C173.893 143.192 172.957 142.976 172.125 142.544C171.309 142.112 170.661 141.472 170.181 140.624C169.717 139.776 169.485 138.752 169.485 137.552V129.776H172.197V137.144C172.197 138.328 172.493 139.24 173.085 139.88C173.677 140.504 174.485 140.816 175.509 140.816C176.533 140.816 177.341 140.504 177.933 139.88C178.541 139.24 178.845 138.328 178.845 137.144V129.776H181.581ZM191.863 129.56C192.903 129.56 193.831 129.776 194.647 130.208C195.479 130.64 196.127 131.28 196.591 132.128C197.055 132.976 197.287 134 197.287 135.2V143H194.575V135.608C194.575 134.424 194.279 133.52 193.687 132.896C193.095 132.256 192.287 131.936 191.263 131.936C190.239 131.936 189.423 132.256 188.815 132.896C188.223 133.52 187.927 134.424 187.927 135.608V143H185.191V129.776H187.927V131.288C188.375 130.744 188.943 130.32 189.631 130.016C190.335 129.712 191.079 129.56 191.863 129.56ZM203.969 132.008V139.328C203.969 139.824 204.081 140.184 204.305 140.408C204.545 140.616 204.945 140.72 205.505 140.72H207.185V143H205.025C203.793 143 202.849 142.712 202.193 142.136C201.537 141.56 201.209 140.624 201.209 139.328V132.008H199.649V129.776H201.209V126.488H203.969V129.776H207.185V132.008H203.969ZM221.682 129.776V143H218.946V141.44C218.514 141.984 217.946 142.416 217.242 142.736C216.554 143.04 215.818 143.192 215.034 143.192C213.994 143.192 213.058 142.976 212.226 142.544C211.41 142.112 210.762 141.472 210.282 140.624C209.818 139.776 209.586 138.752 209.586 137.552V129.776H212.298V137.144C212.298 138.328 212.594 139.24 213.186 139.88C213.778 140.504 214.586 140.816 215.61 140.816C216.634 140.816 217.442 140.504 218.034 139.88C218.642 139.24 218.946 138.328 218.946 137.144V129.776H221.682ZM230.524 136.4L236.62 143H232.924L228.028 137.312V143H225.292V125.24H228.028V135.56L232.828 129.776H236.62L230.524 136.4ZM99.7963 158.56C100.836 158.56 101.764 158.776 102.58 159.208C103.412 159.64 104.06 160.28 104.524 161.128C105.004 161.976 105.244 163 105.244 164.2V172H102.532V164.608C102.532 163.424 102.236 162.52 101.644 161.896C101.052 161.256 100.244 160.936 99.2203 160.936C98.1963 160.936 97.3803 161.256 96.7723 161.896C96.1803 162.52 95.8843 163.424 95.8843 164.608V172H93.1723V164.608C93.1723 163.424 92.8763 162.52 92.2843 161.896C91.6923 161.256 90.8843 160.936 89.8603 160.936C88.8363 160.936 88.0203 161.256 87.4123 161.896C86.8203 162.52 86.5243 163.424 86.5243 164.608V172H83.7883V158.776H86.5243V160.288C86.9723 159.744 87.5403 159.32 88.2283 159.016C88.9163 158.712 89.6523 158.56 90.4363 158.56C91.4923 158.56 92.4363 158.784 93.2683 159.232C94.1003 159.68 94.7403 160.328 95.1883 161.176C95.5883 160.376 96.2123 159.744 97.0603 159.28C97.9083 158.8 98.8203 158.56 99.7963 158.56ZM120.846 165.064C120.846 165.56 120.814 166.008 120.75 166.408H110.646C110.726 167.464 111.118 168.312 111.822 168.952C112.526 169.592 113.39 169.912 114.414 169.912C115.886 169.912 116.926 169.296 117.534 168.064H120.486C120.086 169.28 119.358 170.28 118.302 171.064C117.262 171.832 115.966 172.216 114.414 172.216C113.15 172.216 112.014 171.936 111.006 171.376C110.014 170.8 109.23 170 108.654 168.976C108.094 167.936 107.814 166.736 107.814 165.376C107.814 164.016 108.086 162.824 108.63 161.8C109.19 160.76 109.966 159.96 110.958 159.4C111.966 158.84 113.118 158.56 114.414 158.56C115.662 158.56 116.774 158.832 117.75 159.376C118.726 159.92 119.486 160.688 120.03 161.68C120.574 162.656 120.846 163.784 120.846 165.064ZM117.99 164.2C117.974 163.192 117.614 162.384 116.91 161.776C116.206 161.168 115.334 160.864 114.294 160.864C113.35 160.864 112.542 161.168 111.87 161.776C111.198 162.368 110.798 163.176 110.67 164.2H117.99ZM139.546 158.56C140.586 158.56 141.514 158.776 142.33 159.208C143.162 159.64 143.81 160.28 144.274 161.128C144.754 161.976 144.994 163 144.994 164.2V172H142.282V164.608C142.282 163.424 141.986 162.52 141.394 161.896C140.802 161.256 139.994 160.936 138.97 160.936C137.946 160.936 137.13 161.256 136.522 161.896C135.93 162.52 135.634 163.424 135.634 164.608V172H132.922V164.608C132.922 163.424 132.626 162.52 132.034 161.896C131.442 161.256 130.634 160.936 129.61 160.936C128.586 160.936 127.77 161.256 127.162 161.896C126.57 162.52 126.274 163.424 126.274 164.608V172H123.538V158.776H126.274V160.288C126.722 159.744 127.29 159.32 127.978 159.016C128.666 158.712 129.402 158.56 130.186 158.56C131.242 158.56 132.186 158.784 133.018 159.232C133.85 159.68 134.49 160.328 134.938 161.176C135.338 160.376 135.962 159.744 136.81 159.28C137.658 158.8 138.57 158.56 139.546 158.56ZM149.868 157.024C149.372 157.024 148.956 156.856 148.62 156.52C148.284 156.184 148.116 155.768 148.116 155.272C148.116 154.776 148.284 154.36 148.62 154.024C148.956 153.688 149.372 153.52 149.868 153.52C150.348 153.52 150.756 153.688 151.092 154.024C151.428 154.36 151.596 154.776 151.596 155.272C151.596 155.768 151.428 156.184 151.092 156.52C150.756 156.856 150.348 157.024 149.868 157.024ZM151.212 158.776V172H148.476V158.776H151.212ZM161.476 158.56C162.516 158.56 163.444 158.776 164.26 159.208C165.092 159.64 165.74 160.28 166.204 161.128C166.668 161.976 166.9 163 166.9 164.2V172H164.188V164.608C164.188 163.424 163.892 162.52 163.3 161.896C162.708 161.256 161.9 160.936 160.876 160.936C159.852 160.936 159.036 161.256 158.428 161.896C157.836 162.52 157.54 163.424 157.54 164.608V172H154.804V158.776H157.54V160.288C157.988 159.744 158.556 159.32 159.244 159.016C159.948 158.712 160.692 158.56 161.476 158.56ZM171.782 157.024C171.286 157.024 170.87 156.856 170.534 156.52C170.198 156.184 170.03 155.768 170.03 155.272C170.03 154.776 170.198 154.36 170.534 154.024C170.87 153.688 171.286 153.52 171.782 153.52C172.262 153.52 172.67 153.688 173.006 154.024C173.342 154.36 173.51 154.776 173.51 155.272C173.51 155.768 173.342 156.184 173.006 156.52C172.67 156.856 172.262 157.024 171.782 157.024ZM173.126 158.776V172H170.39V158.776H173.126ZM192.726 158.56C193.766 158.56 194.694 158.776 195.51 159.208C196.342 159.64 196.99 160.28 197.454 161.128C197.934 161.976 198.174 163 198.174 164.2V172H195.462V164.608C195.462 163.424 195.166 162.52 194.574 161.896C193.982 161.256 193.174 160.936 192.15 160.936C191.126 160.936 190.31 161.256 189.702 161.896C189.11 162.52 188.814 163.424 188.814 164.608V172H186.102V164.608C186.102 163.424 185.806 162.52 185.214 161.896C184.622 161.256 183.814 160.936 182.79 160.936C181.766 160.936 180.95 161.256 180.342 161.896C179.75 162.52 179.454 163.424 179.454 164.608V172H176.718V158.776H179.454V160.288C179.902 159.744 180.47 159.32 181.158 159.016C181.846 158.712 182.582 158.56 183.366 158.56C184.422 158.56 185.366 158.784 186.198 159.232C187.03 159.68 187.67 160.328 188.118 161.176C188.518 160.376 189.142 159.744 189.99 159.28C190.838 158.8 191.75 158.56 192.726 158.56ZM200.743 165.328C200.743 164 201.015 162.824 201.559 161.8C202.119 160.776 202.871 159.984 203.815 159.424C204.775 158.848 205.831 158.56 206.983 158.56C208.023 158.56 208.927 158.768 209.695 159.184C210.479 159.584 211.103 160.088 211.567 160.696V158.776H214.327V172H211.567V170.032C211.103 170.656 210.471 171.176 209.671 171.592C208.871 172.008 207.959 172.216 206.935 172.216C205.799 172.216 204.759 171.928 203.815 171.352C202.871 170.76 202.119 169.944 201.559 168.904C201.015 167.848 200.743 166.656 200.743 165.328ZM211.567 165.376C211.567 164.464 211.375 163.672 210.991 163C210.623 162.328 210.135 161.816 209.527 161.464C208.919 161.112 208.263 160.936 207.559 160.936C206.855 160.936 206.199 161.112 205.591 161.464C204.983 161.8 204.487 162.304 204.103 162.976C203.735 163.632 203.551 164.416 203.551 165.328C203.551 166.24 203.735 167.04 204.103 167.728C204.487 168.416 204.983 168.944 205.591 169.312C206.215 169.664 206.871 169.84 207.559 169.84C208.263 169.84 208.919 169.664 209.527 169.312C210.135 168.96 210.623 168.448 210.991 167.776C211.375 167.088 211.567 166.288 211.567 165.376ZM220.657 154.24V172H217.921V154.24H220.657ZM225.641 157.024C225.145 157.024 224.729 156.856 224.393 156.52C224.057 156.184 223.889 155.768 223.889 155.272C223.889 154.776 224.057 154.36 224.393 154.024C224.729 153.688 225.145 153.52 225.641 153.52C226.121 153.52 226.529 153.688 226.865 154.024C227.201 154.36 227.369 154.776 227.369 155.272C227.369 155.768 227.201 156.184 226.865 156.52C226.529 156.856 226.121 157.024 225.641 157.024ZM226.985 158.776V172H224.249V158.776H226.985ZM235.377 172.216C234.337 172.216 233.401 172.032 232.569 171.664C231.753 171.28 231.105 170.768 230.625 170.128C230.145 169.472 229.889 168.744 229.857 167.944H232.689C232.737 168.504 233.001 168.976 233.481 169.36C233.977 169.728 234.593 169.912 235.329 169.912C236.097 169.912 236.689 169.768 237.105 169.48C237.537 169.176 237.753 168.792 237.753 168.328C237.753 167.832 237.513 167.464 237.033 167.224C236.569 166.984 235.825 166.72 234.801 166.432C233.809 166.16 233.001 165.896 232.377 165.64C231.753 165.384 231.209 164.992 230.745 164.464C230.297 163.936 230.073 163.24 230.073 162.376C230.073 161.672 230.281 161.032 230.697 160.456C231.113 159.864 231.705 159.4 232.473 159.064C233.257 158.728 234.153 158.56 235.161 158.56C236.665 158.56 237.873 158.944 238.785 159.712C239.713 160.464 240.209 161.496 240.273 162.808H237.537C237.489 162.216 237.249 161.744 236.817 161.392C236.385 161.04 235.801 160.864 235.065 160.864C234.345 160.864 233.793 161 233.409 161.272C233.025 161.544 232.833 161.904 232.833 162.352C232.833 162.704 232.961 163 233.217 163.24C233.473 163.48 233.785 163.672 234.153 163.816C234.521 163.944 235.065 164.112 235.785 164.32C236.745 164.576 237.529 164.84 238.137 165.112C238.761 165.368 239.297 165.752 239.745 166.264C240.193 166.776 240.425 167.456 240.441 168.304C240.441 169.056 240.233 169.728 239.817 170.32C239.401 170.912 238.809 171.376 238.041 171.712C237.289 172.048 236.401 172.216 235.377 172.216ZM242.486 165.328C242.486 164 242.758 162.824 243.302 161.8C243.862 160.776 244.614 159.984 245.558 159.424C246.518 158.848 247.574 158.56 248.726 158.56C249.766 158.56 250.67 158.768 251.438 159.184C252.222 159.584 252.846 160.088 253.31 160.696V158.776H256.07V172H253.31V170.032C252.846 170.656 252.214 171.176 251.414 171.592C250.614 172.008 249.702 172.216 248.678 172.216C247.542 172.216 246.502 171.928 245.558 171.352C244.614 170.76 243.862 169.944 243.302 168.904C242.758 167.848 242.486 166.656 242.486 165.328ZM253.31 165.376C253.31 164.464 253.118 163.672 252.734 163C252.366 162.328 251.878 161.816 251.27 161.464C250.662 161.112 250.006 160.936 249.302 160.936C248.598 160.936 247.942 161.112 247.334 161.464C246.726 161.8 246.23 162.304 245.846 162.976C245.478 163.632 245.294 164.416 245.294 165.328C245.294 166.24 245.478 167.04 245.846 167.728C246.23 168.416 246.726 168.944 247.334 169.312C247.958 169.664 248.614 169.84 249.302 169.84C250.006 169.84 250.662 169.664 251.27 169.312C251.878 168.96 252.366 168.448 252.734 167.776C253.118 167.088 253.31 166.288 253.31 165.376ZM264.463 172.216C263.423 172.216 262.487 172.032 261.655 171.664C260.839 171.28 260.191 170.768 259.711 170.128C259.231 169.472 258.975 168.744 258.943 167.944H261.775C261.823 168.504 262.087 168.976 262.567 169.36C263.063 169.728 263.679 169.912 264.415 169.912C265.183 169.912 265.775 169.768 266.191 169.48C266.623 169.176 266.839 168.792 266.839 168.328C266.839 167.832 266.599 167.464 266.119 167.224C265.655 166.984 264.911 166.72 263.887 166.432C262.895 166.16 262.087 165.896 261.463 165.64C260.839 165.384 260.295 164.992 259.831 164.464C259.383 163.936 259.159 163.24 259.159 162.376C259.159 161.672 259.367 161.032 259.783 160.456C260.199 159.864 260.791 159.4 261.559 159.064C262.343 158.728 263.239 158.56 264.247 158.56C265.751 158.56 266.959 158.944 267.871 159.712C268.799 160.464 269.295 161.496 269.359 162.808H266.623C266.575 162.216 266.335 161.744 265.903 161.392C265.471 161.04 264.887 160.864 264.151 160.864C263.431 160.864 262.879 161 262.495 161.272C262.111 161.544 261.919 161.904 261.919 162.352C261.919 162.704 262.047 163 262.303 163.24C262.559 163.48 262.871 163.672 263.239 163.816C263.607 163.944 264.151 164.112 264.871 164.32C265.831 164.576 266.615 164.84 267.223 165.112C267.847 165.368 268.383 165.752 268.831 166.264C269.279 166.776 269.511 167.456 269.527 168.304C269.527 169.056 269.319 169.728 268.903 170.32C268.487 170.912 267.895 171.376 267.127 171.712C266.375 172.048 265.487 172.216 264.463 172.216ZM273.876 157.024C273.38 157.024 272.964 156.856 272.628 156.52C272.292 156.184 272.124 155.768 272.124 155.272C272.124 154.776 272.292 154.36 272.628 154.024C272.964 153.688 273.38 153.52 273.876 153.52C274.356 153.52 274.764 153.688 275.1 154.024C275.436 154.36 275.604 154.776 275.604 155.272C275.604 155.768 275.436 156.184 275.1 156.52C274.764 156.856 274.356 157.024 273.876 157.024ZM275.22 158.776V172H272.484V158.776H275.22ZM57.4383 189.72C57.9023 189.112 58.5343 188.6 59.3343 188.184C60.1343 187.768 61.0383 187.56 62.0463 187.56C63.1983 187.56 64.2463 187.848 65.1903 188.424C66.1503 188.984 66.9023 189.776 67.4463 190.8C67.9903 191.824 68.2623 193 68.2623 194.328C68.2623 195.656 67.9903 196.848 67.4463 197.904C66.9023 198.944 66.1503 199.76 65.1903 200.352C64.2463 200.928 63.1983 201.216 62.0463 201.216C61.0383 201.216 60.1423 201.016 59.3583 200.616C58.5743 200.2 57.9343 199.688 57.4383 199.08V207.288H54.7023V187.776H57.4383V189.72ZM65.4783 194.328C65.4783 193.416 65.2863 192.632 64.9023 191.976C64.5343 191.304 64.0383 190.8 63.4143 190.464C62.8063 190.112 62.1503 189.936 61.4463 189.936C60.7583 189.936 60.1023 190.112 59.4783 190.464C58.8703 190.816 58.3743 191.328 57.9903 192C57.6223 192.672 57.4383 193.464 57.4383 194.376C57.4383 195.288 57.6223 196.088 57.9903 196.776C58.3743 197.448 58.8703 197.96 59.4783 198.312C60.1023 198.664 60.7583 198.84 61.4463 198.84C62.1503 198.84 62.8063 198.664 63.4143 198.312C64.0383 197.944 64.5343 197.416 64.9023 196.728C65.2863 196.04 65.4783 195.24 65.4783 194.328ZM83.088 194.064C83.088 194.56 83.056 195.008 82.992 195.408H72.888C72.968 196.464 73.36 197.312 74.064 197.952C74.768 198.592 75.632 198.912 76.656 198.912C78.128 198.912 79.168 198.296 79.776 197.064H82.728C82.328 198.28 81.6 199.28 80.544 200.064C79.504 200.832 78.208 201.216 76.656 201.216C75.392 201.216 74.256 200.936 73.248 200.376C72.256 199.8 71.472 199 70.896 197.976C70.336 196.936 70.056 195.736 70.056 194.376C70.056 193.016 70.328 191.824 70.872 190.8C71.432 189.76 72.208 188.96 73.2 188.4C74.208 187.84 75.36 187.56 76.656 187.56C77.904 187.56 79.016 187.832 79.992 188.376C80.968 188.92 81.728 189.688 82.272 190.68C82.816 191.656 83.088 192.784 83.088 194.064ZM80.232 193.2C80.216 192.192 79.856 191.384 79.152 190.776C78.448 190.168 77.576 189.864 76.536 189.864C75.592 189.864 74.784 190.168 74.112 190.776C73.44 191.368 73.04 192.176 72.912 193.2H80.232ZM92.4525 187.56C93.4925 187.56 94.4205 187.776 95.2365 188.208C96.0685 188.64 96.7165 189.28 97.1805 190.128C97.6445 190.976 97.8765 192 97.8765 193.2V201H95.1645V193.608C95.1645 192.424 94.8685 191.52 94.2765 190.896C93.6845 190.256 92.8765 189.936 91.8525 189.936C90.8285 189.936 90.0125 190.256 89.4045 190.896C88.8125 191.52 88.5165 192.424 88.5165 193.608V201H85.7805V187.776H88.5165V189.288C88.9645 188.744 89.5325 188.32 90.2205 188.016C90.9245 187.712 91.6685 187.56 92.4525 187.56ZM113.342 187.776V201H110.606V199.44C110.174 199.984 109.606 200.416 108.902 200.736C108.214 201.04 107.478 201.192 106.694 201.192C105.654 201.192 104.718 200.976 103.886 200.544C103.07 200.112 102.422 199.472 101.942 198.624C101.478 197.776 101.246 196.752 101.246 195.552V187.776H103.958V195.144C103.958 196.328 104.254 197.24 104.846 197.88C105.438 198.504 106.246 198.816 107.27 198.816C108.294 198.816 109.102 198.504 109.694 197.88C110.302 197.24 110.606 196.328 110.606 195.144V187.776H113.342ZM119.688 183.24V201H116.952V183.24H119.688ZM122.368 194.328C122.368 193 122.64 191.824 123.184 190.8C123.744 189.776 124.496 188.984 125.44 188.424C126.4 187.848 127.456 187.56 128.608 187.56C129.648 187.56 130.552 187.768 131.32 188.184C132.104 188.584 132.728 189.088 133.192 189.696V187.776H135.952V201H133.192V199.032C132.728 199.656 132.096 200.176 131.296 200.592C130.496 201.008 129.584 201.216 128.56 201.216C127.424 201.216 126.384 200.928 125.44 200.352C124.496 199.76 123.744 198.944 123.184 197.904C122.64 196.848 122.368 195.656 122.368 194.328ZM133.192 194.376C133.192 193.464 133 192.672 132.616 192C132.248 191.328 131.76 190.816 131.152 190.464C130.544 190.112 129.888 189.936 129.184 189.936C128.48 189.936 127.824 190.112 127.216 190.464C126.608 190.8 126.112 191.304 125.728 191.976C125.36 192.632 125.176 193.416 125.176 194.328C125.176 195.24 125.36 196.04 125.728 196.728C126.112 197.416 126.608 197.944 127.216 198.312C127.84 198.664 128.496 198.84 129.184 198.84C129.888 198.84 130.544 198.664 131.152 198.312C131.76 197.96 132.248 197.448 132.616 196.776C133 196.088 133.192 195.288 133.192 194.376ZM142.282 189.696C142.682 189.024 143.21 188.504 143.866 188.136C144.538 187.752 145.33 187.56 146.242 187.56V190.392H145.546C144.474 190.392 143.658 190.664 143.098 191.208C142.554 191.752 142.282 192.696 142.282 194.04V201H139.546V187.776H142.282V189.696ZM147.845 194.328C147.845 193 148.117 191.824 148.661 190.8C149.221 189.776 149.973 188.984 150.917 188.424C151.877 187.848 152.933 187.56 154.085 187.56C155.125 187.56 156.029 187.768 156.797 188.184C157.581 188.584 158.205 189.088 158.669 189.696V187.776H161.429V201H158.669V199.032C158.205 199.656 157.573 200.176 156.773 200.592C155.973 201.008 155.061 201.216 154.037 201.216C152.901 201.216 151.861 200.928 150.917 200.352C149.973 199.76 149.221 198.944 148.661 197.904C148.117 196.848 147.845 195.656 147.845 194.328ZM158.669 194.376C158.669 193.464 158.477 192.672 158.093 192C157.725 191.328 157.237 190.816 156.629 190.464C156.021 190.112 155.365 189.936 154.661 189.936C153.957 189.936 153.301 190.112 152.693 190.464C152.085 190.8 151.589 191.304 151.205 191.976C150.837 192.632 150.653 193.416 150.653 194.328C150.653 195.24 150.837 196.04 151.205 196.728C151.589 197.416 152.085 197.944 152.693 198.312C153.317 198.664 153.973 198.84 154.661 198.84C155.365 198.84 156.021 198.664 156.629 198.312C157.237 197.96 157.725 197.448 158.093 196.776C158.477 196.088 158.669 195.288 158.669 194.376ZM171.695 187.56C172.735 187.56 173.663 187.776 174.479 188.208C175.311 188.64 175.959 189.28 176.423 190.128C176.887 190.976 177.119 192 177.119 193.2V201H174.407V193.608C174.407 192.424 174.111 191.52 173.519 190.896C172.927 190.256 172.119 189.936 171.095 189.936C170.071 189.936 169.255 190.256 168.647 190.896C168.055 191.52 167.759 192.424 167.759 193.608V201H165.023V187.776H167.759V189.288C168.207 188.744 168.775 188.32 169.463 188.016C170.167 187.712 170.911 187.56 171.695 187.56ZM191.955 198.552L195.699 187.776H198.603L193.563 201H190.299L185.283 187.776H188.211L191.955 198.552ZM202.063 186.024C201.567 186.024 201.151 185.856 200.815 185.52C200.479 185.184 200.311 184.768 200.311 184.272C200.311 183.776 200.479 183.36 200.815 183.024C201.151 182.688 201.567 182.52 202.063 182.52C202.543 182.52 202.951 182.688 203.287 183.024C203.623 183.36 203.791 183.776 203.791 184.272C203.791 184.768 203.623 185.184 203.287 185.52C202.951 185.856 202.543 186.024 202.063 186.024ZM203.407 187.776V201H200.671V187.776H203.407ZM209.735 189.696C210.135 189.024 210.663 188.504 211.319 188.136C211.991 187.752 212.783 187.56 213.695 187.56V190.392H212.999C211.927 190.392 211.111 190.664 210.551 191.208C210.007 191.752 209.735 192.696 209.735 194.04V201H206.999V187.776H209.735V189.696ZM228.186 187.776V201H225.45V199.44C225.018 199.984 224.45 200.416 223.746 200.736C223.058 201.04 222.322 201.192 221.538 201.192C220.498 201.192 219.562 200.976 218.73 200.544C217.914 200.112 217.266 199.472 216.786 198.624C216.322 197.776 216.09 196.752 216.09 195.552V187.776H218.802V195.144C218.802 196.328 219.098 197.24 219.69 197.88C220.282 198.504 221.09 198.816 222.114 198.816C223.138 198.816 223.946 198.504 224.538 197.88C225.146 197.24 225.45 196.328 225.45 195.144V187.776H228.186ZM236.596 201.216C235.556 201.216 234.62 201.032 233.788 200.664C232.972 200.28 232.324 199.768 231.844 199.128C231.364 198.472 231.108 197.744 231.076 196.944H233.908C233.956 197.504 234.22 197.976 234.7 198.36C235.196 198.728 235.812 198.912 236.548 198.912C237.316 198.912 237.908 198.768 238.324 198.48C238.756 198.176 238.972 197.792 238.972 197.328C238.972 196.832 238.732 196.464 238.252 196.224C237.788 195.984 237.044 195.72 236.02 195.432C235.028 195.16 234.22 194.896 233.596 194.64C232.972 194.384 232.428 193.992 231.964 193.464C231.516 192.936 231.292 192.24 231.292 191.376C231.292 190.672 231.5 190.032 231.916 189.456C232.332 188.864 232.924 188.4 233.692 188.064C234.476 187.728 235.372 187.56 236.38 187.56C237.884 187.56 239.092 187.944 240.004 188.712C240.932 189.464 241.428 190.496 241.492 191.808H238.756C238.708 191.216 238.468 190.744 238.036 190.392C237.604 190.04 237.02 189.864 236.284 189.864C235.564 189.864 235.012 190 234.628 190.272C234.244 190.544 234.052 190.904 234.052 191.352C234.052 191.704 234.18 192 234.436 192.24C234.692 192.48 235.004 192.672 235.372 192.816C235.74 192.944 236.284 193.112 237.004 193.32C237.964 193.576 238.748 193.84 239.356 194.112C239.98 194.368 240.516 194.752 240.964 195.264C241.412 195.776 241.644 196.456 241.66 197.304C241.66 198.056 241.452 198.728 241.036 199.32C240.62 199.912 240.028 200.376 239.26 200.712C238.508 201.048 237.62 201.216 236.596 201.216ZM249.939 194.328C249.939 193 250.211 191.824 250.755 190.8C251.315 189.776 252.067 188.984 253.011 188.424C253.971 187.848 255.027 187.56 256.179 187.56C257.219 187.56 258.123 187.768 258.891 188.184C259.675 188.584 260.299 189.088 260.763 189.696V187.776H263.523V201H260.763V199.032C260.299 199.656 259.667 200.176 258.867 200.592C258.067 201.008 257.155 201.216 256.131 201.216C254.995 201.216 253.955 200.928 253.011 200.352C252.067 199.76 251.315 198.944 250.755 197.904C250.211 196.848 249.939 195.656 249.939 194.328ZM260.763 194.376C260.763 193.464 260.571 192.672 260.187 192C259.819 191.328 259.331 190.816 258.723 190.464C258.115 190.112 257.459 189.936 256.755 189.936C256.051 189.936 255.395 190.112 254.787 190.464C254.179 190.8 253.683 191.304 253.299 191.976C252.931 192.632 252.747 193.416 252.747 194.328C252.747 195.24 252.931 196.04 253.299 196.728C253.683 197.416 254.179 197.944 254.787 198.312C255.411 198.664 256.067 198.84 256.755 198.84C257.459 198.84 258.115 198.664 258.723 198.312C259.331 197.96 259.819 197.448 260.187 196.776C260.571 196.088 260.763 195.288 260.763 194.376ZM270.308 190.008V197.328C270.308 197.824 270.42 198.184 270.644 198.408C270.884 198.616 271.284 198.72 271.844 198.72H273.524V201H271.364C270.132 201 269.188 200.712 268.532 200.136C267.876 199.56 267.548 198.624 267.548 197.328V190.008H265.988V187.776H267.548V184.488H270.308V187.776H273.524V190.008H270.308ZM275.134 194.328C275.134 193 275.406 191.824 275.95 190.8C276.51 189.776 277.262 188.984 278.206 188.424C279.166 187.848 280.222 187.56 281.374 187.56C282.414 187.56 283.318 187.768 284.086 188.184C284.87 188.584 285.494 189.088 285.958 189.696V187.776H288.718V201H285.958V199.032C285.494 199.656 284.862 200.176 284.062 200.592C283.262 201.008 282.35 201.216 281.326 201.216C280.19 201.216 279.15 200.928 278.206 200.352C277.262 199.76 276.51 198.944 275.95 197.904C275.406 196.848 275.134 195.656 275.134 194.328ZM285.958 194.376C285.958 193.464 285.766 192.672 285.382 192C285.014 191.328 284.526 190.816 283.918 190.464C283.31 190.112 282.654 189.936 281.95 189.936C281.246 189.936 280.59 190.112 279.982 190.464C279.374 190.8 278.878 191.304 278.494 191.976C278.126 192.632 277.942 193.416 277.942 194.328C277.942 195.24 278.126 196.04 278.494 196.728C278.878 197.416 279.374 197.944 279.982 198.312C280.606 198.664 281.262 198.84 281.95 198.84C282.654 198.84 283.31 198.664 283.918 198.312C284.526 197.96 285.014 197.448 285.382 196.776C285.766 196.088 285.958 195.288 285.958 194.376ZM304.288 187.776V201H301.552V199.44C301.12 199.984 300.552 200.416 299.848 200.736C299.16 201.04 298.424 201.192 297.64 201.192C296.6 201.192 295.664 200.976 294.832 200.544C294.016 200.112 293.368 199.472 292.888 198.624C292.424 197.776 292.192 196.752 292.192 195.552V187.776H294.904V195.144C294.904 196.328 295.2 197.24 295.792 197.88C296.384 198.504 297.192 198.816 298.216 198.816C299.24 198.816 300.048 198.504 300.64 197.88C301.248 197.24 301.552 196.328 301.552 195.144V187.776H304.288ZM131.313 218.72C131.777 218.112 132.409 217.6 133.209 217.184C134.009 216.768 134.913 216.56 135.921 216.56C137.073 216.56 138.121 216.848 139.065 217.424C140.025 217.984 140.777 218.776 141.321 219.8C141.865 220.824 142.137 222 142.137 223.328C142.137 224.656 141.865 225.848 141.321 226.904C140.777 227.944 140.025 228.76 139.065 229.352C138.121 229.928 137.073 230.216 135.921 230.216C134.913 230.216 134.017 230.016 133.233 229.616C132.449 229.2 131.809 228.688 131.313 228.08V236.288H128.577V216.776H131.313V218.72ZM139.353 223.328C139.353 222.416 139.161 221.632 138.777 220.976C138.409 220.304 137.913 219.8 137.289 219.464C136.681 219.112 136.025 218.936 135.321 218.936C134.633 218.936 133.977 219.112 133.353 219.464C132.745 219.816 132.249 220.328 131.865 221C131.497 221.672 131.313 222.464 131.313 223.376C131.313 224.288 131.497 225.088 131.865 225.776C132.249 226.448 132.745 226.96 133.353 227.312C133.977 227.664 134.633 227.84 135.321 227.84C136.025 227.84 136.681 227.664 137.289 227.312C137.913 226.944 138.409 226.416 138.777 225.728C139.161 225.04 139.353 224.24 139.353 223.328ZM156.963 223.064C156.963 223.56 156.931 224.008 156.867 224.408H146.763C146.843 225.464 147.235 226.312 147.939 226.952C148.643 227.592 149.507 227.912 150.531 227.912C152.003 227.912 153.043 227.296 153.651 226.064H156.603C156.203 227.28 155.475 228.28 154.419 229.064C153.379 229.832 152.083 230.216 150.531 230.216C149.267 230.216 148.131 229.936 147.123 229.376C146.131 228.8 145.347 228 144.771 226.976C144.211 225.936 143.931 224.736 143.931 223.376C143.931 222.016 144.203 220.824 144.747 219.8C145.307 218.76 146.083 217.96 147.075 217.4C148.083 216.84 149.235 216.56 150.531 216.56C151.779 216.56 152.891 216.832 153.867 217.376C154.843 217.92 155.603 218.688 156.147 219.68C156.691 220.656 156.963 221.784 156.963 223.064ZM154.107 222.2C154.091 221.192 153.731 220.384 153.027 219.776C152.323 219.168 151.451 218.864 150.411 218.864C149.467 218.864 148.659 219.168 147.987 219.776C147.315 220.368 146.915 221.176 146.787 222.2H154.107ZM166.327 216.56C167.367 216.56 168.295 216.776 169.111 217.208C169.943 217.64 170.591 218.28 171.055 219.128C171.519 219.976 171.751 221 171.751 222.2V230H169.039V222.608C169.039 221.424 168.743 220.52 168.151 219.896C167.559 219.256 166.751 218.936 165.727 218.936C164.703 218.936 163.887 219.256 163.279 219.896C162.687 220.52 162.391 221.424 162.391 222.608V230H159.655V216.776H162.391V218.288C162.839 217.744 163.407 217.32 164.095 217.016C164.799 216.712 165.543 216.56 166.327 216.56ZM187.145 216.776L179.033 236.216H176.201L178.889 229.784L173.681 216.776H176.729L180.449 226.856L184.313 216.776H187.145ZM188.298 223.328C188.298 222 188.57 220.824 189.114 219.8C189.674 218.776 190.426 217.984 191.37 217.424C192.33 216.848 193.386 216.56 194.538 216.56C195.578 216.56 196.482 216.768 197.25 217.184C198.034 217.584 198.658 218.088 199.122 218.696V216.776H201.882V230H199.122V228.032C198.658 228.656 198.026 229.176 197.226 229.592C196.426 230.008 195.514 230.216 194.49 230.216C193.354 230.216 192.314 229.928 191.37 229.352C190.426 228.76 189.674 227.944 189.114 226.904C188.57 225.848 188.298 224.656 188.298 223.328ZM199.122 223.376C199.122 222.464 198.93 221.672 198.546 221C198.178 220.328 197.69 219.816 197.082 219.464C196.474 219.112 195.818 218.936 195.114 218.936C194.41 218.936 193.754 219.112 193.146 219.464C192.538 219.8 192.042 220.304 191.658 220.976C191.29 221.632 191.106 222.416 191.106 223.328C191.106 224.24 191.29 225.04 191.658 225.728C192.042 226.416 192.538 226.944 193.146 227.312C193.77 227.664 194.426 227.84 195.114 227.84C195.818 227.84 196.474 227.664 197.082 227.312C197.69 226.96 198.178 226.448 198.546 225.776C198.93 225.088 199.122 224.288 199.122 223.376ZM210.708 223.4L216.804 230H213.108L208.212 224.312V230H205.476V212.24H208.212V222.56L213.012 216.776H216.804L210.708 223.4ZM220.157 215.024C219.661 215.024 219.245 214.856 218.909 214.52C218.573 214.184 218.405 213.768 218.405 213.272C218.405 212.776 218.573 212.36 218.909 212.024C219.245 211.688 219.661 211.52 220.157 211.52C220.637 211.52 221.045 211.688 221.381 212.024C221.717 212.36 221.885 212.776 221.885 213.272C221.885 213.768 221.717 214.184 221.381 214.52C221.045 214.856 220.637 215.024 220.157 215.024ZM221.501 216.776V230H218.765V216.776H221.501ZM228.285 219.008V226.328C228.285 226.824 228.397 227.184 228.621 227.408C228.861 227.616 229.261 227.72 229.821 227.72H231.501V230H229.341C228.109 230 227.165 229.712 226.509 229.136C225.853 228.56 225.525 227.624 225.525 226.328V219.008H223.965V216.776H225.525V213.488H228.285V216.776H231.501V219.008H228.285Z" fill="#181817"/>
<rect y="269.808" width="360" height="138.607" fill="#FFCC00"/>
<path d="M61.9423 336.432C61.9423 337.328 61.7263 338.168 61.2943 338.952C60.8783 339.736 60.2143 340.368 59.3023 340.848C58.4063 341.328 57.2703 341.568 55.8943 341.568H53.0863V348H49.7263V331.248H55.8943C57.1903 331.248 58.2943 331.472 59.2063 331.92C60.1183 332.368 60.7983 332.984 61.2463 333.768C61.7103 334.552 61.9423 335.44 61.9423 336.432ZM55.7503 338.856C56.6783 338.856 57.3663 338.648 57.8143 338.232C58.2623 337.8 58.4863 337.2 58.4863 336.432C58.4863 334.8 57.5743 333.984 55.7503 333.984H53.0863V338.856H55.7503ZM76.6879 341.064C76.6879 341.544 76.6559 341.976 76.5919 342.36H66.8719C66.9519 343.32 67.2879 344.072 67.8799 344.616C68.4719 345.16 69.1999 345.432 70.0639 345.432C71.3119 345.432 72.1999 344.896 72.7279 343.824H76.3519C75.9679 345.104 75.2319 346.16 74.1439 346.992C73.0559 347.808 71.7199 348.216 70.1359 348.216C68.8559 348.216 67.7039 347.936 66.6799 347.376C65.6719 346.8 64.8799 345.992 64.3039 344.952C63.7439 343.912 63.4639 342.712 63.4639 341.352C63.4639 339.976 63.7439 338.768 64.3039 337.728C64.8639 336.688 65.6479 335.888 66.6559 335.328C67.6639 334.768 68.8239 334.488 70.1359 334.488C71.3999 334.488 72.5279 334.76 73.5199 335.304C74.5279 335.848 75.3039 336.624 75.8479 337.632C76.4079 338.624 76.6879 339.768 76.6879 341.064ZM73.2079 340.104C73.1919 339.24 72.8799 338.552 72.2719 338.04C71.6639 337.512 70.9199 337.248 70.0399 337.248C69.2079 337.248 68.5039 337.504 67.9279 338.016C67.3679 338.512 67.0239 339.208 66.8959 340.104H73.2079ZM82.5004 336.768C82.9324 336.064 83.4924 335.512 84.1804 335.112C84.8844 334.712 85.6844 334.512 86.5804 334.512V338.04H85.6924C84.6364 338.04 83.8364 338.288 83.2924 338.784C82.7644 339.28 82.5004 340.144 82.5004 341.376V348H79.1404V334.704H82.5004V336.768ZM93.9315 348.216C92.8435 348.216 91.8675 348.024 91.0035 347.64C90.1395 347.24 89.4515 346.704 88.9395 346.032C88.4435 345.36 88.1715 344.616 88.1235 343.8H91.5075C91.5715 344.312 91.8195 344.736 92.2515 345.072C92.6995 345.408 93.2515 345.576 93.9075 345.576C94.5475 345.576 95.0435 345.448 95.3955 345.192C95.7635 344.936 95.9475 344.608 95.9475 344.208C95.9475 343.776 95.7235 343.456 95.2755 343.248C94.8435 343.024 94.1475 342.784 93.1875 342.528C92.1955 342.288 91.3795 342.04 90.7395 341.784C90.1155 341.528 89.5715 341.136 89.1075 340.608C88.6595 340.08 88.4355 339.368 88.4355 338.472C88.4355 337.736 88.6435 337.064 89.0595 336.456C89.4915 335.848 90.0995 335.368 90.8835 335.016C91.6835 334.664 92.6195 334.488 93.6915 334.488C95.2755 334.488 96.5395 334.888 97.4835 335.688C98.4275 336.472 98.9475 337.536 99.0435 338.88H95.8275C95.7795 338.352 95.5555 337.936 95.1555 337.632C94.7715 337.312 94.2515 337.152 93.5955 337.152C92.9875 337.152 92.5155 337.264 92.1795 337.488C91.8595 337.712 91.6995 338.024 91.6995 338.424C91.6995 338.872 91.9235 339.216 92.3715 339.456C92.8195 339.68 93.5155 339.912 94.4595 340.152C95.4195 340.392 96.2115 340.64 96.8355 340.896C97.4595 341.152 97.9955 341.552 98.4435 342.096C98.9075 342.624 99.1475 343.328 99.1635 344.208C99.1635 344.976 98.9475 345.664 98.5155 346.272C98.0995 346.88 97.4915 347.36 96.6915 347.712C95.9075 348.048 94.9875 348.216 93.9315 348.216ZM114.642 334.704L106.41 354.288H102.834L105.714 347.664L100.386 334.704H104.154L107.586 343.992L111.066 334.704H114.642ZM115.589 341.304C115.589 339.96 115.853 338.768 116.381 337.728C116.925 336.688 117.653 335.888 118.565 335.328C119.493 334.768 120.525 334.488 121.661 334.488C122.653 334.488 123.517 334.688 124.253 335.088C125.005 335.488 125.605 335.992 126.053 336.6V334.704H129.437V348H126.053V346.056C125.621 346.68 125.021 347.2 124.253 347.616C123.501 348.016 122.629 348.216 121.637 348.216C120.517 348.216 119.493 347.928 118.565 347.352C117.653 346.776 116.925 345.968 116.381 344.928C115.853 343.872 115.589 342.664 115.589 341.304ZM126.053 341.352C126.053 340.536 125.893 339.84 125.573 339.264C125.253 338.672 124.821 338.224 124.277 337.92C123.733 337.6 123.149 337.44 122.525 337.44C121.901 337.44 121.325 337.592 120.797 337.896C120.269 338.2 119.837 338.648 119.501 339.24C119.181 339.816 119.021 340.504 119.021 341.304C119.021 342.104 119.181 342.808 119.501 343.416C119.837 344.008 120.269 344.464 120.797 344.784C121.341 345.104 121.917 345.264 122.525 345.264C123.149 345.264 123.733 345.112 124.277 344.808C124.821 344.488 125.253 344.04 125.573 343.464C125.893 342.872 126.053 342.168 126.053 341.352ZM136.079 336.768C136.511 336.064 137.071 335.512 137.759 335.112C138.463 334.712 139.263 334.512 140.159 334.512V338.04H139.271C138.215 338.04 137.415 338.288 136.871 338.784C136.343 339.28 136.079 340.144 136.079 341.376V348H132.719V334.704H136.079V336.768ZM141.558 341.304C141.558 339.96 141.822 338.768 142.35 337.728C142.894 336.688 143.622 335.888 144.534 335.328C145.462 334.768 146.494 334.488 147.63 334.488C148.622 334.488 149.486 334.688 150.222 335.088C150.974 335.488 151.574 335.992 152.022 336.6V334.704H155.406V348H152.022V346.056C151.59 346.68 150.99 347.2 150.222 347.616C149.47 348.016 148.598 348.216 147.606 348.216C146.486 348.216 145.462 347.928 144.534 347.352C143.622 346.776 142.894 345.968 142.35 344.928C141.822 343.872 141.558 342.664 141.558 341.304ZM152.022 341.352C152.022 340.536 151.862 339.84 151.542 339.264C151.222 338.672 150.79 338.224 150.246 337.92C149.702 337.6 149.118 337.44 148.494 337.44C147.87 337.44 147.294 337.592 146.766 337.896C146.238 338.2 145.806 338.648 145.47 339.24C145.15 339.816 144.99 340.504 144.99 341.304C144.99 342.104 145.15 342.808 145.47 343.416C145.806 344.008 146.238 344.464 146.766 344.784C147.31 345.104 147.886 345.264 148.494 345.264C149.118 345.264 149.702 345.112 150.246 344.808C150.79 344.488 151.222 344.04 151.542 343.464C151.862 342.872 152.022 342.168 152.022 341.352ZM162.599 337.464V343.896C162.599 344.344 162.703 344.672 162.911 344.88C163.135 345.072 163.503 345.168 164.015 345.168H165.575V348H163.463C160.631 348 159.215 346.624 159.215 343.872V337.464H157.631V334.704H159.215V331.416H162.599V334.704H165.575V337.464H162.599ZM167.128 341.304C167.128 339.96 167.392 338.768 167.92 337.728C168.464 336.688 169.192 335.888 170.104 335.328C171.032 334.768 172.064 334.488 173.2 334.488C174.192 334.488 175.056 334.688 175.792 335.088C176.544 335.488 177.144 335.992 177.592 336.6V334.704H180.976V348H177.592V346.056C177.16 346.68 176.56 347.2 175.792 347.616C175.04 348.016 174.168 348.216 173.176 348.216C172.056 348.216 171.032 347.928 170.104 347.352C169.192 346.776 168.464 345.968 167.92 344.928C167.392 343.872 167.128 342.664 167.128 341.304ZM177.592 341.352C177.592 340.536 177.432 339.84 177.112 339.264C176.792 338.672 176.36 338.224 175.816 337.92C175.272 337.6 174.688 337.44 174.064 337.44C173.44 337.44 172.864 337.592 172.336 337.896C171.808 338.2 171.376 338.648 171.04 339.24C170.72 339.816 170.56 340.504 170.56 341.304C170.56 342.104 170.72 342.808 171.04 343.416C171.376 344.008 171.808 344.464 172.336 344.784C172.88 345.104 173.456 345.264 174.064 345.264C174.688 345.264 175.272 345.112 175.816 344.808C176.36 344.488 176.792 344.04 177.112 343.464C177.432 342.872 177.592 342.168 177.592 341.352ZM191.626 334.512C193.21 334.512 194.49 335.016 195.466 336.024C196.442 337.016 196.93 338.408 196.93 340.2V348H193.57V340.656C193.57 339.6 193.306 338.792 192.778 338.232C192.25 337.656 191.53 337.368 190.618 337.368C189.69 337.368 188.954 337.656 188.41 338.232C187.882 338.792 187.618 339.6 187.618 340.656V348H184.258V334.704H187.618V336.36C188.066 335.784 188.634 335.336 189.322 335.016C190.026 334.68 190.794 334.512 191.626 334.512ZM218.06 336.432C218.06 337.328 217.844 338.168 217.411 338.952C216.996 339.736 216.332 340.368 215.42 340.848C214.524 341.328 213.388 341.568 212.012 341.568H209.204V348H205.844V331.248H212.012C213.308 331.248 214.412 331.472 215.324 331.92C216.236 332.368 216.916 332.984 217.364 333.768C217.828 334.552 218.06 335.44 218.06 336.432ZM211.868 338.856C212.796 338.856 213.484 338.648 213.932 338.232C214.38 337.8 214.604 337.2 214.604 336.432C214.604 334.8 213.692 333.984 211.868 333.984H209.204V338.856H211.868ZM232.805 341.064C232.805 341.544 232.773 341.976 232.709 342.36H222.989C223.069 343.32 223.405 344.072 223.997 344.616C224.589 345.16 225.317 345.432 226.181 345.432C227.429 345.432 228.317 344.896 228.845 343.824H232.469C232.085 345.104 231.349 346.16 230.261 346.992C229.173 347.808 227.837 348.216 226.253 348.216C224.973 348.216 223.821 347.936 222.797 347.376C221.789 346.8 220.997 345.992 220.421 344.952C219.861 343.912 219.581 342.712 219.581 341.352C219.581 339.976 219.861 338.768 220.421 337.728C220.981 336.688 221.765 335.888 222.773 335.328C223.781 334.768 224.941 334.488 226.253 334.488C227.517 334.488 228.645 334.76 229.637 335.304C230.645 335.848 231.421 336.624 231.965 337.632C232.525 338.624 232.805 339.768 232.805 341.064ZM229.325 340.104C229.309 339.24 228.997 338.552 228.389 338.04C227.781 337.512 227.037 337.248 226.157 337.248C225.325 337.248 224.621 337.504 224.045 338.016C223.485 338.512 223.141 339.208 223.013 340.104H229.325ZM239.17 337.464V343.896C239.17 344.344 239.274 344.672 239.482 344.88C239.706 345.072 240.074 345.168 240.586 345.168H242.146V348H240.034C237.202 348 235.786 346.624 235.786 343.872V337.464H234.202V334.704H235.786V331.416H239.17V334.704H242.146V337.464H239.17ZM264.177 331.248V348H260.817V340.872H253.641V348H250.281V331.248H253.641V338.136H260.817V331.248H264.177ZM273.388 348.216C272.108 348.216 270.956 347.936 269.932 347.376C268.908 346.8 268.1 345.992 267.508 344.952C266.932 343.912 266.644 342.712 266.644 341.352C266.644 339.992 266.94 338.792 267.532 337.752C268.14 336.712 268.964 335.912 270.004 335.352C271.044 334.776 272.204 334.488 273.484 334.488C274.764 334.488 275.924 334.776 276.964 335.352C278.004 335.912 278.82 336.712 279.412 337.752C280.02 338.792 280.324 339.992 280.324 341.352C280.324 342.712 280.012 343.912 279.388 344.952C278.78 345.992 277.948 346.8 276.892 347.376C275.852 347.936 274.684 348.216 273.388 348.216ZM273.388 345.288C273.996 345.288 274.564 345.144 275.092 344.856C275.636 344.552 276.068 344.104 276.388 343.512C276.708 342.92 276.868 342.2 276.868 341.352C276.868 340.088 276.532 339.12 275.86 338.448C275.204 337.76 274.396 337.416 273.436 337.416C272.476 337.416 271.668 337.76 271.012 338.448C270.372 339.12 270.052 340.088 270.052 341.352C270.052 342.616 270.364 343.592 270.988 344.28C271.628 344.952 272.428 345.288 273.388 345.288ZM286.701 337.464V343.896C286.701 344.344 286.805 344.672 287.013 344.88C287.237 345.072 287.605 345.168 288.117 345.168H289.677V348H287.565C284.733 348 283.317 346.624 283.317 343.872V337.464H281.733V334.704H283.317V331.416H286.701V334.704H289.677V337.464H286.701ZM304.454 341.064C304.454 341.544 304.422 341.976 304.358 342.36H294.638C294.718 343.32 295.054 344.072 295.646 344.616C296.238 345.16 296.966 345.432 297.83 345.432C299.078 345.432 299.966 344.896 300.494 343.824H304.118C303.734 345.104 302.998 346.16 301.91 346.992C300.822 347.808 299.486 348.216 297.902 348.216C296.622 348.216 295.47 347.936 294.446 347.376C293.438 346.8 292.646 345.992 292.07 344.952C291.51 343.912 291.229 342.712 291.229 341.352C291.229 339.976 291.51 338.768 292.07 337.728C292.63 336.688 293.414 335.888 294.422 335.328C295.43 334.768 296.59 334.488 297.902 334.488C299.166 334.488 300.294 334.76 301.286 335.304C302.294 335.848 303.07 336.624 303.614 337.632C304.174 338.624 304.454 339.768 304.454 341.064ZM300.974 340.104C300.958 339.24 300.646 338.552 300.038 338.04C299.43 337.512 298.686 337.248 297.806 337.248C296.974 337.248 296.27 337.504 295.694 338.016C295.134 338.512 294.79 339.208 294.662 340.104H300.974ZM310.266 330.24V348H306.906V330.24H310.266Z" fill="#FDFDFD"/>
</svg>
