<svg width="360" height="409" viewBox="0 0 360 409" fill="none" xmlns="http://www.w3.org/2000/svg">
<path d="M0 33.188C0 14.9626 14.7746 0.187988 33 0.187988H327C345.225 0.187988 360 14.9626 360 33.188V269.996H0V33.188Z" fill="#FFF1A6"/>
<path d="M67.8201 85L61.3641 77.536V85H58.6281V68.32H61.3641V75.928L67.8441 68.32H71.2761L64.0281 76.672L71.3961 85H67.8201ZM85.7916 71.776V85H83.0556V83.44C82.6236 83.984 82.0556 84.416 81.3516 84.736C80.6636 85.04 79.9276 85.192 79.1436 85.192C78.1036 85.192 77.1676 84.976 76.3356 84.544C75.5196 84.112 74.8716 83.472 74.3916 82.624C73.9276 81.776 73.6956 80.752 73.6956 79.552V71.776H76.4076V79.144C76.4076 80.328 76.7036 81.24 77.2956 81.88C77.8876 82.504 78.6956 82.816 79.7196 82.816C80.7436 82.816 81.5516 82.504 82.1436 81.88C82.7516 81.24 83.0556 80.328 83.0556 79.144V71.776H85.7916ZM88.4896 78.376C88.4896 77.016 88.7616 75.824 89.3056 74.8C89.8656 73.76 90.6336 72.96 91.6096 72.4C92.5856 71.84 93.7056 71.56 94.9696 71.56C96.5696 71.56 97.8896 71.944 98.9296 72.712C99.9856 73.464 100.698 74.544 101.066 75.952H98.1136C97.8736 75.296 97.4896 74.784 96.9616 74.416C96.4336 74.048 95.7696 73.864 94.9696 73.864C93.8496 73.864 92.9536 74.264 92.2816 75.064C91.6256 75.848 91.2976 76.952 91.2976 78.376C91.2976 79.8 91.6256 80.912 92.2816 81.712C92.9536 82.512 93.8496 82.912 94.9696 82.912C96.5536 82.912 97.6016 82.216 98.1136 80.824H101.066C100.682 82.168 99.9616 83.24 98.9056 84.04C97.8496 84.824 96.5376 85.216 94.9696 85.216C93.7056 85.216 92.5856 84.936 91.6096 84.376C90.6336 83.8 89.8656 83 89.3056 81.976C88.7616 80.936 88.4896 79.736 88.4896 78.376ZM105.184 70.024C104.688 70.024 104.272 69.856 103.936 69.52C103.6 69.184 103.432 68.768 103.432 68.272C103.432 67.776 103.6 67.36 103.936 67.024C104.272 66.688 104.688 66.52 105.184 66.52C105.664 66.52 106.072 66.688 106.408 67.024C106.744 67.36 106.912 67.776 106.912 68.272C106.912 68.768 106.744 69.184 106.408 69.52C106.072 69.856 105.664 70.024 105.184 70.024ZM106.528 71.776V85H103.792V71.776H106.528ZM116.792 71.56C117.832 71.56 118.76 71.776 119.576 72.208C120.408 72.64 121.056 73.28 121.52 74.128C121.984 74.976 122.216 76 122.216 77.2V85H119.504V77.608C119.504 76.424 119.208 75.52 118.616 74.896C118.024 74.256 117.216 73.936 116.192 73.936C115.168 73.936 114.352 74.256 113.744 74.896C113.152 75.52 112.856 76.424 112.856 77.608V85H110.12V71.776H112.856V73.288C113.304 72.744 113.872 72.32 114.56 72.016C115.264 71.712 116.008 71.56 116.792 71.56ZM131.034 71.56C132.058 71.56 132.962 71.768 133.746 72.184C134.546 72.584 135.17 73.088 135.618 73.696V71.776H138.378V85.216C138.378 86.432 138.122 87.512 137.61 88.456C137.098 89.416 136.354 90.168 135.378 90.712C134.418 91.256 133.266 91.528 131.922 91.528C130.13 91.528 128.642 91.104 127.458 90.256C126.274 89.424 125.602 88.288 125.442 86.848H128.154C128.362 87.536 128.802 88.088 129.474 88.504C130.162 88.936 130.978 89.152 131.922 89.152C133.026 89.152 133.914 88.816 134.586 88.144C135.274 87.472 135.618 86.496 135.618 85.216V83.008C135.154 83.632 134.522 84.16 133.722 84.592C132.938 85.008 132.042 85.216 131.034 85.216C129.882 85.216 128.826 84.928 127.866 84.352C126.922 83.76 126.17 82.944 125.61 81.904C125.066 80.848 124.794 79.656 124.794 78.328C124.794 77 125.066 75.824 125.61 74.8C126.17 73.776 126.922 72.984 127.866 72.424C128.826 71.848 129.882 71.56 131.034 71.56ZM135.618 78.376C135.618 77.464 135.426 76.672 135.042 76C134.674 75.328 134.186 74.816 133.578 74.464C132.97 74.112 132.314 73.936 131.61 73.936C130.906 73.936 130.25 74.112 129.642 74.464C129.034 74.8 128.538 75.304 128.154 75.976C127.786 76.632 127.602 77.416 127.602 78.328C127.602 79.24 127.786 80.04 128.154 80.728C128.538 81.416 129.034 81.944 129.642 82.312C130.266 82.664 130.922 82.84 131.61 82.84C132.314 82.84 132.97 82.664 133.578 82.312C134.186 81.96 134.674 81.448 135.042 80.776C135.426 80.088 135.618 79.288 135.618 78.376ZM155.046 71.56C156.054 71.56 156.95 71.776 157.734 72.208C158.534 72.64 159.158 73.28 159.606 74.128C160.07 74.976 160.302 76 160.302 77.2V85H157.59V77.608C157.59 76.424 157.294 75.52 156.702 74.896C156.11 74.256 155.302 73.936 154.278 73.936C153.254 73.936 152.438 74.256 151.83 74.896C151.238 75.52 150.942 76.424 150.942 77.608V85H148.206V67.24H150.942V73.312C151.406 72.752 151.99 72.32 152.694 72.016C153.414 71.712 154.198 71.56 155.046 71.56ZM162.88 78.328C162.88 77 163.152 75.824 163.696 74.8C164.256 73.776 165.008 72.984 165.952 72.424C166.912 71.848 167.968 71.56 169.12 71.56C170.16 71.56 171.064 71.768 171.832 72.184C172.616 72.584 173.24 73.088 173.704 73.696V71.776H176.464V85H173.704V83.032C173.24 83.656 172.608 84.176 171.808 84.592C171.008 85.008 170.096 85.216 169.072 85.216C167.936 85.216 166.896 84.928 165.952 84.352C165.008 83.76 164.256 82.944 163.696 81.904C163.152 80.848 162.88 79.656 162.88 78.328ZM173.704 78.376C173.704 77.464 173.512 76.672 173.128 76C172.76 75.328 172.272 74.816 171.664 74.464C171.056 74.112 170.4 73.936 169.696 73.936C168.992 73.936 168.336 74.112 167.728 74.464C167.12 74.8 166.624 75.304 166.24 75.976C165.872 76.632 165.688 77.416 165.688 78.328C165.688 79.24 165.872 80.04 166.24 80.728C166.624 81.416 167.12 81.944 167.728 82.312C168.352 82.664 169.008 82.84 169.696 82.84C170.4 82.84 171.056 82.664 171.664 82.312C172.272 81.96 172.76 81.448 173.128 80.776C173.512 80.088 173.704 79.288 173.704 78.376ZM182.794 73.696C183.194 73.024 183.722 72.504 184.378 72.136C185.05 71.752 185.842 71.56 186.754 71.56V74.392H186.058C184.986 74.392 184.17 74.664 183.61 75.208C183.066 75.752 182.794 76.696 182.794 78.04V85H180.058V71.776H182.794V73.696ZM201.245 71.776V85H198.509V83.44C198.077 83.984 197.509 84.416 196.805 84.736C196.117 85.04 195.381 85.192 194.597 85.192C193.557 85.192 192.621 84.976 191.789 84.544C190.973 84.112 190.325 83.472 189.845 82.624C189.381 81.776 189.149 80.752 189.149 79.552V71.776H191.861V79.144C191.861 80.328 192.157 81.24 192.749 81.88C193.341 82.504 194.149 82.816 195.173 82.816C196.197 82.816 197.005 82.504 197.597 81.88C198.205 81.24 198.509 80.328 198.509 79.144V71.776H201.245ZM209.655 85.216C208.615 85.216 207.679 85.032 206.847 84.664C206.031 84.28 205.383 83.768 204.903 83.128C204.423 82.472 204.167 81.744 204.135 80.944H206.967C207.015 81.504 207.279 81.976 207.759 82.36C208.255 82.728 208.871 82.912 209.607 82.912C210.375 82.912 210.967 82.768 211.383 82.48C211.815 82.176 212.031 81.792 212.031 81.328C212.031 80.832 211.791 80.464 211.311 80.224C210.847 79.984 210.103 79.72 209.079 79.432C208.087 79.16 207.279 78.896 206.655 78.64C206.031 78.384 205.487 77.992 205.023 77.464C204.575 76.936 204.351 76.24 204.351 75.376C204.351 74.672 204.559 74.032 204.975 73.456C205.391 72.864 205.983 72.4 206.751 72.064C207.535 71.728 208.431 71.56 209.439 71.56C210.943 71.56 212.151 71.944 213.063 72.712C213.991 73.464 214.487 74.496 214.551 75.808H211.815C211.767 75.216 211.527 74.744 211.095 74.392C210.663 74.04 210.079 73.864 209.343 73.864C208.623 73.864 208.071 74 207.687 74.272C207.303 74.544 207.111 74.904 207.111 75.352C207.111 75.704 207.239 76 207.495 76.24C207.751 76.48 208.063 76.672 208.431 76.816C208.799 76.944 209.343 77.112 210.063 77.32C211.023 77.576 211.807 77.84 212.415 78.112C213.039 78.368 213.575 78.752 214.023 79.264C214.471 79.776 214.703 80.456 214.719 81.304C214.719 82.056 214.511 82.728 214.095 83.32C213.679 83.912 213.087 84.376 212.319 84.712C211.567 85.048 210.679 85.216 209.655 85.216ZM222.997 78.328C222.997 77 223.269 75.824 223.813 74.8C224.373 73.776 225.125 72.984 226.069 72.424C227.029 71.848 228.093 71.56 229.261 71.56C230.125 71.56 230.973 71.752 231.805 72.136C232.653 72.504 233.325 73 233.821 73.624V67.24H236.581V85H233.821V83.008C233.373 83.648 232.749 84.176 231.949 84.592C231.165 85.008 230.261 85.216 229.237 85.216C228.085 85.216 227.029 84.928 226.069 84.352C225.125 83.76 224.373 82.944 223.813 81.904C223.269 80.848 222.997 79.656 222.997 78.328ZM233.821 78.376C233.821 77.464 233.629 76.672 233.245 76C232.877 75.328 232.389 74.816 231.781 74.464C231.173 74.112 230.517 73.936 229.813 73.936C229.109 73.936 228.453 74.112 227.845 74.464C227.237 74.8 226.741 75.304 226.357 75.976C225.989 76.632 225.805 77.416 225.805 78.328C225.805 79.24 225.989 80.04 226.357 80.728C226.741 81.416 227.237 81.944 227.845 82.312C228.469 82.664 229.125 82.84 229.813 82.84C230.517 82.84 231.173 82.664 231.781 82.312C232.389 81.96 232.877 81.448 233.245 80.776C233.629 80.088 233.821 79.288 233.821 78.376ZM239.263 78.328C239.263 77 239.535 75.824 240.079 74.8C240.639 73.776 241.391 72.984 242.335 72.424C243.295 71.848 244.351 71.56 245.503 71.56C246.543 71.56 247.447 71.768 248.215 72.184C248.999 72.584 249.623 73.088 250.087 73.696V71.776H252.847V85H250.087V83.032C249.623 83.656 248.991 84.176 248.191 84.592C247.391 85.008 246.479 85.216 245.455 85.216C244.319 85.216 243.279 84.928 242.335 84.352C241.391 83.76 240.639 82.944 240.079 81.904C239.535 80.848 239.263 79.656 239.263 78.328ZM250.087 78.376C250.087 77.464 249.895 76.672 249.511 76C249.143 75.328 248.655 74.816 248.047 74.464C247.439 74.112 246.783 73.936 246.079 73.936C245.375 73.936 244.719 74.112 244.111 74.464C243.503 74.8 243.007 75.304 242.623 75.976C242.255 76.632 242.071 77.416 242.071 78.328C242.071 79.24 242.255 80.04 242.623 80.728C243.007 81.416 243.503 81.944 244.111 82.312C244.735 82.664 245.391 82.84 246.079 82.84C246.783 82.84 247.439 82.664 248.047 82.312C248.655 81.96 249.143 81.448 249.511 80.776C249.895 80.088 250.087 79.288 250.087 78.376ZM259.177 67.24V85H256.441V67.24H259.177ZM261.857 78.328C261.857 77 262.129 75.824 262.673 74.8C263.233 73.776 263.985 72.984 264.929 72.424C265.889 71.848 266.945 71.56 268.097 71.56C269.137 71.56 270.041 71.768 270.809 72.184C271.593 72.584 272.217 73.088 272.681 73.696V71.776H275.441V85H272.681V83.032C272.217 83.656 271.585 84.176 270.785 84.592C269.985 85.008 269.073 85.216 268.049 85.216C266.913 85.216 265.873 84.928 264.929 84.352C263.985 83.76 263.233 82.944 262.673 81.904C262.129 80.848 261.857 79.656 261.857 78.328ZM272.681 78.376C272.681 77.464 272.489 76.672 272.105 76C271.737 75.328 271.249 74.816 270.641 74.464C270.033 74.112 269.377 73.936 268.673 73.936C267.969 73.936 267.313 74.112 266.705 74.464C266.097 74.8 265.601 75.304 265.217 75.976C264.849 76.632 264.665 77.416 264.665 78.328C264.665 79.24 264.849 80.04 265.217 80.728C265.601 81.416 266.097 81.944 266.705 82.312C267.329 82.664 267.985 82.84 268.673 82.84C269.377 82.84 270.033 82.664 270.641 82.312C271.249 81.96 271.737 81.448 272.105 80.776C272.489 80.088 272.681 79.288 272.681 78.376ZM295.042 71.56C296.082 71.56 297.01 71.776 297.826 72.208C298.658 72.64 299.306 73.28 299.77 74.128C300.25 74.976 300.49 76 300.49 77.2V85H297.778V77.608C297.778 76.424 297.482 75.52 296.89 74.896C296.298 74.256 295.49 73.936 294.466 73.936C293.442 73.936 292.626 74.256 292.018 74.896C291.426 75.52 291.13 76.424 291.13 77.608V85H288.418V77.608C288.418 76.424 288.122 75.52 287.53 74.896C286.938 74.256 286.13 73.936 285.106 73.936C284.082 73.936 283.266 74.256 282.658 74.896C282.066 75.52 281.77 76.424 281.77 77.608V85H279.034V71.776H281.77V73.288C282.218 72.744 282.786 72.32 283.474 72.016C284.162 71.712 284.898 71.56 285.682 71.56C286.738 71.56 287.682 71.784 288.514 72.232C289.346 72.68 289.986 73.328 290.434 74.176C290.834 73.376 291.458 72.744 292.306 72.28C293.154 71.8 294.066 71.56 295.042 71.56ZM129.04 107.4L135.136 114H131.44L126.544 108.312V114H123.808V96.24H126.544V106.56L131.344 100.776H135.136L129.04 107.4ZM149.217 107.064C149.217 107.56 149.185 108.008 149.121 108.408H139.017C139.097 109.464 139.489 110.312 140.193 110.952C140.897 111.592 141.761 111.912 142.785 111.912C144.257 111.912 145.297 111.296 145.905 110.064H148.857C148.457 111.28 147.729 112.28 146.673 113.064C145.633 113.832 144.337 114.216 142.785 114.216C141.521 114.216 140.385 113.936 139.377 113.376C138.385 112.8 137.601 112 137.025 110.976C136.465 109.936 136.185 108.736 136.185 107.376C136.185 106.016 136.457 104.824 137.001 103.8C137.561 102.76 138.337 101.96 139.329 101.4C140.337 100.84 141.489 100.56 142.785 100.56C144.033 100.56 145.145 100.832 146.121 101.376C147.097 101.92 147.857 102.688 148.401 103.68C148.945 104.656 149.217 105.784 149.217 107.064ZM146.361 106.2C146.345 105.192 145.985 104.384 145.281 103.776C144.577 103.168 143.705 102.864 142.665 102.864C141.721 102.864 140.913 103.168 140.241 103.776C139.569 104.368 139.169 105.176 139.041 106.2H146.361ZM150.997 107.328C150.997 106 151.269 104.824 151.813 103.8C152.373 102.776 153.125 101.984 154.069 101.424C155.029 100.848 156.085 100.56 157.237 100.56C158.277 100.56 159.181 100.768 159.949 101.184C160.733 101.584 161.357 102.088 161.821 102.696V100.776H164.581V114H161.821V112.032C161.357 112.656 160.725 113.176 159.925 113.592C159.125 114.008 158.213 114.216 157.189 114.216C156.053 114.216 155.013 113.928 154.069 113.352C153.125 112.76 152.373 111.944 151.813 110.904C151.269 109.848 150.997 108.656 150.997 107.328ZM161.821 107.376C161.821 106.464 161.629 105.672 161.245 105C160.877 104.328 160.389 103.816 159.781 103.464C159.173 103.112 158.517 102.936 157.813 102.936C157.109 102.936 156.453 103.112 155.845 103.464C155.237 103.8 154.741 104.304 154.357 104.976C153.989 105.632 153.805 106.416 153.805 107.328C153.805 108.24 153.989 109.04 154.357 109.728C154.741 110.416 155.237 110.944 155.845 111.312C156.469 111.664 157.125 111.84 157.813 111.84C158.517 111.84 159.173 111.664 159.781 111.312C160.389 110.96 160.877 110.448 161.245 109.776C161.629 109.088 161.821 108.288 161.821 107.376ZM167.263 107.328C167.263 106 167.535 104.824 168.079 103.8C168.639 102.776 169.391 101.984 170.335 101.424C171.295 100.848 172.359 100.56 173.527 100.56C174.391 100.56 175.239 100.752 176.071 101.136C176.919 101.504 177.591 102 178.087 102.624V96.24H180.847V114H178.087V112.008C177.639 112.648 177.015 113.176 176.215 113.592C175.431 114.008 174.527 114.216 173.503 114.216C172.351 114.216 171.295 113.928 170.335 113.352C169.391 112.76 168.639 111.944 168.079 110.904C167.535 109.848 167.263 108.656 167.263 107.328ZM178.087 107.376C178.087 106.464 177.895 105.672 177.511 105C177.143 104.328 176.655 103.816 176.047 103.464C175.439 103.112 174.783 102.936 174.079 102.936C173.375 102.936 172.719 103.112 172.111 103.464C171.503 103.8 171.007 104.304 170.623 104.976C170.255 105.632 170.071 106.416 170.071 107.328C170.071 108.24 170.255 109.04 170.623 109.728C171.007 110.416 171.503 110.944 172.111 111.312C172.735 111.664 173.391 111.84 174.079 111.84C174.783 111.84 175.439 111.664 176.047 111.312C176.655 110.96 177.143 110.448 177.511 109.776C177.895 109.088 178.087 108.288 178.087 107.376ZM183.529 107.328C183.529 106 183.801 104.824 184.345 103.8C184.905 102.776 185.657 101.984 186.601 101.424C187.561 100.848 188.617 100.56 189.769 100.56C190.809 100.56 191.713 100.768 192.481 101.184C193.265 101.584 193.889 102.088 194.353 102.696V100.776H197.113V114H194.353V112.032C193.889 112.656 193.257 113.176 192.457 113.592C191.657 114.008 190.745 114.216 189.721 114.216C188.585 114.216 187.545 113.928 186.601 113.352C185.657 112.76 184.905 111.944 184.345 110.904C183.801 109.848 183.529 108.656 183.529 107.328ZM194.353 107.376C194.353 106.464 194.161 105.672 193.777 105C193.409 104.328 192.921 103.816 192.313 103.464C191.705 103.112 191.049 102.936 190.345 102.936C189.641 102.936 188.985 103.112 188.377 103.464C187.769 103.8 187.273 104.304 186.889 104.976C186.521 105.632 186.337 106.416 186.337 107.328C186.337 108.24 186.521 109.04 186.889 109.728C187.273 110.416 187.769 110.944 188.377 111.312C189.001 111.664 189.657 111.84 190.345 111.84C191.049 111.84 191.705 111.664 192.313 111.312C192.921 110.96 193.409 110.448 193.777 109.776C194.161 109.088 194.353 108.288 194.353 107.376ZM199.794 107.328C199.794 106 200.066 104.824 200.61 103.8C201.17 102.776 201.922 101.984 202.866 101.424C203.826 100.848 204.882 100.56 206.034 100.56C207.074 100.56 207.978 100.768 208.746 101.184C209.53 101.584 210.154 102.088 210.618 102.696V100.776H213.378V114H210.618V112.032C210.154 112.656 209.522 113.176 208.722 113.592C207.922 114.008 207.01 114.216 205.986 114.216C204.85 114.216 203.81 113.928 202.866 113.352C201.922 112.76 201.17 111.944 200.61 110.904C200.066 109.848 199.794 108.656 199.794 107.328ZM210.618 107.376C210.618 106.464 210.426 105.672 210.042 105C209.674 104.328 209.186 103.816 208.578 103.464C207.97 103.112 207.314 102.936 206.61 102.936C205.906 102.936 205.25 103.112 204.642 103.464C204.034 103.8 203.538 104.304 203.154 104.976C202.786 105.632 202.602 106.416 202.602 107.328C202.602 108.24 202.786 109.04 203.154 109.728C203.538 110.416 204.034 110.944 204.642 111.312C205.266 111.664 205.922 111.84 206.61 111.84C207.314 111.84 207.97 111.664 208.578 111.312C209.186 110.96 209.674 110.448 210.042 109.776C210.426 109.088 210.618 108.288 210.618 107.376ZM223.644 100.56C224.684 100.56 225.612 100.776 226.428 101.208C227.26 101.64 227.908 102.28 228.372 103.128C228.836 103.976 229.068 105 229.068 106.2V114H226.356V106.608C226.356 105.424 226.06 104.52 225.468 103.896C224.876 103.256 224.068 102.936 223.044 102.936C222.02 102.936 221.204 103.256 220.596 103.896C220.004 104.52 219.708 105.424 219.708 106.608V114H216.972V100.776H219.708V102.288C220.156 101.744 220.724 101.32 221.412 101.016C222.116 100.712 222.86 100.56 223.644 100.56ZM77.7016 143.216C76.6616 143.216 75.7256 143.032 74.8936 142.664C74.0776 142.28 73.4296 141.768 72.9496 141.128C72.4696 140.472 72.2136 139.744 72.1816 138.944H75.0136C75.0616 139.504 75.3256 139.976 75.8056 140.36C76.3016 140.728 76.9176 140.912 77.6536 140.912C78.4216 140.912 79.0136 140.768 79.4296 140.48C79.8616 140.176 80.0776 139.792 80.0776 139.328C80.0776 138.832 79.8376 138.464 79.3576 138.224C78.8936 137.984 78.1496 137.72 77.1256 137.432C76.1336 137.16 75.3256 136.896 74.7016 136.64C74.0776 136.384 73.5336 135.992 73.0696 135.464C72.6216 134.936 72.3976 134.24 72.3976 133.376C72.3976 132.672 72.6056 132.032 73.0216 131.456C73.4376 130.864 74.0296 130.4 74.7976 130.064C75.5816 129.728 76.4776 129.56 77.4856 129.56C78.9896 129.56 80.1976 129.944 81.1096 130.712C82.0376 131.464 82.5336 132.496 82.5976 133.808H79.8616C79.8136 133.216 79.5736 132.744 79.1416 132.392C78.7096 132.04 78.1256 131.864 77.3896 131.864C76.6696 131.864 76.1176 132 75.7336 132.272C75.3496 132.544 75.1576 132.904 75.1576 133.352C75.1576 133.704 75.2856 134 75.5416 134.24C75.7976 134.48 76.1096 134.672 76.4776 134.816C76.8456 134.944 77.3896 135.112 78.1096 135.32C79.0696 135.576 79.8536 135.84 80.4616 136.112C81.0856 136.368 81.6216 136.752 82.0696 137.264C82.5176 137.776 82.7496 138.456 82.7656 139.304C82.7656 140.056 82.5576 140.728 82.1416 141.32C81.7256 141.912 81.1336 142.376 80.3656 142.712C79.6136 143.048 78.7256 143.216 77.7016 143.216ZM97.8419 136.064C97.8419 136.56 97.8099 137.008 97.7459 137.408H87.6419C87.7219 138.464 88.1139 139.312 88.8179 139.952C89.5219 140.592 90.3859 140.912 91.4099 140.912C92.8819 140.912 93.9219 140.296 94.5299 139.064H97.4819C97.0819 140.28 96.3539 141.28 95.2979 142.064C94.2579 142.832 92.9619 143.216 91.4099 143.216C90.1459 143.216 89.0099 142.936 88.0019 142.376C87.0099 141.8 86.2259 141 85.6499 139.976C85.0899 138.936 84.8099 137.736 84.8099 136.376C84.8099 135.016 85.0819 133.824 85.6259 132.8C86.1859 131.76 86.9619 130.96 87.9539 130.4C88.9619 129.84 90.1139 129.56 91.4099 129.56C92.6579 129.56 93.7699 129.832 94.7459 130.376C95.7219 130.92 96.4819 131.688 97.0259 132.68C97.5699 133.656 97.8419 134.784 97.8419 136.064ZM94.9859 135.2C94.9699 134.192 94.6099 133.384 93.9059 132.776C93.2019 132.168 92.3299 131.864 91.2899 131.864C90.3459 131.864 89.5379 132.168 88.8659 132.776C88.1939 133.368 87.7939 134.176 87.6659 135.2H94.9859ZM107.374 129.56C108.382 129.56 109.278 129.776 110.062 130.208C110.862 130.64 111.486 131.28 111.934 132.128C112.398 132.976 112.63 134 112.63 135.2V143H109.918V135.608C109.918 134.424 109.622 133.52 109.03 132.896C108.438 132.256 107.63 131.936 106.606 131.936C105.582 131.936 104.766 132.256 104.158 132.896C103.566 133.52 103.27 134.424 103.27 135.608V143H100.534V125.24H103.27V131.312C103.734 130.752 104.318 130.32 105.022 130.016C105.742 129.712 106.526 129.56 107.374 129.56ZM115.208 136.328C115.208 135 115.48 133.824 116.024 132.8C116.584 131.776 117.336 130.984 118.28 130.424C119.24 129.848 120.296 129.56 121.448 129.56C122.488 129.56 123.392 129.768 124.16 130.184C124.944 130.584 125.568 131.088 126.032 131.696V129.776H128.792V143H126.032V141.032C125.568 141.656 124.936 142.176 124.136 142.592C123.336 143.008 122.424 143.216 121.4 143.216C120.264 143.216 119.224 142.928 118.28 142.352C117.336 141.76 116.584 140.944 116.024 139.904C115.48 138.848 115.208 137.656 115.208 136.328ZM126.032 136.376C126.032 135.464 125.84 134.672 125.456 134C125.088 133.328 124.6 132.816 123.992 132.464C123.384 132.112 122.728 131.936 122.024 131.936C121.32 131.936 120.664 132.112 120.056 132.464C119.448 132.8 118.952 133.304 118.568 133.976C118.2 134.632 118.016 135.416 118.016 136.328C118.016 137.24 118.2 138.04 118.568 138.728C118.952 139.416 119.448 139.944 120.056 140.312C120.68 140.664 121.336 140.84 122.024 140.84C122.728 140.84 123.384 140.664 123.992 140.312C124.6 139.96 125.088 139.448 125.456 138.776C125.84 138.088 126.032 137.288 126.032 136.376ZM135.578 132.008V139.328C135.578 139.824 135.69 140.184 135.914 140.408C136.154 140.616 136.554 140.72 137.114 140.72H138.794V143H136.634C135.402 143 134.458 142.712 133.802 142.136C133.146 141.56 132.818 140.624 132.818 139.328V132.008H131.258V129.776H132.818V126.488H135.578V129.776H138.794V132.008H135.578ZM153.598 147.464C152.03 145.96 150.822 144.048 149.974 141.728C149.142 139.408 148.726 136.92 148.726 134.264C148.726 131.544 149.174 128.976 150.07 126.56C150.982 124.144 152.318 122.152 154.078 120.584H156.91V120.848C155.07 122.544 153.686 124.576 152.758 126.944C151.83 129.312 151.366 131.752 151.366 134.264C151.366 136.68 151.798 139.016 152.662 141.272C153.526 143.528 154.782 145.504 156.43 147.2V147.464H153.598ZM162.555 132.008V139.328C162.555 139.824 162.667 140.184 162.891 140.408C163.131 140.616 163.531 140.72 164.091 140.72H165.771V143H163.611C162.379 143 161.435 142.712 160.779 142.136C160.123 141.56 159.795 140.624 159.795 139.328V132.008H158.235V129.776H159.795V126.488H162.555V129.776H165.771V132.008H162.555ZM169.684 128.024C169.188 128.024 168.772 127.856 168.436 127.52C168.1 127.184 167.932 126.768 167.932 126.272C167.932 125.776 168.1 125.36 168.436 125.024C168.772 124.688 169.188 124.52 169.684 124.52C170.164 124.52 170.572 124.688 170.908 125.024C171.244 125.36 171.412 125.776 171.412 126.272C171.412 126.768 171.244 127.184 170.908 127.52C170.572 127.856 170.164 128.024 169.684 128.024ZM171.028 129.776V143H168.292V129.776H171.028ZM173.708 136.328C173.708 135 173.98 133.824 174.524 132.8C175.084 131.776 175.836 130.984 176.78 130.424C177.74 129.848 178.804 129.56 179.972 129.56C180.836 129.56 181.684 129.752 182.516 130.136C183.364 130.504 184.036 131 184.532 131.624V125.24H187.292V143H184.532V141.008C184.084 141.648 183.46 142.176 182.66 142.592C181.876 143.008 180.972 143.216 179.948 143.216C178.796 143.216 177.74 142.928 176.78 142.352C175.836 141.76 175.084 140.944 174.524 139.904C173.98 138.848 173.708 137.656 173.708 136.328ZM184.532 136.376C184.532 135.464 184.34 134.672 183.956 134C183.588 133.328 183.1 132.816 182.492 132.464C181.884 132.112 181.228 131.936 180.524 131.936C179.82 131.936 179.164 132.112 178.556 132.464C177.948 132.8 177.452 133.304 177.068 133.976C176.7 134.632 176.516 135.416 176.516 136.328C176.516 137.24 176.7 138.04 177.068 138.728C177.452 139.416 177.948 139.944 178.556 140.312C179.18 140.664 179.836 140.84 180.524 140.84C181.228 140.84 181.884 140.664 182.492 140.312C183.1 139.96 183.588 139.448 183.956 138.776C184.34 138.088 184.532 137.288 184.532 136.376ZM189.974 136.328C189.974 135 190.246 133.824 190.79 132.8C191.35 131.776 192.102 130.984 193.046 130.424C194.006 129.848 195.062 129.56 196.214 129.56C197.254 129.56 198.158 129.768 198.926 130.184C199.71 130.584 200.334 131.088 200.798 131.696V129.776H203.558V143H200.798V141.032C200.334 141.656 199.702 142.176 198.902 142.592C198.102 143.008 197.19 143.216 196.166 143.216C195.03 143.216 193.99 142.928 193.046 142.352C192.102 141.76 191.35 140.944 190.79 139.904C190.246 138.848 189.974 137.656 189.974 136.328ZM200.798 136.376C200.798 135.464 200.606 134.672 200.222 134C199.854 133.328 199.366 132.816 198.758 132.464C198.15 132.112 197.494 131.936 196.79 131.936C196.086 131.936 195.43 132.112 194.822 132.464C194.214 132.8 193.718 133.304 193.334 133.976C192.966 134.632 192.782 135.416 192.782 136.328C192.782 137.24 192.966 138.04 193.334 138.728C193.718 139.416 194.214 139.944 194.822 140.312C195.446 140.664 196.102 140.84 196.79 140.84C197.494 140.84 198.15 140.664 198.758 140.312C199.366 139.96 199.854 139.448 200.222 138.776C200.606 138.088 200.798 137.288 200.798 136.376ZM212.384 136.4L218.48 143H214.784L209.888 137.312V143H207.152V125.24H209.888V135.56L214.688 129.776H218.48L212.384 136.4ZM231.475 143.216C230.435 143.216 229.499 143.032 228.667 142.664C227.851 142.28 227.203 141.768 226.723 141.128C226.243 140.472 225.987 139.744 225.955 138.944H228.787C228.835 139.504 229.099 139.976 229.579 140.36C230.075 140.728 230.691 140.912 231.427 140.912C232.195 140.912 232.787 140.768 233.203 140.48C233.635 140.176 233.851 139.792 233.851 139.328C233.851 138.832 233.611 138.464 233.131 138.224C232.667 137.984 231.923 137.72 230.899 137.432C229.907 137.16 229.099 136.896 228.475 136.64C227.851 136.384 227.307 135.992 226.843 135.464C226.395 134.936 226.171 134.24 226.171 133.376C226.171 132.672 226.379 132.032 226.795 131.456C227.211 130.864 227.803 130.4 228.571 130.064C229.355 129.728 230.251 129.56 231.259 129.56C232.763 129.56 233.971 129.944 234.883 130.712C235.811 131.464 236.307 132.496 236.371 133.808H233.635C233.587 133.216 233.347 132.744 232.915 132.392C232.483 132.04 231.899 131.864 231.163 131.864C230.443 131.864 229.891 132 229.507 132.272C229.123 132.544 228.931 132.904 228.931 133.352C228.931 133.704 229.059 134 229.315 134.24C229.571 134.48 229.883 134.672 230.251 134.816C230.619 134.944 231.163 135.112 231.883 135.32C232.843 135.576 233.627 135.84 234.235 136.112C234.859 136.368 235.395 136.752 235.843 137.264C236.291 137.776 236.523 138.456 236.539 139.304C236.539 140.056 236.331 140.728 235.915 141.32C235.499 141.912 234.907 142.376 234.139 142.712C233.387 143.048 232.499 143.216 231.475 143.216ZM238.583 136.328C238.583 135 238.855 133.824 239.399 132.8C239.959 131.776 240.711 130.984 241.655 130.424C242.615 129.848 243.671 129.56 244.823 129.56C245.863 129.56 246.767 129.768 247.535 130.184C248.319 130.584 248.943 131.088 249.407 131.696V129.776H252.167V143H249.407V141.032C248.943 141.656 248.311 142.176 247.511 142.592C246.711 143.008 245.799 143.216 244.775 143.216C243.639 143.216 242.599 142.928 241.655 142.352C240.711 141.76 239.959 140.944 239.399 139.904C238.855 138.848 238.583 137.656 238.583 136.328ZM249.407 136.376C249.407 135.464 249.215 134.672 248.831 134C248.463 133.328 247.975 132.816 247.367 132.464C246.759 132.112 246.103 131.936 245.399 131.936C244.695 131.936 244.039 132.112 243.431 132.464C242.823 132.8 242.327 133.304 241.943 133.976C241.575 134.632 241.391 135.416 241.391 136.328C241.391 137.24 241.575 138.04 241.943 138.728C242.327 139.416 242.823 139.944 243.431 140.312C244.055 140.664 244.711 140.84 245.399 140.84C246.103 140.84 246.759 140.664 247.367 140.312C247.975 139.96 248.463 139.448 248.831 138.776C249.215 138.088 249.407 137.288 249.407 136.376ZM260.993 136.4L267.089 143H263.393L258.497 137.312V143H255.761V125.24H258.497V135.56L263.297 129.776H267.089L260.993 136.4ZM270.442 128.024C269.946 128.024 269.53 127.856 269.194 127.52C268.858 127.184 268.69 126.768 268.69 126.272C268.69 125.776 268.858 125.36 269.194 125.024C269.53 124.688 269.946 124.52 270.442 124.52C270.922 124.52 271.33 124.688 271.666 125.024C272.002 125.36 272.17 125.776 272.17 126.272C272.17 126.768 272.002 127.184 271.666 127.52C271.33 127.856 270.922 128.024 270.442 128.024ZM271.786 129.776V143H269.05V129.776H271.786ZM278.57 132.008V139.328C278.57 139.824 278.682 140.184 278.906 140.408C279.146 140.616 279.546 140.72 280.106 140.72H281.786V143H279.626C278.394 143 277.45 142.712 276.794 142.136C276.138 141.56 275.81 140.624 275.81 139.328V132.008H274.25V129.776H275.81V126.488H278.57V129.776H281.786V132.008H278.57ZM287.308 139.712L284.404 146.336H282.628L284.332 139.712H287.308ZM122.38 165.328C122.38 164 122.652 162.824 123.196 161.8C123.756 160.776 124.508 159.984 125.452 159.424C126.412 158.848 127.476 158.56 128.644 158.56C129.508 158.56 130.356 158.752 131.188 159.136C132.036 159.504 132.708 160 133.204 160.624V154.24H135.964V172H133.204V170.008C132.756 170.648 132.132 171.176 131.332 171.592C130.548 172.008 129.644 172.216 128.62 172.216C127.468 172.216 126.412 171.928 125.452 171.352C124.508 170.76 123.756 169.944 123.196 168.904C122.652 167.848 122.38 166.656 122.38 165.328ZM133.204 165.376C133.204 164.464 133.012 163.672 132.628 163C132.26 162.328 131.772 161.816 131.164 161.464C130.556 161.112 129.9 160.936 129.196 160.936C128.492 160.936 127.836 161.112 127.228 161.464C126.62 161.8 126.124 162.304 125.74 162.976C125.372 163.632 125.188 164.416 125.188 165.328C125.188 166.24 125.372 167.04 125.74 167.728C126.124 168.416 126.62 168.944 127.228 169.312C127.852 169.664 128.508 169.84 129.196 169.84C129.9 169.84 130.556 169.664 131.164 169.312C131.772 168.96 132.26 168.448 132.628 167.776C133.012 167.088 133.204 166.288 133.204 165.376ZM140.95 157.024C140.454 157.024 140.038 156.856 139.702 156.52C139.366 156.184 139.198 155.768 139.198 155.272C139.198 154.776 139.366 154.36 139.702 154.024C140.038 153.688 140.454 153.52 140.95 153.52C141.43 153.52 141.838 153.688 142.174 154.024C142.51 154.36 142.678 154.776 142.678 155.272C142.678 155.768 142.51 156.184 142.174 156.52C141.838 156.856 141.43 157.024 140.95 157.024ZM142.294 158.776V172H139.558V158.776H142.294ZM144.974 165.328C144.974 164 145.246 162.824 145.79 161.8C146.35 160.776 147.102 159.984 148.046 159.424C149.006 158.848 150.062 158.56 151.214 158.56C152.254 158.56 153.158 158.768 153.926 159.184C154.71 159.584 155.334 160.088 155.798 160.696V158.776H158.558V172H155.798V170.032C155.334 170.656 154.702 171.176 153.902 171.592C153.102 172.008 152.19 172.216 151.166 172.216C150.03 172.216 148.99 171.928 148.046 171.352C147.102 170.76 146.35 169.944 145.79 168.904C145.246 167.848 144.974 166.656 144.974 165.328ZM155.798 165.376C155.798 164.464 155.606 163.672 155.222 163C154.854 162.328 154.366 161.816 153.758 161.464C153.15 161.112 152.494 160.936 151.79 160.936C151.086 160.936 150.43 161.112 149.822 161.464C149.214 161.8 148.718 162.304 148.334 162.976C147.966 163.632 147.782 164.416 147.782 165.328C147.782 166.24 147.966 167.04 148.334 167.728C148.718 168.416 149.214 168.944 149.822 169.312C150.446 169.664 151.102 169.84 151.79 169.84C152.494 169.84 153.15 169.664 153.758 169.312C154.366 168.96 154.854 168.448 155.222 167.776C155.606 167.088 155.798 166.288 155.798 165.376ZM164.888 160.696C165.288 160.024 165.816 159.504 166.472 159.136C167.144 158.752 167.936 158.56 168.848 158.56V161.392H168.152C167.08 161.392 166.264 161.664 165.704 162.208C165.16 162.752 164.888 163.696 164.888 165.04V172H162.152V158.776H164.888V160.696ZM183.483 165.064C183.483 165.56 183.451 166.008 183.387 166.408H173.283C173.363 167.464 173.755 168.312 174.459 168.952C175.163 169.592 176.027 169.912 177.051 169.912C178.523 169.912 179.563 169.296 180.171 168.064H183.122C182.723 169.28 181.995 170.28 180.939 171.064C179.899 171.832 178.603 172.216 177.051 172.216C175.787 172.216 174.651 171.936 173.643 171.376C172.651 170.8 171.867 170 171.291 168.976C170.731 167.936 170.451 166.736 170.451 165.376C170.451 164.016 170.723 162.824 171.267 161.8C171.827 160.76 172.603 159.96 173.595 159.4C174.603 158.84 175.755 158.56 177.051 158.56C178.299 158.56 179.411 158.832 180.387 159.376C181.363 159.92 182.123 160.688 182.667 161.68C183.211 162.656 183.483 163.784 183.483 165.064ZM180.627 164.2C180.611 163.192 180.251 162.384 179.547 161.776C178.843 161.168 177.971 160.864 176.931 160.864C175.987 160.864 175.179 161.168 174.507 161.776C173.835 162.368 173.435 163.176 173.307 164.2H180.627ZM189.175 168.712L186.271 175.336H184.495L186.199 168.712H189.175ZM203.344 161.008H200.896V172H198.136V161.008H196.576V158.776H198.136V157.84C198.136 156.32 198.536 155.216 199.336 154.528C200.152 153.824 201.424 153.472 203.152 153.472V155.752C202.32 155.752 201.736 155.912 201.4 156.232C201.064 156.536 200.896 157.072 200.896 157.84V158.776H203.344V161.008ZM208.505 154.24V172H205.769V154.24H208.505ZM224.073 158.776V172H221.337V170.44C220.905 170.984 220.337 171.416 219.633 171.736C218.945 172.04 218.209 172.192 217.425 172.192C216.385 172.192 215.449 171.976 214.617 171.544C213.801 171.112 213.153 170.472 212.673 169.624C212.209 168.776 211.977 167.752 211.977 166.552V158.776H214.689V166.144C214.689 167.328 214.985 168.24 215.577 168.88C216.169 169.504 216.977 169.816 218.001 169.816C219.025 169.816 219.833 169.504 220.425 168.88C221.033 168.24 221.337 167.328 221.337 166.144V158.776H224.073ZM230.683 168.712L227.779 175.336H226.003L227.707 168.712H230.683ZM112.059 183.24V201H109.323V183.24H112.059ZM127.772 194.064C127.772 194.56 127.74 195.008 127.676 195.408H117.572C117.652 196.464 118.044 197.312 118.748 197.952C119.452 198.592 120.316 198.912 121.34 198.912C122.812 198.912 123.852 198.296 124.46 197.064H127.412C127.012 198.28 126.284 199.28 125.228 200.064C124.188 200.832 122.892 201.216 121.34 201.216C120.076 201.216 118.94 200.936 117.932 200.376C116.94 199.8 116.156 199 115.58 197.976C115.02 196.936 114.74 195.736 114.74 194.376C114.74 193.016 115.012 191.824 115.556 190.8C116.116 189.76 116.892 188.96 117.884 188.4C118.892 187.84 120.044 187.56 121.34 187.56C122.588 187.56 123.7 187.832 124.676 188.376C125.652 188.92 126.412 189.688 126.956 190.68C127.5 191.656 127.772 192.784 127.772 194.064ZM124.916 193.2C124.9 192.192 124.54 191.384 123.836 190.776C123.132 190.168 122.26 189.864 121.22 189.864C120.276 189.864 119.468 190.168 118.796 190.776C118.124 191.368 117.724 192.176 117.596 193.2H124.916ZM146.472 187.56C147.512 187.56 148.44 187.776 149.256 188.208C150.088 188.64 150.736 189.28 151.2 190.128C151.68 190.976 151.92 192 151.92 193.2V201H149.208V193.608C149.208 192.424 148.912 191.52 148.32 190.896C147.728 190.256 146.92 189.936 145.896 189.936C144.872 189.936 144.056 190.256 143.448 190.896C142.856 191.52 142.56 192.424 142.56 193.608V201H139.848V193.608C139.848 192.424 139.552 191.52 138.96 190.896C138.368 190.256 137.56 189.936 136.536 189.936C135.512 189.936 134.696 190.256 134.088 190.896C133.496 191.52 133.2 192.424 133.2 193.608V201H130.464V187.776H133.2V189.288C133.648 188.744 134.216 188.32 134.904 188.016C135.592 187.712 136.328 187.56 137.112 187.56C138.168 187.56 139.112 187.784 139.944 188.232C140.776 188.68 141.416 189.328 141.864 190.176C142.264 189.376 142.888 188.744 143.736 188.28C144.584 187.8 145.496 187.56 146.472 187.56ZM154.49 194.328C154.49 193 154.762 191.824 155.306 190.8C155.866 189.776 156.618 188.984 157.562 188.424C158.522 187.848 159.578 187.56 160.73 187.56C161.77 187.56 162.674 187.768 163.442 188.184C164.226 188.584 164.85 189.088 165.314 189.696V187.776H168.074V201H165.314V199.032C164.85 199.656 164.218 200.176 163.418 200.592C162.618 201.008 161.706 201.216 160.682 201.216C159.546 201.216 158.506 200.928 157.562 200.352C156.618 199.76 155.866 198.944 155.306 197.904C154.762 196.848 154.49 195.656 154.49 194.328ZM165.314 194.376C165.314 193.464 165.122 192.672 164.738 192C164.37 191.328 163.882 190.816 163.274 190.464C162.666 190.112 162.01 189.936 161.306 189.936C160.602 189.936 159.946 190.112 159.338 190.464C158.73 190.8 158.234 191.304 157.85 191.976C157.482 192.632 157.298 193.416 157.298 194.328C157.298 195.24 157.482 196.04 157.85 196.728C158.234 197.416 158.73 197.944 159.338 198.312C159.962 198.664 160.618 198.84 161.306 198.84C162.01 198.84 162.666 198.664 163.274 198.312C163.882 197.96 164.37 197.448 164.738 196.776C165.122 196.088 165.314 195.288 165.314 194.376ZM176.467 201.216C175.427 201.216 174.491 201.032 173.659 200.664C172.843 200.28 172.195 199.768 171.715 199.128C171.235 198.472 170.979 197.744 170.947 196.944H173.779C173.827 197.504 174.091 197.976 174.571 198.36C175.067 198.728 175.683 198.912 176.419 198.912C177.187 198.912 177.779 198.768 178.195 198.48C178.627 198.176 178.843 197.792 178.843 197.328C178.843 196.832 178.603 196.464 178.123 196.224C177.659 195.984 176.915 195.72 175.891 195.432C174.899 195.16 174.091 194.896 173.467 194.64C172.843 194.384 172.299 193.992 171.835 193.464C171.387 192.936 171.163 192.24 171.163 191.376C171.163 190.672 171.371 190.032 171.787 189.456C172.203 188.864 172.795 188.4 173.563 188.064C174.347 187.728 175.243 187.56 176.251 187.56C177.755 187.56 178.963 187.944 179.875 188.712C180.803 189.464 181.299 190.496 181.363 191.808H178.627C178.579 191.216 178.339 190.744 177.907 190.392C177.475 190.04 176.891 189.864 176.155 189.864C175.435 189.864 174.883 190 174.499 190.272C174.115 190.544 173.923 190.904 173.923 191.352C173.923 191.704 174.051 192 174.307 192.24C174.563 192.48 174.875 192.672 175.243 192.816C175.611 192.944 176.155 193.112 176.875 193.32C177.835 193.576 178.619 193.84 179.227 194.112C179.851 194.368 180.387 194.752 180.835 195.264C181.283 195.776 181.515 196.456 181.531 197.304C181.531 198.056 181.323 198.728 180.907 199.32C180.491 199.912 179.899 200.376 179.131 200.712C178.379 201.048 177.491 201.216 176.467 201.216ZM187.488 197.712L184.584 204.336H182.808L184.512 197.712H187.488ZM195.201 194.328C195.201 193 195.473 191.824 196.017 190.8C196.577 189.776 197.329 188.984 198.273 188.424C199.233 187.848 200.297 187.56 201.465 187.56C202.329 187.56 203.177 187.752 204.009 188.136C204.857 188.504 205.529 189 206.025 189.624V183.24H208.785V201H206.025V199.008C205.577 199.648 204.953 200.176 204.153 200.592C203.369 201.008 202.465 201.216 201.441 201.216C200.289 201.216 199.233 200.928 198.273 200.352C197.329 199.76 196.577 198.944 196.017 197.904C195.473 196.848 195.201 195.656 195.201 194.328ZM206.025 194.376C206.025 193.464 205.833 192.672 205.449 192C205.081 191.328 204.593 190.816 203.985 190.464C203.377 190.112 202.721 189.936 202.017 189.936C201.313 189.936 200.657 190.112 200.049 190.464C199.441 190.8 198.945 191.304 198.561 191.976C198.193 192.632 198.009 193.416 198.009 194.328C198.009 195.24 198.193 196.04 198.561 196.728C198.945 197.416 199.441 197.944 200.049 198.312C200.673 198.664 201.329 198.84 202.017 198.84C202.721 198.84 203.377 198.664 203.985 198.312C204.593 197.96 205.081 197.448 205.449 196.776C205.833 196.088 206.025 195.288 206.025 194.376ZM217.178 201.216C216.138 201.216 215.202 201.032 214.37 200.664C213.554 200.28 212.906 199.768 212.426 199.128C211.946 198.472 211.69 197.744 211.658 196.944H214.49C214.538 197.504 214.802 197.976 215.282 198.36C215.778 198.728 216.394 198.912 217.13 198.912C217.898 198.912 218.49 198.768 218.906 198.48C219.338 198.176 219.554 197.792 219.554 197.328C219.554 196.832 219.314 196.464 218.834 196.224C218.37 195.984 217.626 195.72 216.602 195.432C215.61 195.16 214.802 194.896 214.178 194.64C213.554 194.384 213.01 193.992 212.546 193.464C212.098 192.936 211.874 192.24 211.874 191.376C211.874 190.672 212.082 190.032 212.498 189.456C212.914 188.864 213.506 188.4 214.274 188.064C215.058 187.728 215.954 187.56 216.962 187.56C218.466 187.56 219.674 187.944 220.586 188.712C221.514 189.464 222.01 190.496 222.074 191.808H219.338C219.29 191.216 219.05 190.744 218.618 190.392C218.186 190.04 217.602 189.864 216.866 189.864C216.146 189.864 215.594 190 215.21 190.272C214.826 190.544 214.634 190.904 214.634 191.352C214.634 191.704 214.762 192 215.018 192.24C215.274 192.48 215.586 192.672 215.954 192.816C216.322 192.944 216.866 193.112 217.586 193.32C218.546 193.576 219.33 193.84 219.938 194.112C220.562 194.368 221.098 194.752 221.546 195.264C221.994 195.776 222.226 196.456 222.242 197.304C222.242 198.056 222.034 198.728 221.618 199.32C221.202 199.912 220.61 200.376 219.842 200.712C219.09 201.048 218.202 201.216 217.178 201.216ZM227.934 189.744C228.398 189.104 229.03 188.584 229.83 188.184C230.646 187.768 231.55 187.56 232.542 187.56C233.71 187.56 234.766 187.84 235.71 188.4C236.654 188.96 237.398 189.76 237.942 190.8C238.486 191.824 238.758 193 238.758 194.328C238.758 195.656 238.486 196.848 237.942 197.904C237.398 198.944 236.646 199.76 235.686 200.352C234.742 200.928 233.694 201.216 232.542 201.216C231.518 201.216 230.606 201.016 229.806 200.616C229.022 200.216 228.398 199.704 227.934 199.08V201H225.198V183.24H227.934V189.744ZM235.974 194.328C235.974 193.416 235.782 192.632 235.398 191.976C235.03 191.304 234.534 190.8 233.91 190.464C233.302 190.112 232.646 189.936 231.942 189.936C231.254 189.936 230.598 190.112 229.974 190.464C229.366 190.816 228.87 191.328 228.486 192C228.118 192.672 227.934 193.464 227.934 194.376C227.934 195.288 228.118 196.088 228.486 196.776C228.87 197.448 229.366 197.96 229.974 198.312C230.598 198.664 231.254 198.84 231.942 198.84C232.646 198.84 233.302 198.664 233.91 198.312C234.534 197.944 235.03 197.416 235.398 196.728C235.782 196.04 235.974 195.24 235.974 194.328ZM240.792 205.464V205.2C242.44 203.504 243.696 201.528 244.56 199.272C245.424 197.016 245.856 194.68 245.856 192.264C245.856 189.752 245.392 187.312 244.464 184.944C243.536 182.576 242.152 180.544 240.312 178.848V178.584H243.144C244.904 180.152 246.232 182.144 247.128 184.56C248.04 186.976 248.496 189.544 248.496 192.264C248.496 194.92 248.072 197.408 247.224 199.728C246.392 202.048 245.192 203.96 243.624 205.464H240.792Z" fill="#181817"/>
<rect y="269.808" width="360" height="138.607" fill="#FFCC00"/>
<path d="M61.9423 336.432C61.9423 337.328 61.7263 338.168 61.2943 338.952C60.8783 339.736 60.2143 340.368 59.3023 340.848C58.4063 341.328 57.2703 341.568 55.8943 341.568H53.0863V348H49.7263V331.248H55.8943C57.1903 331.248 58.2943 331.472 59.2063 331.92C60.1183 332.368 60.7983 332.984 61.2463 333.768C61.7103 334.552 61.9423 335.44 61.9423 336.432ZM55.7503 338.856C56.6783 338.856 57.3663 338.648 57.8143 338.232C58.2623 337.8 58.4863 337.2 58.4863 336.432C58.4863 334.8 57.5743 333.984 55.7503 333.984H53.0863V338.856H55.7503ZM76.6879 341.064C76.6879 341.544 76.6559 341.976 76.5919 342.36H66.8719C66.9519 343.32 67.2879 344.072 67.8799 344.616C68.4719 345.16 69.1999 345.432 70.0639 345.432C71.3119 345.432 72.1999 344.896 72.7279 343.824H76.3519C75.9679 345.104 75.2319 346.16 74.1439 346.992C73.0559 347.808 71.7199 348.216 70.1359 348.216C68.8559 348.216 67.7039 347.936 66.6799 347.376C65.6719 346.8 64.8799 345.992 64.3039 344.952C63.7439 343.912 63.4639 342.712 63.4639 341.352C63.4639 339.976 63.7439 338.768 64.3039 337.728C64.8639 336.688 65.6479 335.888 66.6559 335.328C67.6639 334.768 68.8239 334.488 70.1359 334.488C71.3999 334.488 72.5279 334.76 73.5199 335.304C74.5279 335.848 75.3039 336.624 75.8479 337.632C76.4079 338.624 76.6879 339.768 76.6879 341.064ZM73.2079 340.104C73.1919 339.24 72.8799 338.552 72.2719 338.04C71.6639 337.512 70.9199 337.248 70.0399 337.248C69.2079 337.248 68.5039 337.504 67.9279 338.016C67.3679 338.512 67.0239 339.208 66.8959 340.104H73.2079ZM82.5004 336.768C82.9324 336.064 83.4924 335.512 84.1804 335.112C84.8844 334.712 85.6844 334.512 86.5804 334.512V338.04H85.6924C84.6364 338.04 83.8364 338.288 83.2924 338.784C82.7644 339.28 82.5004 340.144 82.5004 341.376V348H79.1404V334.704H82.5004V336.768ZM93.9315 348.216C92.8435 348.216 91.8675 348.024 91.0035 347.64C90.1395 347.24 89.4515 346.704 88.9395 346.032C88.4435 345.36 88.1715 344.616 88.1235 343.8H91.5075C91.5715 344.312 91.8195 344.736 92.2515 345.072C92.6995 345.408 93.2515 345.576 93.9075 345.576C94.5475 345.576 95.0435 345.448 95.3955 345.192C95.7635 344.936 95.9475 344.608 95.9475 344.208C95.9475 343.776 95.7235 343.456 95.2755 343.248C94.8435 343.024 94.1475 342.784 93.1875 342.528C92.1955 342.288 91.3795 342.04 90.7395 341.784C90.1155 341.528 89.5715 341.136 89.1075 340.608C88.6595 340.08 88.4355 339.368 88.4355 338.472C88.4355 337.736 88.6435 337.064 89.0595 336.456C89.4915 335.848 90.0995 335.368 90.8835 335.016C91.6835 334.664 92.6195 334.488 93.6915 334.488C95.2755 334.488 96.5395 334.888 97.4835 335.688C98.4275 336.472 98.9475 337.536 99.0435 338.88H95.8275C95.7795 338.352 95.5555 337.936 95.1555 337.632C94.7715 337.312 94.2515 337.152 93.5955 337.152C92.9875 337.152 92.5155 337.264 92.1795 337.488C91.8595 337.712 91.6995 338.024 91.6995 338.424C91.6995 338.872 91.9235 339.216 92.3715 339.456C92.8195 339.68 93.5155 339.912 94.4595 340.152C95.4195 340.392 96.2115 340.64 96.8355 340.896C97.4595 341.152 97.9955 341.552 98.4435 342.096C98.9075 342.624 99.1475 343.328 99.1635 344.208C99.1635 344.976 98.9475 345.664 98.5155 346.272C98.0995 346.88 97.4915 347.36 96.6915 347.712C95.9075 348.048 94.9875 348.216 93.9315 348.216ZM114.642 334.704L106.41 354.288H102.834L105.714 347.664L100.386 334.704H104.154L107.586 343.992L111.066 334.704H114.642ZM115.589 341.304C115.589 339.96 115.853 338.768 116.381 337.728C116.925 336.688 117.653 335.888 118.565 335.328C119.493 334.768 120.525 334.488 121.661 334.488C122.653 334.488 123.517 334.688 124.253 335.088C125.005 335.488 125.605 335.992 126.053 336.6V334.704H129.437V348H126.053V346.056C125.621 346.68 125.021 347.2 124.253 347.616C123.501 348.016 122.629 348.216 121.637 348.216C120.517 348.216 119.493 347.928 118.565 347.352C117.653 346.776 116.925 345.968 116.381 344.928C115.853 343.872 115.589 342.664 115.589 341.304ZM126.053 341.352C126.053 340.536 125.893 339.84 125.573 339.264C125.253 338.672 124.821 338.224 124.277 337.92C123.733 337.6 123.149 337.44 122.525 337.44C121.901 337.44 121.325 337.592 120.797 337.896C120.269 338.2 119.837 338.648 119.501 339.24C119.181 339.816 119.021 340.504 119.021 341.304C119.021 342.104 119.181 342.808 119.501 343.416C119.837 344.008 120.269 344.464 120.797 344.784C121.341 345.104 121.917 345.264 122.525 345.264C123.149 345.264 123.733 345.112 124.277 344.808C124.821 344.488 125.253 344.04 125.573 343.464C125.893 342.872 126.053 342.168 126.053 341.352ZM136.079 336.768C136.511 336.064 137.071 335.512 137.759 335.112C138.463 334.712 139.263 334.512 140.159 334.512V338.04H139.271C138.215 338.04 137.415 338.288 136.871 338.784C136.343 339.28 136.079 340.144 136.079 341.376V348H132.719V334.704H136.079V336.768ZM141.558 341.304C141.558 339.96 141.822 338.768 142.35 337.728C142.894 336.688 143.622 335.888 144.534 335.328C145.462 334.768 146.494 334.488 147.63 334.488C148.622 334.488 149.486 334.688 150.222 335.088C150.974 335.488 151.574 335.992 152.022 336.6V334.704H155.406V348H152.022V346.056C151.59 346.68 150.99 347.2 150.222 347.616C149.47 348.016 148.598 348.216 147.606 348.216C146.486 348.216 145.462 347.928 144.534 347.352C143.622 346.776 142.894 345.968 142.35 344.928C141.822 343.872 141.558 342.664 141.558 341.304ZM152.022 341.352C152.022 340.536 151.862 339.84 151.542 339.264C151.222 338.672 150.79 338.224 150.246 337.92C149.702 337.6 149.118 337.44 148.494 337.44C147.87 337.44 147.294 337.592 146.766 337.896C146.238 338.2 145.806 338.648 145.47 339.24C145.15 339.816 144.99 340.504 144.99 341.304C144.99 342.104 145.15 342.808 145.47 343.416C145.806 344.008 146.238 344.464 146.766 344.784C147.31 345.104 147.886 345.264 148.494 345.264C149.118 345.264 149.702 345.112 150.246 344.808C150.79 344.488 151.222 344.04 151.542 343.464C151.862 342.872 152.022 342.168 152.022 341.352ZM162.599 337.464V343.896C162.599 344.344 162.703 344.672 162.911 344.88C163.135 345.072 163.503 345.168 164.015 345.168H165.575V348H163.463C160.631 348 159.215 346.624 159.215 343.872V337.464H157.631V334.704H159.215V331.416H162.599V334.704H165.575V337.464H162.599ZM167.128 341.304C167.128 339.96 167.392 338.768 167.92 337.728C168.464 336.688 169.192 335.888 170.104 335.328C171.032 334.768 172.064 334.488 173.2 334.488C174.192 334.488 175.056 334.688 175.792 335.088C176.544 335.488 177.144 335.992 177.592 336.6V334.704H180.976V348H177.592V346.056C177.16 346.68 176.56 347.2 175.792 347.616C175.04 348.016 174.168 348.216 173.176 348.216C172.056 348.216 171.032 347.928 170.104 347.352C169.192 346.776 168.464 345.968 167.92 344.928C167.392 343.872 167.128 342.664 167.128 341.304ZM177.592 341.352C177.592 340.536 177.432 339.84 177.112 339.264C176.792 338.672 176.36 338.224 175.816 337.92C175.272 337.6 174.688 337.44 174.064 337.44C173.44 337.44 172.864 337.592 172.336 337.896C171.808 338.2 171.376 338.648 171.04 339.24C170.72 339.816 170.56 340.504 170.56 341.304C170.56 342.104 170.72 342.808 171.04 343.416C171.376 344.008 171.808 344.464 172.336 344.784C172.88 345.104 173.456 345.264 174.064 345.264C174.688 345.264 175.272 345.112 175.816 344.808C176.36 344.488 176.792 344.04 177.112 343.464C177.432 342.872 177.592 342.168 177.592 341.352ZM191.626 334.512C193.21 334.512 194.49 335.016 195.466 336.024C196.442 337.016 196.93 338.408 196.93 340.2V348H193.57V340.656C193.57 339.6 193.306 338.792 192.778 338.232C192.25 337.656 191.53 337.368 190.618 337.368C189.69 337.368 188.954 337.656 188.41 338.232C187.882 338.792 187.618 339.6 187.618 340.656V348H184.258V334.704H187.618V336.36C188.066 335.784 188.634 335.336 189.322 335.016C190.026 334.68 190.794 334.512 191.626 334.512ZM218.06 336.432C218.06 337.328 217.844 338.168 217.411 338.952C216.996 339.736 216.332 340.368 215.42 340.848C214.524 341.328 213.388 341.568 212.012 341.568H209.204V348H205.844V331.248H212.012C213.308 331.248 214.412 331.472 215.324 331.92C216.236 332.368 216.916 332.984 217.364 333.768C217.828 334.552 218.06 335.44 218.06 336.432ZM211.868 338.856C212.796 338.856 213.484 338.648 213.932 338.232C214.38 337.8 214.604 337.2 214.604 336.432C214.604 334.8 213.692 333.984 211.868 333.984H209.204V338.856H211.868ZM232.805 341.064C232.805 341.544 232.773 341.976 232.709 342.36H222.989C223.069 343.32 223.405 344.072 223.997 344.616C224.589 345.16 225.317 345.432 226.181 345.432C227.429 345.432 228.317 344.896 228.845 343.824H232.469C232.085 345.104 231.349 346.16 230.261 346.992C229.173 347.808 227.837 348.216 226.253 348.216C224.973 348.216 223.821 347.936 222.797 347.376C221.789 346.8 220.997 345.992 220.421 344.952C219.861 343.912 219.581 342.712 219.581 341.352C219.581 339.976 219.861 338.768 220.421 337.728C220.981 336.688 221.765 335.888 222.773 335.328C223.781 334.768 224.941 334.488 226.253 334.488C227.517 334.488 228.645 334.76 229.637 335.304C230.645 335.848 231.421 336.624 231.965 337.632C232.525 338.624 232.805 339.768 232.805 341.064ZM229.325 340.104C229.309 339.24 228.997 338.552 228.389 338.04C227.781 337.512 227.037 337.248 226.157 337.248C225.325 337.248 224.621 337.504 224.045 338.016C223.485 338.512 223.141 339.208 223.013 340.104H229.325ZM239.17 337.464V343.896C239.17 344.344 239.274 344.672 239.482 344.88C239.706 345.072 240.074 345.168 240.586 345.168H242.146V348H240.034C237.202 348 235.786 346.624 235.786 343.872V337.464H234.202V334.704H235.786V331.416H239.17V334.704H242.146V337.464H239.17ZM264.177 331.248V348H260.817V340.872H253.641V348H250.281V331.248H253.641V338.136H260.817V331.248H264.177ZM273.388 348.216C272.108 348.216 270.956 347.936 269.932 347.376C268.908 346.8 268.1 345.992 267.508 344.952C266.932 343.912 266.644 342.712 266.644 341.352C266.644 339.992 266.94 338.792 267.532 337.752C268.14 336.712 268.964 335.912 270.004 335.352C271.044 334.776 272.204 334.488 273.484 334.488C274.764 334.488 275.924 334.776 276.964 335.352C278.004 335.912 278.82 336.712 279.412 337.752C280.02 338.792 280.324 339.992 280.324 341.352C280.324 342.712 280.012 343.912 279.388 344.952C278.78 345.992 277.948 346.8 276.892 347.376C275.852 347.936 274.684 348.216 273.388 348.216ZM273.388 345.288C273.996 345.288 274.564 345.144 275.092 344.856C275.636 344.552 276.068 344.104 276.388 343.512C276.708 342.92 276.868 342.2 276.868 341.352C276.868 340.088 276.532 339.12 275.86 338.448C275.204 337.76 274.396 337.416 273.436 337.416C272.476 337.416 271.668 337.76 271.012 338.448C270.372 339.12 270.052 340.088 270.052 341.352C270.052 342.616 270.364 343.592 270.988 344.28C271.628 344.952 272.428 345.288 273.388 345.288ZM286.701 337.464V343.896C286.701 344.344 286.805 344.672 287.013 344.88C287.237 345.072 287.605 345.168 288.117 345.168H289.677V348H287.565C284.733 348 283.317 346.624 283.317 343.872V337.464H281.733V334.704H283.317V331.416H286.701V334.704H289.677V337.464H286.701ZM304.454 341.064C304.454 341.544 304.422 341.976 304.358 342.36H294.638C294.718 343.32 295.054 344.072 295.646 344.616C296.238 345.16 296.966 345.432 297.83 345.432C299.078 345.432 299.966 344.896 300.494 343.824H304.118C303.734 345.104 302.998 346.16 301.91 346.992C300.822 347.808 299.486 348.216 297.902 348.216C296.622 348.216 295.47 347.936 294.446 347.376C293.438 346.8 292.646 345.992 292.07 344.952C291.51 343.912 291.229 342.712 291.229 341.352C291.229 339.976 291.51 338.768 292.07 337.728C292.63 336.688 293.414 335.888 294.422 335.328C295.43 334.768 296.59 334.488 297.902 334.488C299.166 334.488 300.294 334.76 301.286 335.304C302.294 335.848 303.07 336.624 303.614 337.632C304.174 338.624 304.454 339.768 304.454 341.064ZM300.974 340.104C300.958 339.24 300.646 338.552 300.038 338.04C299.43 337.512 298.686 337.248 297.806 337.248C296.974 337.248 296.27 337.504 295.694 338.016C295.134 338.512 294.79 339.208 294.662 340.104H300.974ZM310.266 330.24V348H306.906V330.24H310.266Z" fill="#FDFDFD"/>
</svg>
