<svg width="360" height="409" viewBox="0 0 360 409" fill="none" xmlns="http://www.w3.org/2000/svg">
<path d="M0 33.188C0 14.9626 14.7746 0.187988 33 0.187988H327C345.225 0.187988 360 14.9626 360 33.188V269.996H0V33.188Z" fill="#FFF1A6"/>
<path d="M72.0008 68.32V85H69.2648V73.576L64.1768 85H62.2808L57.1688 73.576V85H54.4328V68.32H57.3848L63.2408 81.4L69.0728 68.32H72.0008ZM87.7169 78.064C87.7169 78.56 87.6849 79.008 87.6209 79.408H77.5169C77.5969 80.464 77.9889 81.312 78.6929 81.952C79.3969 82.592 80.2609 82.912 81.2849 82.912C82.7569 82.912 83.7969 82.296 84.4049 81.064H87.3569C86.9569 82.28 86.2289 83.28 85.1729 84.064C84.1329 84.832 82.8369 85.216 81.2849 85.216C80.0209 85.216 78.8849 84.936 77.8769 84.376C76.8849 83.8 76.1009 83 75.5249 81.976C74.9649 80.936 74.6849 79.736 74.6849 78.376C74.6849 77.016 74.9569 75.824 75.5009 74.8C76.0609 73.76 76.8369 72.96 77.8289 72.4C78.8369 71.84 79.9889 71.56 81.2849 71.56C82.5329 71.56 83.6449 71.832 84.6209 72.376C85.5969 72.92 86.3569 73.688 86.9009 74.68C87.4449 75.656 87.7169 76.784 87.7169 78.064ZM84.8609 77.2C84.8449 76.192 84.4849 75.384 83.7809 74.776C83.0769 74.168 82.2049 73.864 81.1649 73.864C80.2209 73.864 79.4129 74.168 78.7409 74.776C78.0689 75.368 77.6689 76.176 77.5409 77.2H84.8609ZM106.417 71.56C107.457 71.56 108.385 71.776 109.201 72.208C110.033 72.64 110.681 73.28 111.145 74.128C111.625 74.976 111.865 76 111.865 77.2V85H109.153V77.608C109.153 76.424 108.857 75.52 108.265 74.896C107.673 74.256 106.865 73.936 105.841 73.936C104.817 73.936 104.001 74.256 103.393 74.896C102.801 75.52 102.505 76.424 102.505 77.608V85H99.7934V77.608C99.7934 76.424 99.4974 75.52 98.9054 74.896C98.3134 74.256 97.5054 73.936 96.4814 73.936C95.4574 73.936 94.6414 74.256 94.0334 74.896C93.4414 75.52 93.1454 76.424 93.1454 77.608V85H90.4094V71.776H93.1454V73.288C93.5934 72.744 94.1614 72.32 94.8494 72.016C95.5374 71.712 96.2734 71.56 97.0574 71.56C98.1134 71.56 99.0574 71.784 99.8894 72.232C100.721 72.68 101.361 73.328 101.809 74.176C102.209 73.376 102.833 72.744 103.681 72.28C104.529 71.8 105.441 71.56 106.417 71.56ZM118.083 73.744C118.547 73.104 119.179 72.584 119.979 72.184C120.795 71.768 121.699 71.56 122.691 71.56C123.859 71.56 124.915 71.84 125.859 72.4C126.803 72.96 127.547 73.76 128.091 74.8C128.635 75.824 128.907 77 128.907 78.328C128.907 79.656 128.635 80.848 128.091 81.904C127.547 82.944 126.795 83.76 125.835 84.352C124.891 84.928 123.843 85.216 122.691 85.216C121.667 85.216 120.755 85.016 119.955 84.616C119.171 84.216 118.547 83.704 118.083 83.08V85H115.347V67.24H118.083V73.744ZM126.123 78.328C126.123 77.416 125.931 76.632 125.547 75.976C125.179 75.304 124.683 74.8 124.059 74.464C123.451 74.112 122.795 73.936 122.091 73.936C121.403 73.936 120.747 74.112 120.123 74.464C119.515 74.816 119.019 75.328 118.635 76C118.267 76.672 118.083 77.464 118.083 78.376C118.083 79.288 118.267 80.088 118.635 80.776C119.019 81.448 119.515 81.96 120.123 82.312C120.747 82.664 121.403 82.84 122.091 82.84C122.795 82.84 123.451 82.664 124.059 82.312C124.683 81.944 125.179 81.416 125.547 80.728C125.931 80.04 126.123 79.24 126.123 78.328ZM130.701 78.328C130.701 77 130.973 75.824 131.517 74.8C132.077 73.776 132.829 72.984 133.773 72.424C134.733 71.848 135.789 71.56 136.941 71.56C137.981 71.56 138.885 71.768 139.653 72.184C140.437 72.584 141.061 73.088 141.525 73.696V71.776H144.285V85H141.525V83.032C141.061 83.656 140.429 84.176 139.629 84.592C138.829 85.008 137.917 85.216 136.893 85.216C135.757 85.216 134.717 84.928 133.773 84.352C132.829 83.76 132.077 82.944 131.517 81.904C130.973 80.848 130.701 79.656 130.701 78.328ZM141.525 78.376C141.525 77.464 141.333 76.672 140.949 76C140.581 75.328 140.093 74.816 139.485 74.464C138.877 74.112 138.221 73.936 137.517 73.936C136.813 73.936 136.157 74.112 135.549 74.464C134.941 74.8 134.445 75.304 134.061 75.976C133.693 76.632 133.509 77.416 133.509 78.328C133.509 79.24 133.693 80.04 134.061 80.728C134.445 81.416 134.941 81.944 135.549 82.312C136.173 82.664 136.829 82.84 137.517 82.84C138.221 82.84 138.877 82.664 139.485 82.312C140.093 81.96 140.581 81.448 140.949 80.776C141.333 80.088 141.525 79.288 141.525 78.376ZM165.638 71.776L161.534 85H158.654L155.99 75.232L153.326 85H150.446L146.318 71.776H149.102L151.862 82.408L154.67 71.776H157.526L160.214 82.36L162.95 71.776H165.638ZM166.771 78.328C166.771 77 167.043 75.824 167.587 74.8C168.147 73.776 168.899 72.984 169.843 72.424C170.803 71.848 171.859 71.56 173.011 71.56C174.051 71.56 174.955 71.768 175.723 72.184C176.507 72.584 177.131 73.088 177.595 73.696V71.776H180.355V85H177.595V83.032C177.131 83.656 176.499 84.176 175.699 84.592C174.899 85.008 173.987 85.216 172.963 85.216C171.827 85.216 170.787 84.928 169.843 84.352C168.899 83.76 168.147 82.944 167.587 81.904C167.043 80.848 166.771 79.656 166.771 78.328ZM177.595 78.376C177.595 77.464 177.403 76.672 177.019 76C176.651 75.328 176.163 74.816 175.555 74.464C174.947 74.112 174.291 73.936 173.587 73.936C172.883 73.936 172.227 74.112 171.619 74.464C171.011 74.8 170.515 75.304 170.131 75.976C169.763 76.632 169.579 77.416 169.579 78.328C169.579 79.24 169.763 80.04 170.131 80.728C170.515 81.416 171.011 81.944 171.619 82.312C172.243 82.664 172.899 82.84 173.587 82.84C174.291 82.84 174.947 82.664 175.555 82.312C176.163 81.96 176.651 81.448 177.019 80.776C177.403 80.088 177.595 79.288 177.595 78.376ZM195.631 68.32C197.407 68.32 198.959 68.664 200.287 69.352C201.631 70.024 202.663 71 203.383 72.28C204.119 73.544 204.487 75.024 204.487 76.72C204.487 78.416 204.119 79.888 203.383 81.136C202.663 82.384 201.631 83.344 200.287 84.016C198.959 84.672 197.407 85 195.631 85H190.183V68.32H195.631ZM195.631 82.768C197.583 82.768 199.079 82.24 200.119 81.184C201.159 80.128 201.679 78.64 201.679 76.72C201.679 74.784 201.159 73.272 200.119 72.184C199.079 71.096 197.583 70.552 195.631 70.552H192.919V82.768H195.631ZM209.934 73.696C210.334 73.024 210.862 72.504 211.518 72.136C212.19 71.752 212.982 71.56 213.894 71.56V74.392H213.198C212.126 74.392 211.31 74.664 210.75 75.208C210.206 75.752 209.934 76.696 209.934 78.04V85H207.198V71.776H209.934V73.696ZM228.313 71.776L220.201 91.216H217.369L220.057 84.784L214.849 71.776H217.897L221.617 81.856L225.481 71.776H228.313ZM246.429 68.32V70.552H239.349V75.472H244.869V77.704H239.349V85H236.613V68.32H246.429ZM254.7 85.216C253.452 85.216 252.324 84.936 251.316 84.376C250.308 83.8 249.516 83 248.94 81.976C248.364 80.936 248.076 79.736 248.076 78.376C248.076 77.032 248.372 75.84 248.964 74.8C249.556 73.76 250.364 72.96 251.388 72.4C252.412 71.84 253.556 71.56 254.82 71.56C256.084 71.56 257.228 71.84 258.252 72.4C259.276 72.96 260.084 73.76 260.676 74.8C261.268 75.84 261.564 77.032 261.564 78.376C261.564 79.72 261.26 80.912 260.652 81.952C260.044 82.992 259.212 83.8 258.156 84.376C257.116 84.936 255.964 85.216 254.7 85.216ZM254.7 82.84C255.404 82.84 256.06 82.672 256.668 82.336C257.292 82 257.796 81.496 258.18 80.824C258.564 80.152 258.756 79.336 258.756 78.376C258.756 77.416 258.572 76.608 258.204 75.952C257.836 75.28 257.348 74.776 256.74 74.44C256.132 74.104 255.476 73.936 254.772 73.936C254.068 73.936 253.412 74.104 252.804 74.44C252.212 74.776 251.74 75.28 251.388 75.952C251.036 76.608 250.86 77.416 250.86 78.376C250.86 79.8 251.22 80.904 251.94 81.688C252.676 82.456 253.596 82.84 254.7 82.84ZM270.005 85.216C268.757 85.216 267.629 84.936 266.621 84.376C265.613 83.8 264.821 83 264.245 81.976C263.669 80.936 263.381 79.736 263.381 78.376C263.381 77.032 263.677 75.84 264.269 74.8C264.861 73.76 265.669 72.96 266.693 72.4C267.717 71.84 268.861 71.56 270.125 71.56C271.389 71.56 272.533 71.84 273.557 72.4C274.581 72.96 275.389 73.76 275.981 74.8C276.573 75.84 276.869 77.032 276.869 78.376C276.869 79.72 276.565 80.912 275.957 81.952C275.349 82.992 274.517 83.8 273.461 84.376C272.421 84.936 271.269 85.216 270.005 85.216ZM270.005 82.84C270.709 82.84 271.365 82.672 271.973 82.336C272.597 82 273.101 81.496 273.485 80.824C273.869 80.152 274.061 79.336 274.061 78.376C274.061 77.416 273.877 76.608 273.509 75.952C273.141 75.28 272.653 74.776 272.045 74.44C271.437 74.104 270.781 73.936 270.077 73.936C269.373 73.936 268.717 74.104 268.109 74.44C267.517 74.776 267.045 75.28 266.693 75.952C266.341 76.608 266.165 77.416 266.165 78.376C266.165 79.8 266.525 80.904 267.245 81.688C267.981 82.456 268.901 82.84 270.005 82.84ZM278.661 78.328C278.661 77 278.933 75.824 279.477 74.8C280.037 73.776 280.789 72.984 281.733 72.424C282.693 71.848 283.757 71.56 284.925 71.56C285.789 71.56 286.637 71.752 287.469 72.136C288.317 72.504 288.989 73 289.485 73.624V67.24H292.245V85H289.485V83.008C289.037 83.648 288.413 84.176 287.613 84.592C286.829 85.008 285.925 85.216 284.901 85.216C283.749 85.216 282.693 84.928 281.733 84.352C280.789 83.76 280.037 82.944 279.477 81.904C278.933 80.848 278.661 79.656 278.661 78.328ZM289.485 78.376C289.485 77.464 289.293 76.672 288.909 76C288.541 75.328 288.053 74.816 287.445 74.464C286.837 74.112 286.181 73.936 285.477 73.936C284.773 73.936 284.117 74.112 283.509 74.464C282.901 74.8 282.405 75.304 282.021 75.976C281.653 76.632 281.469 77.416 281.469 78.328C281.469 79.24 281.653 80.04 282.021 80.728C282.405 81.416 282.901 81.944 283.509 82.312C284.133 82.664 284.789 82.84 285.477 82.84C286.181 82.84 286.837 82.664 287.445 82.312C288.053 81.96 288.541 81.448 288.909 80.776C289.293 80.088 289.485 79.288 289.485 78.376ZM304.719 62.344L298.191 89.2H295.503L302.007 62.344H304.719ZM71.5942 97.32L66.6502 114H63.5542L60.0502 101.376L56.3302 114L53.2582 114.024L48.5302 97.32H51.4342L54.8902 110.904L58.6342 97.32H61.7062L65.1862 110.832L68.6662 97.32H71.5942ZM85.9708 107.064C85.9708 107.56 85.9388 108.008 85.8748 108.408H75.7708C75.8508 109.464 76.2428 110.312 76.9468 110.952C77.6508 111.592 78.5148 111.912 79.5388 111.912C81.0108 111.912 82.0508 111.296 82.6588 110.064H85.6108C85.2108 111.28 84.4828 112.28 83.4268 113.064C82.3868 113.832 81.0908 114.216 79.5388 114.216C78.2748 114.216 77.1388 113.936 76.1308 113.376C75.1388 112.8 74.3548 112 73.7788 110.976C73.2188 109.936 72.9388 108.736 72.9388 107.376C72.9388 106.016 73.2108 104.824 73.7548 103.8C74.3148 102.76 75.0908 101.96 76.0828 101.4C77.0908 100.84 78.2428 100.56 79.5388 100.56C80.7868 100.56 81.8988 100.832 82.8748 101.376C83.8508 101.92 84.6108 102.688 85.1548 103.68C85.6988 104.656 85.9708 105.784 85.9708 107.064ZM83.1148 106.2C83.0988 105.192 82.7388 104.384 82.0348 103.776C81.3308 103.168 80.4588 102.864 79.4188 102.864C78.4748 102.864 77.6668 103.168 76.9948 103.776C76.3228 104.368 75.9228 105.176 75.7948 106.2H83.1148ZM91.8553 103.008V110.328C91.8553 110.824 91.9673 111.184 92.1913 111.408C92.4313 111.616 92.8313 111.72 93.3913 111.72H95.0713V114H92.9113C91.6793 114 90.7353 113.712 90.0793 113.136C89.4233 112.56 89.0953 111.624 89.0953 110.328V103.008H87.5353V100.776H89.0953V97.488H91.8553V100.776H95.0713V103.008H91.8553ZM113.643 97.32V99.552H106.563V104.472H112.083V106.704H106.563V114H103.827V97.32H113.643ZM121.915 114.216C120.667 114.216 119.539 113.936 118.531 113.376C117.523 112.8 116.731 112 116.155 110.976C115.579 109.936 115.291 108.736 115.291 107.376C115.291 106.032 115.587 104.84 116.179 103.8C116.771 102.76 117.579 101.96 118.603 101.4C119.627 100.84 120.771 100.56 122.035 100.56C123.299 100.56 124.443 100.84 125.467 101.4C126.491 101.96 127.299 102.76 127.891 103.8C128.483 104.84 128.779 106.032 128.779 107.376C128.779 108.72 128.475 109.912 127.867 110.952C127.259 111.992 126.427 112.8 125.371 113.376C124.331 113.936 123.179 114.216 121.915 114.216ZM121.915 111.84C122.619 111.84 123.275 111.672 123.883 111.336C124.507 111 125.011 110.496 125.395 109.824C125.779 109.152 125.971 108.336 125.971 107.376C125.971 106.416 125.787 105.608 125.419 104.952C125.051 104.28 124.563 103.776 123.955 103.44C123.347 103.104 122.691 102.936 121.987 102.936C121.283 102.936 120.627 103.104 120.019 103.44C119.427 103.776 118.955 104.28 118.603 104.952C118.251 105.608 118.075 106.416 118.075 107.376C118.075 108.8 118.435 109.904 119.155 110.688C119.891 111.456 120.811 111.84 121.915 111.84ZM137.22 114.216C135.972 114.216 134.844 113.936 133.836 113.376C132.828 112.8 132.036 112 131.46 110.976C130.884 109.936 130.596 108.736 130.596 107.376C130.596 106.032 130.892 104.84 131.484 103.8C132.076 102.76 132.884 101.96 133.908 101.4C134.932 100.84 136.076 100.56 137.34 100.56C138.604 100.56 139.748 100.84 140.772 101.4C141.796 101.96 142.604 102.76 143.196 103.8C143.788 104.84 144.084 106.032 144.084 107.376C144.084 108.72 143.78 109.912 143.172 110.952C142.564 111.992 141.732 112.8 140.676 113.376C139.636 113.936 138.484 114.216 137.22 114.216ZM137.22 111.84C137.924 111.84 138.58 111.672 139.188 111.336C139.812 111 140.316 110.496 140.7 109.824C141.084 109.152 141.276 108.336 141.276 107.376C141.276 106.416 141.092 105.608 140.724 104.952C140.356 104.28 139.868 103.776 139.26 103.44C138.652 103.104 137.996 102.936 137.292 102.936C136.588 102.936 135.932 103.104 135.324 103.44C134.732 103.776 134.26 104.28 133.908 104.952C133.556 105.608 133.38 106.416 133.38 107.376C133.38 108.8 133.74 109.904 134.46 110.688C135.196 111.456 136.116 111.84 137.22 111.84ZM145.876 107.328C145.876 106 146.148 104.824 146.692 103.8C147.252 102.776 148.004 101.984 148.948 101.424C149.908 100.848 150.972 100.56 152.14 100.56C153.004 100.56 153.852 100.752 154.684 101.136C155.532 101.504 156.204 102 156.7 102.624V96.24H159.46V114H156.7V112.008C156.252 112.648 155.628 113.176 154.828 113.592C154.044 114.008 153.14 114.216 152.116 114.216C150.964 114.216 149.908 113.928 148.948 113.352C148.004 112.76 147.252 111.944 146.692 110.904C146.148 109.848 145.876 108.656 145.876 107.328ZM156.7 107.376C156.7 106.464 156.508 105.672 156.124 105C155.756 104.328 155.268 103.816 154.66 103.464C154.052 103.112 153.396 102.936 152.692 102.936C151.988 102.936 151.332 103.112 150.724 103.464C150.116 103.8 149.62 104.304 149.236 104.976C148.868 105.632 148.684 106.416 148.684 107.328C148.684 108.24 148.868 109.04 149.236 109.728C149.62 110.416 150.116 110.944 150.724 111.312C151.348 111.664 152.004 111.84 152.692 111.84C153.396 111.84 154.052 111.664 154.66 111.312C155.268 110.96 155.756 110.448 156.124 109.776C156.508 109.088 156.7 108.288 156.7 107.376ZM181.192 100.776L173.08 120.216H170.248L172.936 113.784L167.728 100.776H170.776L174.496 110.856L178.36 100.776H181.192ZM182.345 107.328C182.345 106 182.617 104.824 183.161 103.8C183.721 102.776 184.473 101.984 185.417 101.424C186.377 100.848 187.433 100.56 188.585 100.56C189.625 100.56 190.529 100.768 191.297 101.184C192.081 101.584 192.705 102.088 193.169 102.696V100.776H195.929V114H193.169V112.032C192.705 112.656 192.073 113.176 191.273 113.592C190.473 114.008 189.561 114.216 188.537 114.216C187.401 114.216 186.361 113.928 185.417 113.352C184.473 112.76 183.721 111.944 183.161 110.904C182.617 109.848 182.345 108.656 182.345 107.328ZM193.169 107.376C193.169 106.464 192.977 105.672 192.593 105C192.225 104.328 191.737 103.816 191.129 103.464C190.521 103.112 189.865 102.936 189.161 102.936C188.457 102.936 187.801 103.112 187.193 103.464C186.585 103.8 186.089 104.304 185.705 104.976C185.337 105.632 185.153 106.416 185.153 107.328C185.153 108.24 185.337 109.04 185.705 109.728C186.089 110.416 186.585 110.944 187.193 111.312C187.817 111.664 188.473 111.84 189.161 111.84C189.865 111.84 190.521 111.664 191.129 111.312C191.737 110.96 192.225 110.448 192.593 109.776C192.977 109.088 193.169 108.288 193.169 107.376ZM206.195 100.56C207.235 100.56 208.163 100.776 208.979 101.208C209.811 101.64 210.459 102.28 210.923 103.128C211.387 103.976 211.619 105 211.619 106.2V114H208.907V106.608C208.907 105.424 208.611 104.52 208.019 103.896C207.427 103.256 206.619 102.936 205.595 102.936C204.571 102.936 203.755 103.256 203.147 103.896C202.555 104.52 202.259 105.424 202.259 106.608V114H199.523V100.776H202.259V102.288C202.707 101.744 203.275 101.32 203.963 101.016C204.667 100.712 205.411 100.56 206.195 100.56ZM220.437 100.56C221.461 100.56 222.365 100.768 223.149 101.184C223.949 101.584 224.573 102.088 225.021 102.696V100.776H227.781V114.216C227.781 115.432 227.525 116.512 227.013 117.456C226.501 118.416 225.757 119.168 224.781 119.712C223.821 120.256 222.669 120.528 221.325 120.528C219.533 120.528 218.045 120.104 216.861 119.256C215.677 118.424 215.005 117.288 214.845 115.848H217.557C217.765 116.536 218.205 117.088 218.877 117.504C219.565 117.936 220.381 118.152 221.325 118.152C222.429 118.152 223.317 117.816 223.989 117.144C224.677 116.472 225.021 115.496 225.021 114.216V112.008C224.557 112.632 223.925 113.16 223.125 113.592C222.341 114.008 221.445 114.216 220.437 114.216C219.285 114.216 218.229 113.928 217.269 113.352C216.325 112.76 215.573 111.944 215.013 110.904C214.469 109.848 214.197 108.656 214.197 107.328C214.197 106 214.469 104.824 215.013 103.8C215.573 102.776 216.325 101.984 217.269 101.424C218.229 100.848 219.285 100.56 220.437 100.56ZM225.021 107.376C225.021 106.464 224.829 105.672 224.445 105C224.077 104.328 223.589 103.816 222.981 103.464C222.373 103.112 221.717 102.936 221.013 102.936C220.309 102.936 219.653 103.112 219.045 103.464C218.437 103.8 217.941 104.304 217.557 104.976C217.189 105.632 217.005 106.416 217.005 107.328C217.005 108.24 217.189 109.04 217.557 109.728C217.941 110.416 218.437 110.944 219.045 111.312C219.669 111.664 220.325 111.84 221.013 111.84C221.717 111.84 222.373 111.664 222.981 111.312C223.589 110.96 224.077 110.448 224.445 109.776C224.829 109.088 225.021 108.288 225.021 107.376ZM236.697 107.376C236.697 106.016 236.969 104.824 237.513 103.8C238.073 102.76 238.841 101.96 239.817 101.4C240.793 100.84 241.913 100.56 243.177 100.56C244.777 100.56 246.097 100.944 247.137 101.712C248.193 102.464 248.905 103.544 249.273 104.952H246.321C246.081 104.296 245.697 103.784 245.169 103.416C244.641 103.048 243.977 102.864 243.177 102.864C242.057 102.864 241.161 103.264 240.489 104.064C239.833 104.848 239.505 105.952 239.505 107.376C239.505 108.8 239.833 109.912 240.489 110.712C241.161 111.512 242.057 111.912 243.177 111.912C244.761 111.912 245.809 111.216 246.321 109.824H249.273C248.889 111.168 248.169 112.24 247.113 113.04C246.057 113.824 244.745 114.216 243.177 114.216C241.913 114.216 240.793 113.936 239.817 113.376C238.841 112.8 238.073 112 237.513 110.976C236.969 109.936 236.697 108.736 236.697 107.376ZM263.975 100.776V114H261.239V112.44C260.807 112.984 260.239 113.416 259.535 113.736C258.847 114.04 258.111 114.192 257.327 114.192C256.287 114.192 255.351 113.976 254.519 113.544C253.703 113.112 253.055 112.472 252.575 111.624C252.111 110.776 251.879 109.752 251.879 108.552V100.776H254.591V108.144C254.591 109.328 254.887 110.24 255.479 110.88C256.071 111.504 256.879 111.816 257.903 111.816C258.927 111.816 259.735 111.504 260.327 110.88C260.935 110.24 261.239 109.328 261.239 108.144V100.776H263.975ZM272.817 107.4L278.913 114H275.217L270.321 108.312V114H267.585V96.24H270.321V106.56L275.121 100.776H278.913L272.817 107.4ZM292.85 100.776V114H290.114V112.44C289.682 112.984 289.114 113.416 288.41 113.736C287.722 114.04 286.986 114.192 286.202 114.192C285.162 114.192 284.226 113.976 283.394 113.544C282.578 113.112 281.93 112.472 281.45 111.624C280.986 110.776 280.754 109.752 280.754 108.552V100.776H283.466V108.144C283.466 109.328 283.762 110.24 284.354 110.88C284.946 111.504 285.754 111.816 286.778 111.816C287.802 111.816 288.61 111.504 289.202 110.88C289.81 110.24 290.114 109.328 290.114 108.144V100.776H292.85ZM299.196 102.72C299.66 102.112 300.292 101.6 301.092 101.184C301.892 100.768 302.796 100.56 303.804 100.56C304.956 100.56 306.004 100.848 306.948 101.424C307.908 101.984 308.66 102.776 309.204 103.8C309.748 104.824 310.02 106 310.02 107.328C310.02 108.656 309.748 109.848 309.204 110.904C308.66 111.944 307.908 112.76 306.948 113.352C306.004 113.928 304.956 114.216 303.804 114.216C302.796 114.216 301.9 114.016 301.116 113.616C300.332 113.2 299.692 112.688 299.196 112.08V120.288H296.46V100.776H299.196V102.72ZM307.236 107.328C307.236 106.416 307.044 105.632 306.66 104.976C306.292 104.304 305.796 103.8 305.172 103.464C304.564 103.112 303.908 102.936 303.204 102.936C302.516 102.936 301.86 103.112 301.236 103.464C300.628 103.816 300.132 104.328 299.748 105C299.38 105.672 299.196 106.464 299.196 107.376C299.196 108.288 299.38 109.088 299.748 109.776C300.132 110.448 300.628 110.96 301.236 111.312C301.86 111.664 302.516 111.84 303.204 111.84C303.908 111.84 304.564 111.664 305.172 111.312C305.796 110.944 306.292 110.416 306.66 109.728C307.044 109.04 307.236 108.24 307.236 107.328ZM79.0844 143.216C78.0444 143.216 77.1084 143.032 76.2764 142.664C75.4604 142.28 74.8124 141.768 74.3324 141.128C73.8524 140.472 73.5964 139.744 73.5644 138.944H76.3964C76.4444 139.504 76.7084 139.976 77.1884 140.36C77.6844 140.728 78.3004 140.912 79.0364 140.912C79.8044 140.912 80.3964 140.768 80.8124 140.48C81.2444 140.176 81.4604 139.792 81.4604 139.328C81.4604 138.832 81.2204 138.464 80.7404 138.224C80.2764 137.984 79.5324 137.72 78.5084 137.432C77.5164 137.16 76.7084 136.896 76.0844 136.64C75.4604 136.384 74.9164 135.992 74.4524 135.464C74.0044 134.936 73.7804 134.24 73.7804 133.376C73.7804 132.672 73.9884 132.032 74.4044 131.456C74.8204 130.864 75.4124 130.4 76.1804 130.064C76.9644 129.728 77.8604 129.56 78.8684 129.56C80.3724 129.56 81.5804 129.944 82.4924 130.712C83.4204 131.464 83.9164 132.496 83.9804 133.808H81.2444C81.1964 133.216 80.9564 132.744 80.5244 132.392C80.0924 132.04 79.5084 131.864 78.7724 131.864C78.0524 131.864 77.5004 132 77.1164 132.272C76.7324 132.544 76.5404 132.904 76.5404 133.352C76.5404 133.704 76.6684 134 76.9244 134.24C77.1804 134.48 77.4924 134.672 77.8604 134.816C78.2284 134.944 78.7724 135.112 79.4924 135.32C80.4524 135.576 81.2364 135.84 81.8444 136.112C82.4684 136.368 83.0044 136.752 83.4524 137.264C83.9004 137.776 84.1324 138.456 84.1484 139.304C84.1484 140.056 83.9404 140.728 83.5244 141.32C83.1084 141.912 82.5164 142.376 81.7484 142.712C80.9964 143.048 80.1084 143.216 79.0844 143.216ZM99.2247 136.064C99.2247 136.56 99.1927 137.008 99.1287 137.408H89.0247C89.1047 138.464 89.4967 139.312 90.2007 139.952C90.9047 140.592 91.7687 140.912 92.7927 140.912C94.2647 140.912 95.3047 140.296 95.9127 139.064H98.8647C98.4647 140.28 97.7367 141.28 96.6807 142.064C95.6407 142.832 94.3447 143.216 92.7927 143.216C91.5287 143.216 90.3927 142.936 89.3847 142.376C88.3927 141.8 87.6087 141 87.0327 139.976C86.4727 138.936 86.1927 137.736 86.1927 136.376C86.1927 135.016 86.4647 133.824 87.0087 132.8C87.5687 131.76 88.3447 130.96 89.3367 130.4C90.3447 129.84 91.4967 129.56 92.7927 129.56C94.0407 129.56 95.1527 129.832 96.1287 130.376C97.1047 130.92 97.8647 131.688 98.4087 132.68C98.9527 133.656 99.2247 134.784 99.2247 136.064ZM96.3687 135.2C96.3527 134.192 95.9927 133.384 95.2887 132.776C94.5847 132.168 93.7127 131.864 92.6727 131.864C91.7287 131.864 90.9207 132.168 90.2487 132.776C89.5767 133.368 89.1767 134.176 89.0487 135.2H96.3687ZM104.653 125.24V143H101.917V125.24H104.653ZM107.333 136.328C107.333 135 107.605 133.824 108.149 132.8C108.709 131.776 109.461 130.984 110.405 130.424C111.365 129.848 112.421 129.56 113.573 129.56C114.613 129.56 115.517 129.768 116.285 130.184C117.069 130.584 117.693 131.088 118.157 131.696V129.776H120.917V143H118.157V141.032C117.693 141.656 117.061 142.176 116.261 142.592C115.461 143.008 114.549 143.216 113.525 143.216C112.389 143.216 111.349 142.928 110.405 142.352C109.461 141.76 108.709 140.944 108.149 139.904C107.605 138.848 107.333 137.656 107.333 136.328ZM118.157 136.376C118.157 135.464 117.965 134.672 117.581 134C117.213 133.328 116.725 132.816 116.117 132.464C115.509 132.112 114.853 131.936 114.149 131.936C113.445 131.936 112.789 132.112 112.181 132.464C111.573 132.8 111.077 133.304 110.693 133.976C110.325 134.632 110.141 135.416 110.141 136.328C110.141 137.24 110.325 138.04 110.693 138.728C111.077 139.416 111.573 139.944 112.181 140.312C112.805 140.664 113.461 140.84 114.149 140.84C114.853 140.84 115.509 140.664 116.117 140.312C116.725 139.96 117.213 139.448 117.581 138.776C117.965 138.088 118.157 137.288 118.157 136.376ZM140.519 129.56C141.559 129.56 142.487 129.776 143.303 130.208C144.135 130.64 144.783 131.28 145.247 132.128C145.727 132.976 145.967 134 145.967 135.2V143H143.255V135.608C143.255 134.424 142.959 133.52 142.367 132.896C141.775 132.256 140.967 131.936 139.943 131.936C138.919 131.936 138.103 132.256 137.495 132.896C136.903 133.52 136.607 134.424 136.607 135.608V143H133.895V135.608C133.895 134.424 133.599 133.52 133.007 132.896C132.415 132.256 131.607 131.936 130.583 131.936C129.559 131.936 128.743 132.256 128.135 132.896C127.543 133.52 127.247 134.424 127.247 135.608V143H124.511V129.776H127.247V131.288C127.695 130.744 128.263 130.32 128.951 130.016C129.639 129.712 130.375 129.56 131.159 129.56C132.215 129.56 133.159 129.784 133.991 130.232C134.823 130.68 135.463 131.328 135.911 132.176C136.311 131.376 136.935 130.744 137.783 130.28C138.631 129.8 139.543 129.56 140.519 129.56ZM148.536 136.328C148.536 135 148.808 133.824 149.352 132.8C149.912 131.776 150.664 130.984 151.608 130.424C152.568 129.848 153.624 129.56 154.776 129.56C155.816 129.56 156.72 129.768 157.488 130.184C158.272 130.584 158.896 131.088 159.36 131.696V129.776H162.12V143H159.36V141.032C158.896 141.656 158.264 142.176 157.464 142.592C156.664 143.008 155.752 143.216 154.728 143.216C153.592 143.216 152.552 142.928 151.608 142.352C150.664 141.76 149.912 140.944 149.352 139.904C148.808 138.848 148.536 137.656 148.536 136.328ZM159.36 136.376C159.36 135.464 159.168 134.672 158.784 134C158.416 133.328 157.928 132.816 157.32 132.464C156.712 132.112 156.056 131.936 155.352 131.936C154.648 131.936 153.992 132.112 153.384 132.464C152.776 132.8 152.28 133.304 151.896 133.976C151.528 134.632 151.344 135.416 151.344 136.328C151.344 137.24 151.528 138.04 151.896 138.728C152.28 139.416 152.776 139.944 153.384 140.312C154.008 140.664 154.664 140.84 155.352 140.84C156.056 140.84 156.712 140.664 157.32 140.312C157.928 139.96 158.416 139.448 158.784 138.776C159.168 138.088 159.36 137.288 159.36 136.376ZM174.684 131.72C175.148 131.112 175.78 130.6 176.58 130.184C177.38 129.768 178.284 129.56 179.292 129.56C180.444 129.56 181.492 129.848 182.436 130.424C183.396 130.984 184.148 131.776 184.692 132.8C185.236 133.824 185.508 135 185.508 136.328C185.508 137.656 185.236 138.848 184.692 139.904C184.148 140.944 183.396 141.76 182.436 142.352C181.492 142.928 180.444 143.216 179.292 143.216C178.284 143.216 177.388 143.016 176.604 142.616C175.82 142.2 175.18 141.688 174.684 141.08V149.288H171.948V129.776H174.684V131.72ZM182.724 136.328C182.724 135.416 182.532 134.632 182.148 133.976C181.78 133.304 181.284 132.8 180.66 132.464C180.052 132.112 179.396 131.936 178.692 131.936C178.004 131.936 177.348 132.112 176.724 132.464C176.116 132.816 175.62 133.328 175.236 134C174.868 134.672 174.684 135.464 174.684 136.376C174.684 137.288 174.868 138.088 175.236 138.776C175.62 139.448 176.116 139.96 176.724 140.312C177.348 140.664 178.004 140.84 178.692 140.84C179.396 140.84 180.052 140.664 180.66 140.312C181.284 139.944 181.78 139.416 182.148 138.728C182.532 138.04 182.724 137.24 182.724 136.328ZM200.334 136.064C200.334 136.56 200.302 137.008 200.238 137.408H190.134C190.214 138.464 190.606 139.312 191.31 139.952C192.014 140.592 192.878 140.912 193.902 140.912C195.374 140.912 196.414 140.296 197.022 139.064H199.974C199.574 140.28 198.846 141.28 197.79 142.064C196.75 142.832 195.454 143.216 193.902 143.216C192.638 143.216 191.502 142.936 190.494 142.376C189.502 141.8 188.718 141 188.142 139.976C187.582 138.936 187.302 137.736 187.302 136.376C187.302 135.016 187.574 133.824 188.118 132.8C188.678 131.76 189.454 130.96 190.446 130.4C191.454 129.84 192.606 129.56 193.902 129.56C195.15 129.56 196.262 129.832 197.238 130.376C198.214 130.92 198.974 131.688 199.518 132.68C200.062 133.656 200.334 134.784 200.334 136.064ZM197.478 135.2C197.462 134.192 197.102 133.384 196.398 132.776C195.694 132.168 194.822 131.864 193.782 131.864C192.838 131.864 192.03 132.168 191.358 132.776C190.686 133.368 190.286 134.176 190.158 135.2H197.478ZM209.699 129.56C210.739 129.56 211.667 129.776 212.483 130.208C213.315 130.64 213.963 131.28 214.427 132.128C214.891 132.976 215.123 134 215.123 135.2V143H212.411V135.608C212.411 134.424 212.115 133.52 211.523 132.896C210.931 132.256 210.123 131.936 209.099 131.936C208.075 131.936 207.259 132.256 206.651 132.896C206.059 133.52 205.763 134.424 205.763 135.608V143H203.027V129.776H205.763V131.288C206.211 130.744 206.779 130.32 207.467 130.016C208.171 129.712 208.915 129.56 209.699 129.56ZM220.005 128.024C219.509 128.024 219.093 127.856 218.757 127.52C218.421 127.184 218.253 126.768 218.253 126.272C218.253 125.776 218.421 125.36 218.757 125.024C219.093 124.688 219.509 124.52 220.005 124.52C220.485 124.52 220.893 124.688 221.229 125.024C221.565 125.36 221.733 125.776 221.733 126.272C221.733 126.768 221.565 127.184 221.229 127.52C220.893 127.856 220.485 128.024 220.005 128.024ZM221.349 129.776V143H218.613V129.776H221.349ZM228.133 132.008V139.328C228.133 139.824 228.245 140.184 228.469 140.408C228.709 140.616 229.109 140.72 229.669 140.72H231.349V143H229.189C227.957 143 227.013 142.712 226.357 142.136C225.701 141.56 225.373 140.624 225.373 139.328V132.008H223.813V129.776H225.373V126.488H228.133V129.776H231.349V132.008H228.133ZM235.262 128.024C234.766 128.024 234.35 127.856 234.014 127.52C233.678 127.184 233.51 126.768 233.51 126.272C233.51 125.776 233.678 125.36 234.014 125.024C234.35 124.688 234.766 124.52 235.262 124.52C235.742 124.52 236.15 124.688 236.486 125.024C236.822 125.36 236.99 125.776 236.99 126.272C236.99 126.768 236.822 127.184 236.486 127.52C236.15 127.856 235.742 128.024 235.262 128.024ZM236.606 129.776V143H233.87V129.776H236.606ZM242.934 131.72C243.398 131.112 244.03 130.6 244.83 130.184C245.63 129.768 246.534 129.56 247.542 129.56C248.694 129.56 249.742 129.848 250.686 130.424C251.646 130.984 252.398 131.776 252.942 132.8C253.486 133.824 253.758 135 253.758 136.328C253.758 137.656 253.486 138.848 252.942 139.904C252.398 140.944 251.646 141.76 250.686 142.352C249.742 142.928 248.694 143.216 247.542 143.216C246.534 143.216 245.638 143.016 244.854 142.616C244.07 142.2 243.43 141.688 242.934 141.08V149.288H240.198V129.776H242.934V131.72ZM250.974 136.328C250.974 135.416 250.782 134.632 250.398 133.976C250.03 133.304 249.534 132.8 248.91 132.464C248.302 132.112 247.646 131.936 246.942 131.936C246.254 131.936 245.598 132.112 244.974 132.464C244.366 132.816 243.87 133.328 243.486 134C243.118 134.672 242.934 135.464 242.934 136.376C242.934 137.288 243.118 138.088 243.486 138.776C243.87 139.448 244.366 139.96 244.974 140.312C245.598 140.664 246.254 140.84 246.942 140.84C247.646 140.84 248.302 140.664 248.91 140.312C249.534 139.944 250.03 139.416 250.398 138.728C250.782 138.04 250.974 137.24 250.974 136.328ZM255.552 136.328C255.552 135 255.824 133.824 256.368 132.8C256.928 131.776 257.68 130.984 258.624 130.424C259.584 129.848 260.64 129.56 261.792 129.56C262.832 129.56 263.736 129.768 264.504 130.184C265.288 130.584 265.912 131.088 266.376 131.696V129.776H269.136V143H266.376V141.032C265.912 141.656 265.28 142.176 264.48 142.592C263.68 143.008 262.768 143.216 261.744 143.216C260.608 143.216 259.568 142.928 258.624 142.352C257.68 141.76 256.928 140.944 256.368 139.904C255.824 138.848 255.552 137.656 255.552 136.328ZM266.376 136.376C266.376 135.464 266.184 134.672 265.8 134C265.432 133.328 264.944 132.816 264.336 132.464C263.728 132.112 263.072 131.936 262.368 131.936C261.664 131.936 261.008 132.112 260.4 132.464C259.792 132.8 259.296 133.304 258.912 133.976C258.544 134.632 258.36 135.416 258.36 136.328C258.36 137.24 258.544 138.04 258.912 138.728C259.296 139.416 259.792 139.944 260.4 140.312C261.024 140.664 261.68 140.84 262.368 140.84C263.072 140.84 263.728 140.664 264.336 140.312C264.944 139.96 265.432 139.448 265.8 138.776C266.184 138.088 266.376 137.288 266.376 136.376ZM279.402 129.56C280.442 129.56 281.37 129.776 282.186 130.208C283.018 130.64 283.666 131.28 284.13 132.128C284.594 132.976 284.826 134 284.826 135.2V143H282.114V135.608C282.114 134.424 281.818 133.52 281.226 132.896C280.634 132.256 279.826 131.936 278.802 131.936C277.778 131.936 276.962 132.256 276.354 132.896C275.762 133.52 275.466 134.424 275.466 135.608V143H272.73V129.776H275.466V131.288C275.914 130.744 276.482 130.32 277.17 130.016C277.874 129.712 278.618 129.56 279.402 129.56Z" fill="#181817"/>
<rect y="269.808" width="360" height="138.607" fill="#FFCC00"/>
<path d="M61.9423 336.432C61.9423 337.328 61.7263 338.168 61.2943 338.952C60.8783 339.736 60.2143 340.368 59.3023 340.848C58.4063 341.328 57.2703 341.568 55.8943 341.568H53.0863V348H49.7263V331.248H55.8943C57.1903 331.248 58.2943 331.472 59.2063 331.92C60.1183 332.368 60.7983 332.984 61.2463 333.768C61.7103 334.552 61.9423 335.44 61.9423 336.432ZM55.7503 338.856C56.6783 338.856 57.3663 338.648 57.8143 338.232C58.2623 337.8 58.4863 337.2 58.4863 336.432C58.4863 334.8 57.5743 333.984 55.7503 333.984H53.0863V338.856H55.7503ZM76.6879 341.064C76.6879 341.544 76.6559 341.976 76.5919 342.36H66.8719C66.9519 343.32 67.2879 344.072 67.8799 344.616C68.4719 345.16 69.1999 345.432 70.0639 345.432C71.3119 345.432 72.1999 344.896 72.7279 343.824H76.3519C75.9679 345.104 75.2319 346.16 74.1439 346.992C73.0559 347.808 71.7199 348.216 70.1359 348.216C68.8559 348.216 67.7039 347.936 66.6799 347.376C65.6719 346.8 64.8799 345.992 64.3039 344.952C63.7439 343.912 63.4639 342.712 63.4639 341.352C63.4639 339.976 63.7439 338.768 64.3039 337.728C64.8639 336.688 65.6479 335.888 66.6559 335.328C67.6639 334.768 68.8239 334.488 70.1359 334.488C71.3999 334.488 72.5279 334.76 73.5199 335.304C74.5279 335.848 75.3039 336.624 75.8479 337.632C76.4079 338.624 76.6879 339.768 76.6879 341.064ZM73.2079 340.104C73.1919 339.24 72.8799 338.552 72.2719 338.04C71.6639 337.512 70.9199 337.248 70.0399 337.248C69.2079 337.248 68.5039 337.504 67.9279 338.016C67.3679 338.512 67.0239 339.208 66.8959 340.104H73.2079ZM82.5004 336.768C82.9324 336.064 83.4924 335.512 84.1804 335.112C84.8844 334.712 85.6844 334.512 86.5804 334.512V338.04H85.6924C84.6364 338.04 83.8364 338.288 83.2924 338.784C82.7644 339.28 82.5004 340.144 82.5004 341.376V348H79.1404V334.704H82.5004V336.768ZM93.9315 348.216C92.8435 348.216 91.8675 348.024 91.0035 347.64C90.1395 347.24 89.4515 346.704 88.9395 346.032C88.4435 345.36 88.1715 344.616 88.1235 343.8H91.5075C91.5715 344.312 91.8195 344.736 92.2515 345.072C92.6995 345.408 93.2515 345.576 93.9075 345.576C94.5475 345.576 95.0435 345.448 95.3955 345.192C95.7635 344.936 95.9475 344.608 95.9475 344.208C95.9475 343.776 95.7235 343.456 95.2755 343.248C94.8435 343.024 94.1475 342.784 93.1875 342.528C92.1955 342.288 91.3795 342.04 90.7395 341.784C90.1155 341.528 89.5715 341.136 89.1075 340.608C88.6595 340.08 88.4355 339.368 88.4355 338.472C88.4355 337.736 88.6435 337.064 89.0595 336.456C89.4915 335.848 90.0995 335.368 90.8835 335.016C91.6835 334.664 92.6195 334.488 93.6915 334.488C95.2755 334.488 96.5395 334.888 97.4835 335.688C98.4275 336.472 98.9475 337.536 99.0435 338.88H95.8275C95.7795 338.352 95.5555 337.936 95.1555 337.632C94.7715 337.312 94.2515 337.152 93.5955 337.152C92.9875 337.152 92.5155 337.264 92.1795 337.488C91.8595 337.712 91.6995 338.024 91.6995 338.424C91.6995 338.872 91.9235 339.216 92.3715 339.456C92.8195 339.68 93.5155 339.912 94.4595 340.152C95.4195 340.392 96.2115 340.64 96.8355 340.896C97.4595 341.152 97.9955 341.552 98.4435 342.096C98.9075 342.624 99.1475 343.328 99.1635 344.208C99.1635 344.976 98.9475 345.664 98.5155 346.272C98.0995 346.88 97.4915 347.36 96.6915 347.712C95.9075 348.048 94.9875 348.216 93.9315 348.216ZM114.642 334.704L106.41 354.288H102.834L105.714 347.664L100.386 334.704H104.154L107.586 343.992L111.066 334.704H114.642ZM115.589 341.304C115.589 339.96 115.853 338.768 116.381 337.728C116.925 336.688 117.653 335.888 118.565 335.328C119.493 334.768 120.525 334.488 121.661 334.488C122.653 334.488 123.517 334.688 124.253 335.088C125.005 335.488 125.605 335.992 126.053 336.6V334.704H129.437V348H126.053V346.056C125.621 346.68 125.021 347.2 124.253 347.616C123.501 348.016 122.629 348.216 121.637 348.216C120.517 348.216 119.493 347.928 118.565 347.352C117.653 346.776 116.925 345.968 116.381 344.928C115.853 343.872 115.589 342.664 115.589 341.304ZM126.053 341.352C126.053 340.536 125.893 339.84 125.573 339.264C125.253 338.672 124.821 338.224 124.277 337.92C123.733 337.6 123.149 337.44 122.525 337.44C121.901 337.44 121.325 337.592 120.797 337.896C120.269 338.2 119.837 338.648 119.501 339.24C119.181 339.816 119.021 340.504 119.021 341.304C119.021 342.104 119.181 342.808 119.501 343.416C119.837 344.008 120.269 344.464 120.797 344.784C121.341 345.104 121.917 345.264 122.525 345.264C123.149 345.264 123.733 345.112 124.277 344.808C124.821 344.488 125.253 344.04 125.573 343.464C125.893 342.872 126.053 342.168 126.053 341.352ZM136.079 336.768C136.511 336.064 137.071 335.512 137.759 335.112C138.463 334.712 139.263 334.512 140.159 334.512V338.04H139.271C138.215 338.04 137.415 338.288 136.871 338.784C136.343 339.28 136.079 340.144 136.079 341.376V348H132.719V334.704H136.079V336.768ZM141.558 341.304C141.558 339.96 141.822 338.768 142.35 337.728C142.894 336.688 143.622 335.888 144.534 335.328C145.462 334.768 146.494 334.488 147.63 334.488C148.622 334.488 149.486 334.688 150.222 335.088C150.974 335.488 151.574 335.992 152.022 336.6V334.704H155.406V348H152.022V346.056C151.59 346.68 150.99 347.2 150.222 347.616C149.47 348.016 148.598 348.216 147.606 348.216C146.486 348.216 145.462 347.928 144.534 347.352C143.622 346.776 142.894 345.968 142.35 344.928C141.822 343.872 141.558 342.664 141.558 341.304ZM152.022 341.352C152.022 340.536 151.862 339.84 151.542 339.264C151.222 338.672 150.79 338.224 150.246 337.92C149.702 337.6 149.118 337.44 148.494 337.44C147.87 337.44 147.294 337.592 146.766 337.896C146.238 338.2 145.806 338.648 145.47 339.24C145.15 339.816 144.99 340.504 144.99 341.304C144.99 342.104 145.15 342.808 145.47 343.416C145.806 344.008 146.238 344.464 146.766 344.784C147.31 345.104 147.886 345.264 148.494 345.264C149.118 345.264 149.702 345.112 150.246 344.808C150.79 344.488 151.222 344.04 151.542 343.464C151.862 342.872 152.022 342.168 152.022 341.352ZM162.599 337.464V343.896C162.599 344.344 162.703 344.672 162.911 344.88C163.135 345.072 163.503 345.168 164.015 345.168H165.575V348H163.463C160.631 348 159.215 346.624 159.215 343.872V337.464H157.631V334.704H159.215V331.416H162.599V334.704H165.575V337.464H162.599ZM167.128 341.304C167.128 339.96 167.392 338.768 167.92 337.728C168.464 336.688 169.192 335.888 170.104 335.328C171.032 334.768 172.064 334.488 173.2 334.488C174.192 334.488 175.056 334.688 175.792 335.088C176.544 335.488 177.144 335.992 177.592 336.6V334.704H180.976V348H177.592V346.056C177.16 346.68 176.56 347.2 175.792 347.616C175.04 348.016 174.168 348.216 173.176 348.216C172.056 348.216 171.032 347.928 170.104 347.352C169.192 346.776 168.464 345.968 167.92 344.928C167.392 343.872 167.128 342.664 167.128 341.304ZM177.592 341.352C177.592 340.536 177.432 339.84 177.112 339.264C176.792 338.672 176.36 338.224 175.816 337.92C175.272 337.6 174.688 337.44 174.064 337.44C173.44 337.44 172.864 337.592 172.336 337.896C171.808 338.2 171.376 338.648 171.04 339.24C170.72 339.816 170.56 340.504 170.56 341.304C170.56 342.104 170.72 342.808 171.04 343.416C171.376 344.008 171.808 344.464 172.336 344.784C172.88 345.104 173.456 345.264 174.064 345.264C174.688 345.264 175.272 345.112 175.816 344.808C176.36 344.488 176.792 344.04 177.112 343.464C177.432 342.872 177.592 342.168 177.592 341.352ZM191.626 334.512C193.21 334.512 194.49 335.016 195.466 336.024C196.442 337.016 196.93 338.408 196.93 340.2V348H193.57V340.656C193.57 339.6 193.306 338.792 192.778 338.232C192.25 337.656 191.53 337.368 190.618 337.368C189.69 337.368 188.954 337.656 188.41 338.232C187.882 338.792 187.618 339.6 187.618 340.656V348H184.258V334.704H187.618V336.36C188.066 335.784 188.634 335.336 189.322 335.016C190.026 334.68 190.794 334.512 191.626 334.512ZM218.06 336.432C218.06 337.328 217.844 338.168 217.411 338.952C216.996 339.736 216.332 340.368 215.42 340.848C214.524 341.328 213.388 341.568 212.012 341.568H209.204V348H205.844V331.248H212.012C213.308 331.248 214.412 331.472 215.324 331.92C216.236 332.368 216.916 332.984 217.364 333.768C217.828 334.552 218.06 335.44 218.06 336.432ZM211.868 338.856C212.796 338.856 213.484 338.648 213.932 338.232C214.38 337.8 214.604 337.2 214.604 336.432C214.604 334.8 213.692 333.984 211.868 333.984H209.204V338.856H211.868ZM232.805 341.064C232.805 341.544 232.773 341.976 232.709 342.36H222.989C223.069 343.32 223.405 344.072 223.997 344.616C224.589 345.16 225.317 345.432 226.181 345.432C227.429 345.432 228.317 344.896 228.845 343.824H232.469C232.085 345.104 231.349 346.16 230.261 346.992C229.173 347.808 227.837 348.216 226.253 348.216C224.973 348.216 223.821 347.936 222.797 347.376C221.789 346.8 220.997 345.992 220.421 344.952C219.861 343.912 219.581 342.712 219.581 341.352C219.581 339.976 219.861 338.768 220.421 337.728C220.981 336.688 221.765 335.888 222.773 335.328C223.781 334.768 224.941 334.488 226.253 334.488C227.517 334.488 228.645 334.76 229.637 335.304C230.645 335.848 231.421 336.624 231.965 337.632C232.525 338.624 232.805 339.768 232.805 341.064ZM229.325 340.104C229.309 339.24 228.997 338.552 228.389 338.04C227.781 337.512 227.037 337.248 226.157 337.248C225.325 337.248 224.621 337.504 224.045 338.016C223.485 338.512 223.141 339.208 223.013 340.104H229.325ZM239.17 337.464V343.896C239.17 344.344 239.274 344.672 239.482 344.88C239.706 345.072 240.074 345.168 240.586 345.168H242.146V348H240.034C237.202 348 235.786 346.624 235.786 343.872V337.464H234.202V334.704H235.786V331.416H239.17V334.704H242.146V337.464H239.17ZM264.177 331.248V348H260.817V340.872H253.641V348H250.281V331.248H253.641V338.136H260.817V331.248H264.177ZM273.388 348.216C272.108 348.216 270.956 347.936 269.932 347.376C268.908 346.8 268.1 345.992 267.508 344.952C266.932 343.912 266.644 342.712 266.644 341.352C266.644 339.992 266.94 338.792 267.532 337.752C268.14 336.712 268.964 335.912 270.004 335.352C271.044 334.776 272.204 334.488 273.484 334.488C274.764 334.488 275.924 334.776 276.964 335.352C278.004 335.912 278.82 336.712 279.412 337.752C280.02 338.792 280.324 339.992 280.324 341.352C280.324 342.712 280.012 343.912 279.388 344.952C278.78 345.992 277.948 346.8 276.892 347.376C275.852 347.936 274.684 348.216 273.388 348.216ZM273.388 345.288C273.996 345.288 274.564 345.144 275.092 344.856C275.636 344.552 276.068 344.104 276.388 343.512C276.708 342.92 276.868 342.2 276.868 341.352C276.868 340.088 276.532 339.12 275.86 338.448C275.204 337.76 274.396 337.416 273.436 337.416C272.476 337.416 271.668 337.76 271.012 338.448C270.372 339.12 270.052 340.088 270.052 341.352C270.052 342.616 270.364 343.592 270.988 344.28C271.628 344.952 272.428 345.288 273.388 345.288ZM286.701 337.464V343.896C286.701 344.344 286.805 344.672 287.013 344.88C287.237 345.072 287.605 345.168 288.117 345.168H289.677V348H287.565C284.733 348 283.317 346.624 283.317 343.872V337.464H281.733V334.704H283.317V331.416H286.701V334.704H289.677V337.464H286.701ZM304.454 341.064C304.454 341.544 304.422 341.976 304.358 342.36H294.638C294.718 343.32 295.054 344.072 295.646 344.616C296.238 345.16 296.966 345.432 297.83 345.432C299.078 345.432 299.966 344.896 300.494 343.824H304.118C303.734 345.104 302.998 346.16 301.91 346.992C300.822 347.808 299.486 348.216 297.902 348.216C296.622 348.216 295.47 347.936 294.446 347.376C293.438 346.8 292.646 345.992 292.07 344.952C291.51 343.912 291.229 342.712 291.229 341.352C291.229 339.976 291.51 338.768 292.07 337.728C292.63 336.688 293.414 335.888 294.422 335.328C295.43 334.768 296.59 334.488 297.902 334.488C299.166 334.488 300.294 334.76 301.286 335.304C302.294 335.848 303.07 336.624 303.614 337.632C304.174 338.624 304.454 339.768 304.454 341.064ZM300.974 340.104C300.958 339.24 300.646 338.552 300.038 338.04C299.43 337.512 298.686 337.248 297.806 337.248C296.974 337.248 296.27 337.504 295.694 338.016C295.134 338.512 294.79 339.208 294.662 340.104H300.974ZM310.266 330.24V348H306.906V330.24H310.266Z" fill="#FDFDFD"/>
</svg>
