<svg width="360" height="409" viewBox="0 0 360 409" fill="none" xmlns="http://www.w3.org/2000/svg">
<path d="M0 33.188C0 14.9626 14.7746 0.187988 33 0.187988H327C345.225 0.187988 360 14.9626 360 33.188V269.996H0V33.188Z" fill="#FFF1A6"/>
<path d="M98.1346 85.168C96.5826 85.168 95.1506 84.808 93.8386 84.088C92.5426 83.352 91.5106 82.336 90.7426 81.04C89.9906 79.728 89.6146 78.256 89.6146 76.624C89.6146 74.992 89.9906 73.528 90.7426 72.232C91.5106 70.936 92.5426 69.928 93.8386 69.208C95.1506 68.472 96.5826 68.104 98.1346 68.104C99.7026 68.104 101.135 68.472 102.431 69.208C103.743 69.928 104.775 70.936 105.527 72.232C106.279 73.528 106.655 74.992 106.655 76.624C106.655 78.256 106.279 79.728 105.527 81.04C104.775 82.336 103.743 83.352 102.431 84.088C101.135 84.808 99.7026 85.168 98.1346 85.168ZM98.1346 82.792C99.2386 82.792 100.223 82.544 101.087 82.048C101.951 81.536 102.623 80.816 103.103 79.888C103.599 78.944 103.847 77.856 103.847 76.624C103.847 75.392 103.599 74.312 103.103 73.384C102.623 72.456 101.951 71.744 101.087 71.248C100.223 70.752 99.2386 70.504 98.1346 70.504C97.0306 70.504 96.0466 70.752 95.1826 71.248C94.3186 71.744 93.6386 72.456 93.1426 73.384C92.6626 74.312 92.4226 75.392 92.4226 76.624C92.4226 77.856 92.6626 78.944 93.1426 79.888C93.6386 80.816 94.3186 81.536 95.1826 82.048C96.0466 82.544 97.0306 82.792 98.1346 82.792ZM127.107 71.776L123.003 85H120.123L117.459 75.232L114.795 85H111.915L107.787 71.776H110.571L113.331 82.408L116.139 71.776H118.995L121.683 82.36L124.419 71.776H127.107ZM135.824 71.56C136.864 71.56 137.792 71.776 138.608 72.208C139.44 72.64 140.088 73.28 140.552 74.128C141.016 74.976 141.248 76 141.248 77.2V85H138.536V77.608C138.536 76.424 138.24 75.52 137.648 74.896C137.056 74.256 136.248 73.936 135.224 73.936C134.2 73.936 133.384 74.256 132.776 74.896C132.184 75.52 131.888 76.424 131.888 77.608V85H129.152V71.776H131.888V73.288C132.336 72.744 132.904 72.32 133.592 72.016C134.296 71.712 135.04 71.56 135.824 71.56ZM156.858 78.064C156.858 78.56 156.826 79.008 156.762 79.408H146.658C146.738 80.464 147.13 81.312 147.834 81.952C148.538 82.592 149.402 82.912 150.426 82.912C151.898 82.912 152.938 82.296 153.546 81.064H156.497C156.098 82.28 155.37 83.28 154.314 84.064C153.274 84.832 151.978 85.216 150.426 85.216C149.162 85.216 148.026 84.936 147.018 84.376C146.026 83.8 145.242 83 144.666 81.976C144.106 80.936 143.826 79.736 143.826 78.376C143.826 77.016 144.098 75.824 144.642 74.8C145.202 73.76 145.978 72.96 146.97 72.4C147.978 71.84 149.13 71.56 150.426 71.56C151.674 71.56 152.786 71.832 153.762 72.376C154.738 72.92 155.498 73.688 156.042 74.68C156.586 75.656 156.858 76.784 156.858 78.064ZM154.002 77.2C153.986 76.192 153.626 75.384 152.922 74.776C152.218 74.168 151.346 73.864 150.306 73.864C149.362 73.864 148.554 74.168 147.882 74.776C147.21 75.368 146.81 76.176 146.682 77.2H154.002ZM162.286 73.696C162.686 73.024 163.214 72.504 163.87 72.136C164.542 71.752 165.334 71.56 166.246 71.56V74.392H165.55C164.478 74.392 163.662 74.664 163.102 75.208C162.558 75.752 162.286 76.696 162.286 78.04V85H159.55V71.776H162.286V73.696ZM191.003 71.56C192.043 71.56 192.971 71.776 193.787 72.208C194.619 72.64 195.267 73.28 195.731 74.128C196.211 74.976 196.451 76 196.451 77.2V85H193.739V77.608C193.739 76.424 193.443 75.52 192.851 74.896C192.259 74.256 191.451 73.936 190.427 73.936C189.403 73.936 188.587 74.256 187.979 74.896C187.387 75.52 187.091 76.424 187.091 77.608V85H184.379V77.608C184.379 76.424 184.083 75.52 183.491 74.896C182.899 74.256 182.091 73.936 181.067 73.936C180.043 73.936 179.227 74.256 178.619 74.896C178.027 75.52 177.731 76.424 177.731 77.608V85H174.995V71.776H177.731V73.288C178.179 72.744 178.747 72.32 179.435 72.016C180.123 71.712 180.859 71.56 181.643 71.56C182.699 71.56 183.643 71.784 184.475 72.232C185.307 72.68 185.947 73.328 186.395 74.176C186.795 73.376 187.419 72.744 188.267 72.28C189.115 71.8 190.027 71.56 191.003 71.56ZM212.053 78.064C212.053 78.56 212.021 79.008 211.957 79.408H201.853C201.933 80.464 202.325 81.312 203.029 81.952C203.733 82.592 204.597 82.912 205.621 82.912C207.093 82.912 208.133 82.296 208.741 81.064H211.693C211.293 82.28 210.565 83.28 209.509 84.064C208.469 84.832 207.173 85.216 205.621 85.216C204.357 85.216 203.221 84.936 202.213 84.376C201.221 83.8 200.437 83 199.861 81.976C199.301 80.936 199.021 79.736 199.021 78.376C199.021 77.016 199.293 75.824 199.837 74.8C200.397 73.76 201.173 72.96 202.165 72.4C203.173 71.84 204.325 71.56 205.621 71.56C206.869 71.56 207.981 71.832 208.957 72.376C209.933 72.92 210.693 73.688 211.237 74.68C211.781 75.656 212.053 76.784 212.053 78.064ZM209.197 77.2C209.181 76.192 208.821 75.384 208.117 74.776C207.413 74.168 206.541 73.864 205.501 73.864C204.557 73.864 203.749 74.168 203.077 74.776C202.405 75.368 202.005 76.176 201.877 77.2H209.197ZM221.417 71.56C222.457 71.56 223.385 71.776 224.201 72.208C225.033 72.64 225.681 73.28 226.145 74.128C226.609 74.976 226.841 76 226.841 77.2V85H224.129V77.608C224.129 76.424 223.833 75.52 223.241 74.896C222.649 74.256 221.841 73.936 220.817 73.936C219.793 73.936 218.977 74.256 218.369 74.896C217.777 75.52 217.481 76.424 217.481 77.608V85H214.745V71.776H217.481V73.288C217.929 72.744 218.497 72.32 219.185 72.016C219.889 71.712 220.633 71.56 221.417 71.56ZM235.659 71.56C236.683 71.56 237.587 71.768 238.371 72.184C239.171 72.584 239.795 73.088 240.243 73.696V71.776H243.003V85.216C243.003 86.432 242.747 87.512 242.235 88.456C241.723 89.416 240.979 90.168 240.003 90.712C239.043 91.256 237.891 91.528 236.547 91.528C234.755 91.528 233.267 91.104 232.083 90.256C230.899 89.424 230.227 88.288 230.067 86.848H232.779C232.987 87.536 233.427 88.088 234.099 88.504C234.787 88.936 235.603 89.152 236.547 89.152C237.651 89.152 238.539 88.816 239.211 88.144C239.899 87.472 240.243 86.496 240.243 85.216V83.008C239.779 83.632 239.147 84.16 238.347 84.592C237.563 85.008 236.667 85.216 235.659 85.216C234.507 85.216 233.451 84.928 232.491 84.352C231.547 83.76 230.795 82.944 230.235 81.904C229.691 80.848 229.419 79.656 229.419 78.328C229.419 77 229.691 75.824 230.235 74.8C230.795 73.776 231.547 72.984 232.491 72.424C233.451 71.848 234.507 71.56 235.659 71.56ZM240.243 78.376C240.243 77.464 240.051 76.672 239.667 76C239.299 75.328 238.811 74.816 238.203 74.464C237.595 74.112 236.939 73.936 236.235 73.936C235.531 73.936 234.875 74.112 234.267 74.464C233.659 74.8 233.163 75.304 232.779 75.976C232.411 76.632 232.227 77.416 232.227 78.328C232.227 79.24 232.411 80.04 232.779 80.728C233.163 81.416 233.659 81.944 234.267 82.312C234.891 82.664 235.547 82.84 236.235 82.84C236.939 82.84 237.595 82.664 238.203 82.312C238.811 81.96 239.299 81.448 239.667 80.776C240.051 80.088 240.243 79.288 240.243 78.376ZM247.989 70.024C247.493 70.024 247.077 69.856 246.741 69.52C246.405 69.184 246.237 68.768 246.237 68.272C246.237 67.776 246.405 67.36 246.741 67.024C247.077 66.688 247.493 66.52 247.989 66.52C248.469 66.52 248.877 66.688 249.213 67.024C249.549 67.36 249.717 67.776 249.717 68.272C249.717 68.768 249.549 69.184 249.213 69.52C248.877 69.856 248.469 70.024 247.989 70.024ZM249.333 71.776V85H246.597V71.776H249.333ZM257.725 85.216C256.685 85.216 255.749 85.032 254.917 84.664C254.101 84.28 253.453 83.768 252.973 83.128C252.493 82.472 252.237 81.744 252.205 80.944H255.037C255.085 81.504 255.349 81.976 255.829 82.36C256.325 82.728 256.941 82.912 257.677 82.912C258.445 82.912 259.037 82.768 259.453 82.48C259.885 82.176 260.101 81.792 260.101 81.328C260.101 80.832 259.861 80.464 259.381 80.224C258.917 79.984 258.173 79.72 257.149 79.432C256.157 79.16 255.349 78.896 254.725 78.64C254.101 78.384 253.557 77.992 253.093 77.464C252.645 76.936 252.421 76.24 252.421 75.376C252.421 74.672 252.629 74.032 253.045 73.456C253.461 72.864 254.053 72.4 254.821 72.064C255.605 71.728 256.501 71.56 257.509 71.56C259.013 71.56 260.221 71.944 261.133 72.712C262.061 73.464 262.557 74.496 262.621 75.808H259.885C259.837 75.216 259.597 74.744 259.165 74.392C258.733 74.04 258.149 73.864 257.413 73.864C256.693 73.864 256.141 74 255.757 74.272C255.373 74.544 255.181 74.904 255.181 75.352C255.181 75.704 255.309 76 255.565 76.24C255.821 76.48 256.133 76.672 256.501 76.816C256.869 76.944 257.413 77.112 258.133 77.32C259.093 77.576 259.877 77.84 260.485 78.112C261.109 78.368 261.645 78.752 262.093 79.264C262.541 79.776 262.773 80.456 262.789 81.304C262.789 82.056 262.581 82.728 262.165 83.32C261.749 83.912 261.157 84.376 260.389 84.712C259.637 85.048 258.749 85.216 257.725 85.216ZM267.137 70.024C266.641 70.024 266.225 69.856 265.889 69.52C265.553 69.184 265.385 68.768 265.385 68.272C265.385 67.776 265.553 67.36 265.889 67.024C266.225 66.688 266.641 66.52 267.137 66.52C267.617 66.52 268.025 66.688 268.361 67.024C268.697 67.36 268.865 67.776 268.865 68.272C268.865 68.768 268.697 69.184 268.361 69.52C268.025 69.856 267.617 70.024 267.137 70.024ZM268.481 71.776V85H265.745V71.776H268.481ZM48.5276 103.008H46.0796V114H43.3196V103.008H41.7596V100.776H43.3196V99.84C43.3196 98.32 43.7196 97.216 44.5196 96.528C45.3356 95.824 46.6076 95.472 48.3356 95.472V97.752C47.5036 97.752 46.9196 97.912 46.5836 98.232C46.2476 98.536 46.0796 99.072 46.0796 99.84V100.776H48.5276V103.008ZM56.6883 114.216C55.4403 114.216 54.3123 113.936 53.3043 113.376C52.2963 112.8 51.5043 112 50.9283 110.976C50.3523 109.936 50.0643 108.736 50.0643 107.376C50.0643 106.032 50.3603 104.84 50.9523 103.8C51.5443 102.76 52.3523 101.96 53.3763 101.4C54.4003 100.84 55.5443 100.56 56.8083 100.56C58.0723 100.56 59.2163 100.84 60.2403 101.4C61.2643 101.96 62.0723 102.76 62.6643 103.8C63.2563 104.84 63.5523 106.032 63.5523 107.376C63.5523 108.72 63.2483 109.912 62.6403 110.952C62.0323 111.992 61.2003 112.8 60.1443 113.376C59.1043 113.936 57.9523 114.216 56.6883 114.216ZM56.6883 111.84C57.3923 111.84 58.0483 111.672 58.6563 111.336C59.2803 111 59.7843 110.496 60.1683 109.824C60.5523 109.152 60.7443 108.336 60.7443 107.376C60.7443 106.416 60.5603 105.608 60.1923 104.952C59.8243 104.28 59.3363 103.776 58.7283 103.44C58.1203 103.104 57.4643 102.936 56.7603 102.936C56.0563 102.936 55.4003 103.104 54.7923 103.44C54.2003 103.776 53.7283 104.28 53.3763 104.952C53.0243 105.608 52.8483 106.416 52.8483 107.376C52.8483 108.8 53.2083 109.904 53.9283 110.688C54.6643 111.456 55.5843 111.84 56.6883 111.84ZM68.993 102.696C69.393 102.024 69.921 101.504 70.577 101.136C71.249 100.752 72.041 100.56 72.953 100.56V103.392H72.257C71.185 103.392 70.369 103.664 69.809 104.208C69.265 104.752 68.993 105.696 68.993 107.04V114H66.257V100.776H68.993V102.696ZM91.476 100.56C92.516 100.56 93.444 100.776 94.26 101.208C95.092 101.64 95.74 102.28 96.204 103.128C96.684 103.976 96.924 105 96.924 106.2V114H94.212V106.608C94.212 105.424 93.916 104.52 93.324 103.896C92.732 103.256 91.924 102.936 90.9 102.936C89.876 102.936 89.06 103.256 88.452 103.896C87.86 104.52 87.564 105.424 87.564 106.608V114H84.852V106.608C84.852 105.424 84.556 104.52 83.964 103.896C83.372 103.256 82.564 102.936 81.54 102.936C80.516 102.936 79.7 103.256 79.092 103.896C78.5 104.52 78.204 105.424 78.204 106.608V114H75.468V100.776H78.204V102.288C78.652 101.744 79.22 101.32 79.908 101.016C80.596 100.712 81.332 100.56 82.116 100.56C83.172 100.56 84.116 100.784 84.948 101.232C85.78 101.68 86.42 102.328 86.868 103.176C87.268 102.376 87.892 101.744 88.74 101.28C89.588 100.8 90.5 100.56 91.476 100.56ZM112.381 100.776V114H109.645V112.44C109.213 112.984 108.645 113.416 107.941 113.736C107.253 114.04 106.517 114.192 105.733 114.192C104.693 114.192 103.757 113.976 102.925 113.544C102.109 113.112 101.461 112.472 100.981 111.624C100.517 110.776 100.285 109.752 100.285 108.552V100.776H102.997V108.144C102.997 109.328 103.293 110.24 103.885 110.88C104.477 111.504 105.285 111.816 106.309 111.816C107.333 111.816 108.141 111.504 108.733 110.88C109.341 110.24 109.645 109.328 109.645 108.144V100.776H112.381ZM118.727 96.24V114H115.991V96.24H118.727ZM123.712 99.024C123.216 99.024 122.8 98.856 122.464 98.52C122.128 98.184 121.96 97.768 121.96 97.272C121.96 96.776 122.128 96.36 122.464 96.024C122.8 95.688 123.216 95.52 123.712 95.52C124.192 95.52 124.6 95.688 124.936 96.024C125.272 96.36 125.44 96.776 125.44 97.272C125.44 97.768 125.272 98.184 124.936 98.52C124.6 98.856 124.192 99.024 123.712 99.024ZM125.056 100.776V114H122.32V100.776H125.056ZM131.384 102.696C131.784 102.024 132.312 101.504 132.968 101.136C133.64 100.752 134.432 100.56 135.344 100.56V103.392H134.648C133.576 103.392 132.76 103.664 132.2 104.208C131.656 104.752 131.384 105.696 131.384 107.04V114H128.648V100.776H131.384V102.696ZM146.829 102.72C147.293 102.112 147.925 101.6 148.725 101.184C149.525 100.768 150.429 100.56 151.437 100.56C152.589 100.56 153.637 100.848 154.581 101.424C155.541 101.984 156.293 102.776 156.837 103.8C157.381 104.824 157.653 106 157.653 107.328C157.653 108.656 157.381 109.848 156.837 110.904C156.293 111.944 155.541 112.76 154.581 113.352C153.637 113.928 152.589 114.216 151.437 114.216C150.429 114.216 149.533 114.016 148.749 113.616C147.965 113.2 147.325 112.688 146.829 112.08V120.288H144.093V100.776H146.829V102.72ZM154.869 107.328C154.869 106.416 154.677 105.632 154.293 104.976C153.925 104.304 153.429 103.8 152.805 103.464C152.197 103.112 151.541 102.936 150.837 102.936C150.149 102.936 149.493 103.112 148.869 103.464C148.261 103.816 147.765 104.328 147.381 105C147.013 105.672 146.829 106.464 146.829 107.376C146.829 108.288 147.013 109.088 147.381 109.776C147.765 110.448 148.261 110.96 148.869 111.312C149.493 111.664 150.149 111.84 150.837 111.84C151.541 111.84 152.197 111.664 152.805 111.312C153.429 110.944 153.925 110.416 154.293 109.728C154.677 109.04 154.869 108.24 154.869 107.328ZM172.479 107.064C172.479 107.56 172.447 108.008 172.383 108.408H162.279C162.359 109.464 162.751 110.312 163.455 110.952C164.159 111.592 165.023 111.912 166.047 111.912C167.519 111.912 168.559 111.296 169.167 110.064H172.119C171.719 111.28 170.991 112.28 169.935 113.064C168.895 113.832 167.599 114.216 166.047 114.216C164.783 114.216 163.647 113.936 162.639 113.376C161.647 112.8 160.863 112 160.287 110.976C159.727 109.936 159.447 108.736 159.447 107.376C159.447 106.016 159.719 104.824 160.263 103.8C160.823 102.76 161.599 101.96 162.591 101.4C163.599 100.84 164.751 100.56 166.047 100.56C167.295 100.56 168.407 100.832 169.383 101.376C170.359 101.92 171.119 102.688 171.663 103.68C172.207 104.656 172.479 105.784 172.479 107.064ZM169.623 106.2C169.607 105.192 169.247 104.384 168.543 103.776C167.839 103.168 166.967 102.864 165.927 102.864C164.983 102.864 164.175 103.168 163.503 103.776C162.831 104.368 162.431 105.176 162.303 106.2H169.623ZM178.363 103.008V110.328C178.363 110.824 178.475 111.184 178.699 111.408C178.939 111.616 179.339 111.72 179.899 111.72H181.579V114H179.419C178.187 114 177.243 113.712 176.587 113.136C175.931 112.56 175.603 111.624 175.603 110.328V103.008H174.043V100.776H175.603V97.488H178.363V100.776H181.579V103.008H178.363ZM197.175 100.56C198.183 100.56 199.079 100.776 199.863 101.208C200.663 101.64 201.287 102.28 201.735 103.128C202.199 103.976 202.431 105 202.431 106.2V114H199.719V106.608C199.719 105.424 199.423 104.52 198.831 103.896C198.239 103.256 197.431 102.936 196.407 102.936C195.383 102.936 194.567 103.256 193.959 103.896C193.367 104.52 193.071 105.424 193.071 106.608V114H190.335V96.24H193.071V102.312C193.535 101.752 194.119 101.32 194.823 101.016C195.543 100.712 196.327 100.56 197.175 100.56ZM211.657 114.216C210.409 114.216 209.281 113.936 208.273 113.376C207.265 112.8 206.473 112 205.897 110.976C205.321 109.936 205.033 108.736 205.033 107.376C205.033 106.032 205.329 104.84 205.921 103.8C206.513 102.76 207.321 101.96 208.345 101.4C209.369 100.84 210.513 100.56 211.777 100.56C213.041 100.56 214.185 100.84 215.209 101.4C216.233 101.96 217.041 102.76 217.633 103.8C218.225 104.84 218.521 106.032 218.521 107.376C218.521 108.72 218.217 109.912 217.609 110.952C217.001 111.992 216.169 112.8 215.113 113.376C214.073 113.936 212.921 114.216 211.657 114.216ZM211.657 111.84C212.361 111.84 213.017 111.672 213.625 111.336C214.249 111 214.753 110.496 215.137 109.824C215.521 109.152 215.713 108.336 215.713 107.376C215.713 106.416 215.529 105.608 215.161 104.952C214.793 104.28 214.305 103.776 213.697 103.44C213.089 103.104 212.433 102.936 211.729 102.936C211.025 102.936 210.369 103.104 209.761 103.44C209.169 103.776 208.697 104.28 208.345 104.952C207.993 105.608 207.817 106.416 207.817 107.376C207.817 108.8 208.177 109.904 208.897 110.688C209.633 111.456 210.553 111.84 211.657 111.84ZM224.418 103.008V110.328C224.418 110.824 224.53 111.184 224.754 111.408C224.994 111.616 225.394 111.72 225.954 111.72H227.634V114H225.474C224.242 114 223.298 113.712 222.642 113.136C221.986 112.56 221.658 111.624 221.658 110.328V103.008H220.098V100.776H221.658V97.488H224.418V100.776H227.634V103.008H224.418ZM242.275 107.064C242.275 107.56 242.243 108.008 242.179 108.408H232.075C232.155 109.464 232.547 110.312 233.251 110.952C233.955 111.592 234.819 111.912 235.843 111.912C237.315 111.912 238.355 111.296 238.963 110.064H241.915C241.515 111.28 240.787 112.28 239.731 113.064C238.691 113.832 237.395 114.216 235.843 114.216C234.579 114.216 233.443 113.936 232.435 113.376C231.443 112.8 230.659 112 230.083 110.976C229.523 109.936 229.243 108.736 229.243 107.376C229.243 106.016 229.515 104.824 230.059 103.8C230.619 102.76 231.395 101.96 232.387 101.4C233.395 100.84 234.547 100.56 235.843 100.56C237.091 100.56 238.203 100.832 239.179 101.376C240.155 101.92 240.915 102.688 241.459 103.68C242.003 104.656 242.275 105.784 242.275 107.064ZM239.419 106.2C239.403 105.192 239.043 104.384 238.339 103.776C237.635 103.168 236.763 102.864 235.723 102.864C234.779 102.864 233.971 103.168 233.299 103.776C232.627 104.368 232.227 105.176 232.099 106.2H239.419ZM247.704 96.24V114H244.968V96.24H247.704ZM269.434 100.776L261.322 120.216H258.49L261.178 113.784L255.97 100.776H259.018L262.738 110.856L266.602 100.776H269.434ZM270.587 107.328C270.587 106 270.859 104.824 271.403 103.8C271.963 102.776 272.715 101.984 273.659 101.424C274.619 100.848 275.675 100.56 276.827 100.56C277.867 100.56 278.771 100.768 279.539 101.184C280.323 101.584 280.947 102.088 281.411 102.696V100.776H284.171V114H281.411V112.032C280.947 112.656 280.315 113.176 279.515 113.592C278.715 114.008 277.803 114.216 276.779 114.216C275.643 114.216 274.603 113.928 273.659 113.352C272.715 112.76 271.963 111.944 271.403 110.904C270.859 109.848 270.587 108.656 270.587 107.328ZM281.411 107.376C281.411 106.464 281.219 105.672 280.835 105C280.467 104.328 279.979 103.816 279.371 103.464C278.763 103.112 278.107 102.936 277.403 102.936C276.699 102.936 276.043 103.112 275.435 103.464C274.827 103.8 274.331 104.304 273.947 104.976C273.579 105.632 273.395 106.416 273.395 107.328C273.395 108.24 273.579 109.04 273.947 109.728C274.331 110.416 274.827 110.944 275.435 111.312C276.059 111.664 276.715 111.84 277.403 111.84C278.107 111.84 278.763 111.664 279.371 111.312C279.979 110.96 280.467 110.448 280.835 109.776C281.219 109.088 281.411 108.288 281.411 107.376ZM294.437 100.56C295.477 100.56 296.405 100.776 297.221 101.208C298.053 101.64 298.701 102.28 299.165 103.128C299.629 103.976 299.861 105 299.861 106.2V114H297.149V106.608C297.149 105.424 296.853 104.52 296.261 103.896C295.669 103.256 294.861 102.936 293.837 102.936C292.813 102.936 291.997 103.256 291.389 103.896C290.797 104.52 290.501 105.424 290.501 106.608V114H287.765V100.776H290.501V102.288C290.949 101.744 291.517 101.32 292.205 101.016C292.909 100.712 293.653 100.56 294.437 100.56ZM308.679 100.56C309.703 100.56 310.607 100.768 311.391 101.184C312.191 101.584 312.815 102.088 313.263 102.696V100.776H316.023V114.216C316.023 115.432 315.767 116.512 315.255 117.456C314.743 118.416 313.999 119.168 313.023 119.712C312.063 120.256 310.911 120.528 309.567 120.528C307.775 120.528 306.287 120.104 305.103 119.256C303.919 118.424 303.247 117.288 303.087 115.848H305.799C306.007 116.536 306.447 117.088 307.119 117.504C307.807 117.936 308.623 118.152 309.567 118.152C310.671 118.152 311.559 117.816 312.231 117.144C312.919 116.472 313.263 115.496 313.263 114.216V112.008C312.799 112.632 312.167 113.16 311.367 113.592C310.583 114.008 309.687 114.216 308.679 114.216C307.527 114.216 306.471 113.928 305.511 113.352C304.567 112.76 303.815 111.944 303.255 110.904C302.711 109.848 302.439 108.656 302.439 107.328C302.439 106 302.711 104.824 303.255 103.8C303.815 102.776 304.567 101.984 305.511 101.424C306.471 100.848 307.527 100.56 308.679 100.56ZM313.263 107.376C313.263 106.464 313.071 105.672 312.687 105C312.319 104.328 311.831 103.816 311.223 103.464C310.615 103.112 309.959 102.936 309.255 102.936C308.551 102.936 307.895 103.112 307.287 103.464C306.679 103.8 306.183 104.304 305.799 104.976C305.431 105.632 305.247 106.416 305.247 107.328C305.247 108.24 305.431 109.04 305.799 109.728C306.183 110.416 306.679 110.944 307.287 111.312C307.911 111.664 308.567 111.84 309.255 111.84C309.959 111.84 310.615 111.664 311.223 111.312C311.831 110.96 312.319 110.448 312.687 109.776C313.071 109.088 313.263 108.288 313.263 107.376ZM66.5428 132.008V139.328C66.5428 139.824 66.6548 140.184 66.8788 140.408C67.1188 140.616 67.5188 140.72 68.0788 140.72H69.7588V143H67.5988C66.3668 143 65.4228 142.712 64.7668 142.136C64.1108 141.56 63.7828 140.624 63.7828 139.328V132.008H62.2228V129.776H63.7828V126.488H66.5428V129.776H69.7588V132.008H66.5428ZM84.4005 136.064C84.4005 136.56 84.3685 137.008 84.3045 137.408H74.2005C74.2805 138.464 74.6725 139.312 75.3765 139.952C76.0805 140.592 76.9445 140.912 77.9685 140.912C79.4405 140.912 80.4805 140.296 81.0885 139.064H84.0405C83.6405 140.28 82.9125 141.28 81.8565 142.064C80.8165 142.832 79.5205 143.216 77.9685 143.216C76.7045 143.216 75.5685 142.936 74.5605 142.376C73.5685 141.8 72.7845 141 72.2085 139.976C71.6485 138.936 71.3685 137.736 71.3685 136.376C71.3685 135.016 71.6405 133.824 72.1845 132.8C72.7445 131.76 73.5205 130.96 74.5125 130.4C75.5205 129.84 76.6725 129.56 77.9685 129.56C79.2165 129.56 80.3285 129.832 81.3045 130.376C82.2805 130.92 83.0405 131.688 83.5845 132.68C84.1285 133.656 84.4005 134.784 84.4005 136.064ZM81.5445 135.2C81.5285 134.192 81.1685 133.384 80.4645 132.776C79.7605 132.168 78.8885 131.864 77.8485 131.864C76.9045 131.864 76.0965 132.168 75.4245 132.776C74.7525 133.368 74.3525 134.176 74.2245 135.2H81.5445ZM89.829 131.696C90.229 131.024 90.757 130.504 91.413 130.136C92.085 129.752 92.877 129.56 93.789 129.56V132.392H93.093C92.021 132.392 91.205 132.664 90.645 133.208C90.101 133.752 89.829 134.696 89.829 136.04V143H87.093V129.776H89.829V131.696ZM99.4959 132.008V139.328C99.4959 139.824 99.6079 140.184 99.8319 140.408C100.072 140.616 100.472 140.72 101.032 140.72H102.712V143H100.552C99.3199 143 98.3759 142.712 97.7199 142.136C97.0639 141.56 96.7359 140.624 96.7359 139.328V132.008H95.1759V129.776H96.7359V126.488H99.4959V129.776H102.712V132.008H99.4959ZM117.354 136.064C117.354 136.56 117.322 137.008 117.258 137.408H107.154C107.234 138.464 107.626 139.312 108.33 139.952C109.034 140.592 109.898 140.912 110.922 140.912C112.394 140.912 113.434 140.296 114.042 139.064H116.994C116.594 140.28 115.866 141.28 114.81 142.064C113.77 142.832 112.474 143.216 110.922 143.216C109.658 143.216 108.522 142.936 107.514 142.376C106.522 141.8 105.738 141 105.162 139.976C104.602 138.936 104.322 137.736 104.322 136.376C104.322 135.016 104.594 133.824 105.138 132.8C105.698 131.76 106.474 130.96 107.466 130.4C108.474 129.84 109.626 129.56 110.922 129.56C112.17 129.56 113.282 129.832 114.258 130.376C115.234 130.92 115.994 131.688 116.538 132.68C117.082 133.656 117.354 134.784 117.354 136.064ZM114.498 135.2C114.482 134.192 114.122 133.384 113.418 132.776C112.714 132.168 111.842 131.864 110.802 131.864C109.858 131.864 109.05 132.168 108.378 132.776C107.706 133.368 107.306 134.176 107.178 135.2H114.498ZM122.782 131.696C123.182 131.024 123.71 130.504 124.366 130.136C125.038 129.752 125.83 129.56 126.742 129.56V132.392H126.046C124.974 132.392 124.158 132.664 123.598 133.208C123.054 133.752 122.782 134.696 122.782 136.04V143H120.046V129.776H122.782V131.696ZM128.345 136.328C128.345 135 128.617 133.824 129.161 132.8C129.721 131.776 130.473 130.984 131.417 130.424C132.377 129.848 133.433 129.56 134.585 129.56C135.625 129.56 136.529 129.768 137.297 130.184C138.081 130.584 138.705 131.088 139.169 131.696V129.776H141.929V143H139.169V141.032C138.705 141.656 138.073 142.176 137.273 142.592C136.473 143.008 135.561 143.216 134.537 143.216C133.401 143.216 132.361 142.928 131.417 142.352C130.473 141.76 129.721 140.944 129.161 139.904C128.617 138.848 128.345 137.656 128.345 136.328ZM139.169 136.376C139.169 135.464 138.977 134.672 138.593 134C138.225 133.328 137.737 132.816 137.129 132.464C136.521 132.112 135.865 131.936 135.161 131.936C134.457 131.936 133.801 132.112 133.193 132.464C132.585 132.8 132.089 133.304 131.705 133.976C131.337 134.632 131.153 135.416 131.153 136.328C131.153 137.24 131.337 138.04 131.705 138.728C132.089 139.416 132.585 139.944 133.193 140.312C133.817 140.664 134.473 140.84 135.161 140.84C135.865 140.84 136.521 140.664 137.129 140.312C137.737 139.96 138.225 139.448 138.593 138.776C138.977 138.088 139.169 137.288 139.169 136.376ZM150.845 136.328C150.845 135 151.117 133.824 151.661 132.8C152.221 131.776 152.973 130.984 153.917 130.424C154.877 129.848 155.941 129.56 157.109 129.56C157.973 129.56 158.821 129.752 159.653 130.136C160.501 130.504 161.173 131 161.669 131.624V125.24H164.429V143H161.669V141.008C161.221 141.648 160.597 142.176 159.797 142.592C159.013 143.008 158.109 143.216 157.085 143.216C155.933 143.216 154.877 142.928 153.917 142.352C152.973 141.76 152.221 140.944 151.661 139.904C151.117 138.848 150.845 137.656 150.845 136.328ZM161.669 136.376C161.669 135.464 161.477 134.672 161.093 134C160.725 133.328 160.237 132.816 159.629 132.464C159.021 132.112 158.365 131.936 157.661 131.936C156.957 131.936 156.301 132.112 155.693 132.464C155.085 132.8 154.589 133.304 154.205 133.976C153.837 134.632 153.653 135.416 153.653 136.328C153.653 137.24 153.837 138.04 154.205 138.728C154.589 139.416 155.085 139.944 155.693 140.312C156.317 140.664 156.973 140.84 157.661 140.84C158.365 140.84 159.021 140.664 159.629 140.312C160.237 139.96 160.725 139.448 161.093 138.776C161.477 138.088 161.669 137.288 161.669 136.376ZM169.415 128.024C168.919 128.024 168.503 127.856 168.167 127.52C167.831 127.184 167.663 126.768 167.663 126.272C167.663 125.776 167.831 125.36 168.167 125.024C168.503 124.688 168.919 124.52 169.415 124.52C169.895 124.52 170.303 124.688 170.639 125.024C170.975 125.36 171.143 125.776 171.143 126.272C171.143 126.768 170.975 127.184 170.639 127.52C170.303 127.856 169.895 128.024 169.415 128.024ZM170.759 129.776V143H168.023V129.776H170.759ZM183.321 131.744C183.785 131.104 184.417 130.584 185.217 130.184C186.033 129.768 186.937 129.56 187.929 129.56C189.097 129.56 190.153 129.84 191.097 130.4C192.041 130.96 192.785 131.76 193.329 132.8C193.873 133.824 194.145 135 194.145 136.328C194.145 137.656 193.873 138.848 193.329 139.904C192.785 140.944 192.033 141.76 191.073 142.352C190.129 142.928 189.081 143.216 187.929 143.216C186.905 143.216 185.993 143.016 185.193 142.616C184.409 142.216 183.785 141.704 183.321 141.08V143H180.585V125.24H183.321V131.744ZM191.361 136.328C191.361 135.416 191.169 134.632 190.785 133.976C190.417 133.304 189.921 132.8 189.297 132.464C188.689 132.112 188.033 131.936 187.329 131.936C186.641 131.936 185.985 132.112 185.361 132.464C184.753 132.816 184.257 133.328 183.873 134C183.505 134.672 183.321 135.464 183.321 136.376C183.321 137.288 183.505 138.088 183.873 138.776C184.257 139.448 184.753 139.96 185.361 140.312C185.985 140.664 186.641 140.84 187.329 140.84C188.033 140.84 188.689 140.664 189.297 140.312C189.921 139.944 190.417 139.416 190.785 138.728C191.169 138.04 191.361 137.24 191.361 136.328ZM195.939 136.328C195.939 135 196.211 133.824 196.755 132.8C197.315 131.776 198.067 130.984 199.011 130.424C199.971 129.848 201.027 129.56 202.179 129.56C203.219 129.56 204.123 129.768 204.891 130.184C205.675 130.584 206.299 131.088 206.763 131.696V129.776H209.523V143H206.763V141.032C206.299 141.656 205.667 142.176 204.867 142.592C204.067 143.008 203.155 143.216 202.131 143.216C200.995 143.216 199.955 142.928 199.011 142.352C198.067 141.76 197.315 140.944 196.755 139.904C196.211 138.848 195.939 137.656 195.939 136.328ZM206.763 136.376C206.763 135.464 206.571 134.672 206.187 134C205.819 133.328 205.331 132.816 204.723 132.464C204.115 132.112 203.459 131.936 202.755 131.936C202.051 131.936 201.395 132.112 200.787 132.464C200.179 132.8 199.683 133.304 199.299 133.976C198.931 134.632 198.747 135.416 198.747 136.328C198.747 137.24 198.931 138.04 199.299 138.728C199.683 139.416 200.179 139.944 200.787 140.312C201.411 140.664 202.067 140.84 202.755 140.84C203.459 140.84 204.115 140.664 204.723 140.312C205.331 139.96 205.819 139.448 206.187 138.776C206.571 138.088 206.763 137.288 206.763 136.376ZM230.876 129.776L226.772 143H223.892L221.228 133.232L218.564 143H215.684L211.556 129.776H214.34L217.1 140.408L219.908 129.776H222.764L225.452 140.36L228.188 129.776H230.876ZM232.009 136.328C232.009 135 232.281 133.824 232.825 132.8C233.385 131.776 234.137 130.984 235.081 130.424C236.041 129.848 237.097 129.56 238.249 129.56C239.289 129.56 240.193 129.768 240.961 130.184C241.745 130.584 242.369 131.088 242.833 131.696V129.776H245.593V143H242.833V141.032C242.369 141.656 241.737 142.176 240.937 142.592C240.137 143.008 239.225 143.216 238.201 143.216C237.065 143.216 236.025 142.928 235.081 142.352C234.137 141.76 233.385 140.944 232.825 139.904C232.281 138.848 232.009 137.656 232.009 136.328ZM242.833 136.376C242.833 135.464 242.641 134.672 242.257 134C241.889 133.328 241.401 132.816 240.793 132.464C240.185 132.112 239.529 131.936 238.825 131.936C238.121 131.936 237.465 132.112 236.857 132.464C236.249 132.8 235.753 133.304 235.369 133.976C235.001 134.632 234.817 135.416 234.817 136.328C234.817 137.24 235.001 138.04 235.369 138.728C235.753 139.416 236.249 139.944 236.857 140.312C237.481 140.664 238.137 140.84 238.825 140.84C239.529 140.84 240.185 140.664 240.793 140.312C241.401 139.96 241.889 139.448 242.257 138.776C242.641 138.088 242.833 137.288 242.833 136.376ZM256.027 129.56C257.035 129.56 257.931 129.776 258.715 130.208C259.515 130.64 260.139 131.28 260.587 132.128C261.051 132.976 261.283 134 261.283 135.2V143H258.571V135.608C258.571 134.424 258.275 133.52 257.683 132.896C257.091 132.256 256.283 131.936 255.259 131.936C254.235 131.936 253.419 132.256 252.811 132.896C252.219 133.52 251.923 134.424 251.923 135.608V143H249.187V125.24H251.923V131.312C252.387 130.752 252.971 130.32 253.675 130.016C254.395 129.712 255.179 129.56 256.027 129.56ZM272.399 128.024C271.903 128.024 271.487 127.856 271.151 127.52C270.815 127.184 270.647 126.768 270.647 126.272C270.647 125.776 270.815 125.36 271.151 125.024C271.487 124.688 271.903 124.52 272.399 124.52C272.879 124.52 273.287 124.688 273.623 125.024C273.959 125.36 274.127 125.776 274.127 126.272C274.127 126.768 273.959 127.184 273.623 127.52C273.287 127.856 272.879 128.024 272.399 128.024ZM273.743 129.776V143H271.007V129.776H273.743ZM284.007 129.56C285.047 129.56 285.975 129.776 286.791 130.208C287.623 130.64 288.271 131.28 288.735 132.128C289.199 132.976 289.431 134 289.431 135.2V143H286.719V135.608C286.719 134.424 286.423 133.52 285.831 132.896C285.239 132.256 284.431 131.936 283.407 131.936C282.383 131.936 281.567 132.256 280.959 132.896C280.367 133.52 280.071 134.424 280.071 135.608V143H277.335V129.776H280.071V131.288C280.519 130.744 281.087 130.32 281.775 130.016C282.479 129.712 283.223 129.56 284.007 129.56ZM294.313 128.024C293.817 128.024 293.401 127.856 293.065 127.52C292.729 127.184 292.561 126.768 292.561 126.272C292.561 125.776 292.729 125.36 293.065 125.024C293.401 124.688 293.817 124.52 294.313 124.52C294.793 124.52 295.201 124.688 295.537 125.024C295.873 125.36 296.041 125.776 296.041 126.272C296.041 126.768 295.873 127.184 295.537 127.52C295.201 127.856 294.793 128.024 294.313 128.024ZM295.657 129.776V143H292.921V129.776H295.657Z" fill="#181817"/>
<rect y="269.808" width="360" height="138.607" fill="#FFCC00"/>
<path d="M61.9423 336.432C61.9423 337.328 61.7263 338.168 61.2943 338.952C60.8783 339.736 60.2143 340.368 59.3023 340.848C58.4063 341.328 57.2703 341.568 55.8943 341.568H53.0863V348H49.7263V331.248H55.8943C57.1903 331.248 58.2943 331.472 59.2063 331.92C60.1183 332.368 60.7983 332.984 61.2463 333.768C61.7103 334.552 61.9423 335.44 61.9423 336.432ZM55.7503 338.856C56.6783 338.856 57.3663 338.648 57.8143 338.232C58.2623 337.8 58.4863 337.2 58.4863 336.432C58.4863 334.8 57.5743 333.984 55.7503 333.984H53.0863V338.856H55.7503ZM76.6879 341.064C76.6879 341.544 76.6559 341.976 76.5919 342.36H66.8719C66.9519 343.32 67.2879 344.072 67.8799 344.616C68.4719 345.16 69.1999 345.432 70.0639 345.432C71.3119 345.432 72.1999 344.896 72.7279 343.824H76.3519C75.9679 345.104 75.2319 346.16 74.1439 346.992C73.0559 347.808 71.7199 348.216 70.1359 348.216C68.8559 348.216 67.7039 347.936 66.6799 347.376C65.6719 346.8 64.8799 345.992 64.3039 344.952C63.7439 343.912 63.4639 342.712 63.4639 341.352C63.4639 339.976 63.7439 338.768 64.3039 337.728C64.8639 336.688 65.6479 335.888 66.6559 335.328C67.6639 334.768 68.8239 334.488 70.1359 334.488C71.3999 334.488 72.5279 334.76 73.5199 335.304C74.5279 335.848 75.3039 336.624 75.8479 337.632C76.4079 338.624 76.6879 339.768 76.6879 341.064ZM73.2079 340.104C73.1919 339.24 72.8799 338.552 72.2719 338.04C71.6639 337.512 70.9199 337.248 70.0399 337.248C69.2079 337.248 68.5039 337.504 67.9279 338.016C67.3679 338.512 67.0239 339.208 66.8959 340.104H73.2079ZM82.5004 336.768C82.9324 336.064 83.4924 335.512 84.1804 335.112C84.8844 334.712 85.6844 334.512 86.5804 334.512V338.04H85.6924C84.6364 338.04 83.8364 338.288 83.2924 338.784C82.7644 339.28 82.5004 340.144 82.5004 341.376V348H79.1404V334.704H82.5004V336.768ZM93.9315 348.216C92.8435 348.216 91.8675 348.024 91.0035 347.64C90.1395 347.24 89.4515 346.704 88.9395 346.032C88.4435 345.36 88.1715 344.616 88.1235 343.8H91.5075C91.5715 344.312 91.8195 344.736 92.2515 345.072C92.6995 345.408 93.2515 345.576 93.9075 345.576C94.5475 345.576 95.0435 345.448 95.3955 345.192C95.7635 344.936 95.9475 344.608 95.9475 344.208C95.9475 343.776 95.7235 343.456 95.2755 343.248C94.8435 343.024 94.1475 342.784 93.1875 342.528C92.1955 342.288 91.3795 342.04 90.7395 341.784C90.1155 341.528 89.5715 341.136 89.1075 340.608C88.6595 340.08 88.4355 339.368 88.4355 338.472C88.4355 337.736 88.6435 337.064 89.0595 336.456C89.4915 335.848 90.0995 335.368 90.8835 335.016C91.6835 334.664 92.6195 334.488 93.6915 334.488C95.2755 334.488 96.5395 334.888 97.4835 335.688C98.4275 336.472 98.9475 337.536 99.0435 338.88H95.8275C95.7795 338.352 95.5555 337.936 95.1555 337.632C94.7715 337.312 94.2515 337.152 93.5955 337.152C92.9875 337.152 92.5155 337.264 92.1795 337.488C91.8595 337.712 91.6995 338.024 91.6995 338.424C91.6995 338.872 91.9235 339.216 92.3715 339.456C92.8195 339.68 93.5155 339.912 94.4595 340.152C95.4195 340.392 96.2115 340.64 96.8355 340.896C97.4595 341.152 97.9955 341.552 98.4435 342.096C98.9075 342.624 99.1475 343.328 99.1635 344.208C99.1635 344.976 98.9475 345.664 98.5155 346.272C98.0995 346.88 97.4915 347.36 96.6915 347.712C95.9075 348.048 94.9875 348.216 93.9315 348.216ZM114.642 334.704L106.41 354.288H102.834L105.714 347.664L100.386 334.704H104.154L107.586 343.992L111.066 334.704H114.642ZM115.589 341.304C115.589 339.96 115.853 338.768 116.381 337.728C116.925 336.688 117.653 335.888 118.565 335.328C119.493 334.768 120.525 334.488 121.661 334.488C122.653 334.488 123.517 334.688 124.253 335.088C125.005 335.488 125.605 335.992 126.053 336.6V334.704H129.437V348H126.053V346.056C125.621 346.68 125.021 347.2 124.253 347.616C123.501 348.016 122.629 348.216 121.637 348.216C120.517 348.216 119.493 347.928 118.565 347.352C117.653 346.776 116.925 345.968 116.381 344.928C115.853 343.872 115.589 342.664 115.589 341.304ZM126.053 341.352C126.053 340.536 125.893 339.84 125.573 339.264C125.253 338.672 124.821 338.224 124.277 337.92C123.733 337.6 123.149 337.44 122.525 337.44C121.901 337.44 121.325 337.592 120.797 337.896C120.269 338.2 119.837 338.648 119.501 339.24C119.181 339.816 119.021 340.504 119.021 341.304C119.021 342.104 119.181 342.808 119.501 343.416C119.837 344.008 120.269 344.464 120.797 344.784C121.341 345.104 121.917 345.264 122.525 345.264C123.149 345.264 123.733 345.112 124.277 344.808C124.821 344.488 125.253 344.04 125.573 343.464C125.893 342.872 126.053 342.168 126.053 341.352ZM136.079 336.768C136.511 336.064 137.071 335.512 137.759 335.112C138.463 334.712 139.263 334.512 140.159 334.512V338.04H139.271C138.215 338.04 137.415 338.288 136.871 338.784C136.343 339.28 136.079 340.144 136.079 341.376V348H132.719V334.704H136.079V336.768ZM141.558 341.304C141.558 339.96 141.822 338.768 142.35 337.728C142.894 336.688 143.622 335.888 144.534 335.328C145.462 334.768 146.494 334.488 147.63 334.488C148.622 334.488 149.486 334.688 150.222 335.088C150.974 335.488 151.574 335.992 152.022 336.6V334.704H155.406V348H152.022V346.056C151.59 346.68 150.99 347.2 150.222 347.616C149.47 348.016 148.598 348.216 147.606 348.216C146.486 348.216 145.462 347.928 144.534 347.352C143.622 346.776 142.894 345.968 142.35 344.928C141.822 343.872 141.558 342.664 141.558 341.304ZM152.022 341.352C152.022 340.536 151.862 339.84 151.542 339.264C151.222 338.672 150.79 338.224 150.246 337.92C149.702 337.6 149.118 337.44 148.494 337.44C147.87 337.44 147.294 337.592 146.766 337.896C146.238 338.2 145.806 338.648 145.47 339.24C145.15 339.816 144.99 340.504 144.99 341.304C144.99 342.104 145.15 342.808 145.47 343.416C145.806 344.008 146.238 344.464 146.766 344.784C147.31 345.104 147.886 345.264 148.494 345.264C149.118 345.264 149.702 345.112 150.246 344.808C150.79 344.488 151.222 344.04 151.542 343.464C151.862 342.872 152.022 342.168 152.022 341.352ZM162.599 337.464V343.896C162.599 344.344 162.703 344.672 162.911 344.88C163.135 345.072 163.503 345.168 164.015 345.168H165.575V348H163.463C160.631 348 159.215 346.624 159.215 343.872V337.464H157.631V334.704H159.215V331.416H162.599V334.704H165.575V337.464H162.599ZM167.128 341.304C167.128 339.96 167.392 338.768 167.92 337.728C168.464 336.688 169.192 335.888 170.104 335.328C171.032 334.768 172.064 334.488 173.2 334.488C174.192 334.488 175.056 334.688 175.792 335.088C176.544 335.488 177.144 335.992 177.592 336.6V334.704H180.976V348H177.592V346.056C177.16 346.68 176.56 347.2 175.792 347.616C175.04 348.016 174.168 348.216 173.176 348.216C172.056 348.216 171.032 347.928 170.104 347.352C169.192 346.776 168.464 345.968 167.92 344.928C167.392 343.872 167.128 342.664 167.128 341.304ZM177.592 341.352C177.592 340.536 177.432 339.84 177.112 339.264C176.792 338.672 176.36 338.224 175.816 337.92C175.272 337.6 174.688 337.44 174.064 337.44C173.44 337.44 172.864 337.592 172.336 337.896C171.808 338.2 171.376 338.648 171.04 339.24C170.72 339.816 170.56 340.504 170.56 341.304C170.56 342.104 170.72 342.808 171.04 343.416C171.376 344.008 171.808 344.464 172.336 344.784C172.88 345.104 173.456 345.264 174.064 345.264C174.688 345.264 175.272 345.112 175.816 344.808C176.36 344.488 176.792 344.04 177.112 343.464C177.432 342.872 177.592 342.168 177.592 341.352ZM191.626 334.512C193.21 334.512 194.49 335.016 195.466 336.024C196.442 337.016 196.93 338.408 196.93 340.2V348H193.57V340.656C193.57 339.6 193.306 338.792 192.778 338.232C192.25 337.656 191.53 337.368 190.618 337.368C189.69 337.368 188.954 337.656 188.41 338.232C187.882 338.792 187.618 339.6 187.618 340.656V348H184.258V334.704H187.618V336.36C188.066 335.784 188.634 335.336 189.322 335.016C190.026 334.68 190.794 334.512 191.626 334.512ZM218.06 336.432C218.06 337.328 217.844 338.168 217.411 338.952C216.996 339.736 216.332 340.368 215.42 340.848C214.524 341.328 213.388 341.568 212.012 341.568H209.204V348H205.844V331.248H212.012C213.308 331.248 214.412 331.472 215.324 331.92C216.236 332.368 216.916 332.984 217.364 333.768C217.828 334.552 218.06 335.44 218.06 336.432ZM211.868 338.856C212.796 338.856 213.484 338.648 213.932 338.232C214.38 337.8 214.604 337.2 214.604 336.432C214.604 334.8 213.692 333.984 211.868 333.984H209.204V338.856H211.868ZM232.805 341.064C232.805 341.544 232.773 341.976 232.709 342.36H222.989C223.069 343.32 223.405 344.072 223.997 344.616C224.589 345.16 225.317 345.432 226.181 345.432C227.429 345.432 228.317 344.896 228.845 343.824H232.469C232.085 345.104 231.349 346.16 230.261 346.992C229.173 347.808 227.837 348.216 226.253 348.216C224.973 348.216 223.821 347.936 222.797 347.376C221.789 346.8 220.997 345.992 220.421 344.952C219.861 343.912 219.581 342.712 219.581 341.352C219.581 339.976 219.861 338.768 220.421 337.728C220.981 336.688 221.765 335.888 222.773 335.328C223.781 334.768 224.941 334.488 226.253 334.488C227.517 334.488 228.645 334.76 229.637 335.304C230.645 335.848 231.421 336.624 231.965 337.632C232.525 338.624 232.805 339.768 232.805 341.064ZM229.325 340.104C229.309 339.24 228.997 338.552 228.389 338.04C227.781 337.512 227.037 337.248 226.157 337.248C225.325 337.248 224.621 337.504 224.045 338.016C223.485 338.512 223.141 339.208 223.013 340.104H229.325ZM239.17 337.464V343.896C239.17 344.344 239.274 344.672 239.482 344.88C239.706 345.072 240.074 345.168 240.586 345.168H242.146V348H240.034C237.202 348 235.786 346.624 235.786 343.872V337.464H234.202V334.704H235.786V331.416H239.17V334.704H242.146V337.464H239.17ZM264.177 331.248V348H260.817V340.872H253.641V348H250.281V331.248H253.641V338.136H260.817V331.248H264.177ZM273.388 348.216C272.108 348.216 270.956 347.936 269.932 347.376C268.908 346.8 268.1 345.992 267.508 344.952C266.932 343.912 266.644 342.712 266.644 341.352C266.644 339.992 266.94 338.792 267.532 337.752C268.14 336.712 268.964 335.912 270.004 335.352C271.044 334.776 272.204 334.488 273.484 334.488C274.764 334.488 275.924 334.776 276.964 335.352C278.004 335.912 278.82 336.712 279.412 337.752C280.02 338.792 280.324 339.992 280.324 341.352C280.324 342.712 280.012 343.912 279.388 344.952C278.78 345.992 277.948 346.8 276.892 347.376C275.852 347.936 274.684 348.216 273.388 348.216ZM273.388 345.288C273.996 345.288 274.564 345.144 275.092 344.856C275.636 344.552 276.068 344.104 276.388 343.512C276.708 342.92 276.868 342.2 276.868 341.352C276.868 340.088 276.532 339.12 275.86 338.448C275.204 337.76 274.396 337.416 273.436 337.416C272.476 337.416 271.668 337.76 271.012 338.448C270.372 339.12 270.052 340.088 270.052 341.352C270.052 342.616 270.364 343.592 270.988 344.28C271.628 344.952 272.428 345.288 273.388 345.288ZM286.701 337.464V343.896C286.701 344.344 286.805 344.672 287.013 344.88C287.237 345.072 287.605 345.168 288.117 345.168H289.677V348H287.565C284.733 348 283.317 346.624 283.317 343.872V337.464H281.733V334.704H283.317V331.416H286.701V334.704H289.677V337.464H286.701ZM304.454 341.064C304.454 341.544 304.422 341.976 304.358 342.36H294.638C294.718 343.32 295.054 344.072 295.646 344.616C296.238 345.16 296.966 345.432 297.83 345.432C299.078 345.432 299.966 344.896 300.494 343.824H304.118C303.734 345.104 302.998 346.16 301.91 346.992C300.822 347.808 299.486 348.216 297.902 348.216C296.622 348.216 295.47 347.936 294.446 347.376C293.438 346.8 292.646 345.992 292.07 344.952C291.51 343.912 291.229 342.712 291.229 341.352C291.229 339.976 291.51 338.768 292.07 337.728C292.63 336.688 293.414 335.888 294.422 335.328C295.43 334.768 296.59 334.488 297.902 334.488C299.166 334.488 300.294 334.76 301.286 335.304C302.294 335.848 303.07 336.624 303.614 337.632C304.174 338.624 304.454 339.768 304.454 341.064ZM300.974 340.104C300.958 339.24 300.646 338.552 300.038 338.04C299.43 337.512 298.686 337.248 297.806 337.248C296.974 337.248 296.27 337.504 295.694 338.016C295.134 338.512 294.79 339.208 294.662 340.104H300.974ZM310.266 330.24V348H306.906V330.24H310.266Z" fill="#FDFDFD"/>
</svg>
